<svg width="48" height="52" viewBox="0 0 48 52" fill="none" xmlns="http://www.w3.org/2000/svg">
<g filter="url(#filter0_f_859_1309)">
<path d="M32.8233 4.53115C33.6035 4.92885 34.3524 5.36252 35.1077 5.80522C36.0266 6.22435 36.9562 6.60853 37.8886 6.99705C37.8886 7.52146 37.8886 8.04586 37.8886 8.58615C37.6571 8.67424 37.4257 8.76232 37.1872 8.85307C34.5324 10.0052 32.7612 11.5532 30.8172 13.6402C28.7991 15.7952 27.3287 16.64 24.3812 16.929C23.6392 19.1087 23.493 20.9899 23.5867 23.2854C23.9062 22.9576 24.2258 22.6299 24.555 22.2922C25.8738 21.2123 26.9321 20.9576 28.624 21.0522C30.3611 21.5172 31.651 22.6647 32.724 24.0799C33.0096 25.1678 33.0096 25.1678 33.1213 26.0663C33.3343 25.9352 33.5474 25.8041 33.7669 25.669C34.9773 25.1594 35.7911 25.1089 37.0941 25.2717C38.0376 25.967 38.0376 25.967 38.6832 26.8609C38.6832 27.3853 38.6832 27.9097 38.6832 28.45C39.3223 28.3885 39.3223 28.3885 39.9743 28.3258C41.4641 28.45 41.4641 28.45 42.4325 29.2693C43.2337 30.7757 43.3072 31.5239 43.0532 33.2173C40.98 38.4801 36.3491 43.0649 31.3087 45.4832C25.9538 47.7138 20.8032 47.5117 15.2439 45.9301C10.7827 44.0876 7.79194 41.2615 5.31197 37.19C5.06616 36.8541 4.82035 36.5181 4.56708 36.172C3.8819 34.6875 3.93606 33.6559 4.12015 32.0254C4.76572 31.2309 4.76572 31.2309 5.70925 30.8336C7.0004 30.7591 7.0004 30.7591 8.09291 30.8336C7.96181 30.5714 7.8307 30.3092 7.69563 30.0391C7.61493 29.2212 7.61493 29.2212 7.59631 28.2761C7.58607 27.9653 7.57583 27.6544 7.56527 27.3342C7.69563 26.4636 7.69563 26.4636 8.2093 25.7606C9.30993 24.9672 10.3585 25.1765 11.6684 25.2717C11.9306 25.4029 12.1928 25.534 12.4629 25.669C12.422 25.2511 12.381 24.8333 12.3388 24.4027C12.4629 22.8881 12.4629 22.8881 13.3816 21.7459C15.032 20.441 16.3526 20.263 18.4221 20.5044C19.7222 21.3395 20.9028 22.2876 21.6003 23.6826C21.6748 25.0731 21.6748 25.0731 21.6003 26.4636C20.5279 27.536 19.3556 27.649 17.9255 27.9782C14.8052 28.7578 14.8052 28.7578 12.4629 30.8336C11.8047 32.042 11.2007 33.2578 10.6333 34.5115C10.126 35.509 9.68091 36.0373 8.88746 36.7928C8.75636 37.1861 8.62526 37.5794 8.49018 37.9846C10.3963 37.0727 11.0508 35.9983 11.9912 34.136C12.1149 33.895 12.2385 33.6541 12.366 33.4058C12.668 32.8157 12.9634 32.2223 13.2575 31.6282C13.3886 31.6282 13.5197 31.6282 13.6548 31.6282C13.7314 33.5445 13.5584 35.0036 12.8602 36.7928C14.0538 36.1065 14.4076 35.7353 14.8233 34.3967C14.9455 33.7146 14.9455 33.7145 15.0701 33.0186C15.4999 30.6477 15.4999 30.6477 16.1191 29.7209C17.1271 29.0482 18.113 28.8401 19.2911 28.5741C19.9387 28.4243 19.9387 28.4243 20.5993 28.2715C20.9297 28.1993 21.26 28.1271 21.6003 28.0527C21.7417 31.588 21.7417 31.588 20.8057 33.2173C20.1165 33.6156 19.4102 33.9848 18.6952 34.3346C16.3668 35.4912 15.3536 36.762 14.4493 39.1764C14.3063 39.7033 14.1702 40.2325 14.052 40.7655C15.2277 39.6709 16.0531 38.5939 16.833 37.19C17.2263 37.5833 17.2263 37.5833 17.6275 37.9846C17.6145 39.0686 17.4035 40.0888 17.2303 41.1628C17.6236 41.1628 18.0169 41.1628 18.4221 41.1628C18.4374 40.6243 18.4374 40.6243 18.4531 40.0749C18.4869 39.3721 18.4869 39.3721 18.5214 38.655C18.5398 38.1895 18.5583 37.724 18.5773 37.2443C18.8194 35.9982 18.8194 35.9982 19.5829 35.2362C20.4085 34.8064 20.4085 34.8064 21.203 34.8064C21.1465 35.8079 21.0883 36.8094 21.0292 37.8108C21.0136 38.0906 20.998 38.3705 20.9819 38.6589C20.8752 40.4397 20.6841 42.181 20.4085 43.9437C21.3452 43.5888 21.3452 43.5888 21.65 42.3298C21.7647 41.9447 21.8794 41.5596 21.9976 41.1628C22.7673 41.4608 22.7673 41.4608 23.5867 41.9573C23.8846 42.8016 23.8846 42.8016 23.9839 43.5464C24.2462 43.5464 24.5084 43.5464 24.7785 43.5464C24.4171 41.6946 24.4171 41.6947 23.3679 40.2146C22.5407 39.2938 22.6333 38.6064 22.6431 37.3887C22.6385 36.8172 22.6385 36.8172 22.6338 36.2341C22.7921 35.2036 22.7921 35.2037 23.3182 34.4758C24.3139 33.7819 25.1892 33.9333 26.3676 34.0118C26.3676 34.4051 26.3676 34.7984 26.3676 35.2037C25.9743 35.4659 25.581 35.7281 25.1758 35.9982C24.8844 37.2161 24.8844 37.2161 24.7785 38.3819C24.9757 38.1719 25.1728 37.9619 25.376 37.7456C27.5541 35.6047 27.5541 35.6047 28.787 35.5932C29.5458 35.8244 29.5458 35.8244 30.7376 36.3955C30.8512 39.3467 30.8512 39.3467 29.9431 40.7655C30.3364 40.6344 30.7297 40.5033 31.1349 40.3682C31.4241 39.5685 31.4241 39.5685 31.6067 38.6302C32.1068 36.9389 32.1068 36.9389 33.0809 36.2915C34.171 35.8881 35.1336 35.6009 36.2995 35.6009C36.2995 35.2076 36.2995 34.8143 36.2995 34.4091C36.0737 34.4711 35.8478 34.533 35.6151 34.5969C33.5915 35.107 32.0014 35.3677 29.9431 34.8064C29.4218 34.4796 28.909 34.1392 28.4036 33.7884C26.6788 32.6114 25.2221 32.6083 23.1894 32.82C23.1894 31.7712 23.1894 30.7224 23.1894 29.6418C26.6482 28.6452 26.6482 28.6452 28.354 29.2445C28.6654 29.4494 28.9767 29.6542 29.2975 29.8653C30.6481 30.6048 31.6039 30.5795 33.1213 30.4363C33.3835 30.1741 33.6457 29.9119 33.9158 29.6418C33.4324 29.609 32.949 29.5762 32.4509 29.5425C30.7907 29.3441 30.031 28.7331 28.7513 27.6554C26.8147 27.0959 25.1474 27.3516 23.1894 27.6554C23.1402 27.344 23.0911 27.0327 23.0404 26.7119C22.8751 25.6132 22.8751 25.6132 21.9976 24.8745C21.9069 23.9252 21.8548 22.9721 21.8238 22.0191C21.6807 18.3677 21.6807 18.3677 19.6651 15.4376C19.1041 14.961 18.5402 14.4876 17.9736 14.0177C16.0536 12.3021 15.9158 10.3511 15.7405 7.92972C15.626 6.8552 15.3293 5.97598 14.8466 5.01067C16.3478 5.23571 17.3817 5.63821 18.6456 6.47563C19.0888 6.76062 19.0888 6.76062 19.541 7.05137C21.1125 8.39233 22.0403 9.7315 22.2397 11.7985C22.2657 12.3662 22.2842 12.9343 22.2955 13.5024C22.3073 13.7949 22.3191 14.0873 22.3312 14.3886C22.359 15.1027 22.3779 15.8172 22.3948 16.5317C23.2913 15.6352 22.9533 13.2436 22.9977 11.9715C23.1058 9.62136 23.3378 7.74525 24.9275 5.90454C27.2104 3.94772 29.9411 3.51534 32.8233 4.53115Z" fill="#6AAB4B"/>
<path d="M21.6003 18.915C21.7314 18.915 21.8625 18.915 21.9976 18.915C22.0171 19.3406 22.0365 19.7662 22.0566 20.2046C22.0864 20.7597 22.1164 21.3147 22.1466 21.8698C22.1589 22.1507 22.1712 22.4316 22.1838 22.721C22.2252 23.441 22.3072 24.1584 22.3949 24.8742C22.6571 25.0053 22.9193 25.1364 23.1894 25.2715C23.1894 26.0581 23.1894 26.8447 23.1894 27.6551C23.6647 27.5158 24.1399 27.3765 24.6296 27.233C26.1402 26.8627 27.2369 26.7867 28.7513 27.2578C29.0627 27.52 29.374 27.7822 29.6948 28.0524C31.1179 29.1366 32.1486 29.1244 33.9159 29.2442C33.9159 29.6375 33.9159 30.0308 33.9159 30.436C32.6806 31.0537 31.706 30.9471 30.3404 30.8333C29.9881 30.5629 29.6357 30.2925 29.2727 30.0139C27.2709 28.8431 25.4195 29.3095 23.1894 29.6415C23.1894 30.6903 23.1894 31.7391 23.1894 32.8197C23.4517 32.6886 23.7139 32.5575 23.984 32.4224C26.0315 32.1238 26.8948 32.4415 28.5775 33.6391C31.0823 35.2922 33.4458 34.8611 36.2996 34.4088C36.2996 34.8021 36.2996 35.1954 36.2996 35.6006C35.8832 35.7174 35.8832 35.7174 35.4585 35.8365C34.3298 36.2074 33.3454 36.5752 32.3268 37.1897C31.8068 38.2508 31.7233 39.1832 31.5322 40.3679C30.688 40.9639 30.688 40.9639 29.9431 41.1625C29.9431 40.051 30.0909 39.1844 30.3404 38.1084C30.451 37.6268 30.451 37.6268 30.5639 37.1354C30.6212 36.8911 30.6786 36.6469 30.7377 36.3952C29.444 36.0207 29.444 36.0207 27.9568 35.9979C26.8476 36.9084 26.8476 36.9084 25.9704 37.9843C25.5771 38.1154 25.1838 38.2465 24.7786 38.3816C24.7786 37.595 24.7786 36.8084 24.7786 35.9979C25.303 35.7357 25.8274 35.4735 26.3677 35.2034C26.3677 34.8101 26.3677 34.4168 26.3677 34.0115C24.6465 34.3534 24.6465 34.3534 23.1894 35.2034C23.0415 36.6705 23.0235 38.1077 23.1894 39.5734C23.9426 40.4926 23.9426 40.4926 24.7786 41.1625C24.8779 42.4536 24.8779 42.4536 24.7786 43.5462C24.5164 43.5462 24.2541 43.5462 23.984 43.5462C23.9225 43.1651 23.9225 43.1651 23.8599 42.7764C23.7697 42.506 23.6796 42.2356 23.5867 41.9571C23.1934 41.826 22.8001 41.6948 22.3949 41.5598C22.0016 42.3464 21.6083 43.133 21.2031 43.9434C20.9409 43.9434 20.6787 43.9434 20.4085 43.9434C20.4648 42.8674 20.523 41.7915 20.5823 40.7156C20.5979 40.4134 20.6136 40.1113 20.6297 39.8C20.7244 38.1094 20.8862 36.4732 21.2031 34.8061C20.1525 35.089 20.1525 35.089 19.2167 35.9979C18.9879 37.1332 18.9183 38.2196 18.8753 39.3763C18.8194 40.3679 18.8194 40.3679 18.4221 41.1625C18.0288 41.1625 17.6355 41.1625 17.2303 41.1625C17.2432 40.3478 17.2562 39.533 17.2691 38.7183C17.312 37.9774 17.312 37.9774 16.833 37.587C16.6989 37.8164 16.5647 38.0459 16.4264 38.2822C16.2493 38.5772 16.0721 38.8722 15.8895 39.1761C15.7144 39.4711 15.5392 39.7661 15.3588 40.07C15.1898 40.2994 15.0208 40.5288 14.8467 40.7652C14.5844 40.7652 14.3222 40.7652 14.0521 40.7652C14.1746 38.3756 15.2167 36.5222 16.833 34.8061C17.8604 34.2893 17.8604 34.2893 18.9436 33.8626C19.9853 33.4708 19.9853 33.4708 20.8058 32.8197C21.2689 31.3466 21.2944 29.9833 21.2031 28.4497C20.8968 28.5357 20.5906 28.6217 20.2751 28.7104C19.8766 28.821 19.4782 28.9316 19.0677 29.0456C18.6713 29.1562 18.275 29.2668 17.8666 29.3808C16.833 29.6415 16.833 29.6415 16.0385 29.6415C15.9663 30.0578 15.8941 30.4742 15.8197 30.9032C15.719 31.451 15.6182 31.9988 15.5171 32.5466C15.4702 32.8208 15.4233 33.095 15.3751 33.3776C15.1577 34.5312 14.9684 35.4378 14.2585 36.3874C13.6548 36.7925 13.6548 36.7925 12.8603 36.7925C12.9914 35.2192 13.1225 33.646 13.2575 32.0251C13.0993 32.3555 12.9411 32.6858 12.778 33.0261C12.5675 33.4578 12.3571 33.8895 12.1402 34.3343C11.9328 34.763 11.7254 35.1916 11.5117 35.6332C10.9656 36.6258 10.582 37.3111 9.68206 37.9843C9.28876 37.9843 8.89546 37.9843 8.49023 37.9843C8.64828 36.9175 8.88849 36.394 9.58274 35.551C10.4006 34.506 10.8707 33.617 11.4201 32.4224C12.2836 30.6903 13.0522 29.3029 14.8467 28.4497C16.4037 27.9642 17.9601 27.5496 19.5472 27.1771C20.7437 26.9907 20.7437 26.9907 21.2031 26.4633C21.2651 25.9018 21.3026 25.3376 21.3288 24.7733C21.3537 24.2644 21.3537 24.2644 21.3792 23.7452C21.3948 23.3885 21.4104 23.0318 21.4265 22.6643C21.4523 22.127 21.4523 22.127 21.4785 21.5788C21.5208 20.6909 21.5613 19.803 21.6003 18.915Z" fill="#835F34"/>
<path d="M32.8237 4.53115C33.6038 4.92885 34.3527 5.36252 35.108 5.80522C36.0269 6.22435 36.9565 6.60853 37.8889 6.99705C37.8889 7.52146 37.8889 8.04586 37.8889 8.58615C37.6574 8.67424 37.426 8.76232 37.1875 8.85307C34.5327 10.0052 32.7615 11.5532 30.8175 13.6402C29.2035 15.3638 28.0558 16.4877 25.6479 16.6062C25.23 16.5816 24.8121 16.557 24.3815 16.5317C25.2252 13.2415 27.1843 10.5234 29.9434 8.58615C30.6007 8.30963 31.2623 8.04262 31.9298 7.7916C28.1573 8.94537 26.174 10.7704 24.2077 14.148C24.0029 14.5413 23.798 14.9346 23.587 15.3398C23.4559 15.3398 23.3248 15.3398 23.1897 15.3398C23.1681 14.3962 23.1524 13.453 23.14 12.5093C23.1334 12.245 23.1267 11.9808 23.1199 11.7085C23.097 9.37227 23.3857 7.69017 24.9278 5.90454C27.2107 3.94772 29.9414 3.51534 32.8237 4.53115Z" fill="#5FCE0D"/>
<path d="M18.4221 20.5047C19.7223 21.3397 20.9028 22.2878 21.6003 23.6829C21.6748 25.0733 21.6748 25.0733 21.6003 26.4638C20.5283 27.5358 19.3557 27.6503 17.9255 27.9784C15.0214 28.7003 13.4118 29.4107 11.7181 31.9512C11.5706 32.238 11.4231 32.5247 11.2712 32.8202C11.0407 32.7777 10.8103 32.7352 10.5728 32.6914C8.43806 32.3638 7.18038 32.3692 5.31202 33.6148C4.59075 34.2349 4.59075 34.2349 4.12019 34.8066C3.92764 32.2553 3.92764 32.2553 4.76576 31.2559C5.93189 30.7343 6.82907 30.7477 8.09295 30.8338C7.96185 30.5716 7.83075 30.3094 7.69567 30.0393C7.61498 29.2215 7.61498 29.2215 7.59636 28.2764C7.58611 27.9655 7.57587 27.6547 7.56532 27.3344C7.69567 26.4638 7.69567 26.4638 8.20934 25.7608C9.30997 24.9675 10.3586 25.1767 11.6684 25.272C11.9306 25.4031 12.1928 25.5342 12.463 25.6693C12.422 25.2514 12.3811 24.8335 12.3388 24.4029C12.463 22.8883 12.463 22.8883 13.3817 21.7461C15.032 20.4412 16.3526 20.2632 18.4221 20.5047Z" fill="#6AAB4B"/>
<path d="M14.8467 5.01074C16.3478 5.23578 17.3818 5.63828 18.6456 6.4757C18.9411 6.66569 19.2366 6.85569 19.5411 7.05144C21.1948 8.46256 22.0531 9.80687 22.2397 11.9724C22.2658 12.6146 22.2843 13.2572 22.2956 13.8998C22.3074 14.2301 22.3192 14.5604 22.3313 14.9007C22.3592 15.7091 22.378 16.5177 22.3949 17.3263C22.0016 17.4574 21.6083 17.5885 21.2031 17.7236C21.0638 17.445 20.9245 17.1664 20.781 16.8794C20.0893 15.853 19.5647 15.3265 18.6208 14.5702C17.0556 13.2658 16.1875 12.0848 15.9097 10.0062C15.8472 9.31457 15.7907 8.6224 15.7406 7.92979C15.6261 6.85528 15.3293 5.97605 14.8467 5.01074Z" fill="#5FCE0D"/>
<path d="M34.3134 7.39413C34.3134 7.52523 34.3134 7.65633 34.3134 7.7914C34.0302 7.84978 33.747 7.90816 33.4552 7.96831C30.3007 8.70707 28.4089 9.6147 26.52 12.2701C24.1042 16.2724 23.1227 21.0454 22.7924 25.6688C21.8234 24.6998 21.884 24.3918 21.8334 23.0586C21.818 22.7027 21.8026 22.3468 21.7868 21.9801C21.7745 21.6077 21.7622 21.2354 21.7496 20.8519C21.7342 20.4765 21.7188 20.1011 21.703 19.7143C21.6655 18.7859 21.6315 17.8574 21.6006 16.9288C21.8628 17.0599 22.125 17.191 22.3951 17.326C22.5636 16.9568 22.7321 16.5876 22.9057 16.2071C24.6154 12.559 26.1138 9.69398 29.9682 8.01487C31.4584 7.48024 32.7167 7.22605 34.3134 7.39413Z" fill="#4C8B06"/>
<path d="M29.5461 21.299C31.1282 22.1791 32.4445 23.2056 33.0098 24.9723C33.1215 25.8429 33.1215 25.8429 33.1215 27.2581C32.466 27.3893 31.8105 27.5204 31.1352 27.6554C31.3974 27.131 31.6596 26.6066 31.9297 26.0663C30.3953 24.5702 29.335 23.8066 27.1764 23.6485C25.8837 23.7031 24.8041 24.0461 23.5869 24.4772C23.71 23.3287 24.0008 22.8695 24.7787 21.9942C26.4209 21.0363 27.6924 20.8471 29.5461 21.299Z" fill="#6AAB4B"/>
<path d="M35.9022 25.0977C37.094 25.2715 37.094 25.2715 38.2859 26.066C38.3604 27.5061 38.3604 27.5061 38.2859 28.8469C38.6792 28.9781 39.0725 29.1092 39.4777 29.2442C38.5838 29.3435 38.5838 29.3435 37.4913 29.2442C36.9616 28.7145 36.4319 28.1848 35.9022 27.6551C34.6529 27.336 34.6529 27.336 33.5186 27.2578C34.3915 25.318 34.3915 25.318 35.9022 25.0977Z" fill="#6AAB4B"/>
<path d="M22.7924 10.1748C22.9235 10.1748 23.0546 10.1748 23.1896 10.1748C23.2111 11.135 23.2269 12.0947 23.2393 13.0551C23.246 13.326 23.2526 13.5969 23.2595 13.876C23.2739 15.3636 23.2212 16.4611 22.3951 17.7231C21.9516 16.3926 21.9312 15.3492 21.9233 13.9489C21.9177 13.4942 21.9121 13.0394 21.9062 12.5709C21.9978 11.3666 21.9978 11.3666 22.7924 10.1748Z" fill="#4C8B06"/>
<path d="M40.2725 29.6416C41.0591 30.0349 41.0591 30.0349 41.8616 30.4362C42.1238 30.174 42.386 29.9117 42.6561 29.6416C42.9044 30.3617 42.9044 30.3617 43.0534 31.2307C42.6601 31.8207 42.6601 31.8207 42.2588 32.4225C41.6033 31.5048 40.9478 30.5871 40.2725 29.6416Z" fill="#6AAB4B"/>
<path d="M39.8755 28.8467C40.531 28.8467 41.1865 28.8467 41.8619 28.8467C41.993 29.5022 42.1241 30.1577 42.2591 30.8331C41.4725 30.4398 40.6859 30.0465 39.8755 29.6412C39.8755 29.379 39.8755 29.1168 39.8755 28.8467Z" fill="#6AAB4B"/>
</g>
<path d="M24.0001 16.3203C21.08 16.3203 18.7201 18.6802 18.7201 21.6003V23.8003H16.9601C16.2125 23.8003 15.6401 24.3727 15.6401 25.1203V35.6803C15.6401 36.428 16.2125 37.0003 16.9601 37.0003H31.0401C31.7878 37.0003 32.3601 36.428 32.3601 35.6803V25.1203C32.3601 24.3727 31.7878 23.8003 31.0401 23.8003H29.2801V21.6003C29.2801 18.6802 26.9203 16.3203 24.0001 16.3203ZM24.0001 17.2003C26.4494 17.2003 28.4001 19.1511 28.4001 21.6003V23.8003H19.6001V21.6003C19.6001 19.1511 21.5509 17.2003 24.0001 17.2003ZM24.0001 28.2003C24.7478 28.2003 25.3201 28.7727 25.3201 29.5203C25.3201 29.9156 25.1448 30.2628 24.8801 30.4828V31.7203C24.8801 32.205 24.4848 32.6003 24.0001 32.6003C23.5154 32.6003 23.1201 32.205 23.1201 31.7203V30.4828C22.8554 30.2628 22.6801 29.9156 22.6801 29.5203C22.6801 28.7727 23.2525 28.2003 24.0001 28.2003Z" fill="#D3FFF9"/>
<defs>
<filter id="filter0_f_859_1309" x="0" y="0" width="47.1831" height="51.1377" filterUnits="userSpaceOnUse" color-interpolation-filters="sRGB">
<feFlood flood-opacity="0" result="BackgroundImageFix"/>
<feBlend mode="normal" in="SourceGraphic" in2="BackgroundImageFix" result="shape"/>
<feGaussianBlur stdDeviation="2" result="effect1_foregroundBlur_859_1309"/>
</filter>
</defs>
</svg>
