<svg width="54" height="49" viewBox="0 0 54 49" fill="none" xmlns="http://www.w3.org/2000/svg">
<g filter="url(#filter0_f_859_1307)">
<path d="M31.7344 4.00308C32.0745 4.00705 32.4146 4.01102 32.765 4.01512C33.0154 4.02023 33.2657 4.02534 33.5237 4.0306C34.2575 7.2506 34.63 10.4266 34.8451 13.7204C35.3824 13.7928 35.3824 13.7928 35.9307 13.8667C38.9806 14.2886 42.0222 14.7482 45.0579 15.262C45.3795 15.3141 45.7011 15.3662 46.0325 15.4199C47.5615 15.6846 48.5098 15.93 49.8202 16.8035C49.579 20.3789 49.1381 23.8662 48.5006 27.3915C48.4153 27.8707 48.3301 28.3499 48.2422 28.8437C48.0632 29.8454 47.8829 30.8469 47.7013 31.8482C47.4234 33.3859 47.1519 34.9247 46.8808 36.4636C46.7054 37.4404 46.5296 38.417 46.3534 39.3936C46.2727 39.8542 46.1919 40.3148 46.1087 40.7893C46.0308 41.2131 45.9529 41.6369 45.8727 42.0735C45.8055 42.4468 45.7384 42.8202 45.6692 43.2048C45.4158 44.1112 45.4158 44.1112 44.5349 44.9921C43.6497 45.0093 43.6497 45.0093 42.5696 44.8759C42.1736 44.8274 41.7776 44.7789 41.3695 44.729C39.3916 44.446 37.4243 44.1208 35.4576 43.7688C35.0301 43.6933 34.6027 43.6178 34.1623 43.5401C33.2665 43.3813 32.3708 43.2218 31.4753 43.0614C30.1083 42.8171 28.7407 42.5766 27.373 42.3365C26.4983 42.1811 25.6237 42.0254 24.7492 41.8694C24.3431 41.7983 23.937 41.7271 23.5186 41.6538C21.5016 41.2896 19.5965 40.8639 17.6676 40.1472C17.6676 39.1298 17.6676 38.1123 17.6676 37.0641C17.2197 37.1595 17.2197 37.1595 16.7627 37.2568C13.9402 37.8197 11.2935 38.0572 8.41827 37.945C7.66808 36.6103 7.36206 35.4716 7.16135 33.9576C7.07099 33.2935 7.07099 33.2935 6.97881 32.6159C6.91729 32.1392 6.85578 31.6625 6.79241 31.1714C6.72627 30.677 6.66012 30.1826 6.59198 29.6733C6.45246 28.6261 6.31447 27.5787 6.17787 26.5311C5.97043 24.9407 5.75861 23.3509 5.54591 21.7612C5.41059 20.7412 5.27553 19.7213 5.14073 18.7013C5.07833 18.2308 5.01593 17.7604 4.95163 17.2757C4.77851 15.9445 4.61384 14.6128 4.45426 13.28C4.3977 12.8234 4.34114 12.3669 4.28287 11.8965C4.23442 11.46 4.18598 11.0235 4.13607 10.5737C4.09117 10.1832 4.04627 9.79269 4 9.39032C4.01381 8.43507 4.01381 8.43507 4.8947 7.55417C5.79922 7.33416 5.79922 7.33416 6.92693 7.17814C7.349 7.1179 7.77106 7.05766 8.20592 6.9956C8.66378 6.93409 9.12164 6.87258 9.59337 6.8092C10.0638 6.74306 10.5343 6.67692 11.019 6.60877C12.5282 6.39741 14.0381 6.19118 15.548 5.98508C16.5577 5.84463 17.5673 5.70384 18.5769 5.5627C20.8421 5.24661 23.1078 4.93402 25.3738 4.62388C26.3356 4.49058 27.2964 4.35181 28.2571 4.21061C29.4378 4.04745 30.5445 3.98477 31.7344 4.00308Z" fill="#06B6D4"/>
<path d="M35.2852 14.1611C38.5744 14.327 41.7866 14.6766 45.0301 15.2347C45.5151 15.3155 45.5151 15.3155 46.0098 15.3978C47.5395 15.6721 48.5091 15.9299 49.82 16.8038C49.5787 20.3792 49.1378 23.8665 48.5004 27.3917C48.4151 27.871 48.3298 28.3502 48.242 28.844C48.0629 29.8457 47.8826 30.8472 47.7011 31.8485C47.4231 33.3862 47.1516 34.925 46.8805 36.4639C46.7051 37.4406 46.5294 38.4173 46.3532 39.3939C46.2724 39.8545 46.1916 40.3151 46.1084 40.7896C46.0305 41.2134 45.9526 41.6372 45.8724 42.0738C45.8053 42.4471 45.7381 42.8204 45.669 43.2051C45.4155 44.1115 45.4155 44.1115 44.5346 44.9924C43.6494 45.0096 43.6494 45.0096 42.5694 44.8761C42.1734 44.8277 41.7773 44.7792 41.3693 44.7292C39.3914 44.4462 37.424 44.1211 35.4573 43.7691C35.0299 43.6936 34.6024 43.6181 34.1621 43.5403C33.2662 43.3816 32.3705 43.222 31.475 43.0617C30.108 42.8173 28.7404 42.5769 27.3727 42.3368C26.4981 42.1813 25.6235 42.0256 24.7489 41.8697C24.3429 41.7985 23.9368 41.7274 23.5184 41.6541C21.5014 41.2898 19.5963 40.8641 17.6674 40.1475C17.6674 39.13 17.6674 38.1126 17.6674 37.0643C17.3687 37.1279 17.0701 37.1915 16.7624 37.257C13.9399 37.82 11.2933 38.0575 8.41802 37.9452C7.26609 36.2033 7.34217 34.3475 7.26185 32.3295C7.24481 31.9804 7.22778 31.6312 7.21023 31.2714C7.16887 30.4131 7.1323 29.5545 7.09668 28.6959C7.24203 28.6959 7.38737 28.6959 7.53713 28.6959C7.97317 31.3121 8.40921 33.9284 8.85847 36.6239C14.0739 36.4596 19.0554 35.963 24.1985 35.0908C27.2949 34.566 30.3836 34.1272 33.5073 33.8033C34.7624 33.6705 35.8433 33.5016 37.047 33.1003C36.8077 28.8748 36.2921 24.6989 35.7329 20.5055C35.4548 18.3766 35.2003 16.314 35.2852 14.1611Z" fill="#0D819D"/>
<path d="M18.9889 8.46273C20.3054 9.07981 20.586 9.7576 21.1912 11.0779C21.5448 12.3892 21.8248 13.7068 22.072 15.0419C22.0936 14.7342 22.1152 14.4264 22.1374 14.1094C22.1704 13.7085 22.2033 13.3077 22.2372 12.8947C22.2679 12.4961 22.2985 12.0976 22.3301 11.6869C22.5125 10.6374 22.5125 10.6374 23.3934 9.75654C24.6859 9.9181 25.0954 10.1372 26.0361 11.0779C26.1765 11.9056 26.1765 11.9057 26.2184 12.8982C26.244 13.4304 26.244 13.4304 26.27 13.9735C26.2837 14.3442 26.2973 14.715 26.3113 15.097C26.3369 15.6582 26.3369 15.6582 26.363 16.2308C26.4045 17.1556 26.441 18.0808 26.4765 19.0059C26.7428 18.7181 27.0091 18.4302 27.2834 18.1336C28.2383 17.2441 28.2383 17.2441 29.422 17.1065C30.4405 17.2441 30.4405 17.2441 30.881 17.6846C30.6637 20.5419 29.9661 23.1964 29.1742 25.9429C29.0613 26.3534 28.9483 26.7639 28.8319 27.1869C28.7189 27.5826 28.6059 27.9783 28.4895 28.386C28.338 28.9198 28.338 28.9198 28.1835 29.4644C27.7518 30.5761 27.283 31.3406 26.4765 32.2193C25.2868 32.5752 24.2225 32.8239 23.008 33.0176C22.6963 33.0764 22.3846 33.1351 22.0634 33.1957C20.3515 33.4938 18.8799 33.6982 17.2271 33.1002C15.2066 31.1021 14.3337 27.9464 13.3836 25.3442C12.6668 23.4359 11.8316 21.5878 10.9817 19.7354C10.5739 18.4147 10.6761 17.6745 11.0609 16.3632C12.3654 16.6331 12.9903 16.9154 14.144 17.6846C13.9987 17.3757 13.8533 17.0668 13.7036 16.7486C13.2233 15.3678 13.1956 14.2907 13.2631 12.8397C13.9899 12.6943 14.7166 12.549 15.4653 12.3992C16.0467 13.126 16.6281 13.8527 17.2271 14.6014C17.1545 14.3017 17.0818 14.0019 17.0069 13.693C16.751 12.1898 16.6718 10.8379 16.7867 9.31609C18.108 8.4352 18.108 8.4352 18.9889 8.46273Z" fill="#0499B3"/>
<path d="M18.9888 8.46273C20.3052 9.07981 20.5859 9.7576 21.191 11.0779C21.5447 12.3892 21.8247 13.7068 22.0719 15.0419C22.0935 14.7342 22.1151 14.4264 22.1373 14.1094C22.1702 13.7085 22.2032 13.3077 22.2371 12.8947C22.2678 12.4961 22.2984 12.0976 22.33 11.6869C22.5124 10.6374 22.5124 10.6374 23.3933 9.75654C24.2742 9.81159 24.2742 9.81159 25.1551 10.197C26.3677 11.8359 26.0583 13.6142 25.8983 15.5374C25.877 15.8582 25.8557 16.179 25.8338 16.5095C25.6611 18.8747 25.6611 18.8747 25.1551 19.8868C24.4283 19.7415 23.7016 19.5961 22.9528 19.4464C22.9528 18.865 22.9528 18.2836 22.9528 17.6846C22.6621 17.6846 22.3714 17.6846 22.0719 17.6846C21.9266 18.4113 21.7812 19.138 21.6315 19.8868C20.9047 20.0322 20.178 20.1775 19.4292 20.3273C19.1386 19.7459 18.8479 19.1645 18.5484 18.5655C18.2577 19.7282 17.967 20.891 17.6675 22.089C16.0584 21.5386 15.5618 21.3531 14.5843 19.8868C13.7105 17.5579 13.0649 15.3488 13.263 12.8397C13.9897 12.6943 14.7165 12.549 15.4652 12.3992C16.0466 13.126 16.628 13.8527 17.227 14.6014C17.1543 14.3017 17.0817 14.0019 17.0068 13.693C16.7509 12.1898 16.6717 10.8379 16.7866 9.31609C18.1079 8.4352 18.1079 8.4352 18.9888 8.46273Z" fill="#0499B3"/>
<path d="M25.5955 11.959C25.7409 11.959 25.8862 11.959 26.036 11.959C26.0746 13.5188 26.0979 15.0785 26.1186 16.6387C26.1296 17.0787 26.1407 17.5188 26.1521 17.9721C26.1881 21.5934 25.4537 23.4681 23.0423 26.2064C22.1031 27.4963 21.7005 28.955 21.1911 30.4577C20.7506 30.8982 20.7506 30.8982 19.7321 31.0909C18.5484 30.8982 18.5484 30.8982 17.6124 29.742C15.8665 26.5993 14.9406 24.388 15.0248 20.7679C15.8969 21.204 16.769 21.64 17.6675 22.0892C17.7492 21.2308 17.7492 21.2308 17.8327 20.355C17.9256 19.3795 17.9256 19.3795 18.1079 18.5657C18.3986 18.4203 18.6893 18.275 18.9888 18.1252C19.1342 18.852 19.2795 19.5787 19.4293 20.3275C20.2921 20.2777 20.2921 20.2777 21.1911 19.887C21.7621 18.7902 21.7621 18.7902 22.0719 17.6848C22.3626 17.6848 22.6533 17.6848 22.9528 17.6848C23.0982 18.2662 23.2435 18.8476 23.3933 19.4466C23.9747 19.5919 24.5561 19.7373 25.1551 19.887C25.3004 17.2708 25.4458 14.6545 25.5955 11.959Z" fill="#8FEBE5"/>
<path d="M7.09668 28.6953C7.24203 28.6953 7.38737 28.6953 7.53713 28.6953C7.97317 31.3116 8.40921 33.9278 8.85847 36.6233C14.0739 36.4591 19.0554 35.9624 24.1985 35.0903C27.2949 34.5655 30.3836 34.1266 33.5073 33.8027C34.7624 33.6699 35.8433 33.501 37.047 33.0998C37.3377 32.6637 37.6284 32.2277 37.9279 31.7784C37.8178 32.8245 37.8178 32.8245 37.4875 33.9807C35.9849 35.0108 34.3551 35.1141 32.5789 35.333C32.2759 35.3708 31.9728 35.4087 31.6606 35.4477C31.0208 35.5269 30.3807 35.6046 29.7404 35.6807C28.7686 35.7966 27.7975 35.9179 26.8264 36.0401C24.0537 36.3803 21.3476 36.6698 18.5483 36.6233C18.5483 37.4954 18.5483 38.3675 18.5483 39.266C18.4029 39.266 18.2576 39.266 18.1078 39.266C18.1078 38.5393 18.1078 37.8126 18.1078 37.0638C17.7774 37.1274 17.447 37.191 17.1065 37.2565C14.1725 37.7886 11.3982 38.0634 8.41802 37.9447C7.26609 36.2027 7.34217 34.347 7.26185 32.329C7.24481 31.9798 7.22778 31.6306 7.21023 31.2709C7.16887 30.4125 7.1323 29.5539 7.09668 28.6953Z" fill="#0499B3"/>
<path d="M7.09668 28.6953C7.24203 28.6953 7.38737 28.6953 7.53713 28.6953C7.97317 31.3116 8.40921 33.9278 8.85846 36.6233C9.77597 36.6052 10.6935 36.587 11.6388 36.5683C14.4191 36.5132 14.4191 36.5132 15.9056 37.5042C13.392 37.9414 10.9664 37.9908 8.41802 37.9447C7.26609 36.2027 7.34217 34.347 7.26185 32.329C7.24481 31.9798 7.22778 31.6306 7.21023 31.2709C7.16887 30.4125 7.1323 29.5539 7.09668 28.6953Z" fill="#0499B3"/>
<path d="M17.6677 37.0645C17.813 37.0645 17.9584 37.0645 18.1081 37.0645C18.2535 37.7912 18.3988 38.5179 18.5486 39.2667C19.566 39.5574 20.5834 39.8481 21.6317 40.1476C21.6317 40.2929 21.6317 40.4383 21.6317 40.588C18.9219 40.631 18.9219 40.631 18.1081 40.588C17.6677 40.1476 17.6677 40.1476 17.6401 38.5785C17.6492 38.0789 17.6583 37.5792 17.6677 37.0645Z" fill="#0499B3"/>
</g>
<path d="M28.0001 14.3203C25.08 14.3203 22.7201 16.6802 22.7201 19.6003V21.8003H20.9601C20.2125 21.8003 19.6401 22.3727 19.6401 23.1203V33.6803C19.6401 34.428 20.2125 35.0003 20.9601 35.0003H35.0401C35.7878 35.0003 36.3601 34.428 36.3601 33.6803V23.1203C36.3601 22.3727 35.7878 21.8003 35.0401 21.8003H33.2801V19.6003C33.2801 16.6802 30.9203 14.3203 28.0001 14.3203ZM28.0001 15.2003C30.4494 15.2003 32.4001 17.1511 32.4001 19.6003V21.8003H23.6001V19.6003C23.6001 17.1511 25.5509 15.2003 28.0001 15.2003ZM28.0001 26.2003C28.7478 26.2003 29.3201 26.7727 29.3201 27.5203C29.3201 27.9156 29.1448 28.2628 28.8801 28.4828V29.7203C28.8801 30.205 28.4848 30.6003 28.0001 30.6003C27.5154 30.6003 27.1201 30.205 27.1201 29.7203V28.4828C26.8554 28.2628 26.6801 27.9156 26.6801 27.5203C26.6801 26.7727 27.2525 26.2003 28.0001 26.2003Z" fill="#D3FFF9"/>
<defs>
<filter id="filter0_f_859_1307" x="0" y="0" width="53.8203" height="49" filterUnits="userSpaceOnUse" color-interpolation-filters="sRGB">
<feFlood flood-opacity="0" result="BackgroundImageFix"/>
<feBlend mode="normal" in="SourceGraphic" in2="BackgroundImageFix" result="shape"/>
<feGaussianBlur stdDeviation="2" result="effect1_foregroundBlur_859_1307"/>
</filter>
</defs>
</svg>
