<svg width="43" height="43" viewBox="0 0 43 43" fill="none" xmlns="http://www.w3.org/2000/svg">
<path d="M37.391 33.6525V15.8916H5.6084V33.6525C5.6084 35.7175 7.23463 37.3916 9.24069 37.3916H33.7587C35.7648 37.3916 37.391 35.7175 37.391 33.6525Z" fill="#A56644"/>
<path d="M3.73877 9.34753C3.73877 7.28246 5.41283 5.6084 7.4779 5.6084H15.8909V15.891H3.73877V9.34753Z" fill="#EA2B2B"/>
<path d="M3.73877 15.8916H15.8909V16.359C15.8909 19.7148 13.1706 22.4351 9.81486 22.4351C6.45913 22.4351 3.73877 19.7148 3.73877 16.359V15.8916Z" fill="#FF4945"/>
<path d="M15.8916 15.8916H27.109V16.359C27.109 19.7148 24.5979 22.4351 21.5003 22.4351C18.4027 22.4351 15.8916 19.7148 15.8916 16.359V15.8916Z" fill="white"/>
<path d="M27.1084 15.8916H39.2606V16.359C39.2606 19.7148 36.5403 22.4351 33.1845 22.4351C29.8287 22.4351 27.1084 19.7148 27.1084 16.359V15.8916Z" fill="#FF4945"/>
<path d="M15.8916 5.6084H27.109V15.891H15.8916V5.6084Z" fill="#D0D0D0"/>
<path d="M27.1084 5.6084H35.5214C37.5865 5.6084 39.2606 7.28246 39.2606 9.34753V15.891H27.1084V5.6084Z" fill="#EA2B2B"/>
<path d="M10.2832 28.0434C10.2832 27.0108 11.1202 26.1738 12.1528 26.1738H16.8267C17.8592 26.1738 18.6962 27.0108 18.6962 28.0434V37.3912H10.2832V28.0434Z" fill="#B9E8FF"/>
<path d="M22.4355 28.0434C22.4355 27.0108 23.2726 26.1738 24.3051 26.1738H31.7834C32.8159 26.1738 33.6529 27.0108 33.6529 28.0434V31.7825C33.6529 32.8151 32.8159 33.6521 31.7834 33.6521H24.3051C23.2726 33.6521 22.4355 32.8151 22.4355 31.7825V28.0434Z" fill="#B9E8FF"/>
</svg>
