<svg width="22" height="27" viewBox="0 0 22 27" fill="none" xmlns="http://www.w3.org/2000/svg">
<path d="M12.1357 0.145611C12.9212 0.587343 13.4163 1.40019 13.9405 2.11408C14.3134 2.61681 14.7003 3.10857 15.0846 3.60241C15.72 4.4235 16.3521 5.24705 16.9816 6.07267C17.2447 6.41677 17.5104 6.75881 17.7768 7.10035C20.3337 10.3798 22.3971 13.405 21.9349 17.77C21.5247 20.6565 19.8728 23.1476 17.5946 24.918C15.0599 26.6785 11.9695 27.2934 8.92375 26.8728C8.35076 26.7592 7.80492 26.5837 7.25661 26.384C7.13667 26.344 7.01673 26.3039 6.89316 26.2627C5.42579 25.7318 4.26235 24.7911 3.14793 23.7185C3.06336 23.6419 2.97879 23.5653 2.89166 23.4863C1.31151 22.0071 0.186279 19.5416 0.0105163 17.3838C0.00256919 17.1188 -0.000566538 16.8535 0.000161789 16.5883C0.000108399 16.4371 5.50085e-05 16.2858 0 16.1299C0.0596692 13.5962 0.5512 11.0763 0.959827 8.58114C1.07203 7.89309 1.1784 7.20533 1.2693 6.51408C1.28622 6.38649 1.30314 6.2589 1.32058 6.12745C1.35145 5.89032 1.38115 5.65304 1.40941 5.41558C1.51395 4.61395 1.68709 3.87369 2.35271 3.35252C2.94007 2.92186 3.35827 2.86858 4.0757 2.92771C4.98718 3.22078 5.64951 3.87553 6.32884 4.527C6.81304 4.0524 7.26129 3.55734 7.69564 3.036C7.75897 2.96058 7.8223 2.88516 7.88755 2.80745C8.27513 2.34393 8.65069 1.87271 9.02102 1.39506C9.90914 0.267277 10.6884 -0.283819 12.1357 0.145611Z" fill="#FF9500"/>
<path d="M10.856 11C11.5228 11.2213 11.836 11.5925 12.2862 12.1293C12.3974 12.2584 12.3974 12.2584 12.5109 12.3901C12.6653 12.5705 12.8186 12.7519 12.9709 12.9342C13.2506 13.2656 13.5376 13.5894 13.825 13.9138C14.3697 14.5383 14.891 15.169 15.3639 15.8534C15.4222 15.9327 15.4805 16.012 15.5406 16.0937C16.1632 17.1035 16.0441 18.5823 15.8155 19.7165C15.3911 20.9625 14.5471 21.8244 13.457 22.4826C12.16 23.1021 10.6864 23.1175 9.30356 22.7806C8.98242 22.6561 8.70009 22.5164 8.40554 22.3361C8.19441 22.2166 8.19441 22.2166 7.97901 22.0947C6.98461 21.2747 6.39495 20.3475 6.03034 19.0947C5.80968 16.8203 6.82011 15.5118 8.16294 13.8168C8.39112 13.5269 8.6149 13.2341 8.83678 12.9391C8.90266 12.8515 8.96855 12.7639 9.03642 12.6736C9.15837 12.5113 9.28028 12.3489 9.40213 12.1865C10.2773 11.0338 10.2773 11.0338 10.856 11Z" fill="#FFC700"/>
</svg>
