<svg width="53" height="49" viewBox="0 0 53 49" fill="none" xmlns="http://www.w3.org/2000/svg">
<path d="M40.841 15.3536C45.279 17.9642 47.4423 20.7545 49.0368 25.632C49.445 27.1161 49.445 27.1161 50.3762 28.1176C51.3181 29.5025 51.2942 30.1632 51.1866 31.8124C51.1264 33.6007 51.1845 35.0669 51.6904 36.7836C52.6065 40.0632 52.8299 43.1034 51.2873 46.1887C49.8825 47.7496 48.8492 48.4888 46.753 48.7581C46.116 48.7691 46.116 48.7691 45.4661 48.7803C44.9817 48.7906 44.4974 48.801 43.9983 48.8116C43.4788 48.8162 42.9592 48.8207 42.4239 48.8254C41.8859 48.8316 41.3479 48.8377 40.7935 48.844C39.656 48.8541 38.5186 48.8612 37.3811 48.8653C35.6444 48.8758 33.9092 48.9091 32.1729 48.943C31.0665 48.95 29.9602 48.9557 28.8538 48.9598C28.3364 48.9731 27.8191 48.9863 27.286 49C24.7507 48.9832 23.1529 48.876 21.275 47.0735C19.4075 44.6311 19.311 43.0246 19.4446 40.0082C19.6982 38.6213 20.0021 37.2427 20.3515 35.8767C20.4315 35.5272 20.5115 35.1777 20.594 34.8176C21.2529 32.2826 22.204 31.305 24.2815 29.7971C24.9066 28.7715 24.9066 28.7715 25.222 27.6809C25.3446 27.3103 25.4672 26.9397 25.5936 26.5578C25.9447 25.3177 26.2322 24.0842 26.4312 22.8105C27.6726 22.4558 28.9141 22.1011 30.1932 21.7356C30.7452 18.7502 30.7452 18.7502 30.1932 15.8239C33.3829 13.9131 37.3962 14.3371 40.841 15.3536Z" fill="#A46645"/>
<path d="M22.0728 1.63447C24.9074 3.51898 27.0356 6.11548 28.0433 9.37472C28.1483 11.0479 28.1483 11.0479 28.1105 12.7672C28.1008 13.3416 28.0911 13.9159 28.0811 14.5076C28.0686 14.942 28.0561 15.3763 28.0433 15.8239C28.7527 15.8239 29.4621 15.8239 30.193 15.8239C31.2161 17.3284 31.2635 18.0584 31.1671 19.9218C30.7304 21.7356 30.7304 21.7356 29.1182 22.8105C27.6738 22.8776 27.6738 22.8776 26.431 22.8105C26.4102 23.2781 26.4102 23.2781 26.389 23.7552C26.1763 26.6846 25.7118 28.5666 23.7439 30.8719C22.5682 31.5101 22.5682 31.5101 21.5941 31.9468C21.4168 32.4788 21.2394 33.0109 21.0567 33.5591C17.2155 34.5503 13.6957 34.6027 10.1947 32.6291C7.87107 30.9802 6.23221 28.8022 5.47124 26.0351C5.40406 24.2548 5.40406 24.2548 5.47124 22.8105C4.97244 22.8548 4.47363 22.8991 3.95972 22.9448C2.24666 22.8105 2.24666 22.8105 1.20539 21.9707C0.407928 20.1413 0.766461 18.8149 1.1718 16.8987C2.05856 16.544 2.94532 16.1893 3.85895 15.8239C3.85895 15.4692 3.85895 15.1145 3.85895 14.749C3.32689 14.5717 2.79484 14.3943 2.24666 14.2116C0.3765 11.6472 -0.162325 9.26131 0.0969393 6.15014C2.04781 6.15014 3.99868 6.15014 6.00867 6.15014C6.36337 5.44074 6.71808 4.73133 7.08353 4.00042C8.07232 3.10401 8.07232 3.10401 9.19966 2.28737C9.5703 2.01372 9.94093 1.74007 10.3228 1.45813C13.8698 -0.824613 18.4631 -0.163968 22.0728 1.63447Z" fill="#FEAD91"/>
<path d="M22.0728 1.63447C24.9074 3.51898 27.0357 6.11548 28.0433 9.37472C28.1483 11.0479 28.1483 11.0479 28.1105 12.7672C28.1008 13.3416 28.0911 13.9159 28.0811 14.5076C28.0686 14.942 28.0562 15.3763 28.0433 15.8239C27.5113 15.8239 26.9792 15.8239 26.431 15.8239C26.3721 15.4546 26.3133 15.0854 26.2526 14.7049C26.1674 14.2207 26.0822 13.7364 25.9944 13.2375C25.9133 12.7574 25.8323 12.2773 25.7487 11.7827C25.3187 10.3225 24.9397 9.75511 23.7439 8.83729C23.2118 8.65994 22.6798 8.48259 22.1316 8.29986C22.0589 8.61161 21.9861 8.92337 21.9112 9.24456C20.8535 13.0826 19.1078 14.891 15.7874 16.968C12.6907 18.1968 8.67124 18.0436 5.59093 16.8652C2.79979 15.1561 0.992572 13.0864 0.0969673 9.91215C-0.0496952 8.59716 -0.0137032 7.47819 0.0969673 6.15014C2.04784 6.15014 3.99871 6.15014 6.0087 6.15014C6.3634 5.44074 6.7181 4.73133 7.08356 4.00042C8.07234 3.10401 8.07234 3.10401 9.19969 2.28737C9.57032 2.01372 9.94096 1.74007 10.3228 1.45813C13.8699 -0.824613 18.4631 -0.163968 22.0728 1.63447Z" fill="#FED904"/>
<path d="M21.057 33.5591C22.4758 33.9138 23.8947 34.2685 25.3565 34.6339C25.4895 35.2657 25.6225 35.8975 25.7595 36.5485C26.5621 39.6756 27.6075 41.8875 30.1597 44.0053C33.2489 45.5466 37.2903 45.4742 40.541 44.4714C42.8167 43.3016 44.0994 41.7124 45.2414 39.4708C45.6992 37.8723 46.0394 36.2728 46.3162 34.6339C47.735 34.2792 49.1539 33.9245 50.6157 33.5591C51.8868 37.1152 52.8231 40.5147 52.228 44.3076C51.1178 46.528 50.2137 47.687 47.9285 48.6071C46.7532 48.758 46.7532 48.758 45.4663 48.7803C44.7397 48.7958 44.7397 48.7958 43.9984 48.8116C43.4789 48.8161 42.9594 48.8207 42.4241 48.8254C41.886 48.8315 41.348 48.8377 40.7936 48.844C39.6562 48.8541 38.5187 48.8612 37.3812 48.8653C35.6446 48.8757 33.9093 48.9091 32.173 48.943C31.0667 48.95 29.9603 48.9556 28.854 48.9598C28.0779 48.9797 28.0779 48.9797 27.2862 49C24.7508 48.9832 23.153 48.876 21.2751 47.0735C19.4926 44.7422 19.1471 42.8656 19.4447 40.0082C19.9113 37.8383 20.4669 35.6983 21.057 33.5591Z" fill="#383837"/>
<path d="M40.841 15.3536C44.5353 17.5267 46.9869 19.7901 48.4658 23.8853C48.8689 25.7663 48.8689 25.7663 49.0032 27.1099C47.9391 27.1099 46.875 27.1099 45.7786 27.1099C45.568 26.5335 45.3574 25.9571 45.1404 25.3633C44.3148 23.4063 43.2533 22.3969 41.4792 21.1982C41.1134 21.697 40.7476 22.1958 40.3707 22.7097C39.013 24.5612 37.1952 25.4147 35.03 26.0351C33.5088 26.2081 32.0237 26.1904 30.4955 26.1358C30.1023 26.1285 29.7092 26.1213 29.3041 26.1138C28.3463 26.095 27.3887 26.0661 26.4312 26.0351C26.4312 24.9709 26.4312 23.9068 26.4312 22.8105C27.6726 22.4558 28.9141 22.1011 30.1932 21.7356C30.7451 18.7502 30.7451 18.7502 30.1932 15.8239C33.3828 13.9131 37.3962 14.3371 40.841 15.3536Z" fill="#3A3938"/>
<path d="M31.2681 34.0965C34.283 34.0965 37.298 34.0965 40.4044 34.0965C40.4044 37.3211 40.4044 37.3211 39.3967 38.5639C37.5258 40.0496 36.3439 40.2471 33.9552 40.0082C32.7124 39.1685 32.7124 39.1685 31.8055 37.8585C31.6281 36.617 31.4508 35.3756 31.2681 34.0965Z" fill="#FCFBFA"/>
<path d="M11.3831 22.273C11.7489 22.4504 12.1147 22.6277 12.4916 22.8105C15.3684 23.7898 17.7993 23.5919 20.5194 22.273C20.5194 22.9824 20.5194 23.6919 20.5194 24.4228C19.0119 25.7019 17.9481 26.0203 15.9849 26.2702C13.7501 25.9957 12.6028 25.2567 10.8457 23.8853C11.0231 23.3533 11.2004 22.8212 11.3831 22.273Z" fill="#E08D71"/>
<path d="M37.7173 27.1099C39.0474 27.3759 39.0474 27.3759 40.4044 27.6473C40.4044 28.8888 40.4044 30.1302 40.4044 31.4093C39.3632 31.7116 39.3632 31.7116 38.2547 31.9468C37.7173 31.4093 37.7173 31.4093 37.6648 30.4163C37.6823 29.3142 37.6998 28.212 37.7173 27.1099Z" fill="#7E4B2F"/>
<path d="M18.3697 15.8239C19.4782 16.059 19.4782 16.059 20.5195 16.3613C20.5195 17.6028 20.5195 18.8442 20.5195 20.1233C19.4782 20.4256 19.4782 20.4256 18.3697 20.6608C17.8323 20.1233 17.8323 20.1233 17.7651 18.2423C17.8323 16.3613 17.8323 16.3613 18.3697 15.8239Z" fill="#CE795C"/>
<path d="M31.8054 27.1099C32.5148 27.1099 33.2242 27.1099 33.9551 27.1099C33.9551 28.5287 33.9551 29.9475 33.9551 31.4093C33.2457 31.4093 32.5363 31.4093 31.8054 31.4093C31.8054 29.9905 31.8054 28.5717 31.8054 27.1099Z" fill="#7B482D"/>
<path d="M11.3831 17.4362C12.2698 17.4362 13.1566 17.4362 14.0702 17.4362C14.0702 18.3229 14.0702 19.2097 14.0702 20.1233C13.3608 20.1233 12.6514 20.1233 11.9205 20.1233C11.7431 19.2365 11.5658 18.3498 11.3831 17.4362Z" fill="#CE795B"/>
</svg>
