<svg width="52" height="41" viewBox="0 0 52 41" fill="none" xmlns="http://www.w3.org/2000/svg">
<path d="M0.215022 9.18457C0.286678 9.50107 0.351081 9.82101 0.439659 10.1332C0.568295 10.5666 0.714198 10.9749 0.888936 11.3919C0.86977 11.5798 0.89239 11.801 0.768761 11.9455C0.576411 13.1968 0.737163 14.0467 1.4204 15.1165C1.10891 14.9965 0.811582 14.7967 0.521331 14.6311C-0.147576 13.0248 -0.0824814 10.8807 0.215022 9.18457Z" fill="#C36603"/>
<path d="M0.43979 10.1331C0.568426 10.5664 0.71433 10.9748 0.889067 11.3918C0.869901 11.5797 0.892521 11.8008 0.768892 11.9454L0.346723 13.0983C0.230864 12.203 0.107409 10.9814 0.43979 10.1331Z" fill="#E38E0A"/>
<path d="M0.521362 14.6311C0.811613 14.7967 1.10894 14.9965 1.42043 15.1165C1.63454 15.4026 1.84122 15.7006 2.0738 15.9717C2.20848 16.1958 2.3195 16.2478 2.54345 16.3642C2.91215 16.7149 3.29996 17.043 3.70687 17.3483C4.1139 17.6538 4.53728 17.9346 4.977 18.1906C5.16607 18.2445 5.32354 18.2839 5.49413 18.3859L5.7091 18.5855C5.37603 18.6309 5.35237 18.3778 5.04089 18.5411L4.95766 18.6858C5.06143 18.7816 5.10201 18.7818 5.12377 18.9267C4.05151 18.5732 3.02191 17.6198 2.13768 16.9381C1.81492 16.5939 1.51816 16.2286 1.24742 15.8422C0.97668 15.4558 0.734662 15.0521 0.521362 14.6311Z" fill="#994D0A"/>
<path d="M0.888995 11.3918C1.25487 11.9848 1.68878 12.5249 2.16499 13.0334C2.06957 14.0108 2.03918 14.9902 2.07383 15.9716C1.84125 15.7005 1.63457 15.4025 1.42046 15.1164C0.737222 14.0466 0.57647 13.1967 0.76882 11.9454C0.892449 11.8009 0.869829 11.5797 0.888995 11.3918Z" fill="#EA9907"/>
<path d="M2.16507 13.0334L2.39005 13.275C3.28239 13.965 4.18699 14.6185 5.14511 15.2158C4.78562 15.9721 4.96346 17.3472 4.9771 18.1906C4.53738 17.9346 4.114 17.6539 3.70697 17.3484C3.30006 17.043 2.91225 16.7149 2.54355 16.3642C2.31961 16.2478 2.20858 16.1958 2.0739 15.9717C2.03925 14.9903 2.06964 14.0109 2.16507 13.0334Z" fill="#EA9907"/>
<path d="M2.16507 13.0334L2.39005 13.275C2.72813 14.1715 2.56289 15.4121 2.54355 16.3642C2.31961 16.2478 2.20858 16.1958 2.0739 15.9717C2.03925 14.9903 2.06964 14.0109 2.16507 13.0334Z" fill="#C36603"/>
<path d="M1.0999 23.3035C1.12391 24.3364 1.15256 25.4487 1.55724 26.4151C1.85672 27.1303 3.25021 28.3726 3.30707 28.9448C3.06311 29.7676 3.31382 30.844 2.95768 31.6016C3.18005 31.8929 3.41995 32.0844 3.71203 32.3037C4.29842 32.8243 4.99035 33.2027 5.62818 33.6551C5.59216 33.647 5.55626 33.6384 5.52014 33.6308C4.80408 33.4795 4.04637 32.7854 3.47236 32.3511L3.41621 32.4344C3.49228 32.7072 3.83292 32.9387 4.03931 33.1247L4.05685 33.2908C3.19977 32.9722 2.03198 31.3153 1.52964 30.5822C1.01208 29.3556 1.0501 28.2398 1.07215 26.9405C1.00512 25.7318 1.04084 24.5118 1.0999 23.3035Z" fill="#E38E0A"/>
<path d="M1.07232 26.9404C1.24758 28.884 1.64543 30.1133 2.95785 31.6016C3.18023 31.8928 3.42013 32.0843 3.71221 32.3036C4.2986 32.8242 4.99052 33.2027 5.62835 33.6551C5.59233 33.6469 5.55643 33.6383 5.52031 33.6307C4.80425 33.4795 4.04654 32.7853 3.47253 32.3511L3.41638 32.4343C3.49246 32.7071 3.83309 32.9387 4.03948 33.1246L4.05702 33.2907C3.19994 32.9722 2.03215 31.3153 1.52982 30.5821C1.01225 29.3555 1.05027 28.2397 1.07232 26.9404Z" fill="#994D0A"/>
<path d="M3.30715 28.9446L3.40442 29.0411C4.54157 29.9393 5.72439 30.6307 6.94705 31.3931C6.60006 31.7143 6.64647 32.1282 6.63009 32.5747C6.6155 33.1123 6.60865 33.6499 6.60952 34.1877C6.27964 34.0153 5.95255 33.8377 5.62826 33.6549C4.99044 33.2025 4.29851 32.824 3.71212 32.3034C3.42004 32.0842 3.18014 31.8927 2.95776 31.6014C3.3139 30.8437 3.06319 29.7673 3.30715 28.9446Z" fill="#E38E0A"/>
<path d="M3.30715 28.9446L3.40442 29.0411C3.58658 30.1208 3.63574 31.2122 3.71212 32.3034C3.42004 32.0842 3.18014 31.8927 2.95776 31.6014C3.3139 30.8437 3.06319 29.7673 3.30715 28.9446Z" fill="#C36603"/>
<path d="M50.7849 26.291C51.7427 27.8428 51.7876 31.4964 51.3623 33.25C50.8308 35.4404 49.392 37.0975 47.4784 38.2352C42.3467 41.286 34.9014 41.5673 29.2157 40.0951C26.4914 39.3898 23.5448 37.7489 22.0528 35.2772C21.9382 35.0875 21.8703 34.9317 21.8451 34.7083C22.155 35.0373 22.4683 35.3629 22.7851 35.6852C26.2059 39.1398 31.3529 40.1376 36.0607 40.1321C40.2661 40.1269 46.0402 39.0686 49.0698 35.9684C51.0743 33.9171 51.0498 31.7548 51.022 29.0417C50.8628 28.1786 50.8699 27.1752 50.7849 26.291Z" fill="#EA9907"/>
<path d="M30.5177 8.15112C31.4585 9.64727 31.5789 11.6167 31.1995 13.3195C30.6577 15.7512 29.0502 17.7308 26.9765 19.0387C22.402 21.9238 15.7808 22.4772 10.6053 21.2768C7.99792 20.6722 5.05984 19.6496 2.95815 17.9559C2.7349 17.7759 2.37299 17.5184 2.23503 17.2715C2.16924 17.1541 2.14921 17.0672 2.13782 16.9379C3.02204 17.6196 4.05165 18.5731 5.1239 18.9265C5.10214 18.7816 5.06157 18.7815 4.95779 18.6856L5.04102 18.5409C5.35251 18.3776 5.37616 18.6307 5.70924 18.5853C6.72163 18.9656 7.74433 19.3159 8.77733 19.6362C8.99282 19.6909 9.20865 19.7408 9.41741 19.8178C10.8226 20.0884 12.2386 20.277 13.6657 20.3836C13.853 20.4047 14.0404 20.432 14.2289 20.4361C15.5381 20.4419 16.8458 20.4005 18.152 20.312L18.7738 20.2367C21.8214 19.6097 24.2076 18.8483 26.9407 17.3409C27.2063 17.1798 27.4491 17.0058 27.693 16.8134C28.2811 16.3156 28.806 15.7203 29.329 15.1558C29.9841 13.5183 30.0902 11.9791 30.2528 10.2386C30.3759 9.54073 30.4688 8.85819 30.5177 8.15112Z" fill="#EA9907"/>
<path d="M27.693 16.8136C28.2811 16.3158 28.806 15.7205 29.329 15.156C28.4016 17.3549 25.981 18.7404 23.8674 19.5935C18.5136 21.7541 11.2547 21.6218 5.96786 19.3511C5.67364 19.2247 5.39513 19.098 5.12387 18.9267C5.10211 18.7818 5.06154 18.7816 4.95776 18.6858L5.04099 18.5411C5.35248 18.3778 5.37613 18.6309 5.70921 18.5855C6.7216 18.9658 7.7443 19.3161 8.7773 19.6363C8.99279 19.6911 9.20862 19.741 9.41738 19.818C10.8225 20.0886 12.2386 20.2772 13.6656 20.3838C13.853 20.4049 14.0403 20.4322 14.2289 20.4363C15.538 20.4421 16.8457 20.4007 18.152 20.3122L18.7738 20.2369C21.8213 19.6099 24.2076 18.8485 26.9407 17.3411C27.2063 17.18 27.449 17.0059 27.693 16.8136Z" fill="#964D0D"/>
<path d="M51.0219 29.0417C51.0497 31.7548 51.0743 33.9171 49.0698 35.9684C46.0402 39.0686 40.2661 40.1269 36.0606 40.1321C31.3529 40.1376 26.2059 39.1398 22.7851 35.6852C22.4683 35.3629 22.1549 35.0373 21.8451 34.7083C21.3025 33.861 21.0182 33.1415 20.9208 32.1361L20.9936 32.2746C21.4182 33.0935 21.7059 33.8541 22.2976 34.5867C22.6352 33.7671 22.3734 32.4937 22.5295 31.5934L22.7509 31.8766C24.3114 33.3394 26.3083 34.517 28.2929 35.309L28.8803 35.4818C29.7402 35.6744 30.6237 35.9261 31.4988 36.023L31.6155 36.0404L32.0199 36.134C33.4278 36.3154 34.8414 36.4219 36.2607 36.4536C37.6103 36.4096 38.9716 36.3486 40.3103 36.1633L40.8431 36.0117C42.0787 35.9208 43.4162 35.3425 44.5781 34.9101L44.955 34.7335C46.355 34.1827 47.7812 33.2766 48.8847 32.258L49.1016 32.053C49.7428 31.2672 50.3226 30.4894 50.7712 29.5779L51.0219 29.0417Z" fill="#994D0A"/>
<path d="M40.3104 36.1633L40.8433 36.0117C41.0797 37.0089 41.1377 38.103 41.0203 39.1207L40.7635 39.1677C40.336 38.7079 40.8096 36.9743 40.5886 36.2864L40.3848 36.2597L40.3104 36.1633Z" fill="#C36603"/>
<path d="M44.5476 34.8574L45.0805 34.7058C45.3168 35.703 45.3748 36.7971 45.2574 37.8148L45.0007 37.8618C44.5732 37.402 45.0468 35.6684 44.8258 34.9805L44.622 34.9538L44.5476 34.8574Z" fill="#C36603"/>
<path d="M48.6917 31.953L49.1704 31.7705C49.3828 32.9707 49.435 34.2877 49.3295 35.5126L49.0988 35.5692C48.7146 35.0157 49.1402 32.9291 48.9416 32.1012L48.7585 32.069L48.6917 31.953Z" fill="#C36603"/>
<path d="M40.8431 36.0118C42.0787 35.9208 43.4162 35.3425 44.5781 34.9102C44.5526 35.9732 44.5487 37.0364 44.5663 38.0996C43.4483 38.5881 42.2027 38.8345 41.0201 39.1208C41.1375 38.1031 41.0795 37.0089 40.8431 36.0118Z" fill="#E38E0A"/>
<path d="M44.7136 34.5074C45.9234 34.2379 47.1608 33.4318 48.2462 32.8066C48.3812 33.9498 48.5375 35.0901 48.7151 36.2275C47.6816 36.9068 46.4852 37.3443 45.3573 37.8158C45.3202 36.7084 45.0979 35.5435 44.7136 34.5074Z" fill="#E38E0A"/>
<path d="M48.9706 31.3559C49.4008 31.2171 49.8266 30.4969 50.2024 29.9543C50.2817 31.2181 50.3686 32.4815 50.4632 33.7445C50.1077 34.3527 49.6868 34.6763 49.2916 35.0458C49.2486 33.8336 49.1372 32.5349 48.9706 31.3559Z" fill="#E38E0A"/>
<path d="M28.293 35.3088L28.8804 35.4817C29.7403 35.6742 30.6238 35.9259 31.4989 36.0228L31.6156 36.0403L32.02 36.1338C32.1046 37.164 32.079 38.2025 32.0784 39.2354C31.8634 39.1952 31.6324 39.1829 31.4143 39.1586L28.8371 38.5588L28.0392 38.2954C28.0703 37.3302 28.0204 36.2369 28.293 35.3088Z" fill="#EA9907"/>
<path d="M31.6156 36.0403L32.02 36.1339C32.1046 37.164 32.0791 38.2026 32.0784 39.2355C31.8634 39.1952 31.6324 39.183 31.4143 39.1586C31.6206 38.6669 31.5499 36.7178 31.6156 36.0403Z" fill="#C36603"/>
<path d="M28.293 35.3088L28.8804 35.4817C28.8131 36.5035 28.7594 37.5361 28.8371 38.5588L28.0392 38.2954C28.0703 37.3302 28.0204 36.2369 28.293 35.3088Z" fill="#CF7B07"/>
<path d="M22.5296 31.5933L22.751 31.8764C24.3115 33.3393 26.3084 34.5168 28.293 35.3089C28.0204 36.2369 28.0703 37.3302 28.0392 38.2955C27.0894 37.9268 26.1642 37.5204 25.2836 37.0058C25.0348 36.8787 24.8062 36.7299 24.5729 36.5767C23.9721 36.139 23.4261 35.6521 22.911 35.117C22.6481 34.9597 22.4873 34.8283 22.2977 34.5866C22.6353 33.767 22.3735 32.4935 22.5296 31.5933Z" fill="#E38E0A"/>
<path d="M24.5729 36.5767C24.6154 35.726 24.5585 34.8426 24.9944 34.0846L25.122 34.0349C25.4528 34.7244 25.2368 36.2064 25.2836 37.0058C25.0348 36.8787 24.8061 36.7299 24.5729 36.5767Z" fill="#C36603"/>
<path d="M32.02 36.1338C33.4279 36.3152 34.8416 36.4217 36.2609 36.4534C37.6104 36.4094 38.9717 36.3484 40.3104 36.1631L40.3848 36.2595L40.4052 39.2323C39.1145 39.4396 37.7672 39.6083 36.4575 39.5419L35.7791 39.54C34.5409 39.5103 33.3015 39.44 32.0784 39.2354C32.0791 38.2025 32.1046 37.1639 32.02 36.1338Z" fill="#E38E0A"/>
<path d="M36.2515 36.4912L36.4873 36.567C36.7109 37.3744 36.4967 38.6744 36.4575 39.542L35.7791 39.5401C35.9476 38.7051 35.6328 37.1912 35.9358 36.5359L36.2515 36.4912Z" fill="#C36603"/>
<path d="M47.3381 14.8496C47.4991 15.6047 47.4018 16.3837 47.5403 17.1385C47.8535 19.266 47.7772 21.2127 46.446 22.9879C44.2818 25.8736 40.0133 26.972 36.6259 27.4335C35.3101 27.6129 34.0156 27.6721 32.6874 27.6533C32.4379 30.1699 31.1637 32.232 29.2284 33.832C24.9632 37.3578 18.5211 37.7188 13.2396 37.1824C9.8909 36.8422 5.20629 35.6589 2.95375 32.9363C2.82475 32.7804 2.71723 32.6097 2.60524 32.4415C2.18402 31.8092 1.46021 31.4438 1.52982 30.5822C2.03216 31.3154 3.19995 32.9723 4.05703 33.2908L4.03949 33.1247C3.8331 32.9388 3.49246 32.7072 3.41639 32.4344L3.47254 32.3512C4.04655 32.7854 4.80426 33.4795 5.52032 33.6308C5.55644 33.6384 5.59234 33.647 5.62836 33.6551C5.95265 33.8379 6.27973 34.0156 6.60962 34.188C6.60874 33.6502 6.6156 33.1125 6.63018 32.575C6.64657 32.1284 6.60015 31.7146 6.94714 31.3934L7.17663 31.5004C8.43499 31.9661 9.68837 32.321 10.9813 32.6784L11.4233 32.7582C13.2805 32.9348 15.079 33.1864 16.9536 33.1007C18.0746 33.0494 19.1812 32.7899 20.2949 32.7366L20.8446 32.5989C20.9457 33.5643 21.0107 34.5865 20.994 35.5569C22.1808 35.2345 23.3569 34.8772 24.5224 34.485L24.822 34.341C25.9005 33.9055 26.9879 33.2983 27.8733 32.5402C27.954 32.5054 28.0396 32.4385 28.1139 32.3905C28.717 31.8144 29.3698 31.2373 29.9025 30.5964C30.829 29.482 30.646 28.3493 30.5305 27.0155C30.5564 26.8186 30.7085 26.5234 30.7657 26.3155L30.6652 26.1839C30.7436 26.0383 30.7952 25.8988 30.8539 25.7445L30.9197 25.7476C30.9042 25.5371 30.9109 25.3416 30.9235 25.1317L31.2564 25.1413C32.3444 25.2323 33.4368 25.3475 34.5267 25.4035L35.0542 25.4064C36.2112 25.4387 37.3508 25.3252 38.5002 25.2114C38.6601 25.208 38.8254 25.1786 38.9846 25.1607C39.1049 24.5032 39.6041 22.6527 39.2579 22.0983L39.2703 22.0486C40.2272 21.8963 41.1916 21.5193 42.1041 21.1933L42.5088 21.0079C43.3822 20.5514 44.208 20.1087 44.9557 19.4606C45.7196 18.7152 46.4487 17.997 46.8647 16.9948C47.1069 16.3107 47.1763 15.5584 47.3381 14.8496Z" fill="#EA9907"/>
<path d="M30.8538 25.7444L30.9196 25.7475L31.3771 25.8671C31.353 26.9045 31.2692 27.8993 31.0082 28.9059C30.7203 28.3171 30.8003 27.6116 30.5304 27.0154C30.5563 26.8185 30.7084 26.5233 30.7656 26.3154L30.6651 26.1838C30.7435 26.0383 30.7951 25.8987 30.8538 25.7444Z" fill="#CF7B07"/>
<path d="M40.1027 24.921C40.2301 24.9779 40.2676 25.0333 40.4042 24.9872C40.6556 24.9026 40.8219 24.8647 41.086 24.8863L40.9705 24.9816L40.9451 24.9778L40.8153 25.0276L40.7808 25.1859C38.1283 26.2067 34.1934 26.3852 31.3772 25.8671L30.9197 25.7474C30.9041 25.5369 30.9109 25.3415 30.9235 25.1315L31.2564 25.1412C32.3443 25.2322 33.4368 25.3474 34.5266 25.4033L35.0541 25.4062C36.2112 25.4385 37.3508 25.3251 38.5002 25.2113C38.6601 25.2078 38.8253 25.1785 38.9845 25.1605L40.1027 24.921Z" fill="#994D0A"/>
<path d="M47.3381 14.8496C47.499 15.6047 47.4018 16.3837 47.5403 17.1385C47.1077 17.7635 47.3146 18.6831 47.0777 19.4213C46.9449 19.7556 46.6567 20.7444 46.3666 20.925C45.3136 23.0878 43.2274 24.3333 41.0344 25.1139C40.9515 25.1434 40.8659 25.1643 40.7807 25.1861L40.8153 25.0277L40.9451 24.978L40.9705 24.9818L41.086 24.8865C40.8218 24.8649 40.6556 24.9027 40.4042 24.9873C40.2676 25.0334 40.2301 24.978 40.1027 24.9212L38.9845 25.1607C39.1048 24.5032 39.604 22.6527 39.2578 22.0983L39.2703 22.0486C40.2272 21.8963 41.1915 21.5193 42.104 21.1933L42.5088 21.0079C43.3821 20.5514 44.208 20.1087 44.9556 19.4606C45.7195 18.7152 46.4487 17.997 46.8646 16.9948C47.1069 16.3107 47.1763 15.5584 47.3381 14.8496Z" fill="#E38E0A"/>
<path d="M47.3379 14.8496C47.4989 15.6047 47.4017 16.3837 47.5401 17.1385C47.1076 17.7635 47.3145 18.6831 47.0776 19.4213C46.8139 18.6256 47.2597 17.6682 46.8645 16.9948C47.1068 16.3107 47.1762 15.5584 47.3379 14.8496Z" fill="#B69474"/>
<path d="M44.9389 22.5657C45.478 22.0719 45.8454 21.4349 46.3665 20.925C45.3134 23.0879 43.2273 24.3333 41.0342 25.1139C40.9514 25.1434 40.8657 25.1643 40.7806 25.1861L40.8151 25.0278L40.945 24.978L40.9704 24.9818L41.0859 24.8865C40.8217 24.8649 40.6554 24.9028 40.404 24.9874C40.2674 25.0335 40.23 24.978 40.1025 24.9212C40.672 24.7793 41.2226 24.5812 41.7769 24.3901C42.0293 24.3012 42.2654 24.1988 42.5067 24.0831C43.0389 23.8333 43.7463 23.5375 44.2065 23.1775C44.6267 22.8489 44.8895 22.397 44.9427 21.8685L45.0123 21.1417C45.0145 21.1575 45.0164 21.1733 45.0188 21.1889C45.0896 21.6651 45.0114 22.0959 44.9389 22.5657Z" fill="#964D0D"/>
<path d="M42.5088 21.0078C42.4991 21.7839 42.3371 23.4065 42.5069 24.083C42.2655 24.1987 42.0295 24.3011 41.777 24.39C41.2228 24.5811 40.6721 24.7792 40.1027 24.9211L38.9845 25.1606C39.1048 24.5031 39.604 22.6526 39.2578 22.0982L39.2703 22.0485C40.2272 21.8962 41.1915 21.5192 42.104 21.1933L42.5088 21.0078Z" fill="#E38E0A"/>
<path d="M42.5087 21.0078C42.4991 21.7839 42.3371 23.4065 42.5068 24.083C42.2655 24.1987 42.0294 24.3011 41.777 24.39C42.0222 23.3706 42.0253 22.2377 42.104 21.1933L42.5087 21.0078Z" fill="#C36603"/>
<path d="M30.5304 27.0154C30.8003 27.6116 30.7203 28.3171 31.0081 28.9059C29.9561 31.7103 27.8746 33.6014 25.175 34.8401C19.975 37.2258 13.0276 37.2688 7.6933 35.2769C6.50363 34.8328 4.97989 34.1872 4.0569 33.2907L4.03936 33.1246C3.83297 32.9387 3.49234 32.7071 3.41626 32.4343L3.47241 32.3511C4.04642 32.7853 4.80413 33.4795 5.52019 33.6307C5.55631 33.6383 5.59221 33.647 5.62823 33.6551C5.95252 33.8379 6.27961 34.0155 6.60949 34.1879C6.60861 33.6501 6.61547 33.1124 6.63005 32.5749C6.64644 32.1284 6.60003 31.7145 6.94702 31.3933L7.17651 31.5004C8.43486 31.966 9.68824 32.3209 10.9812 32.6783L11.4232 32.7581C13.2804 32.9347 15.0789 33.1863 16.9535 33.1006C18.0744 33.0494 19.1811 32.7898 20.2948 32.7365L20.8445 32.5989C20.9455 33.5642 21.0106 34.5864 20.9939 35.5568C22.1807 35.2344 23.3568 34.8771 24.5223 34.4849L24.8219 34.3409C25.9003 33.9054 26.9878 33.2982 27.8732 32.5402C27.9539 32.5053 28.0395 32.4385 28.1137 32.3905C28.7169 31.8143 29.3697 31.2372 29.9024 30.5963C30.8289 29.4819 30.6459 28.3492 30.5304 27.0154Z" fill="#964D0D"/>
<path d="M6.60957 34.1879C6.6087 33.6501 6.61555 33.1124 6.63013 32.5749C6.64652 32.1284 6.60011 31.7145 6.9471 31.3933L7.17659 31.5004C8.43494 31.966 9.68832 32.3209 10.9812 32.6783C10.7713 33.5682 10.8633 34.6657 10.912 35.5782C9.64446 35.2377 8.39229 34.9186 7.17122 34.4277C6.98073 34.3721 6.79147 34.2689 6.60957 34.1879Z" fill="#E38E0A"/>
<path d="M6.60957 34.1879C6.6087 33.6501 6.61555 33.1124 6.63013 32.5749C6.64652 32.1284 6.60011 31.7145 6.9471 31.3933L7.17659 31.5004C7.37001 32.4006 7.19857 33.5033 7.17122 34.4277C6.98073 34.3721 6.79147 34.2689 6.60957 34.1879Z" fill="#C36603"/>
<path d="M20.2948 32.7365L20.8445 32.5989C20.9455 33.5643 21.0106 34.5864 20.9939 35.5568C20.7036 35.619 20.4148 35.6837 20.1211 35.7283C19.035 35.8432 17.9477 35.9439 16.8591 36.0304L16.1651 36.0339C14.6311 36.0208 13.1338 35.8738 11.611 35.6998C11.3745 35.7038 11.1411 35.6312 10.9119 35.5782C10.8632 34.6657 10.7712 33.5682 10.9812 32.6783L11.4232 32.7581C13.2804 32.9347 15.0789 33.1863 16.9535 33.1006C18.0744 33.0494 19.1811 32.7899 20.2948 32.7365Z" fill="#EA9907"/>
<path d="M10.9812 32.6782L11.4232 32.758C11.7949 33.3349 11.5965 34.9768 11.611 35.6997C11.3745 35.7037 11.1411 35.6311 10.9119 35.5781C10.8632 34.6656 10.7712 33.5681 10.9812 32.6782Z" fill="#C36603"/>
<path d="M16.1653 36.0341C16.1456 35.2504 15.9363 33.6835 16.473 33.0615L16.6624 33.0617C17.1541 33.6519 16.9649 35.0201 16.8941 35.7599C16.8855 35.8504 16.873 35.9407 16.8592 36.0307L16.1653 36.0341Z" fill="#C36603"/>
<path d="M20.2948 32.7365L20.8446 32.5989C20.9456 33.5643 21.0107 34.5864 20.9939 35.5568C20.7037 35.619 20.4148 35.6837 20.1211 35.7283C20.2243 34.717 20.0106 33.7473 20.2948 32.7365Z" fill="#CF7B07"/>
<path d="M1.10022 23.3034C1.27941 21.8389 2.03988 20.5389 3.05523 19.4922C6.23815 16.2108 12.2932 14.7326 16.7635 14.6836L16.7602 15.2665C16.7738 15.8296 16.777 16.3928 16.7697 16.956L16.6618 17.1885C15.8777 17.4647 14.748 17.2832 13.8877 17.4476C12.556 17.6536 9.0493 18.5093 8.11449 19.4317C8.08635 19.4664 8.05889 19.5017 8.03006 19.536C7.1814 20.548 5.57266 21.0004 5.20768 22.6459C5.16636 22.8322 5.09503 23.1544 5.14144 23.3374C5.15334 23.3844 5.18035 23.4262 5.19981 23.4706C5.41472 25.0004 5.47612 26.1911 6.68083 27.3614C6.96618 27.6385 7.49094 27.9789 7.70132 28.2921C9.88777 29.5441 12.2203 30.5426 14.7853 30.5925C15.0417 30.6198 15.2995 30.6538 15.5566 30.6683L15.4859 30.8618C16.0537 30.9193 16.6228 30.9455 17.1934 30.9406C17.764 30.9355 18.3327 30.8993 18.8994 30.8318C22.0906 30.4507 25.7169 29.0306 27.7566 26.4444C28.0028 26.094 28.2243 25.5774 28.5776 25.3383C29.3353 25.4773 30.0926 25.6273 30.8541 25.7444C30.7953 25.8987 30.7437 26.0383 30.6653 26.1838L30.7658 26.3154C30.7087 26.5233 30.5565 26.8185 30.5306 27.0154C30.6462 28.3492 30.8292 29.4819 29.9027 30.5963C29.37 31.2372 28.7171 31.8143 28.114 32.3905C28.0398 32.4385 27.9541 32.5053 27.8735 32.5402C26.9881 33.2982 25.9006 33.9054 24.8221 34.3409L24.5226 34.4849C23.3571 34.8771 22.1809 35.2344 20.9941 35.5568C21.0109 34.5864 20.9458 33.5642 20.8448 32.5989L20.295 32.7365C19.1813 32.7898 18.0747 33.0494 16.9538 33.1006C15.0791 33.1863 13.2806 32.9347 11.4235 32.7581L10.9814 32.6783C9.68851 32.3209 8.43513 31.966 7.17678 31.5004L6.94729 31.3933C5.72462 30.6308 4.54181 29.9395 3.40465 29.0413L3.30739 28.9447C3.25053 28.3725 1.85705 27.1302 1.55756 26.415C1.15288 25.4486 1.12424 24.3363 1.10022 23.3034Z" fill="#FEDE39"/>
<path d="M4.46797 24.8823C4.24012 23.9497 4.27659 22.9783 4.69175 22.103C4.73961 22.5399 4.66821 24.6075 4.46797 24.8823Z" fill="#EA9907"/>
<path d="M16.6875 16.8112C16.6879 16.2894 16.6963 15.7854 16.76 15.2664C16.7736 15.8295 16.7768 16.3927 16.7695 16.9559L16.6616 17.1883C15.8775 17.4646 14.7478 17.2831 13.8876 17.4475C14.0896 17.3131 14.1721 17.1997 14.3025 17.0018C15.0569 16.8501 15.9159 16.8659 16.6875 16.8112Z" fill="#EA9907"/>
<path d="M27.7565 26.4445C28.0027 26.0941 28.2242 25.5775 28.5775 25.3384C29.3352 25.4774 30.0925 25.6274 30.8539 25.7445C30.7952 25.8989 30.7436 26.0384 30.6652 26.1839C30.6502 26.2055 30.6343 26.2267 30.62 26.2488C30.5357 26.3792 30.5633 26.3386 30.493 26.4909C30.1804 27.1688 29.4893 28.1356 28.7942 28.4635C28.7547 28.4821 28.7096 28.4849 28.6673 28.4956L28.6851 28.3433C29.1395 27.962 29.8899 27.3603 30.1391 26.8311C30.2366 26.6235 30.2254 26.535 30.1507 26.3253C29.8153 26.0213 29.0812 25.8562 28.6422 25.6718L28.7142 25.8427L28.615 25.6649C28.5145 25.73 28.458 25.7856 28.3841 25.8811C28.237 26.0715 28.1211 26.2428 27.907 26.3642C27.8575 26.3922 27.8067 26.4177 27.7565 26.4445Z" fill="#EA9907"/>
<path d="M7.70115 28.292C9.8876 29.544 12.2201 30.5425 14.7851 30.5924C15.0415 30.6197 15.2993 30.6537 15.5564 30.6682L15.4858 30.8618C13.2739 30.7811 9.36355 30.0867 7.61975 28.6463C7.76415 28.6382 7.91057 28.6926 8.0506 28.7276C7.95322 28.5689 7.82234 28.4331 7.70115 28.292Z" fill="#E38E0A"/>
<path d="M6.51062 19.9269C8.57986 18.2008 11.6839 17.344 14.3025 17.002C14.1722 17.1998 14.0896 17.3133 13.8876 17.4476C12.5558 17.6536 9.04917 18.5093 8.11436 19.4317C7.55972 19.5508 7.06386 19.8252 6.51062 19.9269Z" fill="#EA9907"/>
<path d="M6.5105 19.9268C7.06374 19.8251 7.5596 19.5508 8.11423 19.4316C8.08609 19.4663 8.05864 19.5016 8.0298 19.5359C7.18115 20.5479 5.5724 21.0003 5.20742 22.6458C5.1661 22.8321 5.09478 23.1543 5.14119 23.3373C5.15309 23.3843 5.18009 23.4261 5.19955 23.4705C5.41447 25.0003 5.47587 26.191 6.68057 27.3613C6.96592 27.6384 7.49069 27.9788 7.70106 28.292C7.82226 28.433 7.95314 28.5689 8.05052 28.7276C7.91049 28.6926 7.76407 28.6382 7.61967 28.6463C7.50232 28.5887 7.38659 28.5281 7.27245 28.4645C5.84216 27.6733 4.90322 26.4476 4.4679 24.8822C4.66814 24.6075 4.73953 22.5398 4.69167 22.103C5.09119 21.1823 5.72224 20.5205 6.5105 19.9268Z" fill="url(#paint0_linear_511_1722)"/>
<path d="M30.6651 26.1838L30.7656 26.3154C30.7084 26.5233 30.5563 26.8186 30.5304 27.0154C30.6459 28.3492 30.829 29.4819 29.9024 30.5963C29.3698 31.2372 28.7169 31.8143 28.1138 32.3905C28.0396 32.4385 27.9539 32.5053 27.8733 32.5402C27.7572 31.5714 27.693 30.616 27.7317 29.6403L28.1305 29.2941L28.2575 29.1C27.9772 29.1235 27.5069 29.5239 27.2572 29.6858C27.65 29.2272 28.1943 28.874 28.6672 28.4955C28.7095 28.4848 28.7546 28.482 28.7941 28.4634C29.4893 28.1355 30.1803 27.1687 30.493 26.4908C30.5632 26.3385 30.5356 26.3791 30.6199 26.2488C30.6342 26.2267 30.6501 26.2054 30.6651 26.1838Z" fill="#E38E0A"/>
<path d="M28.1307 29.2939C28.0622 30.3163 28.0442 31.3671 28.114 32.3904C28.0397 32.4384 27.9541 32.5052 27.8734 32.5401C27.7574 31.5712 27.6932 30.6159 27.7318 29.6401L28.1307 29.2939Z" fill="#C36603"/>
<path d="M27.7317 29.6404C27.693 30.6161 27.7572 31.5715 27.8733 32.5403C26.9878 33.2983 25.9004 33.9056 24.8219 34.341L24.5223 34.485C24.5539 33.5174 24.3707 32.4165 24.5698 31.4763L24.9649 31.3026C25.5337 30.7658 26.9799 30.187 27.7317 29.6404Z" fill="#E38E0A"/>
<path d="M24.9649 31.3025C25.226 32.2658 25.3304 33.4529 24.8219 34.3409L24.5223 34.4849C24.5539 33.5173 24.3707 32.4164 24.5698 31.4762L24.9649 31.3025Z" fill="#C36603"/>
<path d="M20.8445 32.599C22.1125 32.2906 23.3328 31.8907 24.5697 31.4763C24.3707 32.4165 24.5539 33.5174 24.5223 34.485C23.3568 34.8772 22.1806 35.2345 20.9938 35.5569C21.0106 34.5865 20.9455 33.5644 20.8445 32.599Z" fill="#E38E0A"/>
<path d="M13.8877 17.4476C14.7479 17.2833 15.8776 17.4647 16.6617 17.1885L16.7696 16.9561L16.7905 17.0058L16.7446 17.563C16.9072 17.9658 17.0711 18.3602 17.2709 18.7468C17.7139 19.4782 18.2305 20.0233 18.8596 20.5979L19.0504 20.7949L20.8366 22.2862L21.3515 22.7804C21.1762 23.0643 20.397 23.8028 20.3383 23.9922C20.5762 23.9226 20.7114 23.8064 20.8948 23.6498C21.188 23.3799 21.4893 23.1352 21.8046 22.8925C22.8759 23.4509 24.0002 23.8958 25.1154 24.3579C26.2628 24.731 27.4038 25.0565 28.5775 25.3383C28.2243 25.5774 28.0027 26.094 27.7565 26.4444C25.7168 29.0306 22.0905 30.4508 18.8993 30.8318C18.3326 30.8993 17.7639 30.9355 17.1933 30.9406C16.6227 30.9456 16.0536 30.9193 15.4858 30.8619L15.5565 30.6683C15.2994 30.6538 15.0416 30.6198 14.7852 30.5925C12.2202 30.5426 9.88768 29.5441 7.70123 28.2921C7.49085 27.9789 6.96609 27.6385 6.68074 27.3614C5.47604 26.1911 5.41464 25.0004 5.19972 23.4706C5.18026 23.4262 5.15325 23.3844 5.14136 23.3374C5.09495 23.1544 5.16627 22.8322 5.20759 22.6459C5.57257 21.0004 7.18132 20.548 8.02997 19.536C8.0588 19.5017 8.08626 19.4664 8.1144 19.4317C9.04921 18.5094 12.5559 17.6536 13.8877 17.4476Z" fill="url(#paint1_linear_511_1722)"/>
<path d="M9.45825 24.9377C10.4312 25.1935 11.738 25.386 12.6127 25.8525C12.7301 26.2049 12.8995 26.5009 13.0901 26.8184C13.1545 27.036 13.211 27.146 13.3646 27.3133L13.5142 27.7674C13.2638 27.5864 13.1291 27.2289 12.9442 26.9807C11.974 25.6792 11.0361 25.5265 9.56064 25.136C9.81619 25.3753 10.0299 25.6148 10.2382 25.896C9.83225 25.6175 9.5805 25.4316 9.45825 24.9377Z" fill="#FECE30"/>
<path d="M9.94468 21.3445L10.0125 21.5902C10.1232 21.4805 10.0878 21.5463 10.1177 21.3923C10.6968 21.9745 11.3599 22.0718 12.0655 22.4119L11.9333 22.5644C11.0504 22.9879 10.0809 23.7962 9.12124 23.9662L9.07117 23.8768C9.32032 23.4289 10.3857 23.0275 10.8405 22.807C10.5324 22.5466 10.1267 22.2639 9.9433 21.8986C9.83625 21.685 9.87631 21.56 9.94468 21.3445Z" fill="#EA9907"/>
<path d="M9.37888 24.8692C9.16615 24.696 9.08517 24.586 8.96655 24.3384L9.03458 24.2383L12.8954 24.8307L12.9064 25.1555C13.0194 25.4713 13.1408 25.7839 13.2708 26.0932C13.0824 26.3379 13.0945 26.5251 13.0902 26.8183C12.8995 26.5007 12.7301 26.2048 12.6127 25.8524C11.738 25.3858 10.4313 25.1933 9.4583 24.9376L9.37888 24.8692Z" fill="#FDB803"/>
<path d="M9.37891 24.8693C9.83198 24.568 10.9667 24.8757 11.4923 24.9815C11.8898 25.0616 12.4964 25.1131 12.8189 25.3633L12.6128 25.8524C11.738 25.3859 10.4313 25.1934 9.45833 24.9377L9.37891 24.8693Z" fill="#EA9907"/>
<path d="M13.8877 17.4476C14.7479 17.2833 15.8776 17.4647 16.6617 17.1885L16.7696 16.9561L16.7905 17.0058L16.7446 17.563C13.3248 17.476 9.4277 18.3945 6.89079 20.81C6.04763 21.6127 5.61179 22.3874 5.19972 23.4706C5.18026 23.4262 5.15325 23.3844 5.14136 23.3374C5.09495 23.1544 5.16627 22.8322 5.20759 22.6459C5.57257 21.0004 7.18132 20.548 8.02997 19.536C8.0588 19.5017 8.08626 19.4664 8.1144 19.4317C9.04921 18.5094 12.5559 17.6536 13.8877 17.4476Z" fill="#CF7B07"/>
<path d="M17.2708 18.7468C17.7139 19.4782 18.2305 20.0233 18.8595 20.598L19.0503 20.795L20.8365 22.2863L21.3514 22.7805C21.1762 23.0643 20.3969 23.8028 20.3382 23.9922C20.82 24.7342 21.3134 25.4756 21.7453 26.2476L21.5673 26.2588C20.1673 25.928 18.7193 25.6433 17.2981 25.4186C16.8198 25.6942 16.38 25.9986 15.9346 26.3237C15.3632 26.796 14.7711 27.2554 14.2253 27.7565C14.0691 27.5492 13.9468 27.2655 13.8211 27.0351L13.2708 26.0934C13.1409 25.7841 13.0194 25.4715 12.9065 25.1557L12.8955 24.8309L9.03467 24.2385L9.12135 23.9663C10.081 23.7963 11.0505 22.988 11.9334 22.5645L12.0656 22.412C11.36 22.0719 10.6969 21.9746 10.1178 21.3924C10.0879 21.5464 10.1233 21.4806 10.0126 21.5903L9.94479 21.3446C9.96188 21.3251 9.97673 21.3033 9.9959 21.2859C10.9317 20.4303 14.45 21.0367 15.7142 21.097C15.789 21.0588 15.8615 21.0165 15.9378 20.9816C16.0625 20.9247 16.0799 20.9464 16.193 20.844C16.4802 20.5835 17.2294 19.5031 17.3059 19.1773C17.329 19.0787 17.2796 18.8563 17.2708 18.7468Z" fill="#FEE94D"/>
<path d="M20.8364 22.2861L21.3513 22.7803C21.176 23.0642 20.3968 23.8027 20.3381 23.9921C20.8198 24.734 21.3133 25.4754 21.7451 26.2474L21.5671 26.2587C20.9301 25.4126 20.3153 24.5477 19.6918 23.6915C20.0796 23.228 20.4611 22.7596 20.8364 22.2861Z" fill="#E38E0A"/>
<path d="M12.0654 22.4117C12.3244 22.1285 12.7407 22.1092 13.1166 22.0964C13.3804 22.0874 13.7162 22.0776 13.9367 22.247C14.0773 22.3549 14.1249 22.775 14.1491 22.9454C14.3893 23.1024 14.649 23.1915 14.7267 23.4886C14.8277 23.8758 14.603 25.27 14.5186 25.7191C14.4599 25.197 14.5134 24.7142 14.488 24.1981C14.4697 23.8305 14.4059 23.3614 14.0802 23.1264C13.6679 22.8287 13.1927 22.8985 12.7205 22.9715L12.2608 22.7287L11.9331 22.5642L12.0654 22.4117Z" fill="#FEEB61"/>
<path d="M18.8594 20.5979L19.0502 20.7949C18.1351 21.0075 17.1944 21.3887 16.2568 21.432C14.4242 21.5167 11.7725 20.4085 10.1177 21.3923C10.0878 21.5464 10.1232 21.4806 10.0126 21.5902L9.9447 21.3445C9.9618 21.325 9.97664 21.3032 9.99581 21.2858C10.9317 20.4302 14.4499 21.0366 15.7142 21.0969C16.751 21.2135 17.8585 20.8339 18.8594 20.5979Z" fill="#E38E0A"/>
<path d="M17.2708 18.7468C17.7139 19.4782 18.2305 20.0233 18.8595 20.598C17.8586 20.834 16.7511 21.2135 15.7142 21.097C15.789 21.0588 15.8615 21.0165 15.9378 20.9816C16.0625 20.9247 16.0799 20.9464 16.193 20.844C16.4802 20.5835 17.2294 19.5031 17.3059 19.1773C17.329 19.0787 17.2796 18.8563 17.2708 18.7468Z" fill="#FECE30"/>
<path d="M9.12135 23.9661C10.081 23.796 11.0505 22.9878 11.9334 22.5642L12.2611 22.7288L12.7207 22.9715C13.193 22.8985 13.6682 22.8287 14.0805 23.1264C14.4061 23.3614 14.47 23.8305 14.4883 24.1981C14.5137 24.7142 14.4602 25.197 14.5189 25.7192L14.5001 25.8348C14.4308 26.2453 13.9973 26.9964 14.0577 27.3455C14.2129 27.4063 14.2354 27.3907 14.3833 27.3206C14.8825 27.0848 15.3939 26.5904 15.827 26.2432L15.9346 26.3235C15.3632 26.7957 14.7711 27.2552 14.2253 27.7563C14.0691 27.5489 13.9468 27.2652 13.8211 27.0349L13.2708 26.0932C13.1409 25.7839 13.0194 25.4713 12.9065 25.1554L12.8955 24.8306L9.03467 24.2382L9.12135 23.9661Z" fill="#FEF569"/>
<path d="M12.2611 22.729L12.7207 22.9718C12.633 23.1134 12.6011 23.127 12.4607 23.2045C12.2226 23.2119 12.1118 23.2555 11.9149 23.1132C11.9867 22.8892 12.0746 22.8645 12.2611 22.729Z" fill="#FEE94D"/>
<path d="M12.7609 23.2125L13.6045 22.9761C13.8841 23.2254 14.1539 23.4673 14.3993 23.7519C14.2846 24.5263 14.3566 26.4986 13.821 27.0351L13.2707 26.0934C13.1408 25.7841 13.0193 25.4715 12.9064 25.1556L12.8954 24.8309C12.8613 24.2905 12.8165 23.7511 12.7609 23.2125Z" fill="#FEF794"/>
<path d="M21.8044 22.8923C22.8757 23.4507 24 23.8957 25.1152 24.3577C26.2626 24.7309 27.4036 25.0563 28.5773 25.3381C28.2241 25.5773 28.0025 26.0939 27.7563 26.4442C25.7166 29.0304 22.0903 30.4506 18.8991 30.8317C18.3324 30.8991 17.7637 30.9354 17.1931 30.9405C16.6225 30.9454 16.0534 30.9192 15.4857 30.8617L15.5563 30.6682C15.2992 30.6537 15.0414 30.6196 14.785 30.5924L15.2325 30.563C15.3166 30.4808 15.3808 30.4074 15.4057 30.2867C15.467 29.9905 15.2565 28.903 15.0756 28.6492L14.9706 28.6393C15.1806 28.5269 15.3795 28.3964 15.5817 28.2705L15.5497 28.1445C15.2823 28.3083 14.9014 28.5767 14.5764 28.5827C14.1694 28.5905 13.7771 28.0393 13.5142 27.7672L13.3646 27.3131C13.211 27.1458 13.1545 27.0358 13.0901 26.8182C13.0944 26.525 13.0823 26.3379 13.2707 26.0932L13.821 27.0349C13.9467 27.2653 14.0689 27.549 14.2252 27.7563C14.771 27.2552 15.3631 26.7958 15.9344 26.3235C16.3799 25.9984 16.8197 25.694 17.298 25.4184C18.7192 25.6431 20.1671 25.9278 21.5671 26.2586L21.7451 26.2474C21.3133 25.4754 20.8198 24.734 20.3381 23.992C20.576 23.9225 20.7112 23.8063 20.8946 23.6496C21.1878 23.3798 21.4891 23.1351 21.8044 22.8923Z" fill="#FDB803"/>
<path d="M21.8044 22.8923C22.8758 23.4507 24 23.8957 25.1153 24.3577C25.59 24.8255 26.4075 24.8512 26.9663 25.2261L26.943 25.3273C26.7945 25.348 26.6722 25.357 26.523 25.34C25.7258 25.4 21.7293 24.0708 20.8947 23.6496C21.1878 23.3798 21.4891 23.1351 21.8044 22.8923Z" fill="#E38E0A"/>
<path d="M25.1153 24.3579C26.2627 24.731 27.4036 25.0565 28.5774 25.3383C28.2241 25.5774 28.0026 26.0941 27.7564 26.4444C25.7167 29.0306 22.0904 30.4508 18.8991 30.8318C18.3325 30.8993 17.7638 30.9356 17.1932 30.9406C16.6226 30.9456 16.0534 30.9193 15.4857 30.8619L15.5563 30.6683C17.3174 30.6866 19.2219 30.5088 20.933 30.0574C22.7959 29.5662 25.8167 28.0903 26.7558 26.3287C26.8822 26.0916 26.9428 25.8539 26.8537 25.5895C26.8069 25.4507 26.6444 25.4091 26.523 25.3402C26.6722 25.3571 26.7945 25.3481 26.943 25.3274L26.9663 25.2262C26.4075 24.8514 25.5899 24.8257 25.1153 24.3579Z" fill="#CF7B07"/>
<path d="M17.298 25.4185C18.7192 25.6431 20.1671 25.9278 21.5671 26.2586L21.7451 26.2474C21.8967 26.484 22.0293 26.6152 22.0378 26.8994C21.1974 27.4143 18.8058 26.6156 17.7474 26.891C17.0379 27.0755 16.1211 27.6952 15.5497 28.1445C15.2823 28.3084 14.9014 28.5767 14.5764 28.5827C14.1694 28.5905 13.7771 28.0393 13.5142 27.7672L13.3646 27.3131C13.211 27.1458 13.1545 27.0358 13.0901 26.8183C13.0944 26.5251 13.0823 26.3379 13.2707 26.0932L13.821 27.035C13.9467 27.2653 14.0689 27.549 14.2252 27.7563C14.771 27.2553 15.3631 26.7958 15.9344 26.3236C16.3799 25.9984 16.8197 25.694 17.298 25.4185Z" fill="#E4A703"/>
<path d="M13.2707 26.0933L13.821 27.035C13.9467 27.2653 14.0689 27.549 14.2252 27.7564C14.3512 27.938 14.3896 28.0413 14.4144 28.2609L14.3405 28.3441C13.9175 28.0939 13.8849 27.4718 13.3646 27.3131C13.211 27.1458 13.1545 27.0358 13.0901 26.8183C13.0944 26.5251 13.0823 26.3379 13.2707 26.0933Z" fill="#FECE30"/>
<path d="M20.8926 28.9554C20.9009 27.5844 20.9592 26.3027 21.5282 25.0342C22.6472 22.5393 26.0612 20.6709 28.5039 19.7338C33.486 17.8224 40.098 18.1419 44.9565 20.3285C47.6824 21.5553 49.7103 23.4821 50.785 26.291C50.8699 27.1752 50.8629 28.1786 51.0221 29.0417L50.7713 29.5779C50.3228 30.4894 49.743 31.2672 49.1017 32.053L48.8848 32.258C47.7813 33.2765 46.3551 34.1827 44.9551 34.7335L44.5782 34.9101C43.4163 35.3425 42.0788 35.9207 40.8432 36.0117L40.3104 36.1633C38.9717 36.3486 37.6104 36.4095 36.2609 36.4536C34.8415 36.4219 33.4279 36.3154 32.02 36.134L31.6156 36.0404L31.4989 36.0229C30.6238 35.9261 29.7403 35.6743 28.8804 35.4818L28.293 35.309C26.3084 34.517 24.3115 33.3394 22.751 31.8766L22.5296 31.5934C22.0258 30.9661 21.6357 30.3585 21.3379 29.6084C21.1721 29.2054 21.1086 28.7567 21.0058 28.3333C20.9031 28.5287 20.9076 28.7396 20.8926 28.9554Z" fill="url(#paint2_linear_511_1722)"/>
<path d="M24.525 24.7527L24.2727 28.6867C24.2615 28.845 24.2677 28.8126 24.1831 28.9084C24.0458 28.6382 23.9577 28.3864 23.8971 28.0882C23.8823 28.0172 23.8692 27.9459 23.8579 27.8741C23.8466 27.8025 23.837 27.7306 23.8293 27.6585C23.8215 27.5863 23.8154 27.514 23.8112 27.4416C23.8069 27.3691 23.8044 27.2966 23.8037 27.224C23.8029 27.1515 23.804 27.079 23.8068 27.0065C23.8097 26.934 23.8143 26.8616 23.8207 26.7893C23.8271 26.717 23.8353 26.6449 23.8452 26.5729C23.8551 26.5011 23.8668 26.4295 23.8802 26.3581C23.8936 26.2869 23.9087 26.216 23.9256 26.1454C23.9426 26.0748 23.9611 26.0047 23.9814 25.9349C24.0018 25.8653 24.0238 25.7962 24.0475 25.7277C24.0712 25.6591 24.0966 25.5912 24.1237 25.5238C24.1507 25.4565 24.1794 25.3898 24.2097 25.3239C24.2401 25.2579 24.272 25.1927 24.3055 25.1284C24.339 25.0641 24.374 25.0005 24.4107 24.9378C24.4473 24.8752 24.4854 24.8135 24.525 24.7527Z" fill="#CF7B07"/>
<path d="M26.4132 22.8412C26.682 22.5375 27.0958 22.3389 27.449 22.1468C31.2009 20.1053 36.9178 19.6388 40.9843 20.8279C43.2015 21.1679 46.1026 22.6717 47.4475 24.5154C48.0303 25.3143 48.4319 26.375 48.2995 27.3773C48.2924 27.4312 48.2792 27.484 48.2691 27.5374C48.2635 27.2863 48.2344 27.0493 48.1696 26.8063C47.5875 24.6211 46.2332 23.6458 44.3803 22.5815C43.1046 21.7686 41.6087 21.5692 40.2389 20.9968C39.4068 20.8198 38.5925 20.7266 37.7423 20.6988C36.759 20.6218 35.7494 20.5966 34.7644 20.6435C34.3883 20.6601 34.0126 20.6838 33.6374 20.7145C32.9104 20.7649 32.2034 20.91 31.4967 21.0835L31.4887 20.9797C31.8596 20.8644 32.1913 20.7791 32.5786 20.7331C32.7424 20.7138 32.6694 20.7254 32.8573 20.6755L32.8326 20.7514L32.7416 20.5998C31.551 20.7421 29.4917 21.3294 28.3975 21.8594C27.788 22.1547 27.0598 22.6896 26.4132 22.8412Z" fill="#EA9907"/>
<path d="M26.4131 22.8412C27.0597 22.6896 27.7879 22.1547 28.3974 21.8594C29.4916 21.3294 31.5509 20.7421 32.7415 20.5999L32.8325 20.7515L32.8572 20.6755C32.6693 20.7254 32.7423 20.7138 32.5785 20.7331C32.1912 20.7791 31.8595 20.8644 31.4886 20.9797L31.4965 21.0835L31.3468 21.141C29.4171 21.8714 26.1494 22.6863 25.2215 24.772C25.1293 24.979 25.0829 25.1587 25.1424 25.3837C24.6493 26.616 24.4088 27.6548 24.9475 28.9436C25.7065 30.7599 27.7963 31.9291 29.5409 32.6086C33.8251 34.2771 39.3471 34.089 43.5533 32.2087C44.2814 31.883 45.0116 31.4876 45.6522 31.0102C46.0466 30.7162 46.4803 30.2199 46.9158 30.0255C47.2314 29.9478 47.465 29.6332 47.6855 29.4067C47.632 30.0084 47.1772 30.4107 46.7331 30.7788C43.3223 33.6057 38.2526 34.472 33.9498 34.0369C33.6691 34.0106 33.3892 33.9778 33.1101 33.9384C32.8311 33.899 32.5531 33.853 32.2761 33.8005C31.9993 33.7479 31.7238 33.6888 31.4496 33.6232C31.1755 33.5576 30.9031 33.4855 30.6324 33.407C30.3617 33.3285 30.0931 33.2436 29.8264 33.1525C29.5596 33.0613 29.2952 32.9639 29.0331 32.8602C28.771 32.7564 28.5115 32.6466 28.2546 32.5305C27.9978 32.4146 27.7438 32.2927 27.4926 32.1647C26.0431 31.2626 24.9838 30.4844 24.1318 28.9791L24.1829 28.9085C24.2675 28.8127 24.2613 28.8452 24.2726 28.6868L24.5248 24.7528C24.8677 23.9934 25.7026 23.2401 26.4131 22.8412Z" fill="#E38E0A"/>
<path d="M24.132 28.9788C24.9839 30.4841 26.0432 31.2623 27.4927 32.1643C27.5192 32.1978 27.5447 32.2321 27.572 32.2648C27.9876 32.7607 28.4956 33.2628 28.9436 33.7414C28.9388 33.7903 28.9331 33.8391 28.9295 33.8883C28.8979 34.3027 29.1179 34.5787 29.1937 34.9782C28.9965 35.0657 28.9687 35.0511 28.7537 34.9794C28.6532 34.9461 28.5496 34.8915 28.4543 34.8473L28.2815 34.9026C28.4101 35.021 28.4433 35.0359 28.6133 35.0787C28.9167 35.0846 29.1954 35.0768 29.4957 35.0326C29.7484 35.1519 29.746 35.2355 29.8636 35.4812C30.407 35.5723 31.0749 35.6483 31.4989 36.0227C30.6239 35.9258 29.7403 35.674 28.8805 35.4815L28.293 35.3087C26.3084 34.5167 24.3115 33.3391 22.751 31.8763L22.5296 31.5931C22.0258 30.9658 21.6357 30.3582 21.3379 29.6081C22.2047 29.2303 23.1884 29.3452 24.0943 29.2022L24.132 28.9788Z" fill="#FEE94D"/>
<path d="M34.7645 20.6433C35.7495 20.5963 36.7591 20.6215 37.7424 20.6986C38.5926 20.7264 39.4069 20.8196 40.239 20.9966C41.6088 21.569 43.1047 21.7684 44.3804 22.5813C46.2333 23.6456 47.5877 24.6208 48.1697 26.8061C48.2345 27.049 48.2636 27.2861 48.2692 27.5372C48.1882 28.2256 48.0081 28.7904 47.6857 29.4064C47.4652 29.633 47.2316 29.9476 46.916 30.0253C46.4805 30.2197 46.0468 30.7159 45.6524 31.01C45.0118 31.4874 44.2816 31.8828 43.5535 32.2085C39.3474 34.0888 33.8253 34.2768 29.5412 32.6084C27.7965 31.9289 25.7068 30.7596 24.9477 28.9433C24.409 27.6546 24.6495 26.6158 25.1427 25.3835C25.0831 25.1585 25.1295 24.9788 25.2218 24.7717C26.1497 22.6861 29.4174 21.8711 31.3471 21.1408L31.4968 21.0833C32.2035 20.9097 32.9106 20.7647 33.6375 20.7143C34.0127 20.6835 34.3884 20.6599 34.7645 20.6433Z" fill="url(#paint3_linear_511_1722)"/>
<path d="M33.6372 20.7145C34.0125 20.6838 34.3881 20.6601 34.7642 20.6436C34.9348 20.848 35.0021 20.8461 35.2502 20.92C34.6934 20.964 34.1284 20.9918 33.5756 21.0711L33.6372 20.7145Z" fill="#C36603"/>
<path d="M34.7644 20.6433C35.7495 20.5963 36.759 20.6215 37.7424 20.6986L37.7788 20.9831C36.9341 20.936 36.097 20.8875 35.2505 20.9197C35.0023 20.8458 34.935 20.8477 34.7644 20.6433Z" fill="#C36603"/>
<path d="M37.7423 20.6985C38.5925 20.7263 39.4068 20.8195 40.2389 20.9965C41.6086 21.5689 43.1046 21.7683 44.3803 22.5812L44.2173 22.7473C42.1322 21.8419 40.0253 21.295 37.7787 20.983L37.7423 20.6985Z" fill="#CF7B07"/>
<path d="M31.912 28.6794C31.1364 28.7503 28.8104 27.2773 28.0158 26.7931C27.7236 26.615 27.522 26.4884 27.437 26.1462C28.0327 25.389 32.6489 24.8978 33.8129 24.7388C32.8494 25.5118 30.0001 25.5253 28.6414 25.9226C28.3767 26.0787 28.1057 26.2287 27.8483 26.396C28.8874 27.1728 30.6805 28.2349 31.9443 28.5207L31.912 28.6794Z" fill="#EA9907"/>
<path d="M31.4968 21.0833C32.2035 20.9098 32.9106 20.7648 33.6375 20.7144L33.5759 21.0709C30.6064 21.5034 27.2548 22.5551 25.3718 25.0619C25.2931 25.1675 25.2167 25.2747 25.1427 25.3836C25.0832 25.1586 25.1296 24.9788 25.2218 24.7718C26.1497 22.6862 29.4174 21.8712 31.3471 21.1408L31.4968 21.0833Z" fill="#C36603"/>
<path d="M27.8483 26.3961C28.1057 26.2287 28.3766 26.0787 28.6413 25.9226C29.7509 26.5119 30.8856 27.2186 32.042 27.7014C32.0213 27.9758 32.0137 28.2536 31.9442 28.5207C30.6805 28.2349 28.8874 27.1729 27.8483 26.3961Z" fill="#FECE30"/>
<path d="M43.2342 25.7593C43.2916 26.0559 43.2485 26.2006 43.0744 26.4494C42.4682 27.3171 41.239 28.0694 40.3239 28.5758C40.4972 29.6826 40.7172 30.7757 40.9455 31.8723C39.9326 31.5697 37.118 30.4432 36.2507 30.6062C35.4656 30.7538 31.778 32.1139 31.4754 31.564C31.4033 31.4327 31.424 31.4882 31.3943 31.3773C31.636 31.2718 31.8413 31.149 32.0604 31.0026L32.2018 30.9974C33.1802 31.2545 34.7649 30.2293 35.8864 30.2415C37.1812 30.2557 39.4326 31.2147 40.7303 31.6423C40.3836 30.4746 40.098 29.3079 39.9982 28.0913C41.1123 27.4093 42.2235 26.5884 43.2342 25.7593Z" fill="#EA9907"/>
<path d="M41.6313 25.3135L42.7866 25.5716C42.9724 25.6105 43.0798 25.6479 43.234 25.7593C42.2234 26.5884 41.1121 27.4093 39.998 28.0913C40.0978 29.3079 40.3834 30.4746 40.7301 31.6424C39.4324 31.2147 37.181 30.2557 35.8862 30.2415C34.7647 30.2293 33.18 31.2546 32.2017 30.9975C33.3347 30.3681 34.8659 30.3187 35.8055 29.4288C37.0759 29.8008 38.341 30.19 39.6007 30.5962C39.3776 29.7044 39.1667 28.7823 38.7788 27.9454C39.6042 27.4613 40.5058 26.9906 41.2386 26.3762C41.1604 26.0609 41.4921 25.6205 41.6313 25.3135Z" fill="#E4A703"/>
<path d="M41.6313 25.3135L42.7867 25.5716C42.2381 25.8018 41.7336 26.04 41.2387 26.3762C41.1605 26.0609 41.4922 25.6205 41.6313 25.3135Z" fill="#FEE94D"/>
<path d="M35.6055 22.9778C36.2658 23.7983 37.0735 25.0125 38.201 25.1427C39.3427 25.2744 40.4785 25.0914 41.6315 25.3134C41.4924 25.6204 41.1607 26.0609 41.2389 26.3762C40.5061 26.9905 39.6044 27.4612 38.7791 27.9454C39.1669 28.7823 39.3779 29.7043 39.601 30.5961C38.3412 30.1899 37.0761 29.8008 35.8058 29.4287C34.8661 30.3187 33.3349 30.368 32.2019 30.9974L32.0605 31.0026C31.8414 31.149 31.6361 31.2718 31.3943 31.3773C31.3577 30.6229 31.7564 29.4838 31.9348 28.7427L31.912 28.6794L31.9443 28.5207C32.0137 28.2536 32.0213 27.9758 32.042 27.7014C30.8857 27.2186 29.7509 26.5119 28.6414 25.9226C30.0001 25.5253 32.8494 25.5118 33.8129 24.7388C34.4479 24.1932 35.0214 23.5769 35.6055 22.9778Z" fill="url(#paint4_linear_511_1722)"/>
<path d="M32.0419 27.7015C32.2016 27.5649 32.2126 27.5145 32.4292 27.4888C32.6719 27.89 32.4112 28.6852 32.3023 29.1313C32.2909 29.1781 32.2779 29.2246 32.2657 29.2712C32.2569 29.0075 32.2824 28.6694 32.1992 28.4231C32.1054 28.5273 32.0205 28.6323 31.9347 28.7428L31.9119 28.6795L31.9442 28.5208C32.0136 28.2537 32.0212 27.9759 32.0419 27.7015Z" fill="#FEF794"/>
<path d="M31.9348 28.7426C32.0206 28.6321 32.1055 28.5271 32.1993 28.4229C32.2825 28.6692 32.257 29.0073 32.2658 29.271C32.2216 29.8546 31.9569 30.3455 32.0506 30.935C32.0543 30.9574 32.0572 30.9799 32.0605 31.0025C31.8414 31.1489 31.6361 31.2717 31.3943 31.3772C31.3577 30.6228 31.7564 29.4837 31.9348 28.7426Z" fill="#FEF794"/>
<path d="M0.21493 9.18446C0.208887 8.19492 0.520894 7.11074 0.99797 6.2481C2.61084 3.33074 5.9944 1.72962 9.06301 0.844362C13.9781 -0.573569 20.9588 -0.274516 25.5122 2.26678C27.6615 3.46629 29.4022 5.20831 30.092 7.61752C30.252 7.78932 30.3966 7.94766 30.5174 8.15123C30.4686 8.8583 30.3757 9.54084 30.2526 10.2388C30.0899 11.9792 29.9839 13.5184 29.3288 15.1559C28.8058 15.7204 28.2809 16.3157 27.6928 16.8135C27.4488 17.0059 27.206 17.1799 26.9405 17.341C24.2073 18.8484 21.8211 19.6098 18.7736 20.2368L18.1518 20.3121C16.8456 20.4006 15.5379 20.442 14.2287 20.4362C14.0401 20.4321 13.8528 20.4048 13.6654 20.3837C12.2384 20.2771 10.8223 20.0885 9.41715 19.8179C9.2084 19.7409 8.99256 19.691 8.77708 19.6363C7.74408 19.316 6.72138 18.9657 5.70898 18.5854L5.49401 18.3858C5.32342 18.2838 5.16595 18.2444 4.97688 18.1905C4.96324 17.3471 4.78539 15.972 5.14488 15.2157C4.18676 14.6184 3.28216 13.9649 2.38983 13.2749L2.16484 13.0333C1.68863 12.5248 1.25472 11.9848 0.888844 11.3918C0.714107 10.9748 0.568203 10.5665 0.439567 10.1331C0.35099 9.8209 0.286586 9.50096 0.21493 9.18446Z" fill="url(#paint5_linear_511_1722)"/>
<path d="M12.5128 14.9223C12.8445 14.8194 13.1767 14.6797 13.5279 14.7113C14.3225 14.8151 15.0962 14.8895 15.8991 14.8845C16.3562 14.8816 16.8452 14.8072 17.297 14.8427L17.3179 15.0394C15.8 15.2663 14.0299 15.1418 12.5128 14.9223Z" fill="#CF7B07"/>
<path d="M4.95142 11.5142C5.36081 11.8914 5.76847 12.2343 6.24123 12.5306C6.82795 12.8984 8.62643 13.6602 8.9419 14.0698C7.9615 13.8507 6.64337 13.2265 5.80439 12.6762C5.32472 12.3614 5.06296 12.0857 4.95142 11.5142Z" fill="#FECE30"/>
<path d="M18.6555 1.98047C21.2412 2.54992 23.9211 3.1432 25.7478 5.22658C24.319 4.47065 23.0495 3.58851 21.5162 3.00386C20.7315 2.70446 19.8195 2.73398 19.0606 2.3719C19.0583 2.35359 19.0602 2.33408 19.0535 2.31699C18.9806 2.13155 18.8175 2.07958 18.6555 1.98047Z" fill="#E38E0A"/>
<path d="M3.50746 9.1932C3.48864 9.17283 3.46619 9.15539 3.45083 9.13242C3.09185 8.59664 3.0221 8.05896 3.21531 7.45377C3.83138 5.52492 5.75574 4.01496 7.4653 3.09431C8.16615 2.71686 9.83549 1.85215 10.6166 2.08939L10.4585 2.2586C8.40236 2.49964 5.80875 4.08333 4.52187 5.69309C3.66372 6.76673 3.40041 7.8414 3.50746 9.1932Z" fill="#FECE30"/>
<path d="M25.0102 13.9156L24.9839 13.8615C24.6614 13.7193 24.133 13.9111 23.7915 14.0017C23.8172 13.7572 24.2689 13.7122 24.4746 13.6638C26.558 13.1733 27.8771 12.3435 29.4251 10.9385C29.2158 11.5564 28.9761 12.0416 28.5219 12.5246C27.9928 12.8565 27.4793 13.1995 26.9718 13.5637C26.3516 13.7509 25.6634 13.9391 25.0102 13.9156Z" fill="#FEDE39"/>
<path d="M30.0921 7.61768C30.2522 7.78948 30.3967 7.94781 30.5176 8.15139C30.4687 8.85845 30.3758 9.54099 30.2527 10.2389C29.9861 10.8678 29.619 11.4597 29.2806 12.0521C29.0889 12.2527 28.8857 12.4468 28.7275 12.6757C28.3307 13.0843 27.9286 13.4757 27.5028 13.854L27.4291 13.8768C26.6897 14.2185 26.0175 14.6782 25.2549 14.9734C25.6156 14.6402 25.9673 14.2865 26.37 14.0044C26.6017 13.9103 26.7814 13.7238 26.972 13.5638C27.4795 13.1996 27.993 12.8565 28.5221 12.5247C28.9763 12.0417 29.216 11.5565 29.4253 10.9386C30.1068 9.86837 30.107 8.84291 30.0921 7.61768Z" fill="#FEF794"/>
<path d="M25.0103 13.9156C25.6634 13.9391 26.3517 13.7509 26.9719 13.5637C26.7813 13.7238 26.6015 13.9103 26.3698 14.0044C25.9672 14.2865 25.6154 14.6401 25.2548 14.9734C26.0174 14.6781 26.6896 14.2185 27.429 13.8768C27.3625 14.1699 27.3418 14.2015 27.129 14.4148C25.6987 15.1061 24.3662 15.8738 22.8195 16.2979C21.5699 16.666 19.9786 17.1439 18.6748 17.1533C19.0904 16.6353 21.3427 16.5957 22.09 16.2314C22.4935 16.0347 22.8435 15.6447 23.1498 15.3192C23.5663 14.8768 24.206 14.7848 24.6979 14.4388C24.7635 14.2786 24.8189 14.1529 24.9269 14.0147C24.9535 13.9807 24.9825 13.9486 25.0103 13.9156Z" fill="#FEE94D"/>
<path d="M30.2527 10.2388C30.09 11.9792 29.984 13.5184 29.3289 15.1559C28.8059 15.7204 28.281 16.3157 27.6929 16.8135C27.4489 17.0059 27.2061 17.1799 26.9406 17.341C26.8099 16.4288 26.8171 15.2918 27.1291 14.4147C27.3419 14.2014 27.3626 14.1699 27.429 13.8767L27.5028 13.8539C27.9286 13.4756 28.3307 13.0841 28.7275 12.6756C28.8857 12.4467 29.0889 12.2526 29.2805 12.0519C29.619 11.4595 29.9861 10.8676 30.2527 10.2388Z" fill="#EA9907"/>
<path d="M28.7274 12.6754C28.8856 12.4465 29.0888 12.2524 29.2805 12.0518C29.2908 12.6785 28.7134 13.4668 28.2985 13.9079C28.2087 14.0036 28.1251 14.0688 28.0105 14.1317C27.9185 14.103 27.8358 14.0811 27.7517 14.0331C27.7045 13.9644 27.5737 13.9001 27.5027 13.8537C27.9285 13.4754 28.3306 13.084 28.7274 12.6754Z" fill="#FECE30"/>
<path d="M27.5028 13.854C27.5737 13.9005 27.7046 13.9647 27.7518 14.0334C27.494 14.7065 27.4772 16.1382 27.6929 16.8137C27.4489 17.006 27.2061 17.1801 26.9406 17.3412C26.8099 16.429 26.8171 15.292 27.1291 14.4148C27.3419 14.2016 27.3626 14.17 27.429 13.8768L27.5028 13.854Z" fill="#C36603"/>
<path d="M5.14497 15.2156L5.41312 15.3684C6.49642 15.7987 7.6854 16.3709 8.82897 16.5795C8.68116 17.5669 8.7744 18.6371 8.77717 19.6362C7.74417 19.3159 6.72147 18.9656 5.70907 18.5853L5.4941 18.3857C5.32351 18.2837 5.16604 18.2443 4.97697 18.1904C4.96333 17.347 4.78548 15.9719 5.14497 15.2156Z" fill="#EA9907"/>
<path d="M5.14497 15.2156L5.41312 15.3684C5.45571 16.3738 5.4827 17.3795 5.4941 18.3857C5.32351 18.2837 5.16604 18.2443 4.97697 18.1904C4.96333 17.347 4.78548 15.9719 5.14497 15.2156Z" fill="#C36603"/>
<path d="M10.4583 2.25886L10.5453 2.25851C10.8005 2.25609 11.1303 2.15802 11.3626 2.20067L10.4645 2.52045L10.4946 2.59849C8.37148 3.40881 6.78434 4.15369 5.22482 5.85635L5.398 5.92938C4.65882 6.92221 4.27067 7.95596 4.45179 9.2128C4.53571 9.79537 4.73686 10.3077 5.00398 10.8279C5.39368 11.2611 5.74454 11.7132 6.22749 12.048C7.87316 13.6826 11.3159 14.4278 13.5278 14.7113C13.1766 14.6797 12.8444 14.8194 12.5127 14.9223C11.3809 14.8664 10.0294 14.4133 8.94197 14.0699C8.62651 13.6603 6.82802 12.8985 6.2413 12.5307C5.76854 12.2344 5.36088 11.8915 4.95149 11.5143C4.24718 10.8452 3.86628 10.0815 3.50731 9.19346C3.40026 7.84166 3.66357 6.76699 4.52172 5.69335C5.8086 4.08359 8.40221 2.4999 10.4583 2.25886Z" fill="#EA9907"/>
<path d="M5.0042 10.8278L4.8393 10.7924C4.44511 10.1659 4.12758 9.55452 4.07267 8.80032C3.99048 7.67126 4.50779 6.68517 5.22504 5.8562L5.39822 5.92923C4.65904 6.92206 4.27089 7.95581 4.45202 9.21264C4.53593 9.79522 4.73709 10.3075 5.0042 10.8278Z" fill="#CF7B07"/>
<path d="M10.6166 2.08935C11.3493 2.10058 12.158 1.87059 12.8957 1.7903C14.2834 1.63921 15.6631 1.66753 17.0514 1.78736C17.5661 1.8509 18.1414 1.9835 18.6556 1.98022C18.8176 2.07933 18.9807 2.1313 19.0536 2.31674C19.0603 2.33384 19.0584 2.35335 19.0607 2.37165C19.8195 2.73373 20.7316 2.70421 21.5163 3.00361C23.0496 3.58826 24.319 4.47041 25.7479 5.22634C26.6284 6.09485 27.4044 7.19352 27.4051 8.48299C27.4056 9.78092 26.668 10.9454 25.7584 11.8165C23.5757 13.9068 20.2478 14.7568 17.318 15.0391L17.2971 14.8424C19.4763 14.6237 21.6521 14.1532 23.5776 13.0719C24.8761 12.3429 26.3487 11.1469 26.7346 9.64192C26.999 8.61128 26.7559 7.52055 26.212 6.62303C24.9192 4.48992 22.4489 3.4156 20.1217 2.85823C16.5018 1.99111 11.5639 1.80635 8.28219 3.80876C7.24931 4.27824 6.1363 5.06058 5.39816 5.92909L5.22498 5.85606C6.78449 4.1534 8.37164 3.40851 10.4947 2.59819L10.4647 2.52015L11.3627 2.20038C11.1305 2.15773 10.8007 2.2558 10.5455 2.25821L10.4585 2.25856L10.6166 2.08935Z" fill="#C36603"/>
<path d="M17.0513 1.7876C17.566 1.85114 18.1413 1.98375 18.6555 1.98047C18.8175 2.07958 18.9807 2.13154 19.0535 2.31699C19.0603 2.33408 19.0584 2.35359 19.0606 2.37189C17.7737 2.22271 16.5217 2.087 15.2257 2.05092C15.8353 1.9708 16.4439 1.88302 17.0513 1.7876Z" fill="#CF7B07"/>
<path d="M10.6164 2.08935C11.349 2.10058 12.1578 1.87059 12.8954 1.7903C14.2831 1.63921 15.6629 1.66753 17.0511 1.78736C16.4437 1.88278 15.8352 1.97056 15.2256 2.05067C13.5999 2.09522 12.0751 2.17222 10.4945 2.59819L10.4645 2.52015L11.3625 2.20038C11.1303 2.15773 10.8005 2.2558 10.5453 2.25821L10.4583 2.25856L10.6164 2.08935Z" fill="#E38E0A"/>
<path d="M14.1448 17.3425C15.5781 17.425 16.9493 17.3796 18.3781 17.251C18.1446 18.1996 18.1851 19.3363 18.1519 20.3122C16.8457 20.4007 15.538 20.4421 14.2288 20.4363C14.0402 20.4322 13.8529 20.4049 13.6655 20.3838C13.6805 19.3639 13.6919 18.3469 13.7679 17.3292L14.1448 17.3425Z" fill="#EA9907"/>
<path d="M13.7679 17.3291L14.1448 17.3424C14.1799 18.3642 14.1181 19.422 14.2288 20.4362C14.0402 20.4321 13.8529 20.4048 13.6655 20.3837C13.6805 19.3638 13.6919 18.3468 13.7679 17.3291Z" fill="#C36603"/>
<path d="M8.82895 16.5796L9.2708 16.746C10.7714 16.9681 12.2557 17.1946 13.7679 17.3291C13.6919 18.3468 13.6805 19.3638 13.6655 20.3838C12.2385 20.2772 10.8224 20.0886 9.41722 19.8179C9.20847 19.7409 8.99263 19.691 8.77715 19.6363C8.77438 18.6372 8.68115 17.5671 8.82895 16.5796Z" fill="#EA9907"/>
<path d="M8.82895 16.5796L9.2708 16.746C9.30303 17.7708 9.35184 18.7947 9.41722 19.8179C9.20847 19.7409 8.99263 19.691 8.77715 19.6363C8.77438 18.6372 8.68115 17.5671 8.82895 16.5796Z" fill="#C36603"/>
<path d="M22.8194 16.2979C24.3661 15.8738 25.6986 15.1061 27.129 14.4148C26.817 15.2919 26.8097 16.4289 26.9404 17.3411C24.2073 18.8485 21.821 19.61 18.7735 20.2369L18.1517 20.3122C18.1849 19.3363 18.1445 18.1996 18.3779 17.251L18.5758 17.2025L18.6747 17.1533C19.9785 17.144 21.5698 16.666 22.8194 16.2979Z" fill="#EA9907"/>
<path d="M22.7475 16.4153L22.9328 16.4883C23.1778 17.1146 23.0117 18.6537 22.7915 19.2686C22.6166 19.1672 22.5464 19.1456 22.4999 18.9293C22.3696 18.3217 22.4074 16.921 22.7475 16.4153Z" fill="#C36603"/>
<path d="M18.5758 17.2024L18.7307 17.3044C18.8433 18.2627 18.7626 19.2706 18.7735 20.2368L18.1517 20.3121C18.1849 19.3362 18.1445 18.1995 18.3779 17.2509L18.5758 17.2024Z" fill="#C36603"/>
<path d="M8.28222 3.80901C11.5639 1.8066 16.5018 1.99135 20.1217 2.85848C22.4489 3.41584 24.9193 4.49016 26.212 6.62328C26.7559 7.52079 26.999 8.61152 26.7347 9.64217C26.3488 11.1471 24.8761 12.3432 23.5776 13.0722C21.6521 14.1534 19.4763 14.6239 17.2971 14.8427C16.8452 14.8071 16.3562 14.8815 15.8992 14.8845C15.0963 14.8895 14.3226 14.8151 13.528 14.7113C11.3161 14.4278 7.87335 13.6825 6.22767 12.0479C5.74473 11.7131 5.39387 11.2611 5.00416 10.8279C4.73705 10.3076 4.5359 9.79532 4.45198 9.21275C4.27085 7.95591 4.65901 6.92216 5.39819 5.92933C6.13633 5.06083 7.24934 4.27848 8.28222 3.80901Z" fill="url(#paint6_linear_511_1722)"/>
<path d="M15.3035 4.03955C15.3534 4.30287 15.3351 4.47604 15.1911 4.70223C14.8798 5.19157 14.0089 6.09047 13.4253 6.21048C13.2291 6.20633 13.0919 6.16005 12.9092 6.09081C13.7929 5.54156 14.5486 4.75007 15.3035 4.03955Z" fill="#FEF569"/>
<path d="M15.5403 3.81152L15.4373 3.50641L15.5462 3.4187C15.9587 3.50227 17.6139 5.59481 17.9737 6.04046L17.6432 6.01542C17.1435 5.72724 16.7796 5.41783 16.399 4.98962L16.2716 4.79899C16.0117 4.48699 15.7812 4.13924 15.5403 3.81152Z" fill="#EA9907"/>
<path d="M15.5403 3.81177C15.7811 4.13949 16.0117 4.48723 16.2715 4.79924C16.1909 5.26837 16.1089 5.70279 15.6914 5.98976C15.116 6.38534 14.1013 6.23237 13.4253 6.21061C14.0089 6.09061 14.8798 5.1917 15.1911 4.70237C15.3351 4.47618 15.3535 4.303 15.3036 4.03969L15.5403 3.81177Z" fill="#FEEB61"/>
<path d="M15.3412 10.756C15.433 10.8399 15.5095 10.8955 15.6259 10.9492C16.1594 11.1956 16.8769 11.2863 17.4486 11.4596C18.4355 11.759 19.3612 12.3247 20.4049 12.4307C20.6686 12.0051 19.7286 10.1406 19.736 9.52354C19.7364 9.49868 19.741 9.47415 19.7436 9.44946C20.0063 9.73781 20.715 12.0272 20.7182 12.424C20.7185 12.457 20.7123 12.4896 20.7095 12.5222C20.5253 12.6505 20.3431 12.6042 20.1287 12.5694C18.5212 12.3071 16.9193 11.6304 15.3353 11.2267C14.1843 11.6416 11.771 12.7415 10.6296 12.5234C11.5948 12.1425 14.7567 11.4674 15.255 10.8039L15.3412 10.756Z" fill="#CF7B07"/>
<path d="M11.2548 9.665C10.4455 9.24041 8.45656 8.57462 7.95203 7.89984C7.83548 7.74392 7.86034 7.69885 7.88918 7.51911C8.09258 7.28774 8.32482 7.238 8.60781 7.15063L9.07263 7.56106C9.43039 7.75134 11.4 8.68978 11.5081 8.90872L11.4974 8.97036L11.2548 9.665Z" fill="#EA9907"/>
<path d="M11.4973 8.97047C11.4356 8.95424 11.3564 8.93232 11.2965 8.92248C11.2055 8.90763 11.1128 8.90418 11.0223 8.88622C10.3784 8.75862 8.51223 8.1814 8.1543 7.67066L8.22043 7.56723C8.54262 7.43134 8.73842 7.48555 9.07253 7.56118C9.4303 7.75146 11.3999 8.68989 11.508 8.90883L11.4973 8.97047Z" fill="#FECE30"/>
<path d="M12.4696 11.0056C13.3001 10.643 14.2599 10.122 15.1709 10.0747L15.255 10.8039C14.7567 11.4674 11.5948 12.1426 10.6296 12.5235C10.6523 12.233 10.6637 11.92 10.8104 11.6631C10.9228 11.633 11.0266 11.6159 11.1255 11.5529C11.5828 11.4079 12.0277 11.1927 12.4696 11.0056Z" fill="#FDB803"/>
<path d="M21.7406 6.76153C22.0012 6.70938 22.2029 6.732 22.4289 6.87221C22.6104 6.98461 22.6912 7.08182 22.7697 7.28418C22.6882 7.56321 22.6042 7.65438 22.3496 7.79769C21.4609 8.29825 20.6057 8.89964 19.7438 9.44976C19.7412 9.47445 19.7365 9.49897 19.7362 9.52383C19.7287 10.1409 20.6687 12.0054 20.4051 12.431C19.3613 12.325 18.4357 11.7593 17.4487 11.4599C16.877 11.2866 16.1596 11.1959 15.626 10.9495C15.5097 10.8958 15.4332 10.8402 15.3413 10.7563L15.5083 10.536C15.8239 10.4378 16.1385 10.5771 16.4652 10.5685L16.6392 10.5622C17.6616 10.8357 18.6646 11.2058 19.6592 11.5653C19.4185 10.5211 19.0358 9.51951 18.671 8.51408C19.6329 7.83533 20.7235 7.35222 21.7406 6.76153Z" fill="#EA9907"/>
<path d="M8.28222 3.80884L8.41915 3.85631C8.14495 3.99825 7.82224 4.1148 7.68117 4.40471C7.6848 4.63642 7.71035 4.82842 7.75646 5.05565C7.95105 6.01429 7.45878 6.12186 7.26678 6.86588C7.26246 6.88245 7.28422 6.89541 7.29285 6.91026C7.72641 6.44976 7.91617 5.85044 8.40102 5.39529C8.03825 6.26846 7.29389 7.52529 6.55453 8.12357C6.61306 7.86181 6.7455 7.70918 6.84271 7.46917C6.18606 8.00755 5.94934 8.56128 5.8618 9.38973C5.81069 9.8732 5.78565 10.2854 5.6249 10.7521L5.49039 11.1428C5.71952 11.3649 6.20713 11.7193 6.22767 12.0477C5.74473 11.7129 5.39387 11.2609 5.00416 10.8277C4.73705 10.3075 4.5359 9.79515 4.45198 9.21258C4.27085 7.95574 4.65901 6.922 5.39819 5.92917C6.13633 5.06066 7.24934 4.27832 8.28222 3.80884Z" fill="#FEE94D"/>
<path d="M16.2716 4.79907L16.399 4.9897C16.7795 5.41791 17.1435 5.72732 17.6432 6.0155L17.9737 6.04054C19.0554 6.46754 20.5787 6.62139 21.7406 6.76125C20.7234 7.35194 19.6328 7.83505 18.6709 8.5138C19.0358 9.51923 19.4184 10.5209 19.6591 11.565C18.6645 11.2055 17.6615 10.8355 16.6392 10.562L16.4651 10.5682C16.1384 10.5768 15.8238 10.4375 15.5082 10.5357L15.3412 10.756L15.2551 10.8039L15.171 10.0747C14.26 10.122 13.3002 10.6429 12.4696 11.0055C12.0278 11.1927 11.5828 11.4079 11.1256 11.5529C11.0267 11.6159 10.9229 11.633 10.8105 11.6631C11.0348 11.0254 10.944 10.2757 11.2548 9.66496L11.4973 8.97032L11.5081 8.90868C11.4 8.68974 9.43037 7.75131 9.0726 7.56103L8.60779 7.1506C9.96183 6.36445 11.3416 6.44285 12.8131 6.1134L12.9092 6.09078C13.0919 6.16002 13.2292 6.2063 13.4253 6.21044C14.1013 6.2322 15.1161 6.38517 15.6914 5.9896C16.1089 5.70262 16.1909 5.26821 16.2716 4.79907Z" fill="url(#paint7_linear_511_1722)"/>
<path d="M15.1709 10.0747L16.6391 10.562L16.465 10.5682C16.1383 10.5768 15.8237 10.4375 15.5081 10.5357L15.3411 10.7561L15.255 10.8039L15.1709 10.0747Z" fill="#E4A703"/>
<path d="M16.399 4.98975C16.7795 5.41796 17.1435 5.72737 17.6432 6.01555C17.617 6.01883 17.5909 6.02263 17.5646 6.02522C17.5213 6.02971 17.4776 6.03264 17.4341 6.03679C17.2984 6.04939 17.1525 6.06994 17.0168 6.0513C16.8073 6.02246 16.5939 5.89745 16.4841 5.71701C16.3408 5.48132 16.3505 5.24788 16.399 4.98975Z" fill="#FEDE39"/>
<path d="M11.1256 11.5528C11.171 11.2393 11.2484 10.6726 11.4832 10.4493C11.5754 10.3616 11.6574 10.3929 11.7757 10.3917C12.0758 10.5552 12.2488 10.7477 12.4696 11.0055C12.0278 11.1927 11.5828 11.4078 11.1256 11.5528Z" fill="#FEF569"/>
<path d="M16.9369 12.417C16.9479 11.9624 16.971 11.5284 17.0841 11.0845C17.5308 9.3292 18.8545 8.03144 20.3726 7.13427C24.1798 4.88426 28.7311 4.77186 32.9886 5.32301C34.0449 5.45959 35.1325 5.59064 36.1647 5.85603C36.6123 5.99405 37.0609 6.12821 37.5107 6.25851C38.4988 6.62508 39.4625 7.03361 40.4254 7.46217C40.8725 7.66125 41.3492 7.94995 41.8094 8.09533C44.0276 9.41571 46.4641 11.2712 47.1356 13.9095C47.2145 14.22 47.2756 14.5358 47.3381 14.8497C47.1763 15.5585 47.1069 16.3108 46.8647 16.9949C46.4487 17.997 45.7195 18.7153 44.9557 19.4607C44.208 20.1087 43.3822 20.5514 42.5088 21.008L42.1041 21.1934C41.1916 21.5194 40.2272 21.8963 39.2703 22.0486L39.2579 22.0984C39.6041 22.6528 39.1049 24.5032 38.9845 25.1607C38.8253 25.1787 38.6601 25.2081 38.5002 25.2115C37.3508 25.3253 36.2112 25.4387 35.0542 25.4065L34.5267 25.4035C33.4368 25.3476 32.3443 25.2324 31.2564 25.1414L30.9235 25.1317C30.9109 25.3417 30.9041 25.5372 30.9197 25.7476L30.8539 25.7445C30.0924 25.6275 29.3351 25.4774 28.5775 25.3384C27.4037 25.0566 26.2627 24.7312 25.1153 24.358C24.0001 23.896 22.8759 23.451 21.8045 22.8926C21.4892 23.1354 21.1879 23.38 20.8947 23.6499C20.7113 23.8065 20.5761 23.9227 20.3382 23.9923C20.3969 23.8029 21.1761 23.0644 21.3514 22.7806L20.8365 22.2864L19.0503 20.7951L18.8595 20.5981C18.2305 20.0234 17.7139 19.4783 17.2708 18.7469C17.071 18.3603 16.9072 17.9659 16.7445 17.5631L16.7904 17.0059L16.7695 16.9562C16.7768 16.393 16.7736 15.8298 16.76 15.2667L16.7633 14.6837C16.8718 13.9325 16.8398 13.1708 16.9369 12.417Z" fill="url(#paint8_linear_511_1722)"/>
<path d="M23.8279 19.8563C23.8144 19.8261 23.802 19.7954 23.7877 19.7657C23.7352 19.6573 23.6818 19.5901 23.6021 19.5024L23.6728 19.4468C27.5749 21.2997 31.9613 22.0283 36.2529 22.115C37.0268 22.1307 38.1417 22.2158 38.8828 22.0078C38.9779 21.981 39.0638 21.9307 39.1549 21.8945C39.2747 21.8468 39.4037 21.8097 39.5256 21.7683L39.5809 21.8009C39.4769 21.8966 39.3851 21.9691 39.2703 22.0485L39.2578 22.0982L39.0997 22.1227C38.0688 22.1519 37.0396 22.3472 36.0017 22.3672C33.4576 22.4163 30.8678 21.9718 28.3835 21.4765L28.1211 21.3192C27.5623 21.3887 25.2517 20.4584 24.5759 20.2436L24.1946 20.0466C24.0679 19.999 23.947 19.9211 23.8279 19.8563Z" fill="#FECE30"/>
<path d="M39.367 9.62882L39.3908 9.52022C39.9941 9.57547 40.4912 10.2508 41.0926 10.3364C40.5011 9.68581 39.5587 9.39296 38.7951 8.98219L38.8046 8.87549C41.0168 9.76472 43.6888 11.3736 44.6559 13.6796C45.0444 14.6059 45.0926 15.6338 44.6882 16.5631C44.0732 17.9765 42.5501 18.8457 41.1632 19.3523C39.9698 19.7885 38.6171 20.1027 37.3489 20.1809L37.4934 19.9385C38.1516 19.913 38.863 19.7698 39.4998 19.6037C41.1947 19.161 43.0113 18.2132 43.8974 16.6353C44.3425 15.8425 44.5016 14.9381 44.2363 14.0577C43.579 11.8743 41.2358 10.6229 39.367 9.62882Z" fill="#CF7B07"/>
<path d="M16.9368 12.417C17.052 12.9429 16.9663 13.4564 17.0855 13.9801C17.8972 15.483 18.8845 16.5073 20.1258 17.66L20.5438 17.9773C20.2903 18.9503 20.0723 19.7955 20.1341 20.8139C19.9947 20.7414 19.887 20.662 19.7672 20.5608C18.5461 19.488 17.7342 18.4696 17.1288 16.9576L16.7904 17.0059L16.7695 16.9562C16.7768 16.393 16.7736 15.8298 16.76 15.2667L16.7633 14.6838C16.8717 13.9325 16.8398 13.1709 16.9368 12.417Z" fill="#E38E0A"/>
<path d="M16.9368 12.417C17.052 12.9429 16.9663 13.4564 17.0855 13.9801C16.977 14.8963 16.9921 16.0445 17.1288 16.9576L16.7904 17.0059L16.7695 16.9562C16.7768 16.393 16.7736 15.8298 16.76 15.2667L16.7633 14.6838C16.8717 13.9325 16.8398 13.1709 16.9368 12.417Z" fill="#C36603"/>
<path d="M20.1258 17.6599L20.5438 17.9773C20.2903 18.9502 20.0722 19.7954 20.134 20.8138C19.9947 20.7413 19.887 20.6619 19.7671 20.5607C19.6204 19.6176 19.7449 18.539 20.1258 17.6599Z" fill="#C36603"/>
<path d="M20.5437 17.9771C21.602 18.6983 22.6674 19.3088 23.8278 19.8562C23.947 19.9209 24.0679 19.9988 24.1946 20.0465C23.8631 20.9536 23.7303 22.0292 23.3318 22.888C22.1728 22.3443 21.1534 21.5777 20.134 20.8136C20.0722 19.7952 20.2903 18.95 20.5437 17.9771Z" fill="#EA9907"/>
<path d="M16.7904 17.0056L17.1289 16.9573C17.7342 18.4693 18.5461 19.4877 19.7672 20.5605C19.887 20.6616 19.9948 20.7411 20.1341 20.8136C21.1535 21.5776 22.1729 22.3443 23.3319 22.888L23.9511 23.1746C25.0912 23.645 26.2681 23.9903 27.4491 24.3408L27.9488 24.4527C28.9154 24.6956 29.9241 24.8388 30.8791 25.1019L30.9235 25.1315C30.9109 25.3414 30.9041 25.5369 30.9197 25.7473L30.8539 25.7442C30.0924 25.6272 29.3351 25.4771 28.5775 25.3381C27.4037 25.0563 26.2627 24.7309 25.1153 24.3577C24.0001 23.8957 22.8759 23.4507 21.8045 22.8923C21.4892 23.1351 21.1879 23.3798 20.8947 23.6496C20.7113 23.8062 20.5761 23.9224 20.3382 23.992C20.3969 23.8026 21.1761 23.0641 21.3514 22.7803L20.8365 22.2861L19.0503 20.7948L18.8595 20.5978C18.2305 20.0231 17.7139 19.478 17.2708 18.7466C17.071 18.36 16.9072 17.9656 16.7445 17.5628L16.7904 17.0056Z" fill="#994D0A"/>
<path d="M24.1946 20.0466L24.5758 20.2436C25.2517 20.4584 27.5623 21.3888 28.121 21.3192L28.3835 21.4765C28.303 22.4729 28.1771 23.4785 27.9487 24.4529L27.449 24.341C26.268 23.9905 25.0911 23.6452 23.951 23.1748L23.3318 22.8882C23.7303 22.0294 23.8631 20.9538 24.1946 20.0466Z" fill="#EA9907"/>
<path d="M28.1212 21.3191L28.3837 21.4764C28.3032 22.4728 28.1773 23.4784 27.9489 24.4528L27.4492 24.3409C27.7612 23.38 27.6728 22.2285 28.1212 21.3191Z" fill="#C36603"/>
<path d="M24.1946 20.0466L24.5758 20.2436C24.3536 21.2111 24.0767 22.1898 23.951 23.1748L23.3318 22.8882C23.7303 22.0294 23.8631 20.9538 24.1946 20.0466Z" fill="#C36603"/>
<path d="M37.349 20.1808C36.8596 20.2961 36.2519 20.269 35.7479 20.2711C32.5587 20.2847 28.9859 19.6932 26.082 18.3454C23.9978 17.3777 21.1826 15.6128 20.4017 13.3101C20.0605 12.3043 20.1879 11.1072 20.6857 10.1745C21.4549 8.73289 23.0889 7.94104 24.5826 7.47157C28.3274 6.2945 32.4677 6.87569 36.1716 7.94812C37.0378 8.199 38.0063 8.45766 38.8047 8.87534L38.7952 8.98204C39.5588 9.39281 40.5012 9.68566 41.0927 10.3363C40.4913 10.2506 39.9942 9.57532 39.3909 9.52007L39.3671 9.62868C37.5857 8.82008 35.7613 8.30105 33.863 7.85022C30.9792 7.16526 26.7247 7.00968 24.0964 8.63015C22.9036 9.21014 21.6796 10.1676 21.2234 11.4593C20.919 12.3216 21.0253 13.2025 21.4259 14.0147C21.8218 14.8178 22.4541 15.4914 23.1186 16.0809C23.3843 16.3202 23.643 16.5439 23.9379 16.7466C27.4829 19.4074 33.1316 20.5199 37.4935 19.9384L37.349 20.1808Z" fill="#E38E0A"/>
<path d="M28.3834 21.4766C30.8677 21.9719 33.4575 22.4164 36.0016 22.3673C37.0395 22.3473 38.0687 22.152 39.0995 22.1228L39.2577 22.0983C39.6039 22.6528 39.1047 24.5032 38.9844 25.1607C38.8252 25.1787 38.6599 25.208 38.5 25.2115C37.3506 25.3253 36.211 25.4387 35.054 25.4064L34.5265 25.4035C33.4366 25.3476 32.3442 25.2324 31.2562 25.1414L30.9233 25.1317L30.8789 25.1022C29.9239 24.8391 28.9152 24.6959 27.9486 24.453C28.177 23.4786 28.3029 22.473 28.3834 21.4766Z" fill="#EA9907"/>
<path d="M34.5266 25.4034C34.7328 24.2532 34.906 23.0537 35.4656 22.0134C35.4257 23.1566 35.0677 24.2747 35.0541 25.4063L34.5266 25.4034Z" fill="#C36603"/>
<path d="M39.2578 22.0981C39.604 22.6526 39.1048 24.503 38.9845 25.1605C38.8253 25.1785 38.66 25.2079 38.5001 25.2113C38.6676 24.2188 38.765 23.0703 39.0996 22.1227L39.2578 22.0981Z" fill="#C36603"/>
<path d="M30.879 25.1021C30.6098 24.5033 30.8401 22.8144 31.0788 22.1953C31.09 22.1659 31.1048 22.1379 31.118 22.1093L31.3566 22.1878L31.1337 22.0841L31.1366 22.0801L31.3493 22.1745C31.6246 23.1005 31.2836 24.1856 31.2563 25.1413L30.9234 25.1316L30.879 25.1021Z" fill="#C36603"/>
<path d="M24.0965 8.63038C26.7248 7.00992 30.9793 7.16549 33.8631 7.85045C35.7614 8.30128 37.5858 8.82031 39.3672 9.62891C41.236 10.6229 43.5792 11.8744 44.2366 14.0578C44.5018 14.9382 44.3427 15.8426 43.8976 16.6353C43.0115 18.2133 41.1949 19.1611 39.5 19.6038C38.8632 19.7699 38.1518 19.9131 37.4936 19.9386C33.1317 20.5201 27.483 19.4077 23.938 16.7469C23.6431 16.5442 23.3844 16.3204 23.1187 16.0811C22.4543 15.4916 21.822 14.818 21.426 14.015C21.0254 13.2027 20.9191 12.3218 21.2235 11.4595C21.6797 10.1678 22.9037 9.21037 24.0965 8.63038Z" fill="url(#paint9_linear_511_1722)"/>
<path d="M36.4493 9.79121C36.8327 9.66862 37.1498 9.49353 37.5266 9.67673L37.7854 10.0606C37.3385 9.97861 36.8931 9.88882 36.4493 9.79121Z" fill="#FDB803"/>
<path d="M36.4495 9.7915C36.8932 9.88912 37.3386 9.9789 37.7856 10.0609C37.8724 10.2734 37.9674 10.3908 37.9135 10.6208L37.8242 10.502C37.5566 10.2444 37.3075 10.271 36.9559 10.2575C36.9412 10.1638 36.9575 10.2287 36.8554 10.0837C36.5419 9.93205 36.2564 9.94984 35.9137 9.94932L36.4495 9.7915Z" fill="#E4A703"/>
<path d="M24.6064 13.866C25 13.7436 28.5127 14.3504 29.1192 14.5179C29.6776 14.6727 30.2124 14.8866 30.7236 15.1595C31.3347 15.4784 33.3031 16.9871 33.6529 17.0604C33.7051 17.0712 33.8242 17.0396 33.8605 17.0234C34.0109 16.9557 34.1716 16.806 34.3042 16.705C34.2286 16.8547 34.1343 16.9839 34.0362 17.1198C33.9653 17.145 33.8985 17.1885 33.8233 17.1957C33.2781 17.2486 31.5804 15.8842 31.0357 15.5689C29.0733 14.4331 26.6562 14.6914 24.6064 13.866Z" fill="#E38E0A"/>
<path d="M24.0965 8.63037L24.1186 8.73518C23.7928 8.91993 22.9533 9.34331 22.8395 9.69261C22.7435 9.98701 22.7096 10.2945 22.6024 10.5912C22.4403 11.0396 21.5257 12.73 21.779 13.0655C21.8085 13.1045 21.9689 13.2537 22.0091 13.2917C22.5147 14.9556 21.1605 13.9483 23.2154 15.9808C23.2333 15.959 23.2534 15.9386 23.2694 15.9155C23.7256 15.2571 22.6822 13.8221 23.8321 13.4113C23.7872 13.5886 23.7322 13.6869 23.6401 13.8419C23.68 14.5141 24.1768 16.2313 23.938 16.7469C23.6431 16.5442 23.3844 16.3204 23.1187 16.0811C22.4543 15.4916 21.822 14.818 21.426 14.015C21.0254 13.2027 20.9191 12.3218 21.2235 11.4595C21.6797 10.1678 22.9037 9.21036 24.0965 8.63037Z" fill="#FEDE39"/>
<path d="M29.0959 9.59229C29.8067 9.75235 30.4637 10.0246 31.0435 10.4717C31.4502 10.6656 31.7137 10.7586 32.1716 10.739C32.5756 10.7215 33.7159 10.6544 33.978 10.3632C33.6289 10.385 33.2777 10.3399 32.9299 10.3099C32.9783 10.2482 33.1734 10.2648 33.2595 10.2596C34.16 10.2049 35.0256 10.1091 35.9136 9.94936C36.2563 9.94987 36.5417 9.93209 36.8553 10.0837C36.9573 10.2287 36.9411 10.1638 36.9558 10.2576C35.3193 10.4851 33.7273 10.9234 32.0997 11.1851C31.6767 11.0468 31.2753 10.9028 30.8716 10.7136C30.5862 10.5464 30.2963 10.3953 30.0008 10.2467C29.4205 10.7367 28.6121 11.1057 27.9376 11.4597C27.626 11.7409 27.2875 12.0282 27.0477 12.3751L27.0353 12.4414C27.2722 12.4556 27.3977 12.4167 27.5833 12.578C27.6141 12.8581 27.5704 12.9731 27.441 13.2107C27.415 13.2587 27.391 13.3077 27.3642 13.3552C27.2917 13.4833 27.2078 13.6168 27.0791 13.6933C26.3828 13.6282 25.6854 13.5957 24.9871 13.5617C24.931 13.5279 24.6836 13.5479 24.6136 13.5481C25.2413 12.9791 26.005 12.6074 26.6316 12.0466C27.496 11.2732 28.2091 10.3437 29.0959 9.59229Z" fill="#EA9907"/>
<path d="M27.9377 11.4596C28.2808 11.0569 28.7456 10.1574 29.2607 10.0078C29.5197 9.93254 29.7796 10.1351 30.0009 10.2466C29.4206 10.7366 28.6122 11.1056 27.9377 11.4596Z" fill="#FEEB61"/>
<path d="M24.9871 13.5614C25.5537 13.0633 26.3497 12.7464 27.0352 12.4412C27.2721 12.4553 27.3976 12.4165 27.5833 12.5777C27.614 12.8578 27.5703 12.9728 27.441 13.2104C27.4149 13.2584 27.3909 13.3074 27.3641 13.3549C27.2916 13.483 27.2077 13.6165 27.0791 13.693C26.3827 13.6279 25.6853 13.5954 24.9871 13.5614Z" fill="#FEF794"/>
<path d="M37.8242 10.502L37.9135 10.6208C37.7914 11.102 37.7475 11.3751 38.0226 11.8133C38.5278 12.618 39.5186 13.007 40.1331 13.7334L40.2239 13.8387C40.242 13.86 40.2595 13.8815 40.2771 13.9031C39.1489 14.3615 36.4793 14.9018 35.7177 15.3397C35.1449 15.6688 34.8588 16.3721 34.3042 16.7051C34.1716 16.8062 34.0109 16.9559 33.8605 17.0235C33.8242 17.0398 33.7051 17.0714 33.6529 17.0605C33.3031 16.9873 31.3347 15.4785 30.7237 15.1596C30.2124 14.8867 29.6776 14.6728 29.1192 14.518C28.5127 14.3505 25 13.7438 24.6065 13.8662C24.4878 13.8204 24.5414 13.8615 24.4744 13.7122L24.6137 13.5479C24.6836 13.5478 24.9311 13.5277 24.9872 13.5616C25.6854 13.5956 26.3828 13.6281 27.0792 13.6932C27.3796 13.8379 28.0259 13.8292 28.3671 13.8613C31.102 14.1179 31.3622 14.4928 33.3705 16.2407C33.679 15.7484 33.9796 15.1943 34.3778 14.7715C35.4416 13.6415 37.4046 13.4122 38.8591 13.0236C38.8317 12.8271 38.5278 12.676 38.3679 12.5548L38.2448 12.4379C38.0556 12.2227 37.8397 11.9784 37.6976 11.7305C37.4723 11.3377 37.5063 11.0319 37.6375 10.6142L37.8242 10.502Z" fill="url(#paint10_linear_511_1722)"/>
<path d="M27.4223 12.2866C27.7558 12.0732 28.0543 12.0784 28.4323 12.1583C29.4194 12.3671 31.7986 13.3592 32.4839 13.3867C32.7215 13.3961 32.9896 13.2694 33.2099 13.194C33.4496 13.1119 33.6987 13.0536 33.9477 13.007C34.8363 12.643 36.1727 12.6349 37.1198 12.6613C37.4085 12.6692 37.7716 12.7455 38.0511 12.7183C38.1214 12.7114 38.2963 12.5917 38.368 12.5548C38.5279 12.676 38.8317 12.827 38.8592 13.0235C37.4047 13.4122 35.4416 13.6415 34.3778 14.7714C33.9797 15.1943 33.6791 15.7484 33.3705 16.2406C31.3622 14.4927 31.102 14.1179 28.3672 13.8613C28.026 13.8292 27.3797 13.8378 27.0793 13.6931C27.2079 13.6166 27.2918 13.4832 27.3643 13.3551C27.3911 13.3076 27.4151 13.2585 27.4412 13.2105C27.5705 12.9729 27.6142 12.858 27.5834 12.5779C27.3978 12.4166 27.2723 12.4555 27.0354 12.4413L27.0478 12.375L27.4223 12.2866Z" fill="#FEEB61"/>
<path d="M27.4222 12.2866C27.7557 12.0732 28.0542 12.0784 28.4322 12.1583C29.4193 12.3671 31.7985 13.3592 32.4838 13.3867C32.7214 13.3961 32.9895 13.2694 33.2098 13.194C33.4495 13.1119 33.6986 13.0536 33.9476 13.007C33.5203 13.2827 33.2105 13.6747 32.7902 13.952C32.4144 14.1999 31.8948 14.2527 31.4607 14.1685C31.2281 13.971 31.2616 13.8551 31.215 13.5607C31.1653 13.513 31.1285 13.4466 31.0662 13.4176C30.7651 13.2772 30.2762 13.2323 29.944 13.1401C29.1151 12.9099 28.217 12.6112 27.4222 12.2866Z" fill="#FEDE39"/>
<path d="M30.0008 10.2466C30.2963 10.3952 30.5862 10.5463 30.8716 10.7135C31.2753 10.9027 31.6767 11.0467 32.0998 11.185C33.7273 10.9233 35.3193 10.485 36.9558 10.2575C37.3074 10.2709 37.5565 10.2443 37.8241 10.502L37.6375 10.6142C37.5063 11.0319 37.4723 11.3377 37.6976 11.7305C37.8397 11.9784 38.0555 12.2227 38.2448 12.4379L38.3679 12.5548C38.2962 12.5917 38.1213 12.7114 38.051 12.7183C37.7715 12.7456 37.4084 12.6693 37.1197 12.6613C36.1726 12.6349 34.8362 12.643 33.9476 13.007C33.6986 13.0536 33.4495 13.112 33.2098 13.194C32.9895 13.2694 32.7214 13.3962 32.4838 13.3867C31.7985 13.3592 29.4193 12.3671 28.4322 12.1583C28.0542 12.0784 27.7557 12.0732 27.4222 12.2866L27.0477 12.375C27.2876 12.0281 27.626 11.7408 27.9376 11.4596C28.6121 11.1056 29.4205 10.7366 30.0008 10.2466Z" fill="#FECE30"/>
<path d="M36.233 10.9524C36.6947 10.8152 37.1577 10.6675 37.6375 10.614C37.5063 11.0317 37.4723 11.3375 37.6976 11.7303C37.8397 11.9783 38.0555 12.2226 38.2448 12.4377L38.1085 12.4885C37.2732 12.3749 36.741 11.5511 36.233 10.9524Z" fill="#FEF569"/>
<defs>
<linearGradient id="paint0_linear_511_1722" x1="4.40687" y1="23.1439" x2="9.39756" y2="24.9317" gradientUnits="userSpaceOnUse">
<stop stop-color="#E49C00"/>
<stop offset="1" stop-color="#C97E0F"/>
</linearGradient>
<linearGradient id="paint1_linear_511_1722" x1="16.4274" y1="24.2708" x2="5.57612" y2="22.2609" gradientUnits="userSpaceOnUse">
<stop stop-color="#FFC701"/>
<stop offset="1" stop-color="#FFE35C"/>
</linearGradient>
<linearGradient id="paint2_linear_511_1722" x1="39.3174" y1="18.312" x2="32.5549" y2="36.3172" gradientUnits="userSpaceOnUse">
<stop stop-color="#F7AA10"/>
<stop offset="1" stop-color="#FFF03E"/>
</linearGradient>
<linearGradient id="paint3_linear_511_1722" x1="46.375" y1="31.3422" x2="25.9928" y2="23.4033" gradientUnits="userSpaceOnUse">
<stop stop-color="#FDB900"/>
<stop offset="1" stop-color="#FFE23D"/>
</linearGradient>
<linearGradient id="paint4_linear_511_1722" x1="37.2041" y1="23.2884" x2="33.3462" y2="31.0877" gradientUnits="userSpaceOnUse">
<stop stop-color="#FFE135"/>
<stop offset="1" stop-color="#FFFA73"/>
</linearGradient>
<linearGradient id="paint5_linear_511_1722" x1="21.8987" y1="-0.415239" x2="8.42116" y2="17.3733" gradientUnits="userSpaceOnUse">
<stop stop-color="#FCB700"/>
<stop offset="1" stop-color="#FFE63E"/>
</linearGradient>
<linearGradient id="paint6_linear_511_1722" x1="26.2947" y1="10.912" x2="6.39522" y2="6.5066" gradientUnits="userSpaceOnUse">
<stop stop-color="#FFBF00"/>
<stop offset="1" stop-color="#FFE02D"/>
</linearGradient>
<linearGradient id="paint7_linear_511_1722" x1="16.7421" y1="4.33455" x2="13.0303" y2="11.1671" gradientUnits="userSpaceOnUse">
<stop stop-color="#FFDA17"/>
<stop offset="1" stop-color="#FFF565"/>
</linearGradient>
<linearGradient id="paint8_linear_511_1722" x1="36.6973" y1="5.39013" x2="27.4873" y2="21.5383" gradientUnits="userSpaceOnUse">
<stop stop-color="#FAB60C"/>
<stop offset="1" stop-color="#FFED3C"/>
</linearGradient>
<linearGradient id="paint9_linear_511_1722" x1="43.8877" y1="16.4409" x2="21.9809" y2="11.262" gradientUnits="userSpaceOnUse">
<stop stop-color="#FFB700"/>
<stop offset="1" stop-color="#FFDA1D"/>
</linearGradient>
<linearGradient id="paint10_linear_511_1722" x1="32.7642" y1="12.1894" x2="32.1656" y2="16.6594" gradientUnits="userSpaceOnUse">
<stop stop-color="#EB9A01"/>
<stop offset="1" stop-color="#F8B601"/>
</linearGradient>
</defs>
</svg>
