<svg width="49" height="47" viewBox="0 0 49 47" fill="none" xmlns="http://www.w3.org/2000/svg">
<g filter="url(#filter0_d_512_2442)">
<path d="M14.9751 0.100833C16.5825 1.23889 16.9384 3.04883 17.4993 4.84133C17.6507 5.30512 17.6507 5.30512 17.8052 5.77827C18.252 7.16384 18.6491 8.51832 18.9152 9.95122C18.8611 9.55166 18.8069 9.15211 18.7511 8.74044C18.611 7.42082 18.525 6.10628 18.4843 4.77977C18.4659 4.25408 18.4659 4.25408 18.4471 3.71777C18.6217 2.48137 19.0142 1.95154 19.9003 1.08587C21.0495 0.880656 21.0495 0.880656 22.1987 1.08587C23.3298 2.23363 23.7321 3.21555 24.0457 4.77977C24.1176 5.12684 24.1896 5.47391 24.2637 5.8315C24.3407 6.21582 24.4178 6.60014 24.4971 6.9961C24.7125 7.98195 24.9325 8.9667 25.1538 9.95122C25.3342 9.85003 25.5146 9.74885 25.7005 9.6446C26.5212 9.18781 27.3457 8.73836 28.1705 8.28897C28.4543 8.12961 28.7381 7.97025 29.0305 7.80607C29.4448 7.58227 29.4448 7.58227 29.8674 7.35395C30.1202 7.21467 30.3729 7.07539 30.6333 6.93189C31.5711 6.60557 32.0996 6.68532 33.0341 6.9961C33.5195 7.96691 33.3823 8.88157 33.3625 9.95122C33.6943 9.84286 34.0261 9.73451 34.368 9.62287C35.5874 9.2759 36.6881 9.19482 37.9593 9.29453C38.616 9.95122 38.616 9.95122 38.7186 10.8747C38.6056 12.0271 38.2919 12.6268 37.631 13.563C37.8337 13.6113 38.0365 13.6595 38.2453 13.7092C40.3222 14.2593 42.3147 14.9801 43.8696 16.5181C45.033 19.0539 45.0755 22.7441 44.2005 25.3796C43.6982 26.292 43.13 27.141 42.5562 28.0103C42.2912 28.4956 42.0313 28.9837 41.7751 29.4737C41.6366 29.7361 41.4982 29.9986 41.3555 30.2689C41.0823 30.788 40.8112 31.3083 40.5426 31.8299C39.6013 33.5686 38.553 34.7101 36.9743 35.8906C36.6509 36.1399 36.3275 36.3892 35.9944 36.646C35.6947 36.864 35.395 37.082 35.0863 37.3066C34.7832 37.5288 34.4802 37.751 34.168 37.9799C32.4389 39.1336 30.629 38.9299 28.622 38.9483C28.2772 38.9578 27.9325 38.9673 27.5773 38.9772C27.2453 38.9799 26.9132 38.9827 26.5711 38.9855C26.2679 38.9903 25.9646 38.9951 25.6522 39C24.5676 38.7976 24.1939 38.3822 23.5121 37.5323C23.1017 36.4652 23.1017 36.4652 22.8554 35.5622C22.5701 35.6807 22.2848 35.7992 21.9909 35.9214C21.4233 36.1499 21.4233 36.1499 20.8443 36.3831C20.2843 36.6116 20.2843 36.6116 19.713 36.8448C18.5887 37.2034 17.7862 37.3116 16.6168 37.204C12.2688 34.9394 10.0004 29.4038 8.55695 24.9872C7.89099 23.1183 6.89153 21.3948 5.93796 19.6608C3.84364 15.8325 3.84364 15.8325 4.13967 13.563C4.65271 12.7627 4.65271 12.7627 5.45305 12.2496C6.68435 12.3317 6.68435 12.3317 7.75148 12.578C7.65667 12.4066 7.56186 12.2351 7.46417 12.0585C6.48764 10.1224 5.95508 8.17753 6.43809 6.01107C7.22697 5.24216 7.58776 5.04026 8.69547 4.94394C10.8329 5.7989 11.7112 8.31162 12.6767 10.2796C12.5345 9.72658 12.5345 9.72658 12.3894 9.16242C11.0502 3.82965 11.0502 3.82965 11.3633 1.74256C12.3795 0.277972 13.1944 -0.240157 14.9751 0.100833Z" fill="#F08637"/>
<path d="M14.9751 0.100833C16.5825 1.23889 16.9384 3.04883 17.4993 4.84133C17.6507 5.30512 17.6507 5.30512 17.8052 5.77827C18.2553 7.17417 18.6266 8.50793 18.9152 9.95122C18.9152 7.78413 18.9152 5.61705 18.9152 3.3843C19.6226 4.44539 19.6618 4.79166 19.6964 6.02261C19.7076 6.34238 19.7188 6.66215 19.7303 6.99161C19.739 7.32493 19.7477 7.65825 19.7566 8.00166C19.7763 8.66224 19.7972 9.32279 19.8195 9.98328C19.8273 10.2762 19.8352 10.5691 19.8433 10.8709C19.8559 11.607 19.8559 11.607 20.2286 12.2496C20.46 14.8544 20.4203 18.4333 19.2436 20.7866C19.0554 23.2522 19.5924 25.0543 20.4954 27.333C21.8872 30.9446 21.8872 30.9446 22.4693 32.752C22.5522 33.0088 22.635 33.2655 22.7203 33.53C22.871 34.3321 22.8102 34.8015 22.5271 35.5622C20.9142 36.8888 18.6598 37.3415 16.6168 37.204C12.9942 35.532 10.6576 30.7801 9.2829 27.1945C9.03952 26.4592 8.79756 25.7234 8.55695 24.9872C7.89099 23.1183 6.89153 21.3948 5.93796 19.6608C3.84364 15.8325 3.84364 15.8325 4.13967 13.563C4.65271 12.7627 4.65271 12.7627 5.45305 12.2496C6.68435 12.3317 6.68435 12.3317 7.75148 12.578C7.65667 12.4066 7.56186 12.2352 7.46417 12.0585C6.48764 10.1224 5.95508 8.17753 6.43809 6.01107C7.22697 5.24216 7.58776 5.04026 8.69547 4.94394C10.8329 5.7989 11.7112 8.31162 12.6767 10.2796C12.5345 9.72658 12.5345 9.72658 12.3894 9.16242C11.0502 3.82965 11.0502 3.82966 11.3633 1.74256C12.3795 0.277972 13.1944 -0.240157 14.9751 0.100833Z" fill="#E74E3E"/>
<path d="M21.0494 0.880859C22.1986 1.08608 22.1986 1.08608 22.8925 1.79535C24.6026 4.36948 24.668 7.9257 24.8253 10.9365C24.6086 10.9365 24.3919 10.9365 24.1686 10.9365C23.4017 12.7826 22.8703 14.6804 22.3217 16.6004C22.215 16.9598 22.1084 17.3191 21.9985 17.6894C21.2005 20.4889 20.9499 22.8261 21.5419 25.712C21.3252 25.712 21.1085 25.712 20.8852 25.712C19.7208 23.6881 19.4555 22.2379 19.8142 19.9275C19.9605 19.0975 19.9605 19.0975 19.5718 18.1601C19.6483 17.5375 19.7261 16.915 19.8142 16.2939C19.9996 14.6528 20.0281 12.986 19.7449 11.3572C19.5226 9.97377 19.4551 8.59976 19.3871 7.20152C19.3658 6.79202 19.3658 6.79202 19.3441 6.37425C19.3096 5.70606 19.2764 5.03781 19.2434 4.36954C19.1351 5.23637 19.0267 6.10321 18.9151 6.99631C18.8067 6.99631 18.6984 6.99631 18.5868 6.99631C18.5511 6.31948 18.5257 5.64211 18.5047 4.96467C18.4894 4.58754 18.4742 4.21042 18.4585 3.82187C18.6634 2.07387 19.3047 1.1924 21.0494 0.880859Z" fill="#EA6A38"/>
<path d="M34.6757 16.8467C34.8924 16.8467 35.1091 16.8467 35.3324 16.8467C35.3324 17.1717 35.3324 17.4968 35.3324 17.8317C36.7026 18.1578 38.0093 18.2251 39.4162 18.2422C39.8356 18.2506 40.2551 18.2591 40.6872 18.2678C41.9734 18.1535 42.7645 17.824 43.8694 17.175C43.8694 17.7168 43.8694 18.2586 43.8694 18.8168C43.5511 18.9657 43.2328 19.1147 42.9049 19.2682C41.8761 19.6895 41.8761 19.6895 41.571 20.4585C41.3542 20.4585 41.1375 20.4585 40.9143 20.4585C40.9172 20.6451 40.9202 20.8318 40.9232 21.0241C40.8622 22.6148 40.6624 23.5181 39.4983 24.6449C39.2917 24.8269 39.0852 25.0089 38.8724 25.1964C38.1405 25.8416 37.5794 26.5916 36.9741 27.3538C35.9188 27.8814 34.8354 27.838 33.6906 27.6821C32.3849 26.979 31.4308 26.1155 30.4072 25.0553C30.1905 24.947 29.9738 24.8386 29.7505 24.727C30.2236 23.6232 30.8168 22.891 31.7206 22.1002C31.9373 22.1002 32.154 22.1002 32.3773 22.1002C32.4992 21.7447 32.4992 21.7447 32.6235 21.382C33.034 20.4585 33.034 20.4585 33.7112 19.6581C34.4361 18.6994 34.5657 18.0292 34.6757 16.8467Z" fill="#EB6D3D"/>
<path d="M8.08003 12.578C8.11873 12.7606 8.15743 12.9433 8.19731 13.1315C8.43567 13.9896 8.77583 14.7379 9.1587 15.542C9.30578 15.8563 9.45287 16.1706 9.6044 16.4944C9.91496 17.1527 10.2271 17.8102 10.5407 18.467C10.6874 18.7817 10.834 19.0964 10.9851 19.4206C11.1206 19.7063 11.2561 19.992 11.3956 20.2863C11.71 21.1659 11.7491 21.8302 11.6918 22.7567C11.9085 22.865 12.1253 22.9734 12.3485 23.085C12.3485 24.201 12.1615 25.3039 12.0202 26.4095C11.9889 26.6571 11.9575 26.9047 11.9253 27.1599C11.8478 27.7717 11.7699 28.3835 11.6918 28.9953C11.4751 28.9953 11.2584 28.9953 11.0351 28.9953C11.0351 29.212 11.0351 29.4287 11.0351 29.652C10.8184 29.652 10.6017 29.652 10.3785 29.652C10.2506 29.2977 10.1228 28.9434 9.99111 28.5784C8.83578 25.4567 7.51238 22.5122 5.90554 19.5953C4.8473 17.6656 3.84425 15.8295 4.13988 13.563C5.19673 11.8456 6.31317 12.2246 8.08003 12.578Z" fill="#E84F3F"/>
<path d="M18.9152 3.38477C19.6226 4.44586 19.6618 4.79213 19.6963 6.02308C19.7131 6.50274 19.7131 6.50274 19.7303 6.99208C19.739 7.3254 19.7477 7.65872 19.7566 8.00213C19.7762 8.66271 19.7971 9.32326 19.8194 9.98375C19.8273 10.2767 19.8352 10.5696 19.8432 10.8714C19.8559 11.6074 19.8559 11.6074 20.2286 12.2501C20.46 14.8549 20.4202 18.4337 19.2436 20.7871C19.0554 23.2527 19.5924 25.0547 20.4954 27.3335C21.8871 30.945 21.8871 30.945 22.4693 32.7525C22.5521 33.0092 22.6349 33.266 22.7203 33.5305C22.871 34.3325 22.8102 34.802 22.527 35.5627C20.9203 36.8842 18.6537 37.354 16.6168 37.2044C15.447 36.6298 15.447 36.6298 14.6467 35.891C14.5384 35.566 14.43 35.2409 14.3184 34.906C14.6028 34.9805 14.8872 35.055 15.1803 35.1317C16.5509 35.2586 17.1214 35.0074 18.2585 34.2493C19.4423 32.9866 19.3829 31.6253 19.3436 29.9782C19.2439 28.9992 19.0312 28.1521 18.751 27.2104C17.9624 24.3535 18.1566 21.4243 18.2585 18.4887C18.2653 18.257 18.2722 18.0253 18.2792 17.7866C18.3647 15.2342 18.3647 15.2342 18.5869 14.2202C18.9119 14.0035 19.237 13.7868 19.5719 13.5635C19.3552 13.4551 19.1385 13.3468 18.9152 13.2352C18.9152 9.98452 18.9152 6.7339 18.9152 3.38477Z" fill="#CE4135"/>
<path d="M33.0341 6.99571C33.1966 7.48331 33.1966 7.48331 33.3624 7.98075C33.1457 7.98075 32.929 7.98075 32.7057 7.98075C32.5813 8.28486 32.5813 8.28486 32.4543 8.59512C31.9826 9.40871 31.6643 9.59237 30.8177 9.97135C30.6027 10.07 30.3877 10.1686 30.1662 10.2702C29.5904 10.5313 29.0118 10.7862 28.4321 11.0385C24.9535 13.0054 23.1228 18.1529 21.8703 21.7713C21.6536 21.7713 21.4369 21.7713 21.2136 21.7713C21.322 22.5298 21.4303 23.2883 21.542 24.0697C21.3253 23.9614 21.1085 23.853 20.8853 23.7414C20.7423 21.184 21.2568 19.0464 21.9729 16.5998C22.0743 16.2354 22.1757 15.871 22.2801 15.4955C23.1828 12.3372 23.1828 12.3372 24.1687 10.9359C24.3854 10.9359 24.6021 10.9359 24.8254 10.9359C24.9338 10.6108 25.0421 10.2857 25.1538 9.95083C26.1027 9.27081 27.1569 8.76615 28.191 8.22701C28.4733 8.0721 28.7556 7.91719 29.0465 7.75758C29.3212 7.61282 29.5959 7.46807 29.8789 7.31893C30.1295 7.18592 30.3802 7.05291 30.6385 6.91587C31.5572 6.61302 32.1148 6.73636 33.0341 6.99571Z" fill="#F0863A"/>
<path d="M35.3326 18.4883C36.9854 18.8942 38.624 19.3252 40.2578 19.8017C39.9659 21.976 39.4033 23.9605 37.631 25.3836C36.5829 25.6843 35.7285 25.6544 34.6759 25.3836C33.6704 24.7269 33.6704 24.7269 33.0342 24.0702C33.2111 22.5604 33.6139 21.4868 34.3681 20.1711C34.548 19.8536 34.7279 19.5362 34.9132 19.2091C35.1208 18.8523 35.1208 18.8523 35.3326 18.4883Z" fill="#FDFAF8"/>
<path d="M35.5379 11.9006C35.8858 11.9029 35.8858 11.9029 36.2408 11.9051C36.8137 11.909 37.3866 11.9149 37.9594 11.9212C37.9594 12.2462 37.9594 12.5713 37.9594 12.9062C36.7539 13.082 35.6129 13.2358 34.3912 13.2666C33.2536 13.4101 32.7434 13.7113 31.9851 14.5685C31.6563 14.9933 31.3359 15.4246 31.0231 15.8613C30.8545 16.0864 30.6859 16.3115 30.5122 16.5434C30.1809 16.9888 29.853 17.4367 29.5289 17.8873C29.1736 18.3782 28.8025 18.8576 28.4271 19.3333C27.0157 21.2049 26.6937 23.0762 26.4673 25.3834C25.4823 25.055 25.4823 25.055 25.0924 24.5009C24.7508 23.5288 24.7478 22.7994 24.8256 21.7715C25.236 20.9879 25.236 20.9879 25.8106 20.2324C26.1262 19.8102 26.1262 19.8102 26.4481 19.3795C26.6711 19.0853 26.8942 18.7912 27.124 18.4881C27.3369 18.1838 27.5498 17.8794 27.7692 17.5659C31.7689 11.8554 31.7689 11.8554 35.5379 11.9006Z" fill="#EB6B37"/>
<path d="M32.7061 7.98145C32.9228 7.98145 33.1395 7.98145 33.3628 7.98145C33.4448 8.90492 33.4448 8.90492 33.3628 9.95152C32.3375 10.9867 31.363 11.0903 29.9562 11.2854C28.4019 11.6207 28.4019 11.6207 27.1447 12.5296C26.6098 13.3987 26.2082 14.2643 25.8108 15.2051C25.6069 15.6552 25.402 16.105 25.1964 16.5544C23.1803 20.8087 23.1803 20.8087 23.5124 25.3838C23.2957 25.3838 23.0789 25.3838 22.8557 25.3838C22.6233 24.9909 22.3992 24.5931 22.1785 24.1935C21.9899 23.8621 21.9899 23.8621 21.7975 23.524C21.1112 21.4616 22.4189 19.435 23.2905 17.6087C24.0546 16.0946 24.87 14.6462 25.8108 13.235C25.9505 13.0187 26.0901 12.8024 26.234 12.5796C27.4518 10.9239 28.9173 10.3638 30.8322 9.70142C31.8048 9.25649 32.1167 8.84812 32.7061 7.98145Z" fill="#EA6A37"/>
<path d="M37.631 12.9062C37.631 13.1229 37.631 13.3396 37.631 13.5629C37.8528 13.6226 38.0746 13.6823 38.3031 13.7438C38.596 13.8263 38.8889 13.9088 39.1907 13.9939C39.4802 14.0739 39.7697 14.1539 40.068 14.2363C40.9498 14.5609 41.5457 14.8875 42.2279 15.533C42.2279 15.858 42.2279 16.1831 42.2279 16.518C40.5935 16.5764 39.2947 16.4763 37.7067 16.0293C36.2819 15.7025 34.818 15.6346 33.3625 15.533C33.1573 14.7532 33.1573 14.7532 33.0342 13.8913C34.3229 12.6025 35.9091 12.8775 37.631 12.9062Z" fill="#F39958"/>
<path d="M21.0494 0.880859C22.1986 1.08608 22.1986 1.08608 22.9784 1.80433C23.5178 2.73789 23.788 3.29757 23.8403 4.36954C23.5325 5.45718 23.5325 5.45718 23.1836 6.33961C21.9256 5.8271 21.1782 4.99093 20.2285 4.04119C19.9034 3.93284 19.5784 3.82448 19.2434 3.71285C19.1351 4.79639 19.0267 5.87993 18.9151 6.99631C18.8067 6.99631 18.6984 6.99631 18.5868 6.99631C18.5511 6.31948 18.5257 5.6421 18.5047 4.96466C18.4894 4.58754 18.4742 4.21042 18.4585 3.82187C18.6634 2.07387 19.3047 1.1924 21.0494 0.880859Z" fill="#ED7A6E"/>
<path d="M41.8993 27.6816C42.2276 28.6667 42.2276 28.6667 42.0156 29.2492C41.6211 29.9557 41.224 30.6587 40.8117 31.355C40.6627 31.6072 40.5138 31.8593 40.3604 32.1191C39.0947 34.1714 37.6878 35.5591 35.6607 36.8753C35.229 37.1959 34.798 37.5173 34.3679 37.8399C33.1833 38.6376 32.3983 38.8888 31.0023 38.8659C30.5892 38.8592 30.1761 38.8524 29.7505 38.8454C29.7505 38.7371 29.7505 38.6287 29.7505 38.5171C30.0823 38.4561 30.4142 38.3952 30.756 38.3324C32.1116 37.9489 32.7382 37.2073 33.665 36.1866C34.4774 35.4429 35.3144 35.0308 36.2969 34.5359C38.7446 33.1893 39.6176 31.3852 40.9143 28.995C41.2329 28.5501 41.5573 28.1089 41.8993 27.6816Z" fill="#EB6F3F"/>
<path d="M19.2437 3.71289C20.341 3.95103 20.8252 4.20758 21.5831 5.0468C22.0574 5.58391 22.0574 5.58391 22.5271 6.01131C22.7438 6.01131 22.9605 6.01131 23.1838 6.01131C23.2922 5.46954 23.4005 4.92777 23.5122 4.36958C24.1688 5.02628 24.1688 5.02628 24.233 5.73684C24.2254 6.00349 24.2177 6.27014 24.2099 6.54488C24.204 6.81322 24.198 7.08157 24.1919 7.35805C24.1805 7.6666 24.1805 7.6666 24.1688 7.98139C23.9521 7.87304 23.7354 7.76468 23.5122 7.65304C22.3492 7.59831 22.3492 7.59831 21.2137 7.65304C20.5583 8.30848 20.7508 9.56304 20.7007 10.4645C20.6865 10.6979 20.6723 10.9314 20.6577 11.1719C20.6228 11.75 20.5897 12.3283 20.557 12.9066C19.6162 11.8508 19.4413 11.143 19.404 9.74112C19.3923 9.38982 19.3807 9.03851 19.3687 8.67656C19.3613 8.31171 19.3539 7.94686 19.3463 7.57096C19.335 7.20103 19.3238 6.8311 19.3123 6.44996C19.2852 5.53764 19.2625 4.62542 19.2437 3.71289Z" fill="#E8503F"/>
<path d="M22.0758 7.2832C22.3331 7.29675 22.5905 7.31029 22.8556 7.32425C22.9878 9.17546 22.8303 10.0976 21.8975 11.739C21.3149 13.1144 21.1261 14.5685 20.8986 16.0389C20.6205 17.768 20.6205 17.768 19.9005 18.488C19.8669 16.18 19.9917 13.9125 20.1878 11.6133C20.2136 11.2719 20.2394 10.9306 20.266 10.5789C20.2935 10.2536 20.321 9.9283 20.3494 9.59317C20.3735 9.29903 20.3975 9.00489 20.4223 8.70184C20.6292 7.59571 20.9604 7.33632 22.0758 7.2832Z" fill="#F08437"/>
<path d="M31.3924 6.66797C31.6091 6.77632 31.8258 6.88468 32.0491 6.99631C31.9515 7.90705 31.7481 8.28144 31.1051 8.94587C29.2846 10.1474 27.3627 11.2648 25.1538 11.2648C25.1538 10.8314 25.1538 10.398 25.1538 9.95143C26.1776 9.3931 27.2045 8.84061 28.2321 8.28918C28.6701 8.05014 28.6701 8.05014 29.117 7.80628C29.3964 7.65708 29.6758 7.50788 29.9636 7.35416C30.2215 7.21488 30.4794 7.0756 30.7452 6.9321C30.9587 6.84494 31.1723 6.75777 31.3924 6.66797Z" fill="#F4A164"/>
<path d="M43.5416 17.832C43.8667 18.0487 44.1918 18.2654 44.5267 18.4887C44.6385 19.1058 44.6385 19.1058 44.6229 19.8457C44.6197 20.1103 44.6165 20.3748 44.6133 20.6473C44.605 20.9237 44.5967 21.2001 44.5882 21.4849C44.5838 21.7638 44.5794 22.0427 44.5748 22.3301C44.5632 23.0198 44.5455 23.7094 44.5267 24.399C44.4183 24.0739 44.31 23.7488 44.1983 23.4139C43.6566 23.4139 43.1148 23.4139 42.5566 23.4139C42.0353 22.3714 42.1359 21.2678 42.2283 20.1305C42.5595 19.2078 42.6663 18.9264 43.5416 18.4887C43.5416 18.272 43.5416 18.0553 43.5416 17.832Z" fill="#F39A5A"/>
<path d="M12.02 6.99609C12.2367 6.99609 12.4534 6.99609 12.6767 6.99609C12.7563 7.322 12.8359 7.64791 12.9178 7.9837C14.2853 13.9007 14.2853 13.9007 16.6169 19.4732C16.6169 19.69 16.6169 19.9067 16.6169 20.1299C16.0751 20.3467 15.5333 20.5634 14.9751 20.7866C14.9548 20.3938 14.9345 20.0011 14.9136 19.5964C14.7141 17.7208 14.0547 16.0495 13.3847 14.2967C13.059 13.3856 12.8026 12.5509 12.6767 11.5929C12.7851 11.4846 12.8934 11.3762 13.0051 11.2646C12.934 11.039 12.8628 10.8134 12.7896 10.581C12.6982 10.2851 12.6067 9.98925 12.5125 9.68443C12.3754 9.24445 12.3754 9.24445 12.2355 8.79558C12.02 7.98113 12.02 7.98113 12.02 6.99609Z" fill="#CD3E32"/>
<path d="M37.6313 9.62314C37.523 10.0566 37.4146 10.49 37.303 10.9365C36.5236 11.1031 35.7438 11.2668 34.9635 11.429C34.7451 11.476 34.5267 11.523 34.3017 11.5714C32.9818 11.8432 31.7542 11.9719 30.4077 11.9216C30.4077 11.5965 30.4077 11.2714 30.4077 10.9365C30.726 10.8485 31.0443 10.7604 31.3722 10.6697C32.077 10.4729 32.7609 10.2595 33.4475 10.0054C34.9792 9.4394 36.0007 9.16322 37.6313 9.62314Z" fill="#F39C5D"/>
<path d="M13.0053 0.100586C14.2573 0.592451 14.885 1.29133 15.632 2.39901C15.8783 3.32248 15.8783 3.32248 15.9604 4.04074C15.3653 4.26648 15.3653 4.26648 14.647 4.36909C14.175 3.93813 14.175 3.93813 13.662 3.38405C13.2353 3.24183 13.2353 3.24183 12.8001 3.09675C12.5427 2.97485 12.2854 2.85295 12.0202 2.72736C11.7535 1.86545 11.7535 1.86545 11.6919 1.08562C12.1253 0.760562 12.5587 0.435499 13.0053 0.100586Z" fill="#EE786D"/>
<path d="M18.9157 20.7871C19.0241 20.7871 19.1324 20.7871 19.2441 20.7871C19.2765 20.9868 19.3089 21.1864 19.3423 21.3921C19.7181 23.494 20.3513 25.3367 21.1936 27.2925C22.4346 30.2805 23.6081 33.2574 23.5126 36.5477C22.8615 35.5711 22.5942 34.8311 22.2633 33.7145C22.1529 33.3473 22.0424 32.9801 21.9286 32.6018C21.7578 32.0256 21.7578 32.0256 21.5836 31.4378C20.8789 29.0627 20.1681 26.7375 19.1634 24.4697C18.7404 23.2273 18.8319 22.0866 18.9157 20.7871Z" fill="#E86637"/>
<path d="M11.0352 23.4131C11.4686 23.5214 11.902 23.6298 12.3485 23.7414C12.1318 25.4751 11.9151 27.2088 11.6919 28.995C11.2584 28.8866 10.825 28.7783 10.3785 28.6666C10.0605 27.7126 9.98582 27.0359 9.96803 26.0399C9.95957 25.7554 9.9511 25.471 9.94238 25.1779C10.0501 24.3981 10.0501 24.3981 10.4657 23.7825C10.6536 23.6606 10.8415 23.5387 11.0352 23.4131Z" fill="#EF7D72"/>
<path d="M8.8185 5.12851C9.11647 5.203 9.41445 5.2775 9.72145 5.35425C10.0713 6.40378 10.0742 7.21186 10.0498 8.30937C8.96625 8.09266 7.88271 7.87595 6.76633 7.65267C6.65798 7.1109 6.54963 6.56913 6.43799 6.01094C7.3039 5.17833 7.59017 5.0104 8.8185 5.12851Z" fill="#EF7B6F"/>
<path d="M36.3177 9.29445C37.0975 9.25341 37.0975 9.25341 37.9594 9.29445C38.6161 9.95115 38.6161 9.95115 38.6982 10.9362C38.6161 11.9212 38.6161 11.9212 37.9594 12.5779C37.8511 12.4696 37.7427 12.3612 37.6311 12.2496C36.6983 12.1566 35.7655 12.1023 34.8299 12.0456C34.5624 12.0046 34.2949 11.9635 34.0193 11.9212C33.9109 11.7045 33.8026 11.4878 33.6909 11.2645C34.8828 11.0478 36.0747 10.8311 37.3027 10.6078C37.4111 10.2828 37.5194 9.95771 37.6311 9.6228C37.1977 9.51445 36.7642 9.40609 36.3177 9.29445Z" fill="#F08B48"/>
<path d="M7.09476 13.2352C7.71041 13.6456 7.71041 13.6456 8.0798 14.2202C8.0798 14.6536 8.0798 15.0871 8.0798 15.5336C6.88791 15.3169 5.69601 15.1002 4.46799 14.8769C4.35964 14.4435 4.25129 14.0101 4.13965 13.5635C5.21521 13.205 5.96787 13.1413 7.09476 13.2352Z" fill="#EF7A6F"/>
<path d="M9.39355 15.8613C10.4138 17.0843 11.0592 18.4623 11.7535 19.8836C11.8744 20.1282 11.9952 20.3729 12.1197 20.6249C12.4161 21.2254 12.7109 21.8268 13.0054 22.4283C12.5719 22.5366 12.1385 22.645 11.692 22.7566C11.6361 22.55 11.5802 22.3435 11.5227 22.1307C11.1147 20.6899 10.6844 19.3457 9.98868 18.0161C9.39355 16.8464 9.39355 16.8464 9.39355 15.8613Z" fill="#CD3E33"/>
<path d="M5.4533 12.25C6.33682 12.3079 7.2029 12.453 8.08007 12.5783C8.29897 13.4539 8.51787 14.3295 8.73676 15.2051C8.4117 15.3676 8.4117 15.3676 8.08007 15.5335C7.97849 15.2693 7.87691 15.0052 7.77225 14.7331C7.50108 13.9276 7.50108 13.9276 7.09503 13.5634C5.73477 13.4822 5.73477 13.4822 4.46826 13.8917C5.08391 12.6194 5.08391 12.6194 5.4533 12.25Z" fill="#E76255"/>
<path d="M8.08008 23.085C8.40514 23.1933 8.7302 23.3017 9.06512 23.4133C9.40046 24.2798 9.67611 25.1084 9.92703 25.999C9.99813 26.2399 10.0692 26.4807 10.1425 26.7288C10.3329 27.3742 10.5201 28.0205 10.7068 28.6668C10.8152 28.9919 10.9236 29.317 11.0352 29.6519C10.8185 29.6519 10.6018 29.6519 10.3785 29.6519C9.99363 28.6812 9.61123 27.7096 9.22929 26.7378C9.11967 26.4614 9.01004 26.185 8.8971 25.9003C8.74155 25.5035 8.74155 25.5035 8.58286 25.0986C8.48657 24.8545 8.39028 24.6103 8.29107 24.3587C8.08008 23.7417 8.08008 23.7417 8.08008 23.085Z" fill="#D35046"/>
<path d="M27.4523 20.7871C27.669 20.7871 27.8857 20.7871 28.109 20.7871C27.8923 21.979 27.6756 23.1709 27.4523 24.3989C27.1273 24.3989 26.8022 24.3989 26.4673 24.3989C26.5047 23.9198 26.5466 23.441 26.5904 22.9624C26.6133 22.6957 26.6361 22.4291 26.6597 22.1544C26.7956 21.4438 26.7956 21.4438 27.4523 20.7871Z" fill="#F29A58"/>
<path d="M12.02 6.99609C12.2367 6.99609 12.4534 6.99609 12.6767 6.99609C13.1101 8.72976 13.5435 10.4634 13.9901 12.2496C13.34 12.5747 13.34 12.5747 12.6767 12.9063C12.7406 12.6701 12.8045 12.434 12.8704 12.1906C13.0223 11.146 12.8738 10.5721 12.5331 9.58182C12.2118 8.63381 12.02 8.00537 12.02 6.99609Z" fill="#D0493E"/>
<path d="M20.8853 7.98145C21.427 7.98145 21.9688 7.98145 22.527 7.98145C22.4186 8.73993 22.3103 9.4984 22.1986 10.2799C21.7652 10.3882 21.3318 10.4966 20.8853 10.6082C20.8853 9.74138 20.8853 8.87455 20.8853 7.98145Z" fill="#F39B59"/>
<path d="M9.72168 6.33984C10.7067 6.66819 10.7067 6.66819 11.2339 7.56216C11.4053 7.92405 11.5767 8.28594 11.7533 8.65879C11.9273 9.02152 12.1012 9.38425 12.2805 9.75798C12.4113 10.0386 12.542 10.3192 12.6768 10.6083C12.3517 11.0959 12.3517 11.0959 12.0201 11.5934C11.9092 11.3128 11.7983 11.0321 11.6841 10.743C11.5376 10.3803 11.3912 10.0176 11.2403 9.64383C11.0955 9.28194 10.9508 8.92005 10.8016 8.5472C10.4735 7.61635 10.4735 7.61635 9.72168 7.32488C9.72168 6.99982 9.72168 6.67476 9.72168 6.33984Z" fill="#D75348"/>
<path d="M13.6616 0.100586C14.5851 0.141629 14.5851 0.141629 15.6317 0.428932C16.2473 1.43449 16.2473 1.43449 16.6167 2.39901C16.2917 2.56154 16.2917 2.56154 15.96 2.72736C15.0907 1.88093 14.3366 1.11305 13.6616 0.100586Z" fill="#E65B4C"/>
<path d="M9.72145 5.35427C9.72145 5.78769 9.72145 6.2211 9.72145 6.66765C9.39639 6.45095 9.07132 6.23424 8.73641 6.01096C7.8744 5.95608 7.8744 5.95608 7.09468 6.01096C7.09468 6.22767 7.09468 6.44438 7.09468 6.66765C6.87797 6.66765 6.66126 6.66765 6.43799 6.66765C7.24751 4.87513 7.853 4.9887 9.72145 5.35427Z" fill="#EA6659"/>
<path d="M22.8555 21.4434C23.0722 21.4434 23.2889 21.4434 23.5122 21.4434C23.6205 22.4185 23.7289 23.3937 23.8405 24.3985C23.5154 24.2901 23.1904 24.1818 22.8555 24.0701C22.8555 23.2033 22.8555 22.3365 22.8555 21.4434Z" fill="#F29859"/>
<path d="M19.5722 8.6377C20.5609 10.1207 20.5903 11.1541 20.5573 12.9062C19.8848 12.2618 19.5887 11.7807 19.5068 10.8476C19.5103 10.1088 19.5297 9.37521 19.5722 8.6377Z" fill="#DA5441"/>
<path d="M20.5571 1.08575C21.2959 0.983137 21.2959 0.983137 22.1989 1.08575C22.9787 1.82452 22.9787 1.82452 23.5122 2.72748C23.4302 3.48678 23.4302 3.48678 23.1839 4.04086C23.1162 3.72934 23.0485 3.41782 22.9787 3.09687C22.623 1.97502 22.623 1.97502 21.5011 1.61931C21.0338 1.51773 21.0338 1.51773 20.5571 1.41409C20.5571 1.30574 20.5571 1.19738 20.5571 1.08575Z" fill="#EB5848"/>
<path d="M32.7061 10.9362C32.5978 11.2613 32.4894 11.5863 32.3778 11.9213C31.7277 11.9213 31.0775 11.9213 30.4077 11.9213C30.4077 11.5962 30.4077 11.2711 30.4077 10.9362C31.9674 10.5668 31.9674 10.5668 32.7061 10.9362Z" fill="#F29652"/>
</g>
<defs>
<filter id="filter0_d_512_2442" x="0" y="0" width="48.8057" height="47" filterUnits="userSpaceOnUse" color-interpolation-filters="sRGB">
<feFlood flood-opacity="0" result="BackgroundImageFix"/>
<feColorMatrix in="SourceAlpha" type="matrix" values="0 0 0 0 0 0 0 0 0 0 0 0 0 0 0 0 0 0 127 0" result="hardAlpha"/>
<feOffset dy="4"/>
<feGaussianBlur stdDeviation="2"/>
<feComposite in2="hardAlpha" operator="out"/>
<feColorMatrix type="matrix" values="0 0 0 0 0 0 0 0 0 0 0 0 0 0 0 0 0 0 0.25 0"/>
<feBlend mode="normal" in2="BackgroundImageFix" result="effect1_dropShadow_512_2442"/>
<feBlend mode="normal" in="SourceGraphic" in2="effect1_dropShadow_512_2442" result="shape"/>
</filter>
</defs>
</svg>
