<svg width="41" height="33" viewBox="0 0 41 33" fill="none" xmlns="http://www.w3.org/2000/svg">
<path d="M18.3245 2.0181C19.5942 2.66506 19.5942 2.66506 21.3455 2.54514C22.1127 2.17156 22.8648 1.76639 23.6042 1.34049C26.4446 -0.108168 28.6018 -0.391455 31.7214 0.533477C35.5194 2.00057 38.1844 4.29997 40.0175 7.96603C40.3797 11.5474 40.476 14.7876 38.4058 17.8384C35.5117 21.3558 32.0332 24.2979 28.5734 27.2403C28.0213 27.7256 27.4693 28.2108 26.9005 28.7108C26.3221 29.207 25.7436 29.7031 25.1477 30.2143C24.6111 30.6793 24.0746 31.1444 23.5219 31.6236C21.9478 32.6612 21.9478 32.6612 20.4538 33C18.2842 32.5156 17.0684 31.214 15.5482 29.6872C14.9129 29.0747 14.276 28.4638 13.6377 27.8544C13.3174 27.5474 12.9971 27.2404 12.6671 26.9241C11.2314 25.5937 9.7043 24.3885 8.16972 23.1746C5.33484 20.8928 2.52217 18.5051 0.866577 15.1939C0.563977 11.8802 0.407574 8.937 1.84535 5.89555C6.86402 0.480666 11.4203 -1.45811 18.3245 2.0181Z" fill="#6B7280"/>
<path d="M14.118 7.36402C15.2473 8.00399 15.2473 8.00399 15.925 9.17099C16.3822 13.2861 16.3822 13.2861 14.9462 15.4954C13.0812 16.6733 12.071 16.7604 9.90174 16.3988C8.47123 15.4954 8.47123 15.4954 7.49246 13.9896C7.12181 12.2991 7.09568 10.8581 7.49246 9.17099C9.56019 6.67754 11.0743 6.37152 14.118 7.36402Z" fill="#D1D5DB"/>
</svg>
