<svg width="26" height="22" viewBox="0 0 26 22" fill="none" xmlns="http://www.w3.org/2000/svg">
<path d="M13.6276 2.32696L13.7247 2.32031L13.8123 2.27766C14.3249 2.02808 14.8258 1.75834 15.3164 1.47606C16.2113 1.02072 16.969 0.764015 17.7296 0.6833C18.4867 0.602959 19.2804 0.693447 20.2519 0.979599C22.6016 1.89136 24.2371 3.29604 25.3778 5.53351C25.6061 7.83251 25.6282 9.76537 24.4058 11.5804C22.5631 13.8156 20.3512 15.6966 18.1056 17.6062L18.0202 17.6788L18.0201 17.6787L18.014 17.6841L16.9167 18.6487L15.767 19.6349L15.765 19.6366L14.7212 20.5413C14.2086 20.8792 13.9939 21.0182 13.7912 21.1091C13.6095 21.1906 13.4328 21.2356 13.0095 21.3321C11.8566 21.0438 11.1745 20.358 10.2382 19.4166C10.2049 19.3831 10.1712 19.3493 10.1373 19.3152L10.1373 19.3151L10.13 19.308C9.71197 18.905 9.29293 18.503 8.87294 18.1021C8.8728 18.1019 8.87265 18.1018 8.87251 18.1016L8.23531 17.4909L8.23536 17.4909L8.22919 17.4851C7.28376 16.609 6.28116 15.816 5.29083 15.0327L5.24509 14.9965C3.40233 13.5132 1.66094 12.0251 0.622411 10.0013C0.432276 7.89222 0.3618 6.12585 1.19624 4.31305C2.80197 2.59106 4.28273 1.48274 5.86062 1.04646C7.4361 0.610843 9.18939 0.824097 11.3818 1.92777C11.3986 1.93632 11.4152 1.94478 11.4316 1.95314C11.8003 2.14124 12.0725 2.28008 12.396 2.33651C12.7049 2.3904 13.0497 2.36669 13.5586 2.3317C13.5813 2.33014 13.6043 2.32856 13.6276 2.32696Z" stroke="white"/>
<path d="M6.55052 5.21348C7.06795 5.07916 7.69074 5.14947 8.6404 5.4549C8.9994 5.65872 9.10846 5.72638 9.19447 5.81238C9.27874 5.89665 9.34971 6.00742 9.54522 6.3427C9.6909 7.65646 9.74723 8.22882 9.68138 8.65429C9.62309 9.03095 9.46883 9.29456 9.02834 9.97396C8.49286 10.3034 8.10721 10.4596 7.72365 10.5223C7.33047 10.5867 6.89896 10.5599 6.25276 10.4563C5.82909 10.1881 5.66253 10.0769 5.52203 9.93639C5.3778 9.79216 5.25422 9.6103 4.95754 9.15452C4.75456 8.18589 4.74052 7.36201 4.94879 6.41136C5.56623 5.6851 6.05209 5.34287 6.55052 5.21348Z" fill="white" stroke="black"/>
<path d="M11.9464 3.74962C12.5717 4.0682 12.5717 4.0682 13.434 4.00915C13.8118 3.82519 14.1822 3.62567 14.5463 3.41595C15.945 2.7026 17.0072 2.5631 18.5434 3.01856C20.4136 3.74099 21.7259 4.87327 22.6286 6.67852C22.807 8.44207 22.8544 10.0376 21.8349 11.5399C20.4098 13.272 18.6969 14.7207 16.9932 16.1696C16.7214 16.4086 16.4495 16.6476 16.1695 16.8938C15.8846 17.1381 15.5998 17.3824 15.3063 17.6341C15.0421 17.8631 14.7779 18.0921 14.5057 18.3281C13.7306 18.839 13.7306 18.839 12.9949 19.0059C11.9266 18.7673 11.3279 18.1264 10.5793 17.3746C10.2665 17.0729 9.95284 16.7721 9.63852 16.472C9.48081 16.3209 9.32309 16.1697 9.1606 16.014C8.45363 15.3588 7.70163 14.7653 6.94597 14.1676C5.55 13.044 4.16498 11.8682 3.34972 10.2377C3.20072 8.60594 3.1237 7.15665 3.83169 5.65897C6.30301 2.99255 8.54665 2.03785 11.9464 3.74962Z" fill="#FF4D4D"/>
<path d="M9.87503 6.38163C10.4311 6.69677 10.4311 6.69677 10.7648 7.27142C10.99 9.29781 10.99 9.29781 10.2829 10.3857C9.36446 10.9657 8.86703 11.0086 7.79885 10.8306C7.09443 10.3857 7.09443 10.3857 6.61246 9.64421C6.42994 8.81179 6.41707 8.10222 6.61246 7.27142C7.63066 6.04359 8.37624 5.8929 9.87503 6.38163Z" fill="#FF7F7F"/>
</svg>
