<svg width="26" height="21" viewBox="0 0 26 21" fill="none" xmlns="http://www.w3.org/2000/svg">
<path d="M11.2384 1.28425C12.0465 1.69595 12.0465 1.69595 13.1609 1.61963C13.6491 1.3819 14.1277 1.12407 14.5983 0.853041C16.4058 -0.0688339 17.7786 -0.249108 19.7638 0.339485C22.1806 1.27309 23.8766 2.73634 25.0431 5.06929C25.2736 7.34833 25.3349 9.41031 24.0175 11.3517C22.1757 13.59 19.9622 15.4623 17.7605 17.3347C17.4092 17.6435 17.0579 17.9524 16.6959 18.2705C16.3278 18.5862 15.9597 18.902 15.5805 19.2273C15.239 19.5232 14.8976 19.8192 14.5459 20.1241C13.5442 20.7844 13.5442 20.7844 12.5935 21C11.2128 20.6918 10.4391 19.8634 9.4717 18.8919C9.06741 18.5021 8.66214 18.1133 8.25593 17.7255C8.05212 17.5302 7.84831 17.3348 7.63832 17.1335C6.72469 16.2869 5.75288 15.5199 4.77633 14.7475C2.97231 13.2954 1.18243 11.776 0.128873 9.66883C-0.063691 7.5601 -0.16322 5.68718 0.751728 3.75171C3.94543 0.305879 6.8449 -0.927885 11.2384 1.28425Z" fill="#FF4D4D"/>
<path d="M8.56155 4.68602C9.28023 5.09327 9.28023 5.09327 9.71143 5.83591C10.0024 8.45462 10.0024 8.45462 9.08858 9.86051C7.90174 10.6101 7.25891 10.6655 5.87848 10.4354C4.96815 9.86051 4.96815 9.86051 4.3453 8.90227C4.10943 7.82653 4.0928 6.90955 4.3453 5.83591C5.66113 4.24917 6.62465 4.05442 8.56155 4.68602Z" fill="#FF7F7F"/>
</svg>
