<svg width="41" height="41" viewBox="0 0 41 41" fill="none" xmlns="http://www.w3.org/2000/svg">
<path d="M25.6726 2.20013C29.7528 4.74851 32.2662 8.09408 33.788 12.6595C34.12 16.6168 34.357 20.8675 32.2765 24.3736C32.0064 24.8466 31.7368 25.32 31.4676 25.7935C31.2357 26.1978 31.0039 26.6021 30.765 27.0187C33.7781 30.1029 33.7781 30.1029 36.9527 33.0174C37.185 33.2181 37.4173 33.4188 37.6567 33.6255C38.1112 34.0165 38.5669 34.4062 39.0236 34.7946C39.6686 35.3791 39.6686 35.3791 40.5897 36.4655C40.6533 37.7705 40.2548 38.2911 39.5269 39.3704C38.7372 40.2053 38.2798 40.6694 37.1888 41C35.1847 40.9198 34.2714 39.7595 32.985 38.3785C31.423 36.7267 31.423 36.7267 29.6314 35.3319C29.6314 35.0825 29.6314 34.8331 29.6314 34.5761C29.3274 34.4592 29.3274 34.4592 29.0173 34.34C28.1336 33.8284 27.6995 33.3713 27.0335 32.6159C26.1172 31.6524 26.1172 31.6524 24.7899 31.5295C24.1536 31.7416 23.518 31.9591 22.899 32.2174C18.9707 33.7529 14.5231 33.5338 10.6197 32.0329C6.07933 29.8881 2.81038 26.3817 0.823022 21.7949C-0.616323 17.6835 -0.062682 13.1801 1.66881 9.25867C4.12244 4.98282 7.6887 2.08095 12.3496 0.536608C16.8508 -0.569851 21.5801 0.0588648 25.6726 2.20013Z" fill="#8FEBE5"/>
<path d="M25.6726 2.20013C29.7528 4.74851 32.2662 8.09408 33.788 12.6595C34.12 16.6168 34.357 20.8675 32.2765 24.3736C32.0064 24.8466 31.7368 25.32 31.4676 25.7935C31.2357 26.1978 31.0039 26.6021 30.765 27.0187C33.7781 30.1029 33.7781 30.1029 36.9527 33.0174C37.185 33.2181 37.4173 33.4188 37.6567 33.6255C38.1112 34.0165 38.5669 34.4062 39.0236 34.7946C39.6686 35.3791 39.6686 35.3791 40.5897 36.4655C40.6533 37.7705 40.2548 38.2911 39.5269 39.3704C38.7372 40.2053 38.2798 40.6694 37.1888 41C35.1847 40.9198 34.2714 39.7595 32.985 38.3785C31.423 36.7267 31.423 36.7267 29.6314 35.3319C29.6314 35.0825 29.6314 34.8331 29.6314 34.5761C29.3274 34.4592 29.3274 34.4592 29.0173 34.34C28.1336 33.8284 27.6995 33.3713 27.0335 32.6159C26.1172 31.6524 26.1172 31.6524 24.7899 31.5295C24.1536 31.7416 23.518 31.9591 22.899 32.2174C18.9707 33.7529 14.5231 33.5338 10.6197 32.0329C6.07933 29.8881 2.81038 26.3817 0.823022 21.7949C-0.616323 17.6835 -0.062682 13.1801 1.66881 9.25867C4.12244 4.98282 7.6887 2.08095 12.3496 0.536608C16.8508 -0.569851 21.5801 0.0588648 25.6726 2.20013ZM6.01729 9.56274C4.02761 12.4596 3.53917 15.3168 4.05708 18.7527C4.78657 22.1482 6.52274 25.2403 9.36353 27.2829C12.9632 29.5388 16.7275 30.2669 20.9403 29.6638C24.207 28.6277 26.9472 26.76 28.6852 23.7831C30.464 20.3162 30.9479 16.9444 30.1687 13.0905C29.1227 10.1048 26.8649 7.36841 24.1758 5.6925C17.3795 2.71166 10.8672 3.63008 6.01729 9.56274Z" fill="#06B6D4"/>
<path d="M14.5163 4.34668C14.6988 4.87362 14.8795 5.4012 15.0595 5.92902C15.1603 6.22274 15.2611 6.51646 15.365 6.81909C16.7339 11.2804 16.355 16.2401 14.4336 20.4771C13.1757 22.7694 11.4872 24.8942 9.22604 26.2633C8.45259 26.2648 8.45259 26.2648 7.71455 25.8854C7.0149 25.0883 7.0149 25.0883 6.34477 24.0905C6.01013 23.6024 6.01013 23.6024 5.66873 23.1045C3.89196 20.1461 3.38017 16.5892 4.15429 13.2208C5.53342 9.23384 8.4011 6.62498 12.0675 4.70979C13.0048 4.34668 13.0048 4.34668 14.5163 4.34668Z" fill="#D3FFF9"/>
<path d="M0.913145 13.0371C1.03784 13.0371 1.16254 13.0371 1.29102 13.0371C1.30076 13.4253 1.3105 13.8135 1.32054 14.2135C1.51688 19.6395 2.77672 24.201 6.84102 28.0575C10.6692 31.2232 14.978 31.9098 19.8068 31.5529C24.308 30.6493 27.7259 28.2694 30.4772 24.6419C31.5407 23.0055 32.3161 21.2722 33.0323 19.4609C33.157 19.4609 33.2817 19.4609 33.4102 19.4609C33.2414 21.8236 32.6656 23.4506 31.5208 25.5069C31.2668 26.0097 31.0143 26.5132 30.7651 27.0184C33.7782 30.1026 33.7782 30.1026 36.9527 33.0171C37.1851 33.2178 37.4174 33.4185 37.6568 33.6253C38.1113 34.0163 38.567 34.4059 39.0237 34.7943C39.6687 35.3788 39.6687 35.3788 40.5898 36.4652C40.6534 37.7702 40.2549 38.2908 39.527 39.3701C38.7373 40.205 38.2799 40.6691 37.1889 40.9997C35.1848 40.9195 34.2715 39.7592 32.9851 38.3782C31.4231 36.7264 31.4231 36.7264 29.6315 35.3316C29.6315 35.0822 29.6315 34.8328 29.6315 34.5758C29.4288 34.4979 29.2262 34.42 29.0174 34.3397C28.1337 33.8281 27.6995 33.371 27.0336 32.6156C26.1173 31.6521 26.1173 31.6521 24.79 31.5292C24.1537 31.7413 23.5181 31.9589 22.8991 32.2171C18.9708 33.7527 14.5232 33.5335 10.6197 32.0326C6.07942 29.8878 2.81046 26.3815 0.823105 21.7946C0.213952 20.0546 0.0971106 18.4174 0.0865492 16.5797C0.078512 15.9411 0.078512 15.9411 0.0703125 15.2896C0.1574 14.1707 0.1574 14.1707 0.913145 13.0371Z" fill="#06B6D4"/>
<path d="M23.5854 5.85742C26.7395 7.06637 28.2416 9.18501 29.652 12.1927C30.8762 15.0862 30.8856 18.8726 29.8439 21.8462C28.1934 25.3025 25.5632 27.7096 22.1064 29.2914C20.3124 29.8637 18.6427 29.861 16.7837 29.6634C16.9254 29.453 17.0672 29.2425 17.2132 29.0257C17.6208 28.4179 18.0256 27.8081 18.428 27.1969C18.7931 26.6493 19.1658 26.1064 19.5557 25.5762C22.7034 21.0953 23.2195 15.3336 23.4201 10.0376C23.4364 9.63505 23.4527 9.23246 23.4695 8.81767C23.5093 7.83096 23.5479 6.84422 23.5854 5.85742Z" fill="#D3FFF9"/>
<path d="M0.913145 13.0371C1.03784 13.0371 1.16254 13.0371 1.29102 13.0371C1.30076 13.4253 1.3105 13.8135 1.32054 14.2135C1.51688 19.6395 2.77672 24.201 6.84102 28.0575C10.6692 31.2232 14.978 31.9098 19.8068 31.5529C24.308 30.6493 27.7259 28.2694 30.4772 24.6419C31.5407 23.0055 32.3161 21.2722 33.0323 19.4609C33.157 19.4609 33.2817 19.4609 33.4102 19.4609C33.2414 21.8236 32.6656 23.4506 31.5208 25.5069C30.842 26.6243 30.842 26.6243 30.9776 27.8686C31.1583 29.0044 31.0338 29.3216 30.5998 30.3484C29.9271 31.9536 29.9167 33.225 30.0093 34.9537C28.7806 34.3032 27.9196 33.6241 27.01 32.592C26.1051 31.6436 26.1051 31.6436 24.79 31.5292C24.1537 31.7413 23.5181 31.9589 22.8991 32.2171C18.9708 33.7527 14.5232 33.5335 10.6197 32.0326C6.07942 29.8878 2.81046 26.3815 0.823105 21.7946C0.213952 20.0546 0.0971106 18.4174 0.0865492 16.5797C0.078512 15.9411 0.078512 15.9411 0.0703125 15.2896C0.1574 14.1707 0.1574 14.1707 0.913145 13.0371Z" fill="#0D819D"/>
<path d="M36.0551 32.6865C37.3104 33.2391 38.2063 33.9366 39.1961 34.8829C39.4674 35.1347 39.7388 35.3866 40.0183 35.646C40.5895 36.4652 40.5895 36.4652 40.5305 37.4454C40.0234 38.8914 39.2141 39.8793 37.968 40.7635C36.967 41.0669 36.2947 40.8983 35.2993 40.6218C35.3539 40.2244 35.4084 39.8269 35.4646 39.4174C35.7467 37.1814 35.894 34.9339 36.0551 32.6865Z" fill="#0E7A95"/>
<path d="M24.7869 5.23624C27.6973 7.28451 30.1045 10.0218 30.9849 13.5376C31.5756 17.3188 31.3475 20.3719 29.2535 23.6177C29.1288 23.3683 29.0041 23.1189 28.8756 22.8619C29.0549 22.4645 29.2341 22.067 29.4188 21.6575C30.5675 18.7379 30.4823 15.1143 29.466 12.1634C28.0987 9.26921 25.8014 6.60335 22.8119 5.3558C22.5684 5.27202 22.3248 5.18824 22.0739 5.10192C21.8382 5.01814 21.6024 4.93435 21.3595 4.84803C18.265 3.91718 15.1784 4.03768 12.202 5.26871C11.4935 5.47979 11.4935 5.47979 10.3599 5.10192C10.8312 4.85595 11.3038 4.61238 11.7769 4.36979C12.0399 4.23389 12.303 4.09799 12.574 3.95797C16.5583 2.14755 21.1931 3.00139 24.7869 5.23624Z" fill="#0D819D"/>
<path d="M2.42458 8.125C2.67397 8.2497 2.92337 8.3744 3.18032 8.50287C2.68153 9.87455 2.18274 11.2462 1.66883 12.6595C1.41944 12.6595 1.17004 12.6595 0.913086 12.6595C1.11842 10.9347 1.59123 9.64676 2.42458 8.125Z" fill="#0D819D"/>
</svg>
