<svg width="27" height="31" viewBox="0 0 27 31" fill="none" xmlns="http://www.w3.org/2000/svg">
<path d="M9.12091 0.972814C7.81567 1.9233 6.69435 3.26423 6.35454 4.85513C6.35454 4.981 6.35454 5.10687 6.35454 5.23655C6.21182 5.19064 6.21182 5.19064 6.06622 5.1438C5.23006 4.91239 4.13882 4.8868 3.34225 5.24251C2.93574 5.48903 2.61024 5.74271 2.44406 6.19009C2.35464 6.73081 2.35826 7.16995 2.61514 7.66211C3.94374 8.8894 6.51779 8.78471 8.21203 8.76464C8.441 9.57444 8.29156 10.2123 7.91874 10.9578C7.823 11.1179 7.72616 11.2774 7.62545 11.4346C7.62545 11.4975 7.62545 11.5604 7.62545 11.6253C7.55961 11.6233 7.49376 11.6213 7.42592 11.6192C6.09429 11.5842 4.88626 11.5825 3.6172 12.0067C3.51991 12.0386 3.42262 12.0706 3.32239 12.1035C2.88417 12.261 2.46008 12.4175 2.15077 12.7695C2.05912 13.0734 2.05912 13.0734 2.15077 13.437C3.16905 14.6669 5.16124 15.5677 6.73094 15.8C7.68308 15.8943 8.74131 15.9295 9.67846 15.7255C9.65737 16.1085 9.63481 16.4914 9.61103 16.8743C9.59936 17.0668 9.58877 17.2594 9.57822 17.4519C9.45721 19.3687 8.98991 21.0333 7.74842 22.5381C7.52767 22.7174 7.52767 22.7174 7.20233 22.6785C6.837 22.5894 6.51575 22.4706 6.17124 22.3228C4.71427 21.7313 3.00653 21.3001 1.45421 21.7924C0.821383 22.0578 0.293133 22.4455 0 23.0677C0 23.1621 0 23.2565 0 23.3538C0.0685558 23.3747 0.13711 23.3956 0.207743 23.4171C1.29409 23.7713 1.91664 24.3331 2.65615 25.163C3.00826 25.5497 3.33041 25.803 3.81273 26.0237C3.94177 26.0237 4.07082 26.0237 4.20378 26.0237C4.17151 26.1181 4.13925 26.2125 4.10601 26.3098C3.99413 27.4851 4.41497 28.2785 4.95952 29.2978C5.14043 29.6681 5.19502 29.9658 5.19362 30.3742C5.19387 30.4482 5.19412 30.5222 5.19438 30.5985C5.19379 30.798 5.19379 30.798 5.08364 30.9821C5.7975 31.0771 6.34927 30.7808 6.94112 30.41C8.01454 29.5369 8.37081 28.1914 8.50531 26.8819C8.53286 26.373 8.52405 25.8653 8.50531 25.3562C8.59441 25.3549 8.68351 25.3535 8.7753 25.3521C12.0023 25.2362 15.1751 23.9089 17.4994 21.7328C17.5748 21.6642 17.6502 21.5956 17.7278 21.5249C18.6615 20.6516 19.3567 19.6095 19.9435 18.4907C19.9435 18.4278 19.9435 18.3649 19.9435 18.3C20.008 18.3 20.0725 18.3 20.139 18.3C20.1631 18.3536 20.1872 18.4072 20.212 18.4624C20.7346 19.3962 21.8703 20.438 22.8764 20.8746C23.243 20.9342 23.243 20.9342 23.5607 20.8746C23.8263 20.6208 23.941 20.4595 24.0039 20.0996C24.005 19.9892 24.006 19.8787 24.0071 19.765C24.0084 19.6419 24.0097 19.5187 24.0111 19.3919C24.0099 19.2604 24.0085 19.1288 24.0067 18.9973C24.0063 18.9309 24.0059 18.8644 24.0055 18.796C23.9888 16.8959 23.4768 15.4853 22.3875 13.9138C23.176 14.1609 23.9129 14.4941 24.6541 14.8507C25.2741 15.1452 25.8844 15.4224 26.5913 15.3441C26.7904 15.1967 26.871 15.0846 26.9824 14.8673C27.1092 12.7835 26.5571 10.7932 25.1488 9.17907C24.1302 8.06667 22.7291 7.14167 21.2144 6.85757C21.2056 6.79389 21.1968 6.73022 21.1877 6.66462C21.0968 6.30138 20.9355 5.98477 20.7623 5.65372C20.7093 5.55227 20.7093 5.55227 20.6553 5.44877C20.0899 4.38047 19.4269 3.52198 18.5748 2.66199C18.4716 2.55395 18.4716 2.55395 18.3663 2.44372C17.3206 1.3742 15.9262 0.665375 14.4688 0.278146C14.3538 0.245204 14.2387 0.212262 14.1201 0.178322C12.456 -0.220483 10.5528 0.0518872 9.12091 0.972814Z" fill="#07B0CE"/>
</svg>
