<svg width="21" height="21" viewBox="0 0 21 21" fill="none" xmlns="http://www.w3.org/2000/svg">
<path d="M8.9556 0.00488281C8.77018 0.142249 8.58697 0.284462 8.39337 0.41186C7.83921 0.404478 7.28979 0.448697 6.73828 0.447167C7.37074 0.117261 8.24638 0.0792538 8.9556 0.00488281Z" fill="#EA9907"/>
<path d="M8.95578 0.00489539C9.49691 -0.0264997 10.0132 0.103239 10.5491 0.106945C10.3193 0.167333 10.0259 0.387448 9.92021 0.59049C9.90983 0.610397 9.9106 0.633794 9.90574 0.655436L9.83838 0.643938C9.36384 0.522258 8.86776 0.538582 8.39355 0.411872C8.58715 0.284475 8.77036 0.142262 8.95578 0.00489539Z" fill="#EA9907"/>
<path d="M8.3933 0.411965C8.86751 0.538674 9.36358 0.522351 9.83812 0.64403C9.7024 0.875428 9.56623 1.09734 9.40146 1.31271L9.27181 1.3453C7.5541 1.02667 6.14683 1.3097 4.55568 1.945C3.93591 2.18667 3.14376 2.62228 2.48877 2.69446C3.07739 2.11234 3.80637 1.54409 4.58318 1.1951C4.87726 0.846969 6.25273 0.574659 6.73821 0.447272C7.28972 0.448801 7.83913 0.404583 8.3933 0.411965Z" fill="#FECE30"/>
<path d="M2.48877 2.69467C3.07739 2.11256 3.80637 1.5443 4.58318 1.19531L4.5231 1.26291C4.4691 1.3229 4.42591 1.35906 4.35932 1.40971C4.26987 1.47788 4.22315 1.5518 4.16142 1.64184C4.01962 1.84871 3.85187 1.98802 3.5865 2.04346C3.55568 2.04993 3.52377 2.05075 3.49318 2.05753C3.31858 2.09664 2.93537 2.39232 2.82217 2.53123C3.37137 2.33719 3.95778 1.9215 4.55567 1.94521C3.93591 2.18689 3.14376 2.6225 2.48877 2.69467Z" fill="#FECE30"/>
<path d="M9.90576 0.654936C9.91062 0.633294 9.90985 0.609897 9.92023 0.58999C10.0259 0.386948 10.3193 0.166833 10.5492 0.106445C14.2839 0.875791 16.6759 2.52672 18.7414 5.52066C20.4445 7.98936 21.4746 11.4269 20.7811 14.3442C20.3748 16.0531 19.4643 17.5874 17.9121 18.6197C18.064 18.2219 18.8424 17.345 19.1137 16.8529C20.4285 14.4694 20.3069 11.4787 19.4313 8.98131C18.4553 6.19712 16.4313 3.61272 13.714 2.08208C13.0094 1.68528 12.246 1.42882 11.5155 1.08305C11.0118 0.841726 10.4562 0.755548 9.90576 0.654936Z" fill="#EA9907"/>
<path d="M4.55617 1.94518C6.14732 1.30988 7.5546 1.02686 9.27231 1.34548L9.15237 1.62548C8.92377 2.02457 8.68795 2.41994 8.44492 2.81157C8.54078 2.82677 8.64492 2.8356 8.73802 2.86065L8.65078 2.88293C8.34233 2.84679 8.177 2.91588 7.93637 3.09698C7.87993 3.13939 7.84294 3.1783 7.80605 3.23599L7.76497 3.24452C7.00849 3.24256 6.35394 3.42582 5.67675 3.73854C5.52998 3.8064 5.32005 3.9642 5.16412 3.97929C4.784 4.00742 4.39803 4.37979 4.15717 4.6457C3.58512 5.27719 3.15088 6.00499 2.81493 6.76738C2.67844 7.07733 2.51113 7.92299 2.26928 8.12021C2.27126 8.38159 2.27292 8.63076 2.22278 8.88948C2.20644 8.54052 2.31577 7.93274 2.06309 7.67772C1.76591 7.5885 1.53256 7.69178 1.25438 7.78829L1.21241 8.05173C0.841239 8.00111 0.481885 8.02134 0.108835 8.03849L0.102539 7.81467C0.214079 7.4073 0.231747 6.96358 0.326058 6.54757C0.65383 5.10102 1.37939 3.75548 2.48926 2.69464C3.14426 2.62246 3.93641 2.18685 4.55617 1.94518Z" fill="#FEEB61"/>
<path d="M0.102539 7.81495C0.415733 7.73271 0.791985 7.74852 1.10396 7.8322C1.20512 7.91946 1.18723 7.93219 1.21241 8.052C0.841239 8.00139 0.481885 8.02161 0.108835 8.03876L0.102539 7.81495Z" fill="#FECE30"/>
<path d="M8.44484 2.81152C8.5407 2.82672 8.64484 2.83555 8.73794 2.8606L8.6507 2.88288C8.34225 2.84674 8.17692 2.91583 7.93629 3.09693C7.87985 3.13933 7.84286 3.17825 7.80597 3.23594L7.76489 3.24446C7.00841 3.24251 6.35386 3.42577 5.67667 3.73849C5.5299 3.80635 5.31997 3.96415 5.16403 3.97924C4.78392 4.00737 4.39795 4.37974 4.15709 4.64564C3.58503 5.27714 3.1508 6.00494 2.81485 6.76733C2.67836 7.07728 2.51105 7.92294 2.2692 8.12016C2.22105 7.03005 2.3687 6.19569 2.96891 5.24685C3.15047 5.1524 3.40955 4.76607 3.54991 4.61063C4.92715 3.08492 6.46518 2.97189 8.44484 2.81152Z" fill="url(#paint0_linear_554_2415)"/>
<path d="M9.90571 0.655053C10.4561 0.755665 11.0117 0.841843 11.5154 1.08317C12.2459 1.42894 13.0094 1.6854 13.714 2.0822C16.4312 3.61284 18.4553 6.19724 19.4313 8.98143C20.3068 11.4788 20.4284 14.4695 19.1137 16.853C18.8424 17.3451 18.064 18.222 17.912 18.6198C16.959 19.3746 15.9982 20.0712 14.814 20.4841C12.4669 21.3027 10.1293 21.1113 7.8715 20.1557C4.35535 18.6675 2.12843 16.2443 0.792938 12.9258C0.677865 12.5486 0.535401 12.1775 0.401333 11.8058C0.364668 11.5608 0.264612 11.2902 0.199787 11.0483C0.146005 10.8405 0.12602 10.6347 0.104154 10.4225C-0.0565294 10.0656 0.0169047 9.39363 0.0158003 8.99447L0.0561148 8.42498C0.060974 8.28854 0.0778678 8.1714 0.108569 8.03783C0.481619 8.02068 0.840973 8.00046 1.21215 8.05107L1.25411 7.78763C1.5323 7.69113 1.76565 7.58785 2.06283 7.67706C2.3155 7.93208 2.20617 8.53986 2.22252 8.88882L2.22793 9.61262C2.23463 10.2255 2.29176 10.8343 2.39932 11.439C2.44571 11.5642 2.49032 11.6862 2.52014 11.8159C2.77248 12.6194 3.08104 13.6784 3.67772 14.3209C4.58461 16.0801 6.69735 17.5611 8.63991 18.2046C9.3446 18.438 10.1439 18.613 10.896 18.5907C11.0693 18.6708 11.373 18.6395 11.5684 18.6311C12.4676 18.5923 14.071 18.3489 14.7157 17.6969C15.0019 17.3578 15.3861 17.074 15.6944 16.7475C16.8765 15.4951 17.4469 13.6332 17.3277 11.9828C17.1598 9.65532 15.8546 7.02216 13.9569 5.47725L13.9449 5.17305C12.8113 3.95051 10.4411 3.01214 8.73775 2.85999C8.64466 2.83494 8.54052 2.82611 8.44466 2.81092C8.68769 2.41928 8.92351 2.02392 9.15211 1.62482L9.27204 1.34482L9.40169 1.31224C9.56646 1.09686 9.70263 0.874953 9.83835 0.643555L9.90571 0.655053Z" fill="#FECE30"/>
<path d="M9.90588 0.655053C10.4563 0.755665 11.0119 0.841843 11.5156 1.08317L11.1962 1.6508C10.6079 1.54854 9.99368 1.36621 9.40186 1.31224C9.56662 1.09686 9.70279 0.874953 9.83851 0.643555L9.90588 0.655053Z" fill="#FECE30"/>
<path d="M9.15211 1.62518L9.21826 1.63401C9.26066 1.57344 9.33156 1.42673 9.40798 1.41574C9.84795 1.35271 13.0245 3.08313 13.4906 3.45109C16.0168 5.44526 17.8458 8.82953 18.0987 11.8925C18.2566 13.8051 17.811 15.8544 16.4389 17.3336C16.372 17.4073 16.303 17.4793 16.2321 17.5498C16.1612 17.6203 16.0884 17.689 16.0138 17.7561C15.9392 17.8232 15.8628 17.8885 15.7847 17.952C15.7065 18.0155 15.6267 18.0772 15.5453 18.137C15.4639 18.1968 15.3809 18.2547 15.2963 18.3106C15.2118 18.3666 15.1258 18.4206 15.0383 18.4725C14.9508 18.5244 14.862 18.5743 14.7718 18.6221C14.6817 18.6699 14.5903 18.7156 14.4977 18.7591C14.4051 18.8027 14.3114 18.8441 14.2166 18.8833C14.1217 18.9225 14.0259 18.9594 13.9291 18.9941C13.8322 19.0289 13.7345 19.0614 13.6359 19.0916C13.5373 19.1218 13.438 19.1496 13.3379 19.1752C13.2379 19.2008 13.1372 19.224 13.0359 19.2449C12.9345 19.2657 12.8327 19.2842 12.7303 19.3004C12.628 19.3165 12.5253 19.3303 12.4222 19.3417C12.3192 19.353 12.2159 19.362 12.1123 19.3686C11.3483 19.4181 10.5381 19.3562 9.79484 19.1832C8.37785 18.8532 6.42623 17.9013 5.33182 17.0057C3.79589 15.749 2.40518 14.0709 1.79845 12.2353C1.45687 12.4479 1.08349 12.6531 0.792938 12.9262C0.677865 12.549 0.535401 12.1779 0.401333 11.8061C0.364668 11.5612 0.264612 11.2905 0.199787 11.0486C0.146005 10.8409 0.12602 10.635 0.104154 10.4229C-0.0565294 10.0659 0.0169047 9.39399 0.0158003 8.99482L0.0561148 8.42534C0.060974 8.2889 0.0778678 8.17175 0.108569 8.03819C0.481619 8.02104 0.840973 8.00081 1.21215 8.05143L1.25411 7.78799C1.5323 7.69148 1.76565 7.5882 2.06283 7.67742C2.3155 7.93244 2.20617 8.54022 2.22252 8.88918L2.22793 9.61297C2.23463 10.2259 2.29176 10.8347 2.39932 11.4394C2.44571 11.5645 2.49032 11.6865 2.52014 11.8163C2.77248 12.6197 3.08104 13.6787 3.67772 14.3212C4.58461 16.0805 6.69735 17.5614 8.63991 18.205C9.3446 18.4383 10.1439 18.6134 10.896 18.5911C11.0693 18.6712 11.373 18.6398 11.5684 18.6314C12.4676 18.5926 14.071 18.3493 14.7157 17.6973C15.0019 17.3582 15.3861 17.0744 15.6944 16.7478C16.8765 15.4955 17.4469 13.6336 17.3277 11.9831C17.1598 9.65568 15.8546 7.02251 13.9569 5.4776L13.9449 5.17341C12.8113 3.95086 10.4411 3.0125 8.73775 2.86035C8.64466 2.8353 8.54052 2.82647 8.44466 2.81127C8.68769 2.41964 8.92351 2.02427 9.15211 1.62518Z" fill="#FEE94D"/>
<path d="M0.199707 11.0488C0.608317 11.1197 1.02433 11.2267 1.43945 11.2463L1.43316 11.3735C1.34768 11.5302 1.24763 11.6228 1.06541 11.676C0.905497 11.7226 0.737971 11.7402 0.572871 11.7628C0.475798 11.7761 0.511909 11.7705 0.401253 11.8063C0.364588 11.5613 0.264532 11.2907 0.199707 11.0488Z" fill="#FECE30"/>
<path d="M13.9443 5.17285C16.0066 6.9578 17.4298 9.52782 17.528 12.1701C17.5936 13.9377 17.0033 15.6243 15.6883 16.9238C15.3955 17.2132 15.0767 17.4833 14.7152 17.6967C15.0013 17.3576 15.3855 17.0738 15.6938 16.7473C16.8759 15.495 17.4463 13.633 17.3272 11.9826C17.1592 9.65513 15.8541 7.02196 13.9564 5.47705L13.9443 5.17285Z" fill="#CF7B07"/>
<path d="M1.25411 7.78724C1.5323 7.69073 1.76565 7.58745 2.06283 7.67667C2.3155 7.93169 2.20617 8.53947 2.22252 8.88843L2.22793 9.61222C1.93936 9.60462 1.65079 9.59312 1.36223 9.60267C1.47134 10.0089 1.53893 10.4047 1.5778 10.8216C1.61513 11.021 1.74952 11.3439 1.70424 11.5339C1.62407 11.4256 1.56322 11.3127 1.43953 11.2453C1.02441 11.2258 0.608397 11.1187 0.199787 11.0479C0.146005 10.8401 0.12602 10.6343 0.104154 10.4221C-0.0565294 10.0652 0.0169047 9.39324 0.0158003 8.99407L0.0561148 8.42459C0.060974 8.28814 0.0778678 8.171 0.108569 8.03743C0.481619 8.02029 0.840973 8.00006 1.21215 8.05068L1.25411 7.78724Z" fill="#FECE30"/>
<path d="M0.104004 10.4229C0.190143 10.6135 0.219848 10.6432 0.398311 10.7677C0.527079 10.7883 0.616641 10.7778 0.742869 10.7585C0.901564 10.7341 1.06887 10.7198 1.20482 10.8219C1.30388 10.8964 1.39035 11.0186 1.46909 11.112L1.47594 11.0063L1.51194 11.0195L1.57765 10.8223C1.61498 11.0217 1.74937 11.3446 1.70409 11.5346C1.62392 11.4263 1.56307 11.3134 1.43938 11.246C1.02426 11.2265 0.608247 11.1194 0.199637 11.0486C0.145855 10.8408 0.12587 10.635 0.104004 10.4229Z" fill="#FECE30"/>
<path d="M0.107905 8.03839C0.480955 8.02124 0.840309 8.00101 1.21148 8.05163L1.15759 8.3277C1.12468 8.66023 1.10006 8.98794 1.09597 9.32191C0.780127 9.21699 0.541143 9.22376 0.214586 9.20795C0.134962 9.20405 0.157156 9.2019 0.0689186 9.15919L0.0151367 8.99502L0.0554512 8.42554C0.0603104 8.2891 0.0772043 8.17195 0.107905 8.03839Z" fill="#FECE30"/>
<path d="M0.108606 8.03839C0.481656 8.02124 0.84101 8.00101 1.21218 8.05163L1.15829 8.3277C0.834829 8.48529 0.411422 8.22934 0.0561523 8.42554C0.0610115 8.2891 0.0779054 8.17195 0.108606 8.03839Z" fill="#FECE30"/>
<path d="M7.80544 3.2357C7.84233 3.178 7.87932 3.13909 7.93575 3.09669C8.17639 2.91559 8.34172 2.84649 8.65016 2.88263L8.73741 2.86035C10.4408 3.0125 12.8109 3.95087 13.9445 5.17341L13.9566 5.47761C15.8543 7.02252 17.1594 9.65568 17.3274 11.9831C17.4465 13.6336 16.8761 15.4955 15.694 16.7478C15.3857 17.0744 15.0015 17.3582 14.7154 17.6973C14.0707 18.3493 12.4672 18.5926 11.5681 18.6314C11.3726 18.6398 11.0689 18.6712 10.8956 18.5911C10.1436 18.6134 9.34425 18.4383 8.63956 18.205C6.69701 17.5614 4.58427 16.0805 3.67737 14.3212C3.08069 13.6787 2.77214 12.6197 2.51979 11.8163C2.48997 11.6865 2.44536 11.5645 2.39898 11.4394C2.29141 10.8347 2.23428 10.2259 2.22758 9.61298L2.22217 8.88918C2.27231 8.63047 2.27065 8.3813 2.26866 8.11991C2.51052 7.92269 2.67782 7.07703 2.81432 6.76709C3.15027 6.00469 3.5845 5.27689 4.15656 4.6454C4.39742 4.37949 4.78338 4.00713 5.1635 3.979C5.31944 3.9639 5.52937 3.80611 5.67614 3.73825C6.35333 3.42553 7.00788 3.24227 7.76436 3.24422L7.80544 3.2357Z" fill="#FDB803"/>
<path d="M6.47015 14.733C7.49532 14.4981 8.51862 14.154 9.52988 13.8652C9.80309 14.0923 10.078 14.3164 10.3323 14.562C10.1334 14.4993 9.97592 14.3601 9.81469 14.2387C9.30536 14.3687 6.78247 15.0952 6.48959 15.0144C6.45757 14.9059 6.44553 14.8438 6.47015 14.733Z" fill="#C36603"/>
<path d="M4.64502 8.33008C5.08687 8.40205 5.5496 8.52237 5.96185 8.68694C5.95898 9.06547 6.83506 9.81308 7.02887 10.2253C6.83804 10.3245 6.72529 10.5111 6.626 10.6879C5.97654 9.89244 5.27075 9.14442 4.64502 8.33008Z" fill="#FEF569"/>
<path d="M2.73193 11.747L2.86236 11.7129C3.58218 14.0662 5.24367 16.4231 7.57971 17.648C8.27225 18.011 8.96534 18.2525 9.74689 18.3771C10.1094 18.435 10.5642 18.4543 10.8959 18.5911C10.1438 18.6134 9.34446 18.4383 8.63978 18.205C6.69722 17.5614 4.58448 16.0805 3.67759 14.3212C3.68631 13.7279 2.8586 12.5425 2.73193 11.747Z" fill="#E38E0A"/>
<path d="M7.80615 3.2357C7.84304 3.178 7.88003 3.13909 7.93647 3.09669C8.1771 2.91559 8.34243 2.84649 8.65088 2.88263L8.73812 2.86035C10.4415 3.0125 12.8116 3.95087 13.9452 5.17341L13.9573 5.47761C13.3788 4.98666 12.6665 4.61747 12.0066 4.23073C11.3315 3.93136 10.6843 3.8288 9.97389 3.64882C9.5676 3.54585 9.15777 3.40735 8.74364 3.3398C8.46645 3.29463 8.17964 3.31249 7.90477 3.25685C7.87175 3.25017 7.83895 3.24278 7.80615 3.2357Z" fill="#E38E0A"/>
<path d="M9.50636 4.99512C9.68935 5.16308 9.84396 5.31923 9.9872 5.51953L9.89863 5.83626C9.77803 6.05853 9.67764 6.27721 9.58477 6.51056C9.30813 7.12748 8.93144 7.72582 8.68638 8.34889C8.6675 8.35228 8.64861 8.35536 8.62973 8.35896C8.36623 8.40998 8.16512 8.51377 7.92415 8.61439C7.38015 8.84148 6.80136 8.85514 6.22102 8.76274L5.96206 8.68728C5.5498 8.52271 5.08708 8.40238 4.64522 8.33041C4.46444 8.14931 4.28753 7.98844 4.25439 7.73321C4.28918 7.65498 4.28675 7.61186 4.37289 7.56956C4.87526 7.32306 7.18391 7.94244 7.77275 8.0643C8.40102 7.06219 8.81471 5.97177 9.50636 4.99512Z" fill="#FEF569"/>
<path d="M5.1635 3.97893C5.31944 3.96384 5.52937 3.80604 5.67614 3.73818C6.35333 3.42546 7.00788 3.24221 7.76436 3.24416C6.05261 4.83137 3.23298 7.1013 2.56838 9.3003C2.47926 9.23541 2.49362 9.19157 2.46943 9.09219C2.34718 9.70685 2.56673 11.1426 2.86214 11.7128L2.73172 11.7469C2.85839 12.5425 3.6861 13.7279 3.67737 14.3212C3.08069 13.6787 2.77214 12.6197 2.51979 11.8162C2.48997 11.6865 2.44536 11.5645 2.39898 11.4393C2.29141 10.8346 2.23428 10.2258 2.22758 9.61291L2.22217 8.88912C2.27231 8.6304 2.27065 8.38123 2.26866 8.11985C2.51052 7.92263 2.67782 7.07697 2.81432 6.76702C3.15027 6.00463 3.5845 5.27683 4.15656 4.64534C4.39742 4.37943 4.78338 4.00706 5.1635 3.97893Z" fill="#FECE30"/>
<path d="M2.26866 8.12041C2.51052 7.92319 2.67782 7.07753 2.81432 6.76758C3.15027 6.00519 3.5845 5.27739 4.15656 4.64589C4.39742 4.37999 4.78338 4.00762 5.1635 3.97949C4.80867 4.27178 4.44832 4.53265 4.13491 4.86714C3.08798 5.98455 2.5728 7.57946 2.47286 9.03783L2.46943 9.09275C2.34718 9.70741 2.56673 11.1432 2.86214 11.7134L2.73172 11.7475C2.85839 12.543 3.6861 13.7284 3.67737 14.3217C3.08069 13.6792 2.77214 12.6202 2.51979 11.8168C2.48997 11.687 2.44536 11.565 2.39898 11.4399C2.29141 10.8352 2.23428 10.2264 2.22758 9.61347L2.22217 8.88968C2.27231 8.63096 2.27065 8.38179 2.26866 8.12041Z" fill="#EA9907"/>
<path d="M10.0394 5.51735C10.159 5.42937 10.1875 5.40011 10.336 5.37988C10.5491 5.50329 11.9674 8.53716 12.1984 9.04689C13.2145 9.31064 14.8786 9.72623 15.6168 10.418C15.2257 11.3638 13.9038 11.9372 13.111 12.6071C13.2969 13.4502 14.2218 16.2421 13.7882 16.8812C13.6992 16.9302 13.6634 16.9602 13.5557 16.9166C13.4221 16.8624 13.2317 16.7272 13.1355 16.6302L12.8592 16.4056C12.9628 16.1535 12.8883 15.8677 12.8536 15.607C12.7069 14.5619 12.26 13.5622 12.1128 12.5251C12.1091 12.515 12.1079 12.5038 12.1016 12.495C12.0271 12.3897 12.0076 12.3619 11.9744 12.2369C12.5797 11.8149 13.1277 11.3249 13.7141 10.8803C12.6728 10.7591 11.638 10.3846 10.65 10.0677C10.2804 9.2592 10.0476 8.2769 9.82677 7.41944C9.75013 7.12222 9.73566 6.78332 9.58447 6.51064C9.67735 6.27728 9.77774 6.0586 9.89833 5.83633L9.9869 5.51961L10.0394 5.51735Z" fill="#CF7B07"/>
<path d="M14.6041 10.5801C14.7335 10.6206 14.8693 10.6556 14.9938 10.7076C14.3682 11.1173 13.0852 11.853 12.5934 12.3334L12.1135 12.5245C12.1098 12.5144 12.1086 12.5032 12.1023 12.4944C12.0278 12.389 12.0083 12.3612 11.9751 12.2363C12.5804 11.8142 13.1284 11.3243 13.7148 10.8797C13.9911 10.7903 14.2706 10.802 14.5493 10.7297L14.6041 10.5801Z" fill="#FEEB61"/>
<path d="M12.5927 12.334C12.944 13.5687 13.3284 14.8404 13.5145 16.1076C13.4021 16.3033 13.3028 16.4687 13.1355 16.6301L12.8592 16.4055C12.9628 16.1535 12.8883 15.8676 12.8536 15.607C12.7069 14.5618 12.26 13.5622 12.1128 12.525L12.5927 12.334Z" fill="#FEDE39"/>
<path d="M9.9875 5.51984L10.0399 5.51758C10.5832 6.17546 11.5378 8.98932 11.964 9.28243C12.0205 9.32123 12.1136 9.32606 12.1807 9.33551C12.7076 9.35193 14.7478 9.9977 15.1172 10.3727C15.1841 10.4407 15.1647 10.4537 15.1648 10.5397C15.1091 10.6057 15.0693 10.6613 14.9937 10.7085C14.8692 10.6565 14.7334 10.6215 14.604 10.5809C13.5727 10.2281 12.5757 9.79904 11.5392 9.45593C11.4226 9.41733 11.3117 9.37349 11.1992 9.32555C10.9276 9.01088 10.038 6.36159 9.89893 5.83656L9.9875 5.51984Z" fill="#FEDE39"/>
<path d="M9.58447 6.51025C9.67735 6.27689 9.77774 6.05821 9.89833 5.83594C10.0374 6.36097 10.927 9.01026 11.1986 9.32493C11.3111 9.37287 11.422 9.41671 11.5386 9.45531C12.5751 9.79842 13.5721 10.2275 14.6034 10.5803L14.5486 10.7299C14.2699 10.8023 13.9904 10.7906 13.7141 10.8799C12.6728 10.7588 11.638 10.3842 10.65 10.0673C10.2804 9.25881 10.0476 8.2765 9.82677 7.41904C9.75013 7.12182 9.73566 6.78293 9.58447 6.51025Z" fill="#FEF569"/>
<path d="M9.58469 6.51074C9.73588 6.78342 9.75035 7.12232 9.82699 7.41954C10.0479 8.277 10.2807 9.2593 10.6502 10.0678C11.6382 10.3847 12.673 10.7592 13.7143 10.8804C13.1279 11.325 12.5799 11.815 11.9746 12.237C12.0079 12.362 12.0273 12.3898 12.1018 12.4951C12.1081 12.5039 12.1094 12.5151 12.113 12.5252C12.2602 13.5623 12.7071 14.562 12.8538 15.6071C12.8885 15.8678 12.963 16.1536 12.8594 16.4057C12.133 15.7889 11.1767 15.0155 10.3322 14.5619C10.0779 14.3163 9.80303 14.0922 9.52981 13.8651C8.51855 14.1539 7.49526 14.4979 6.47009 14.7328C6.4332 14.7166 6.36418 14.6855 6.32939 14.6743C6.15303 14.6174 6.10455 14.6002 5.97236 14.4795C5.8955 14.2823 5.96871 14.046 6.00284 13.8433C6.18108 12.7896 6.48953 11.7456 6.62613 10.6884C6.72541 10.5116 6.83817 10.325 7.029 10.2258C6.83519 9.8136 5.95911 9.06599 5.96198 8.68746L6.22095 8.76292C6.80128 8.85532 7.38007 8.84166 7.92408 8.61456C8.16505 8.51395 8.36615 8.41016 8.62965 8.35913C8.64854 8.35554 8.66742 8.35246 8.6863 8.34907C8.93136 7.72599 9.30805 7.12766 9.58469 6.51074Z" fill="#FECE30"/>
<path d="M6.22021 8.76248C6.80055 8.85488 7.37934 8.84122 7.92335 8.61413C8.16432 8.51351 8.36542 8.40972 8.62892 8.35869C8.6478 8.3551 8.66669 8.35202 8.68557 8.34863C8.5345 8.70581 8.36807 9.06339 8.2414 9.42847C7.5641 9.23659 6.86494 9.03639 6.22021 8.76248Z" fill="#FEF794"/>
<path d="M6.62622 10.6882C6.72551 10.5114 6.83826 10.3248 7.02909 10.2256L7.57365 10.6907C7.4441 11.3605 6.75002 13.5679 6.41938 14.1555C6.41099 14.154 6.40259 14.1497 6.3942 14.1509C6.26201 14.1697 6.27405 14.1676 6.14992 14.1302L6.00293 13.8431C6.18117 12.7894 6.48962 11.7453 6.62622 10.6882Z" fill="#FEF794"/>
<path d="M11.9746 12.2363C12.0079 12.3613 12.0273 12.3891 12.1018 12.4944C12.1081 12.5033 12.1094 12.5144 12.113 12.5245C12.2602 13.5616 12.7071 14.5613 12.8538 15.6064C12.8885 15.8671 12.963 16.1529 12.8594 16.405C12.133 15.7882 11.1767 15.0148 10.3322 14.5612C10.0779 14.3156 9.80303 14.0915 9.52981 13.8644C8.51855 14.1532 7.49526 14.4972 6.47009 14.7321C6.4332 14.7159 6.36418 14.6848 6.32939 14.6736C6.15303 14.6167 6.10455 14.5995 5.97236 14.4789C5.8955 14.2816 5.96871 14.0453 6.00284 13.8426L6.14983 14.1297C6.27396 14.1672 6.26192 14.1692 6.39411 14.1504C6.4025 14.1492 6.4109 14.1535 6.41929 14.155C7.18958 14.3906 8.74262 13.2494 9.50209 13.4159C9.99617 13.5242 12.1137 15.5983 12.5217 15.626L12.5703 15.6016C12.3561 15.0797 11.6687 13.008 11.7048 12.5264C11.7156 12.3827 11.8642 12.3192 11.9746 12.2363Z" fill="#FEF569"/>
<defs>
<linearGradient id="paint0_linear_554_2415" x1="6.05686" y1="5.66629" x2="3.61924" y2="4.22054" gradientUnits="userSpaceOnUse">
<stop stop-color="#F3AF39"/>
<stop offset="1" stop-color="#F9CB51"/>
</linearGradient>
</defs>
</svg>
