<svg width="34" height="34" viewBox="0 0 34 34" fill="none" xmlns="http://www.w3.org/2000/svg">
<path d="M24.0643 1.63818C28.45 3.87215 31.5478 7.39499 33.355 11.9722C34.4666 16.1848 34.1914 21.1052 32.1382 24.9504C29.4431 29.5144 26.0855 32.2112 20.9558 33.6052C15.9676 34.5652 11.7943 33.7866 7.49825 31.1353C3.66873 28.4001 0.963797 24.3316 0.0961307 19.678C-0.341506 14.6826 0.68868 10.4497 3.73065 6.4242C6.38933 3.399 9.23966 1.74586 13.0752 0.616336C16.7597 -0.611742 20.5911 0.133525 24.0643 1.63818Z" fill="#CE83FF"/>
<path d="M24.7315 16.0384C25.3557 16.2923 25.3557 16.2923 26 16.9692C25.8792 17.8577 25.8792 17.8577 25.6779 18.6615C24.7517 18.8731 24.7517 18.8731 23.745 19C23.1007 18.3231 23.1007 18.3231 23 17.4769C23.0332 17.1977 23.0664 16.9184 23.1007 16.6307C24.0671 15.9538 24.0671 15.9538 24.7315 16.0384Z" fill="#FAF4FF"/>
<path d="M9.33333 15C10.6376 15.1605 11.0508 15.3783 12 16.3128C11.7531 18.3064 11.7531 18.3064 11.1111 18.9385C10.0278 19.0205 10.0278 19.0205 8.88889 18.9385C8.59556 18.6496 8.30222 18.3608 8 18.0632C8.14654 16.6204 8.27675 16.0403 9.33333 15Z" fill="#FAF4FF"/>
<path d="M17.4799 16C18.5813 16.0462 18.5813 16.0462 18.9484 16.4154C19.0172 17.3154 19.0172 17.3154 18.9484 18.2615C18.7061 18.5052 18.4638 18.7489 18.2141 19C17.0669 18.8615 17.0669 18.8615 16.0115 18.6308C15.9959 17.8925 15.9965 17.1537 16.0115 16.4154C16.3786 16.0462 16.3786 16.0462 17.4799 16Z" fill="#FDFAFF"/>
</svg>
