<svg width="105" height="122" viewBox="0 0 105 122" fill="none" xmlns="http://www.w3.org/2000/svg">
<path d="M69.0549 3.82752C74.0638 7.56719 78.3669 12.8431 79.671 19.1024C79.671 19.5976 79.671 20.0929 79.671 20.6031C80.2187 20.4225 80.2187 20.4225 80.7774 20.2382C83.9863 19.3277 88.1739 19.227 91.2308 20.6265C92.7908 21.5965 94.0399 22.5946 94.6777 24.3548C95.0208 26.4822 95.007 28.21 94.0211 30.1464C88.9226 34.9752 79.0445 34.5633 72.5428 34.4843C71.6641 37.6704 72.2376 40.18 73.6683 43.1132C74.0357 43.743 74.4073 44.3707 74.7938 44.989C74.7938 45.2366 74.7938 45.4842 74.7938 45.7394C75.0465 45.7315 75.2992 45.7236 75.5595 45.7155C80.6697 45.5779 85.3056 45.5709 90.1757 47.24C90.549 47.3658 90.9224 47.4915 91.307 47.6211C92.9887 48.2406 94.6162 48.8566 95.8032 50.2414C96.1549 51.4372 96.1549 51.4372 95.8032 52.8675C91.8955 57.7065 84.2503 61.2506 78.2265 62.1649C74.5726 62.5358 70.5116 62.6742 66.9153 61.8716C66.9962 63.3786 67.0828 64.8853 67.174 66.3917C67.2188 67.149 67.2594 67.9066 67.2999 68.6642C67.7643 76.2058 69.5576 82.7551 74.3219 88.6756C75.169 89.3811 75.169 89.3811 76.4176 89.2281C77.8195 88.8776 79.0523 88.41 80.3744 87.8285C85.9656 85.5013 92.5192 83.8048 98.4763 85.7416C100.905 86.7861 102.932 88.3112 104.057 90.7595C104.057 91.1309 104.057 91.5023 104.057 91.885C103.794 91.9672 103.531 92.0494 103.26 92.1342C99.0908 93.5276 96.7017 95.7379 93.8638 99.0035C92.5125 100.525 91.2763 101.522 89.4253 102.39C88.9301 102.39 88.4349 102.39 87.9247 102.39C88.0485 102.761 88.1723 103.133 88.2998 103.515C88.7292 108.14 87.1142 111.261 85.0244 115.271C84.3302 116.728 84.1207 117.9 84.1261 119.507C84.1251 119.798 84.1242 120.089 84.1232 120.389C84.1254 121.174 84.1254 121.174 84.5481 121.898C81.8087 122.272 79.6912 121.106 77.42 119.647C73.3006 116.212 71.9334 110.919 71.4173 105.766C71.3116 103.764 71.3454 101.766 71.4173 99.7635C71.0754 99.7582 70.7334 99.7529 70.3812 99.7474C57.9975 99.2915 45.8215 94.0689 36.9018 85.5072C36.6126 85.2373 36.3234 84.9674 36.0254 84.6894C32.4424 81.2532 29.7745 77.1533 27.5226 72.7514C27.5226 72.5038 27.5226 72.2562 27.5226 72.0011C27.275 72.0011 27.0274 72.0011 26.7723 72.0011C26.6799 72.212 26.5875 72.4228 26.4924 72.6401C24.4866 76.3141 20.1284 80.413 16.2676 82.1307C14.8607 82.3651 14.8607 82.3651 13.6414 82.1307C12.6222 81.1319 12.1821 80.4976 11.9406 79.0814C11.9365 78.647 11.9324 78.2125 11.9282 77.7649C11.9232 77.2805 11.9181 76.7961 11.9129 76.297C11.9174 75.7795 11.923 75.262 11.9297 74.7445C11.9313 74.4831 11.9329 74.2217 11.9345 73.9524C11.9983 66.4764 13.9632 60.9268 18.1434 54.7434C15.1176 55.7157 12.2899 57.0267 9.44521 58.4298C7.06616 59.5887 4.72394 60.6792 2.01119 60.3709C1.24709 59.7912 0.937931 59.3499 0.510513 58.4951C0.023838 50.2965 2.14234 42.4657 7.54684 36.1149C11.4561 31.7381 16.8328 28.0988 22.6454 26.981C22.6793 26.7304 22.7131 26.4799 22.748 26.2218C23.0969 24.7927 23.7156 23.547 24.3806 22.2445C24.5838 21.8453 24.5838 21.8453 24.7912 21.4381C26.9609 17.2349 29.5051 13.8572 32.775 10.4736C33.171 10.0485 33.171 10.0485 33.5751 9.61478C37.5882 5.40675 42.9391 2.6179 48.532 1.09436C48.9736 0.96475 49.4151 0.835141 49.87 0.701605C56.2564 -0.867488 63.5599 0.204149 69.0549 3.82752Z" fill="#07B0CE"/>
<path d="M68.612 3.85864C73.621 7.59831 77.9241 12.8742 79.2281 19.1336C79.2281 19.6288 79.2281 20.124 79.2281 20.6342C79.7758 20.4536 79.7758 20.4536 80.3345 20.2693C83.5434 19.3588 87.7311 19.2581 90.788 20.6577C92.348 21.6276 93.5971 22.6257 94.2348 24.3859C94.5779 26.5134 94.5641 28.2411 93.5783 30.1776C88.4797 35.0063 78.6016 34.5944 72.0999 34.5154C71.2212 37.7016 71.7947 40.2111 73.2254 43.1443C73.5928 43.7742 73.9644 44.4018 74.3509 45.0201C74.3509 45.2678 74.3509 45.5154 74.3509 45.7705C74.6036 45.7626 74.8563 45.7548 75.1166 45.7467C80.2268 45.6091 84.8627 45.6021 89.7328 47.2712C90.1061 47.3969 90.4795 47.5226 90.8642 47.6522C92.5459 48.2718 94.1733 48.8877 95.3603 50.2725C95.712 51.4683 95.712 51.4683 95.3603 52.8987C91.4526 57.7376 83.8075 61.2817 77.7837 62.196C74.1298 62.5669 70.0688 62.7053 66.4724 61.9027C66.5533 63.4098 66.6399 64.9164 66.7311 66.4229C66.7759 67.1802 66.8166 67.9377 66.8571 68.6953C67.3215 76.2369 69.1148 82.7862 73.879 88.7067C74.7262 89.4123 74.7262 89.4123 75.9747 89.2592C77.3766 88.9087 78.6095 88.4412 79.9315 87.8596C85.5228 85.5324 92.0763 83.8359 98.0334 85.7728C100.462 86.8173 102.489 88.3423 103.614 90.7906C103.614 91.1621 103.614 91.5335 103.614 91.9161C103.351 91.9984 103.088 92.0806 102.817 92.1653C98.6479 93.5587 96.2588 95.769 93.4209 99.0346C92.0697 100.556 90.8334 101.553 88.9825 102.421C88.4872 102.421 87.992 102.421 87.4818 102.421C87.6056 102.792 87.7294 103.164 87.857 103.546C88.2863 108.171 86.6713 111.292 84.5816 115.303C83.8873 116.759 83.6778 117.931 83.6832 119.538C83.6823 119.829 83.6813 120.12 83.6803 120.42C83.6826 121.205 83.6826 121.205 84.1053 121.93C81.3658 122.303 79.2483 121.137 76.9771 119.679C72.8578 116.244 71.4906 110.95 70.9744 105.797C70.8687 103.795 70.9025 101.798 70.9744 99.7947C70.6325 99.7894 70.2906 99.784 69.9383 99.7786C57.5546 99.3226 45.3787 94.1 36.4589 85.5383C36.1697 85.2684 35.8805 84.9986 35.5826 84.7205C31.9996 81.2843 29.3316 77.1844 27.0797 72.7826C27.0797 72.535 27.0797 72.2874 27.0797 72.0322C26.8321 72.0322 26.5845 72.0322 26.3294 72.0322C26.237 72.2431 26.1447 72.454 26.0495 72.6712C24.0438 76.3453 19.6856 80.4441 15.8247 82.1618C14.4178 82.3963 14.4178 82.3963 13.1985 82.1618C12.1794 81.1631 11.7393 80.5287 11.4977 79.1125C11.4936 78.6781 11.4896 78.2437 11.4854 77.7961C11.4803 77.3117 11.4753 76.8272 11.4701 76.3282C11.4746 75.8107 11.4802 75.2932 11.4868 74.7757C11.4884 74.5142 11.49 74.2528 11.4917 73.9835C11.5555 66.5075 13.5204 60.9579 17.7005 54.7745C14.6747 55.7469 11.847 57.0578 9.00234 58.4609C6.62329 59.6198 4.28107 60.7103 1.56831 60.402C0.804218 59.8224 0.49506 59.381 0.0676422 58.5262C-0.419033 50.3276 1.69947 42.4968 7.10397 36.146C11.0132 31.7693 16.3899 28.1299 22.2026 27.0121C22.2364 26.7616 22.2703 26.5111 22.3051 26.253C22.654 24.8238 23.2727 23.5781 23.9377 22.2756C24.141 21.8764 24.141 21.8764 24.3483 21.4692C26.518 17.266 29.0622 13.8883 32.3321 10.5047C32.7282 10.0796 32.7282 10.0796 33.1323 9.6459C37.1453 5.43788 42.4963 2.64903 48.0891 1.12549C48.5307 0.995878 48.9722 0.866269 49.4272 0.732733C55.8135 -0.83636 63.117 0.235277 68.612 3.85864ZM36.0838 8.62885C35.7859 8.87839 35.488 9.12794 35.181 9.38505C26.5652 16.7776 21.6636 27.0207 20.753 38.2371C20.1453 44.6927 20.1453 44.6927 21.8274 50.6477C22.1717 50.3672 22.5161 50.0867 22.8708 49.7977C27.4067 46.1434 27.4067 46.1434 30.0811 45.0201C30.0811 45.3916 30.0811 45.763 30.0811 46.1456C29.8098 46.2443 29.5385 46.343 29.2589 46.4446C22.6817 49.2621 17.5904 55.9558 14.7695 62.2779C13.1961 66.39 12.6452 70.2932 12.7061 74.6819C12.7049 75.1304 12.7037 75.579 12.7025 76.0411C12.6548 78.6522 12.6548 78.6522 13.5737 81.0363C16.3919 81.0363 17.9063 79.4465 19.9515 77.6598C20.2074 77.4581 20.4632 77.2564 20.7268 77.0486C26.5014 72.3939 29.9495 65.3382 31.0043 58.088C31.0936 57.2328 31.1662 56.3836 31.2066 55.5248C31.578 55.5248 31.9494 55.5248 32.3321 55.5248C30.9055 64.0411 30.9055 64.0411 29.0039 67.1932C28.2616 68.4619 27.748 69.4629 27.4549 70.9067C28.0869 73.0392 29.1891 74.7251 30.4563 76.5343C30.6976 76.9023 30.9389 77.2703 31.1875 77.6495C35.5069 83.9428 41.0895 88.6086 47.714 92.2913C48.0709 92.4954 48.4278 92.6995 48.7955 92.9098C56.5361 97.0778 66.6932 99.8555 75.4764 98.294C75.1012 99.0443 75.1012 99.0443 74.4081 99.2818C74.1339 99.3427 73.8596 99.4036 73.5771 99.4664C73.3019 99.5293 73.0268 99.5921 72.7433 99.6569C72.531 99.7024 72.3186 99.7478 72.0999 99.7947C71.9411 106.175 72.3078 112.73 76.6151 117.848C78.2706 119.431 79.9261 120.429 82.2294 120.429C82.2846 120.066 82.3397 119.703 82.3965 119.33C82.8695 116.495 83.4603 114.325 85.0696 111.895C86.6956 109.332 87.0805 106.538 86.7315 103.546C86.3758 102.516 86.3758 102.516 85.9811 101.671C86.3448 101.655 86.7085 101.64 87.0832 101.624C89.8656 101.203 91.7988 99.3904 93.4376 97.2154C95.6834 94.2493 98.5572 92.2394 102.113 91.1658C101.687 89.3524 100.649 88.543 99.1823 87.524C95.4151 85.2973 90.3085 86.0566 86.2552 87.0184C82.812 87.9919 79.4003 89.1245 76.2268 90.7906C76.3428 90.9841 76.4589 91.1775 76.5785 91.3768C77.0861 92.5414 77.2073 93.6611 77.3523 94.9175C76.9808 94.9175 76.6094 94.9175 76.2268 94.9175C76.308 94.4532 76.308 94.4532 76.3909 93.9796C76.1035 91.6805 74.2864 90.3166 72.6627 88.7741C66.6616 82.473 65.6463 73.6667 65.6517 65.3261C65.6517 64.8844 65.6518 64.4427 65.6518 63.9877C65.6766 60.131 65.9809 56.3459 66.4724 52.5235C66.5433 51.9544 66.6142 51.3853 66.6849 50.8162C66.7386 50.3892 66.7922 49.9621 66.8475 49.5222C66.5032 49.3858 66.1589 49.2494 65.8041 49.1089C59.3227 46.4778 59.3227 46.4778 58.2187 44.2698C58.4818 44.4149 58.7449 44.56 59.0159 44.7095C64.5422 47.877 64.5422 47.877 70.7165 48.8422C70.9895 48.8419 71.2625 48.8417 71.5437 48.8414C72.87 48.948 72.87 48.948 73.9757 48.3967C74.1355 46.8568 73.8464 46.1427 72.9206 44.9264C70.8565 41.9693 70.293 39.2338 70.5992 35.6409C70.723 35.2695 70.8468 34.8981 70.9744 34.5154C70.2316 34.5154 69.4887 34.5154 68.7234 34.5154C67.6836 36.5951 68.1314 39.8219 68.8406 41.9719C69.0423 42.4915 69.2531 43.0076 69.4737 43.5195C69.5811 43.7801 69.6885 44.0408 69.7991 44.3094C70.0572 44.9252 70.3269 45.5361 70.5992 46.1456C66.692 45.9566 63.7534 44.4779 60.9064 41.8019C58.7401 39.3775 57.2667 36.5817 56.1318 33.5541C55.5735 32.1166 55.1808 31.2722 53.8339 30.4824C52.6955 29.9693 52.6955 29.9693 51.8408 30.0134C51.717 30.7563 51.5932 31.4991 51.4657 32.2644C51.2181 32.2644 50.9704 32.2644 50.7153 32.2644C51.3858 28.9119 51.3858 28.9119 52.9663 27.7624C53.3377 27.7624 53.7092 27.7624 54.0918 27.7624C53.7204 28.01 53.349 28.2576 52.9663 28.5128C53.4153 29.8596 53.6415 29.9294 54.8656 30.5527C64.6167 35.1901 78.4269 34.5379 88.5589 31.5683C90.2558 30.9476 92.2614 30.2086 93.1093 28.5128C93.3377 26.9313 93.4494 25.4169 92.699 23.9697C91.5003 22.4777 90.14 21.3803 88.2321 21.0094C82.5261 20.5049 78.1291 22.1134 73.2254 24.7611C73.6006 23.6356 73.6006 23.6356 74.241 23.2238C74.5017 23.1043 74.7623 22.9849 75.0309 22.8618C75.2887 22.7414 75.5464 22.6209 75.812 22.4969C76.0727 22.3774 76.3334 22.258 76.6019 22.1349C77.103 21.8865 77.6035 21.6369 78.1026 21.3846C77.8768 16.8688 75.9683 13.2741 73.2254 9.75435C73.0382 9.49658 72.8511 9.23882 72.6583 8.97324C69.4888 4.92556 64.3614 2.34061 59.3442 1.50065C51.1027 0.557565 42.2903 3.04299 36.0838 8.62885Z" fill="#101116"/>
<path d="M51.841 30.0134C55.3115 31.3025 55.3115 31.3025 56.0807 32.9078C56.2059 33.3068 56.3312 33.7058 56.4602 34.1168C58.148 38.8478 60.8949 42.557 65.3236 44.9733C67.0977 45.8122 68.6474 46.0512 70.5994 46.1457C70.4683 45.8695 70.3372 45.5934 70.2022 45.3089C70.0315 44.9428 69.8608 44.5767 69.6849 44.1995C69.5151 43.8382 69.3454 43.4769 69.1705 43.1047C68.4097 41.2564 68.2969 39.6248 68.3015 37.634C68.3 36.9935 68.3 36.9935 68.2985 36.34C68.3484 35.2658 68.3484 35.2658 68.7235 34.5154C69.4664 34.5154 70.2092 34.5154 70.9745 34.5154C70.8507 34.8869 70.7269 35.2583 70.5994 35.6409C70.1875 39.6991 71.4168 42.5387 73.6095 45.8613C74.0989 46.7422 74.1551 47.4112 73.9759 48.3967C73.1471 49.2254 71.2045 48.9107 70.0622 48.9171C66.2486 48.8422 63.0674 47.338 60.0214 45.1081C59.3108 44.5766 59.3108 44.5766 58.2188 44.2698C60.1878 46.4234 62.3564 47.7679 65.073 48.829C65.4066 48.96 65.7402 49.091 66.0839 49.226C66.3359 49.3238 66.588 49.4215 66.8477 49.5222C66.8136 49.7873 66.7795 50.0525 66.7444 50.3257C65.3164 61.7007 63.6545 75.5665 70.318 85.7024C71.1541 87.4046 71.2688 88.919 70.9745 90.7906C70.2242 91.541 70.2242 91.541 68.8466 91.6685C67.1921 91.6233 65.9212 91.0689 64.5029 90.2513C64.1408 90.0501 64.1408 90.0501 63.7715 89.8448C61.3873 88.4849 59.224 86.8935 57.0933 85.1631C56.8206 84.9479 56.5478 84.7327 56.2668 84.511C48.8656 78.4065 44.6079 69.1618 43.3059 59.8158C43.2633 59.2617 43.2337 58.7064 43.2121 58.151C43.1927 57.7138 43.1734 57.2767 43.1535 56.8262C42.9064 48.535 45.3154 40.0676 50.2934 33.3665C51.0928 32.2614 51.4894 31.3237 51.841 30.0134Z" fill="#FCFDFD"/>
<path d="M21.4521 28.5128C21.3752 28.8755 21.2983 29.2382 21.2191 29.6119C21.1169 30.1052 21.0148 30.5986 20.9128 31.092C20.8127 31.5708 20.7126 32.0496 20.6095 32.5429C20.024 35.6422 19.8888 38.7302 19.9045 41.8781C19.9053 42.2334 19.906 42.5887 19.9067 42.9547C19.9254 46.0299 20.0807 49.0831 20.3266 52.1483C18.5186 52.9656 16.7032 53.7506 14.8632 54.4931C13.536 55.0359 12.251 55.6159 10.9841 56.2854C7.98351 57.8707 5.3938 59.0151 1.94338 59.2765C0.136802 55.2243 1.3859 50.0989 2.73182 46.0182C5.59297 38.8468 10.8943 32.7483 17.995 29.5415C20.495 28.5128 20.495 28.5128 21.4521 28.5128Z" fill="#07B0CE"/>
<path d="M75.4764 46.896C82.2195 46.7095 87.6851 47.5154 93.8597 50.2725C94.2348 50.6477 94.2348 50.6477 94.3315 51.5314C94.2135 52.7428 93.9795 52.9931 93.0624 53.7663C87.4035 58.3332 80.0747 61.3277 72.7799 61.2227C72.4561 61.2225 72.1323 61.2223 71.7988 61.222C70.1083 61.2104 68.5106 61.1175 66.8476 60.7772C66.728 57.1507 66.816 53.3685 67.9731 49.8974C68.2719 49.9017 68.5708 49.9061 68.8787 49.9106C71.8203 49.9418 71.8203 49.9418 74.7261 49.5222C74.9737 48.6556 75.2213 47.7889 75.4764 46.896Z" fill="#0D83A0"/>
<path d="M54.8421 27.3873C54.4707 27.6426 54.4707 27.6426 54.0918 27.9031C53.8442 28.1043 53.5966 28.3055 53.3414 28.5128C53.3414 28.7604 53.3414 29.008 53.3414 29.2631C55.5148 30.5379 57.6843 31.3775 60.1179 31.9831C60.3609 32.0441 60.6039 32.1052 60.8543 32.1681C64.9325 33.1314 69.0824 33.1233 73.2488 33.2258C73.866 33.242 74.4832 33.2584 75.1005 33.2749C76.6013 33.3147 78.1022 33.3528 79.6032 33.39C79.6032 33.6376 79.6032 33.8852 79.6032 34.1403C77.9964 34.5365 76.4406 34.5594 74.7964 34.5389C74.5364 34.5372 74.2765 34.5355 74.0087 34.5338C73.3724 34.5294 72.7361 34.5227 72.0998 34.5155C71.8522 35.1345 71.6046 35.7535 71.3495 36.3913C71.1019 36.2675 70.8543 36.1437 70.5992 36.0161C70.723 35.5209 70.8468 35.0257 70.9743 34.5155C70.2315 34.5155 69.4887 34.5155 68.7233 34.5155C68.5978 38.0445 68.555 41.1107 70.2621 44.2889C70.5992 45.0202 70.5992 45.0202 70.5992 46.1457C68.6908 46.7329 67.5735 46.3499 65.8583 45.5052C61.0552 42.8775 57.6264 39.1588 56.038 33.8355C55.4939 32.1871 54.9585 31.5347 53.4352 30.6934C52.9096 30.4535 52.3797 30.2219 51.8408 30.0134C51.717 30.7563 51.5932 31.4991 51.4656 32.2644C51.218 32.2644 50.9704 32.2644 50.7153 32.2644C50.5264 30.2814 50.9895 29.3135 52.2159 27.7624C53.1399 27.3005 53.8215 27.3604 54.8421 27.3873Z" fill="#0C090A"/>
<path d="M75.4764 46.896C81.4239 46.7315 86.4718 47.071 91.9838 49.5222C91.6514 51.4406 90.4401 52.4483 88.9824 53.649C85.6498 55.718 81.9393 56.1403 78.0982 55.2684C74.9564 54.1883 72.1968 52.6204 69.8489 50.2725C71.4583 50.0249 73.0678 49.7773 74.7261 49.5222C74.9737 48.6555 75.2213 47.7889 75.4764 46.896Z" fill="#07B0CE"/>
<path d="M53.3416 12.3805C54.9861 13.6887 55.8244 14.8776 56.063 16.9661C56.1755 19.3141 55.7514 21.2673 54.4671 23.2604C53.0667 24.1939 52.372 24.2142 50.7154 24.0107C49.2113 22.588 48.4952 21.0753 48.4175 19.0163C48.4407 18.5172 48.4407 18.5172 48.4644 18.008C48.712 17.8842 48.9596 17.7604 49.2147 17.6329C49.4615 16.4964 49.4615 16.4964 49.5899 15.3819C49.8375 15.8771 50.0851 16.3723 50.3402 16.8825C50.5878 16.8825 50.8354 16.8825 51.0906 16.8825C51.0906 16.3873 51.0906 15.8921 51.0906 15.3819C50.5953 15.1343 50.1001 14.8866 49.5899 14.6315C49.7071 13.9281 49.7071 13.9281 49.965 13.1309C51.285 12.2509 51.7875 12.163 53.3416 12.3805Z" fill="#08090B"/>
<path d="M56.718 32.6396C56.9366 32.685 57.1552 32.7305 57.3804 32.7773C59.9016 33.2927 62.4315 33.73 64.9717 34.1403C67.1317 40.2315 67.1317 40.2315 66.8476 43.1443C66.5999 43.3919 66.3523 43.6395 66.0972 43.8946C63.7725 43.7862 62.8401 42.7655 61.3124 41.1424C59.1216 38.5439 57.6295 35.9102 56.718 32.6396Z" fill="#E82E3E"/>
<path d="M70.2241 35.641C71.3496 36.3913 71.3496 36.3913 71.5709 37.2486C71.614 37.5925 71.657 37.9363 71.7014 38.2906C72.0242 40.3609 72.6863 42.0249 73.6006 43.8947C73.8551 44.5182 74.1079 45.1425 74.351 45.7705C74.97 45.7705 75.589 45.7705 76.2268 45.7705C75.7316 45.8943 75.2364 46.0181 74.7261 46.1457C74.7261 46.3933 74.7261 46.6409 74.7261 46.896C74.9738 46.896 75.2214 46.896 75.4765 46.896C75.3403 47.904 75.2255 48.6063 74.6089 49.4284C73.4396 50.2945 72.1827 50.3242 70.7634 50.3194C70.4766 50.3204 70.1899 50.3214 69.8944 50.3224C69.0986 50.2725 69.0986 50.2725 67.9731 49.8974C67.6017 53.4877 67.2303 57.0781 66.8476 60.7772C66.7238 60.7772 66.6 60.7772 66.4724 60.7772C66.3486 60.1582 66.2248 59.5392 66.0973 58.9014C65.9735 58.9014 65.8497 58.9014 65.7221 58.9014C65.5491 55.6721 66.1991 52.6681 66.8476 49.5222C66.6247 49.4714 66.4017 49.4206 66.172 49.3683C63.4654 48.6654 59.9682 47.4624 58.4767 44.9367C58.3916 44.7166 58.3064 44.4966 58.2188 44.2699C59.4862 44.5095 60.3548 44.9998 61.4311 45.7002C65.537 48.1805 68.91 48.6086 73.6006 48.3967C73.7223 46.8507 73.478 46.1516 72.5455 44.9264C70.4384 41.9078 70.0402 39.2859 70.2241 35.641Z" fill="#121519"/>
<path d="M60.1996 1.64577C63.6393 2.42842 66.6574 3.87196 69.4738 6.0027C69.7466 6.20727 70.0193 6.41184 70.3004 6.62261C74.1066 9.70976 77.1214 14.7004 78.1027 19.5088C78.1496 20.6108 78.1496 20.6108 78.1027 21.3846C77.8551 21.3846 77.6075 21.3846 77.3523 21.3846C77.2474 21.0847 77.1424 20.7849 77.0343 20.476C74.6363 13.9065 71.0093 8.10937 64.5966 4.8772C61.1235 3.35171 58.1091 2.59615 54.3498 2.41516C54.0362 2.39896 53.7226 2.38276 53.3995 2.36606C52.6299 2.32649 51.8602 2.28859 51.0906 2.25102C53.4299 0.691464 57.4771 1.18396 60.1996 1.64577Z" fill="#0D83A0"/>
<path d="M19.2013 42.0188C19.3251 42.0188 19.4489 42.0188 19.5765 42.0188C19.7033 43.2848 19.8277 44.5511 19.9517 45.8174C19.9875 46.1743 20.0232 46.5312 20.0601 46.8989C20.2309 48.6559 20.3745 50.3804 20.3268 52.1483C18.4717 52.9869 16.6074 53.7931 14.7228 54.5635C12.9021 55.3118 11.1636 56.1573 9.43231 57.0929C9.18953 57.1945 8.94676 57.2961 8.69663 57.4007C8.44901 57.2769 8.2014 57.1531 7.94629 57.0255C8.20938 56.848 8.47246 56.6705 8.74352 56.4877C14.2942 52.6188 16.8666 48.1805 19.2013 42.0188Z" fill="#0D83A0"/>
<path d="M61.9705 47.6463C63.5799 48.2653 65.1894 48.8844 66.8476 49.5221C66.7258 50.4833 66.7258 50.4833 66.6014 51.4639C65.3455 61.8732 65.2226 71.6256 67.9731 81.7866C67.0074 80.9406 66.6255 80.2527 66.2585 79.0285C66.1623 78.7089 66.066 78.3892 65.9669 78.0598C65.8706 77.7266 65.7744 77.3934 65.6752 77.0501C65.5265 76.5633 65.5265 76.5633 65.3748 76.0667C64.4297 72.8667 64.1633 69.7619 64.1585 66.4355C64.1572 66.128 64.156 65.8204 64.1547 65.5036C64.1528 64.857 64.1519 64.2104 64.1519 63.5637C64.1511 62.5916 64.1443 61.6196 64.1372 60.6475C64.1253 56.9888 64.3144 53.5069 64.9718 49.8973C64.6855 49.789 64.3992 49.6806 64.1042 49.569C63.096 49.147 63.096 49.147 61.9705 48.3966C61.9705 48.149 61.9705 47.9014 61.9705 47.6463Z" fill="#BDBDBD"/>
<path d="M21.4522 28.5128C21.3672 29.4067 21.3672 29.4067 21.0771 30.3886C20.3648 30.8077 20.3648 30.8077 19.4357 31.092C12.227 33.6827 7.31624 39.5024 4.03624 46.2101C2.99591 48.5827 2.47171 51.1228 1.9435 53.649C1.8197 53.649 1.69589 53.649 1.56833 53.649C1.23589 47.8867 3.92196 41.9079 7.61205 37.5446C7.84612 37.2878 8.08019 37.031 8.32136 36.7665C8.59412 36.4594 8.86687 36.1523 9.1479 35.8359C11.9953 32.8002 16.9909 28.5128 21.4522 28.5128Z" fill="#0D83A0"/>
<path d="M30.4563 64.1537C30.5801 64.1537 30.7039 64.1537 30.8315 64.1537C30.846 64.6652 30.846 64.6652 30.8608 65.1869C31.1219 70.974 32.4757 76.7301 35.6618 81.646C35.9248 82.0638 36.1879 82.4816 36.459 82.9121C36.3352 83.1598 36.2114 83.4074 36.0838 83.6625C33.8466 81.464 32.1289 79.1335 30.5032 76.4639C30.3292 76.1789 30.1552 75.8939 29.9759 75.6002C29.495 74.794 29.0361 73.9785 28.5805 73.1578C28.4419 72.9357 28.3033 72.7136 28.1605 72.4848C27.6344 71.5333 27.39 70.7974 27.651 69.7299C28.0154 68.8465 28.4309 68.019 28.8853 67.1785C29.0335 66.8862 29.1817 66.5938 29.3345 66.2926C29.6998 65.5752 30.0769 64.8638 30.4563 64.1537Z" fill="#0D83A0"/>
<path d="M54.8421 27.3873C54.4707 27.6426 54.4707 27.6426 54.0918 27.9031C53.8442 28.1043 53.5966 28.3055 53.3414 28.5128C53.3414 28.7604 53.3414 29.008 53.3414 29.2631C56.9429 31.3755 60.9851 32.4895 65.1358 32.8741C65.5768 32.9205 66.0179 32.9669 66.4723 33.0148C66.658 33.3862 66.658 33.3862 66.8475 33.7651C63.3291 34.438 60.086 33.7623 56.718 32.6396C58.553 36.783 60.5892 39.9832 63.8461 43.1443C63.7223 43.5157 63.5985 43.8872 63.471 44.2698C59.8885 41.4288 57.3198 38.1863 55.9911 33.7651C55.4707 32.1376 54.9323 31.5246 53.4352 30.6934C52.9096 30.4535 52.3797 30.2219 51.8408 30.0134C51.717 30.7563 51.5932 31.4991 51.4656 32.2644C51.218 32.2644 50.9704 32.2644 50.7153 32.2644C50.5264 30.2814 50.9895 29.3135 52.2159 27.7624C53.1399 27.3005 53.8215 27.3604 54.8421 27.3873Z" fill="#0F0C10"/>
<path d="M100.238 91.541C99.9885 91.7088 99.7395 91.8766 99.4829 92.0495C97.3853 93.4857 95.581 94.888 93.9374 96.8432C92.0206 99.0899 90.1485 101.141 87.1067 101.6C86.7353 101.623 86.3639 101.647 85.9812 101.671C86.1021 101.94 86.223 102.209 86.3476 102.487C87.3331 105.206 86.8558 107.869 85.7116 110.452C85.3694 111.144 85.0165 111.832 84.6564 112.515C83.3369 115.025 82.552 117.229 82.2295 120.054C82.1057 120.054 81.9819 120.054 81.8544 120.054C81.6344 117.181 82.1385 115.14 83.355 112.55C85.1773 108.563 85.9172 105.405 84.3516 101.165C84.2703 100.96 84.1891 100.756 84.1054 100.545C84.3956 100.517 84.6857 100.489 84.9847 100.46C89.051 99.9467 90.7888 98.5034 93.4377 95.4803C97.6746 90.6867 97.6746 90.6867 100.238 91.541Z" fill="#0D83A0"/>
<path d="M28.9555 46.5208C29.2031 46.6446 29.4508 46.7684 29.7059 46.896C29.4829 47.0735 29.26 47.251 29.0303 47.4338C28.3688 47.9615 27.709 48.4912 27.0504 49.0224C26.3424 49.5875 25.6276 50.1441 24.9049 50.6902C19.0156 55.2402 15.0963 62.1281 14.0477 69.5035C13.7038 73.0782 13.8405 76.7013 13.9488 80.2859C13.7012 80.2859 13.4536 80.2859 13.1985 80.2859C11.2621 76.4131 12.5715 68.8525 13.8008 64.7692C15.2966 60.8642 17.0975 57.1226 19.9515 54.0242C20.1242 53.8361 20.2969 53.648 20.4749 53.4543C22.9719 50.7665 25.564 48.0652 28.9555 46.5208Z" fill="#0D83A0"/>
<path d="M30.8316 55.9C31.71 57.6568 30.5561 60.7851 30.0813 62.653C29.5598 64.2122 28.9299 65.6803 28.2055 67.1551C28.0584 67.4549 27.9114 67.7547 27.7599 68.0637C26.6395 70.2014 25.2285 72.0449 23.7034 73.9081C23.5438 74.1228 23.3842 74.3375 23.2198 74.5588C21.9631 76.1779 20.4325 77.4512 18.8497 78.7384C18.6301 78.9218 18.4105 79.1053 18.1843 79.2943C16.6433 80.5116 15.5378 80.9209 13.5739 81.0363C13.4501 80.7887 13.3263 80.5411 13.1987 80.2859C13.4802 80.1626 13.7617 80.0393 14.0517 79.9122C20.9727 76.6958 25.3466 70.6915 28.2055 63.7786C28.7824 62.1695 29.2694 60.5534 29.7061 58.9014C30.4259 56.3057 30.4259 56.3057 30.8316 55.9Z" fill="#0D83A0"/>
<path d="M72.0998 99.7947C72.7188 99.7947 73.3379 99.7947 73.9756 99.7947C73.9791 100.027 73.9827 100.259 73.9863 100.497C74.0982 106.411 74.4082 111.774 77.3522 117.052C77.476 117.424 77.5998 117.795 77.7273 118.178C77.9749 118.178 78.2225 118.178 78.4777 118.178C78.3539 118.426 78.23 118.673 78.1025 118.928C74.4597 115.607 72.5276 111.297 72.1306 106.376C72.0598 104.182 72.0738 101.989 72.0998 99.7947Z" fill="#0D83A0"/>
<path d="M70.2241 35.641C71.3496 36.3913 71.3496 36.3913 71.5709 37.2486C71.6139 37.5925 71.6569 37.9363 71.7013 38.2906C72.0242 40.3609 72.6863 42.0249 73.6006 43.8947C73.8551 44.5182 74.1078 45.1425 74.3509 45.7705C74.9699 45.7705 75.589 45.7705 76.2267 45.7705C75.7315 45.8943 75.2363 46.0181 74.7261 46.1457C74.7261 46.3933 74.7261 46.6409 74.7261 46.896C74.9737 46.896 75.2213 46.896 75.4764 46.896C75.2895 48.2795 75.0635 48.9988 73.9757 49.8974C73.6043 49.7736 73.2329 49.6498 72.8502 49.5222C72.1404 49.439 71.4288 49.3698 70.7165 49.3112C70.3436 49.2797 69.9707 49.2483 69.5866 49.2159C69.1593 49.1818 69.1593 49.1818 68.7234 49.147C68.7234 49.0232 68.7234 48.8994 68.7234 48.7719C71.1376 48.5862 71.1376 48.5862 73.6006 48.3967C73.6006 46.4963 73.5945 46.3048 72.5454 44.9264C70.4384 41.9078 70.0401 39.2859 70.2241 35.641Z" fill="#212021"/>
<path d="M66.0972 57.0255C66.221 57.0255 66.3448 57.0255 66.4724 57.0255C66.4724 58.2636 66.4724 59.5017 66.4724 60.7772C66.8438 60.901 67.2152 61.0248 67.5979 61.1524C67.2265 61.2762 66.855 61.4 66.4724 61.5276C66.4724 64.8703 66.4724 68.2131 66.4724 71.6571C66.2248 71.5333 65.9771 71.4095 65.722 71.2819C65.0706 69.3276 65.2776 67.2543 65.2765 65.2089C65.2719 64.756 65.2673 64.3031 65.2626 63.8365C65.2586 61.4306 65.3728 59.3247 66.0972 57.0255Z" fill="#0B0A0B"/>
<path d="M14.6992 61.5275C14.5247 63.3078 14.2189 64.9562 13.7613 66.6861C12.9481 70.0459 12.9229 73.4671 12.8234 76.9094C12.6995 76.9094 12.5757 76.9094 12.4482 76.9094C12.4255 76.4393 12.4027 75.9693 12.3793 75.4849C12.3476 74.8655 12.3159 74.2461 12.284 73.6267C12.2693 73.3172 12.2545 73.0077 12.2394 72.6888C12.2236 72.3889 12.2079 72.0891 12.1917 71.7802C12.178 71.5051 12.1642 71.2301 12.15 70.9467C12.0971 70.1539 12.0971 70.1539 11.8563 69.4052C11.6636 68.4938 11.7967 67.9393 12.0452 67.0451C12.1276 66.747 12.2101 66.4488 12.295 66.1417C12.3843 65.8338 12.4735 65.526 12.5654 65.2089C12.6503 64.8967 12.7352 64.5845 12.8226 64.2629C13.3075 62.5482 13.3075 62.5482 13.5737 61.9027C14.324 61.5275 14.324 61.5275 14.6992 61.5275Z" fill="#151519"/>
<path d="M85.6059 103.171C86.3562 103.922 86.3562 103.922 86.4559 104.602C86.4343 107.626 86.1993 110.261 84.5038 112.832C83.0445 115.065 82.6566 117.453 82.2294 120.054C82.1056 120.054 81.9818 120.054 81.8542 120.054C81.6111 116.88 82.2914 114.574 83.7623 111.775C85.1412 109.043 85.3255 106.178 85.6059 103.171Z" fill="#0D83A0"/>
<path d="M21.0771 45.0201C21.3944 45.26 21.7116 45.4999 22.0385 45.747C23.2934 46.5946 24.4439 46.7751 25.9543 46.896C24.5659 48.3686 23.122 49.5018 21.4523 50.6477C21.0415 49.4152 21.0398 48.4955 21.0537 47.2008C21.0571 46.7931 21.0605 46.3854 21.0639 45.9654C21.0683 45.6535 21.0727 45.3415 21.0771 45.0201Z" fill="#0D83A0"/>
<path d="M56.718 33.3899C57.4683 34.5154 57.4683 34.5154 57.8889 35.3698C59.4115 38.4467 61.4671 40.7187 63.8461 43.1443C63.7223 43.5157 63.5985 43.8871 63.471 44.2698C60.3985 41.8332 57.5178 38.8617 56.4263 34.9785C56.3428 34.1403 56.3428 34.1403 56.718 33.3899Z" fill="#1A0C0E"/>
<path d="M58.2188 44.2698C59.4862 44.5094 60.3548 44.9998 61.4311 45.7001C63.3944 46.9144 65.4079 47.6888 67.5979 48.3967C67.2265 48.5824 67.2265 48.5824 66.8476 48.7718C66.8476 49.0194 66.8476 49.267 66.8476 49.5222C63.893 48.8492 61.3394 47.684 58.9691 45.7705C58.4767 44.9366 58.4767 44.9366 58.2188 44.2698Z" fill="#181818"/>
<path d="M94.985 94.9175C95.2326 95.4127 95.4803 95.908 95.7354 96.4182C91.5513 101.31 91.5513 101.31 88.6072 102.421C88.6072 101.926 88.6072 101.43 88.6072 100.92C89.2403 100.413 89.2403 100.413 90.1078 99.9354C92.2197 98.6368 93.5437 96.9047 94.985 94.9175Z" fill="#161519"/>
<path d="M66.4725 69.0309C66.5963 69.0309 66.7201 69.0309 66.8476 69.0309C66.8931 69.4749 66.9385 69.9188 66.9854 70.3762C67.3101 73.4657 67.663 76.5009 68.3483 79.5356C68.1007 79.5356 67.8531 79.5356 67.598 79.5356C67.4741 79.7832 67.3503 80.0308 67.2228 80.286C66.9689 79.2785 66.7195 78.2703 66.4725 77.2612C66.3651 76.8379 66.3651 76.8379 66.2556 76.406C65.8294 74.648 65.6453 73.0905 65.7221 71.2819C65.8459 71.2819 65.9697 71.2819 66.0973 71.2819C66.2211 70.5391 66.3449 69.7963 66.4725 69.0309Z" fill="#1D1B1C"/>
<path d="M88.9825 87.039C87.7274 87.8757 86.4956 88.2391 85.0667 88.6569C82.7092 89.3623 80.4749 90.2018 78.236 91.2332C77.3523 91.541 77.3523 91.541 76.2268 91.1658C77.5527 90.0151 79.0532 89.4756 80.6819 88.8914C80.9426 88.7954 81.2033 88.6994 81.4718 88.6005C82.223 88.3253 82.9762 88.0567 83.7302 87.7893C84.1306 87.6437 84.531 87.4982 84.9436 87.3482C86.3566 86.9271 87.5158 86.9884 88.9825 87.039Z" fill="#0D83A0"/>
<path d="M83.7302 86.6638C83.7302 86.9114 83.7302 87.159 83.7302 87.4141C84.1016 87.5379 84.473 87.6617 84.8557 87.7893C83.8397 88.1491 82.8236 88.5086 81.8074 88.8679C81.5221 88.969 81.2368 89.0701 80.9428 89.1742C79.3756 89.7281 77.8059 90.271 76.2268 90.7906C76.2268 90.543 76.2268 90.2954 76.2268 90.0403C75.8554 89.9165 75.484 89.7927 75.1013 89.6651C75.5129 89.5113 75.9244 89.3576 76.3485 89.1991C76.8941 88.9949 77.4398 88.7907 77.9854 88.5865C78.256 88.4854 78.5266 88.3844 78.8054 88.2802C79.9402 87.8553 81.0698 87.4282 82.1899 86.9657C82.9798 86.6638 82.9798 86.6638 83.7302 86.6638Z" fill="#19171B"/>
<path d="M54.0919 0.375203C54.0919 0.499008 54.0919 0.622814 54.0919 0.750371C53.2252 0.874176 52.3586 0.997982 51.4657 1.12554C51.7133 1.37315 51.9609 1.62076 52.216 1.87587C51.773 1.97985 51.33 2.08383 50.8736 2.19096C50.2894 2.32822 49.7051 2.46549 49.1209 2.60276C48.8293 2.67119 48.5376 2.73963 48.2372 2.81013C47.8128 2.90988 47.8128 2.90988 47.3799 3.01164C47.1205 3.07254 46.8612 3.13345 46.594 3.1962C45.8404 3.37601 45.0887 3.56243 44.3375 3.75171C44.0899 3.3803 43.8423 3.00888 43.5872 2.62621C50.5155 0.247476 50.5155 0.247476 54.0919 0.375203Z" fill="#151317"/>
<path d="M54.4669 95.2927C54.7039 95.3609 54.9408 95.429 55.185 95.4993C58.0482 96.3038 60.9336 96.9442 63.8461 97.5437C63.8461 97.6675 63.8461 97.7913 63.8461 97.9188C63.4437 97.9111 63.0414 97.9034 62.6268 97.8954C61.3161 97.8569 61.3161 97.8569 60.4729 98.1312C59.5819 98.3237 59.1191 98.2045 58.2596 97.9203C57.9936 97.8345 57.7276 97.7486 57.4536 97.6602C57.1799 97.5676 56.9061 97.475 56.6241 97.3795C56.3446 97.2884 56.065 97.1972 55.777 97.1033C55.0891 96.8784 54.4027 96.6487 53.7166 96.4182C53.9642 96.2944 54.2118 96.1706 54.4669 96.043C54.4669 95.7954 54.4669 95.5478 54.4669 95.2927Z" fill="#131319"/>
<path d="M71.3494 100.92C71.597 100.92 71.8446 100.92 72.0997 100.92C72.2269 102.178 72.3511 103.437 72.4749 104.695C72.5107 105.049 72.5465 105.403 72.5834 105.767C72.7684 107.664 72.8924 109.519 72.8501 111.425C71.6658 109.932 71.3013 108.863 71.3128 106.965C71.314 106.614 71.3152 106.262 71.3164 105.899C71.3211 105.35 71.3211 105.35 71.326 104.789C71.3276 104.418 71.3293 104.048 71.3311 103.666C71.3355 102.751 71.3417 101.835 71.3494 100.92Z" fill="#08080C"/>
<path d="M72.8504 18.008C72.9742 18.2556 73.098 18.5033 73.2255 18.7584C72.9982 18.7864 72.7709 18.8145 72.5368 18.8434C70.1745 19.2141 68.504 19.9631 66.5209 21.2937C65.7222 21.7597 65.7222 21.7597 64.5967 21.7597C66.7495 18.6202 69.1366 17.6656 72.8504 18.008Z" fill="#0A0E14"/>
<path d="M19.2012 54.7745C19.4191 55.4667 19.4191 55.4667 19.5763 56.2752C19.0912 57.2058 19.0912 57.2058 18.3805 58.2214C17.1783 60.0103 16.2445 61.7786 15.4495 63.7786C15.0781 63.6548 14.7066 63.531 14.324 63.4034C14.7822 62.4562 15.2438 61.5108 15.7074 60.5662C15.8348 60.3019 15.9623 60.0376 16.0936 59.7653C16.9818 57.964 17.9955 56.3814 19.2012 54.7745Z" fill="#0D83A0"/>
<path d="M9.82201 33.3899C10.1972 34.5154 10.1972 34.5154 9.92752 35.2394C9.3972 36.0963 8.80667 36.8138 8.13375 37.5637C7.90549 37.82 7.67722 38.0763 7.44204 38.3404C6.99585 38.8266 6.53694 39.3012 6.07033 39.7678C5.69891 39.5202 5.3275 39.2726 4.94482 39.0174C5.61659 38.2199 6.28883 37.4227 6.96135 36.6257C7.1519 36.3994 7.34244 36.1731 7.53876 35.9399C7.72253 35.7223 7.90631 35.5046 8.09565 35.2804C8.26461 35.08 8.43358 34.8796 8.60766 34.6732C8.99439 34.229 9.40559 33.8063 9.82201 33.3899Z" fill="#15161A"/>
<path d="M72.8501 88.9149C74.0984 89.1229 75.1815 89.3088 76.2266 90.0404C77.3072 91.6998 77.4697 92.9585 77.3521 94.9175C76.9807 94.9175 76.6093 94.9175 76.2266 94.9175C76.157 94.4765 76.0873 94.0354 76.0156 93.581C75.5997 91.8499 74.6994 90.9614 73.3982 89.7956C73.2173 89.6288 73.0365 89.4619 72.8501 89.29C72.8501 89.1662 72.8501 89.0424 72.8501 88.9149Z" fill="#080A0E"/>
<path d="M65.347 70.1564C65.4708 70.1564 65.5946 70.1564 65.7222 70.1564C65.7589 70.493 65.7957 70.8296 65.8336 71.1764C66.2682 74.8037 67.0191 78.2621 67.9732 81.7866C66.6389 80.7654 66.3077 79.3177 65.8394 77.777C65.755 77.5209 65.6706 77.2649 65.5837 77.001C64.8836 74.7475 64.5822 72.451 65.347 70.1564Z" fill="#B3B3B3"/>
<path d="M49.5209 5.82685C50.5179 6.04089 51.072 6.47279 51.8408 7.12822C51.5961 7.11081 51.3513 7.0934 51.0992 7.07546C48.8638 6.98314 47.6031 7.11597 45.8381 8.62889C45.3245 9.11542 44.8188 9.61117 44.3374 10.1296C45.1123 7.10053 46.4193 5.78385 49.5209 5.82685Z" fill="#121F2B"/>
<path d="M88.9823 101.671C88.8585 101.918 88.7347 102.166 88.6071 102.421C88.2357 102.421 87.8643 102.421 87.4816 102.421C87.4816 104.154 87.4816 105.887 87.4816 107.673C87.234 107.797 86.9864 107.921 86.7313 108.048C86.7086 107.745 86.6858 107.442 86.6624 107.13C86.631 106.729 86.5995 106.328 86.5672 105.915C86.5367 105.519 86.5062 105.122 86.4748 104.714C86.3694 103.677 86.2055 102.687 85.981 101.671C87.1262 101.302 87.837 101.302 88.9823 101.671Z" fill="#08090C"/>
<path d="M33.4578 81.7866C35.0615 81.9702 35.8309 82.8962 36.9281 84.0142C37.2627 84.3503 37.5974 84.6864 37.9422 85.0327C38.7101 85.9135 38.7101 85.9135 38.7101 86.6638C37.1064 86.4802 36.337 85.5543 35.2398 84.4362C34.9052 84.1001 34.5705 83.764 34.2257 83.4177C33.4578 82.537 33.4578 82.537 33.4578 81.7866Z" fill="#09080C"/>
<path d="M87.1067 21.3846C89.1022 21.1945 90.0573 21.6374 91.6087 22.8853C92.6172 23.7876 93.0707 24.3551 93.2002 25.7151C93.2029 26.6528 93.1747 27.5776 93.1094 28.5128C92.8618 28.6366 92.6142 28.7604 92.359 28.8879C92.3445 28.5209 92.3445 28.5209 92.3297 28.1464C92.1917 26.0196 92.0325 24.4732 90.4832 22.8853C89.3836 22.3867 88.2784 22.0452 87.1067 21.7597C87.1067 21.6359 87.1067 21.5121 87.1067 21.3846Z" fill="#0D83A0"/>
<path d="M53.8589 1.41421C54.1735 1.41493 54.4881 1.41566 54.8122 1.41641C55.1394 1.421 55.4665 1.4256 55.8036 1.43033C56.2965 1.43069 56.2965 1.43069 56.7994 1.43106C59.2389 1.44796 59.2389 1.44796 60.0946 1.87584C60.0946 2.12345 60.0946 2.37106 60.0946 2.62618C57.1233 2.50237 54.1519 2.37857 51.0906 2.25101C52.2629 1.46945 52.527 1.40708 53.8589 1.41421Z" fill="#0D83A0"/>
<path d="M91.9838 21.3846C92.8554 22.3308 93.5215 23.3159 94.2349 24.3859C94.0942 25.2066 94.0942 25.2066 93.8597 25.8866C93.6919 25.6873 93.5241 25.4881 93.3512 25.2828C92.1087 23.8311 90.9125 22.5154 89.3577 21.3846C90.405 20.8609 90.8813 21.0171 91.9838 21.3846Z" fill="#1C1D23"/>
<path d="M16.2 57.0255C16.6952 57.1493 17.1904 57.2732 17.7007 57.4007C16.834 59.0102 15.9674 60.6197 15.0745 62.2779C14.7031 62.1541 14.3316 62.0303 13.949 61.9027C14.4791 60.0916 15.2357 58.6327 16.2 57.0255Z" fill="#17161A"/>
<path d="M84.1053 32.6396C84.2291 33.011 84.3529 33.3824 84.4805 33.7651C82.0663 33.9508 82.0663 33.9508 79.6033 34.1403C79.6033 33.8927 79.6033 33.645 79.6033 33.3899C78.4891 33.3899 77.3748 33.3899 76.2268 33.3899C76.2268 33.2661 76.2268 33.1423 76.2268 33.0148C78.8588 32.7901 81.4629 32.5878 84.1053 32.6396Z" fill="#141D26"/>
<path d="M54.8421 27.3873C54.6022 27.542 54.3624 27.6968 54.1152 27.8562C53.2627 28.5796 53.1156 28.9308 52.9663 30.0134C52.5949 30.0134 52.2234 30.0134 51.8408 30.0134C51.717 30.7563 51.5932 31.4991 51.4656 32.2644C51.218 32.2644 50.9704 32.2644 50.7153 32.2644C50.5264 30.2814 50.9895 29.3135 52.2159 27.7624C53.1399 27.3005 53.8215 27.3604 54.8421 27.3873Z" fill="#111925"/>
<path d="M82.2295 20.2591C83.4644 20.2373 84.6992 20.224 85.9343 20.2122C86.2859 20.2059 86.6375 20.1996 86.9997 20.1931C87.3358 20.1907 87.6719 20.1883 88.0182 20.1858C88.3286 20.1819 88.6391 20.1779 88.9589 20.1739C89.7329 20.2591 89.7329 20.2591 90.4832 21.0094C90.108 21.3846 90.108 21.3846 89.3422 21.3927C89.0141 21.375 88.686 21.3574 88.348 21.3391C87.8166 21.3119 87.8166 21.3119 87.2745 21.2842C86.9019 21.2632 86.5292 21.2421 86.1453 21.2204C85.7712 21.2009 85.3972 21.1813 85.0117 21.1611C84.0842 21.1123 83.1568 21.0616 82.2295 21.0094C82.2295 20.7618 82.2295 20.5142 82.2295 20.2591Z" fill="#070709"/>
<path d="M3.44407 44.2698C3.56787 44.2698 3.69168 44.2698 3.81924 44.2698C4.02143 46.494 3.44771 48.2012 2.68347 50.2857C2.31596 51.4059 2.10796 52.4832 1.9434 53.649C1.81959 53.649 1.69579 53.649 1.56823 53.649C1.37845 50.3595 2.17181 47.2956 3.44407 44.2698Z" fill="#0D83A0"/>
<path d="M49.2147 14.2564C49.9576 14.6278 50.7004 14.9992 51.4657 15.3819C51.3419 16.0009 51.2181 16.6199 51.0906 17.2577C50.7191 17.1339 50.3477 17.0101 49.9651 16.8826C49.8412 16.8826 49.7174 16.8826 49.5899 16.8826C49.4661 17.3778 49.3423 17.873 49.2147 18.3832C48.9671 18.2594 48.7195 18.1356 48.4644 18.0081C48.3971 16.5272 48.4293 15.5327 49.2147 14.2564Z" fill="#090B11"/>
<path d="M58.5939 0.75033C58.5939 0.997941 58.5939 1.24555 58.5939 1.50067C56.1178 1.50067 53.6417 1.50067 51.0906 1.50067C51.2144 1.25306 51.3382 1.00544 51.4657 0.75033C53.8484 0.167899 56.178 0.492474 58.5939 0.75033Z" fill="#030405"/>
<path d="M12.0731 66.7799C12.4445 66.9037 12.8159 67.0275 13.1986 67.1551C13.0748 70.374 12.951 73.593 12.8234 76.9094C12.6996 76.9094 12.5758 76.9094 12.4482 76.9094C12.4255 76.4394 12.4028 75.9693 12.3794 75.485C12.3477 74.8656 12.3159 74.2461 12.2841 73.6267C12.2694 73.3172 12.2546 73.0077 12.2394 72.6888C12.2237 72.389 12.208 72.0891 12.1918 71.7802C12.178 71.5051 12.1643 71.2301 12.1501 70.9467C12.0933 70.1495 12.0933 70.1495 11.8678 69.3691C11.6431 68.4258 11.8407 67.7095 12.0731 66.7799Z" fill="#2B323A"/>
<path d="M66.8474 48.7719C67.8404 48.8144 68.8327 48.8619 69.8253 48.9125C70.25 48.9299 70.25 48.9299 70.6834 48.9477C71.4076 48.9867 72.1296 49.0641 72.8501 49.147C72.9739 49.3946 73.0977 49.6422 73.2253 49.8974C72.3228 50.3486 71.7434 50.3103 70.7398 50.296C70.2799 50.2909 70.2799 50.2909 69.8107 50.2857C69.4581 50.2792 69.4581 50.2792 69.0984 50.2725C69.0984 50.0249 69.0984 49.7773 69.0984 49.5222C68.3556 49.7698 67.6128 50.0174 66.8474 50.2725C66.8474 49.7773 66.8474 49.2821 66.8474 48.7719Z" fill="#070A0E"/>
<path d="M20.3267 32.6396C20.5743 32.6396 20.8219 32.6396 21.077 32.6396C21.5078 34.8413 21.3671 36.7996 21.077 39.0174C19.9465 37.3217 19.8483 36.1499 19.9515 34.1403C20.1391 33.2023 20.1391 33.2023 20.3267 32.6396Z" fill="#0E1720"/>
<path d="M52.9664 17.2577C53.2141 17.2577 53.4617 17.2577 53.7168 17.2577C54.2876 18.3994 54.1816 19.379 54.0919 20.6342C53.5348 21.0056 53.5348 21.0056 52.9664 21.3846C52.2161 20.6342 52.2161 20.6342 52.1223 19.3211C52.2161 18.0081 52.2161 18.0081 52.9664 17.2577Z" fill="#EEEEEE"/>
<path d="M85.3951 19.8136C85.8605 19.8212 85.8605 19.8212 86.3352 19.8289C87.0927 19.8421 87.8501 19.8623 88.6075 19.8839C88.6075 20.0077 88.6075 20.1315 88.6075 20.2591C86.5028 20.2591 84.3981 20.2591 82.2296 20.2591C82.2296 20.5067 82.2296 20.7543 82.2296 21.0094C82.4772 21.1332 82.7248 21.257 82.98 21.3846C81.7419 21.5084 80.5038 21.6322 79.2283 21.7597C79.2283 21.5121 79.2283 21.2645 79.2283 21.0094C81.3614 19.9185 83.0196 19.7389 85.3951 19.8136Z" fill="#1F1D23"/>
<path d="M22.5779 49.5222C22.9493 49.646 23.3208 49.7698 23.7034 49.8974C23.1095 51.5009 22.013 52.2479 20.7021 53.2739C20.2069 53.0263 19.7116 52.7786 19.2014 52.5235C19.4103 52.3765 19.6193 52.2295 19.8345 52.078C20.831 51.297 21.6958 50.4288 22.5779 49.5222Z" fill="#131B23"/>
<path d="M91.9836 85.5383C92.8199 85.518 93.6562 85.5035 94.4926 85.4914C95.1912 85.4784 95.1912 85.4784 95.9039 85.4651C97.1656 85.5345 97.9858 85.7418 99.1118 86.2887C98.988 86.5363 98.8642 86.7839 98.7367 87.039C96.4326 86.8196 94.2321 86.461 91.9836 85.9135C91.9836 85.7897 91.9836 85.6659 91.9836 85.5383Z" fill="#0A0A0D"/>
<path d="M91.2775 86.189C91.9753 86.1919 91.9753 86.1919 92.6873 86.1949C93.1506 86.1929 93.6139 86.191 94.0912 86.189C95.256 86.2805 95.8895 86.4238 96.861 87.039C94.2777 87.4201 91.947 87.3536 89.3577 87.039C90.108 86.2886 90.108 86.2886 91.2775 86.189Z" fill="#0D83A0"/>
<path d="M74.7261 46.896C74.9737 46.896 75.2213 46.896 75.4764 46.896C75.2895 48.2794 75.0635 48.9988 73.9757 49.8973C73.6043 49.7735 73.2329 49.6497 72.8502 49.5222C72.1404 49.439 71.4288 49.3698 70.7165 49.3111C70.3436 49.2797 69.9707 49.2483 69.5866 49.2159C69.1593 49.1818 69.1593 49.1818 68.7234 49.147C68.7234 49.0232 68.7234 48.8994 68.7234 48.7718C69.0624 48.7622 69.4014 48.7525 69.7507 48.7425C70.1932 48.7212 70.6357 48.7 71.0916 48.678C71.751 48.6519 71.751 48.6519 72.4238 48.6253C73.6359 48.5145 73.6359 48.5145 74.2732 47.6287C74.4227 47.3869 74.5721 47.1451 74.7261 46.896Z" fill="#32363C"/>
<path d="M60.0944 39.7678C60.5092 40.1189 60.9233 40.4708 61.3372 40.823C61.5678 41.0188 61.7985 41.2147 62.0362 41.4165C62.6659 41.9707 63.2604 42.5442 63.8461 43.1443C63.7223 43.5158 63.5985 43.8872 63.4709 44.2698C62.2329 43.1556 60.9948 42.0413 59.7192 40.8933C59.843 40.5219 59.9668 40.1505 60.0944 39.7678Z" fill="#2A1C1D"/>
<path d="M6.44531 39.3926C6.44531 41.8421 5.43823 43.7387 4.1943 45.7705C4.07049 45.7705 3.94669 45.7705 3.81913 45.7705C3.52838 43.5026 4.48487 41.9765 5.69497 40.143C5.94258 39.8954 6.19019 39.6478 6.44531 39.3926Z" fill="#0D83A0"/>
<path d="M56.3428 0.375185C58.6196 0.280315 60.5304 0.488363 62.7206 1.12552C62.3492 1.31123 62.3492 1.31123 61.9703 1.50069C61.9703 1.7483 61.9703 1.99591 61.9703 2.25102C59.4379 1.92275 59.4379 1.92275 58.5938 1.50069C58.5938 1.25308 58.5938 1.00547 58.5938 0.750353C57.8509 0.750353 57.1081 0.750353 56.3428 0.750353C56.3428 0.626547 56.3428 0.502742 56.3428 0.375185Z" fill="#1D1A20"/>
<path d="M72.475 99.4195C72.3512 99.9147 72.2274 100.41 72.0998 100.92C71.8522 100.92 71.6046 100.92 71.3495 100.92C71.3495 102.53 71.3495 104.139 71.3495 105.797C71.2257 105.797 71.1019 105.797 70.9743 105.797C70.9743 103.816 70.9743 101.836 70.9743 99.7947C70.1077 99.7947 69.241 99.7947 68.3481 99.7947C68.3481 99.6709 68.3481 99.5471 68.3481 99.4195C71.1351 98.9371 71.1351 98.9371 72.475 99.4195Z" fill="#1C1419"/>
<path d="M72.8503 43.1443C74.351 44.9264 74.351 44.9264 74.351 45.7705C74.97 45.7705 75.589 45.7705 76.2268 45.7705C75.7316 45.8943 75.2364 46.0181 74.7261 46.1457C74.6023 46.7647 74.4785 47.3837 74.351 48.0215C74.2504 47.8048 74.1498 47.5882 74.0461 47.365C73.6301 46.4987 73.6301 46.4987 72.9675 45.7939C72.4751 45.0202 72.4751 45.0202 72.5924 43.9884C72.6775 43.7099 72.7626 43.4313 72.8503 43.1443Z" fill="#1C191B"/>
<path d="M83.7301 60.0269C82.3467 60.9492 81.2176 61.1571 79.6032 61.5276C79.6032 61.28 79.6032 61.0324 79.6032 60.7772C79.108 60.6534 78.6128 60.5296 78.1025 60.4021C78.757 60.1922 79.4141 59.9905 80.0722 59.7924C80.4378 59.6793 80.8034 59.5661 81.1801 59.4495C82.3482 59.257 82.7605 59.3852 83.7301 60.0269Z" fill="#141823"/>
<path d="M88.6074 85.9135C88.6074 86.1611 88.6074 86.4087 88.6074 86.6638C86.9053 87.2085 85.5383 87.5023 83.7302 87.4141C83.7302 87.1665 83.7302 86.9189 83.7302 86.6638C85.4198 86.0045 86.7977 85.8411 88.6074 85.9135Z" fill="#0D0B0F"/>
<path d="M29.3307 74.6584C30.5585 75.7021 31.1931 77.0143 31.9568 78.4101C31.4616 78.5339 30.9664 78.6577 30.4562 78.7853C29.8371 77.671 29.2181 76.5568 28.5803 75.4088C28.8279 75.4088 29.0755 75.4088 29.3307 75.4088C29.3307 75.1611 29.3307 74.9135 29.3307 74.6584Z" fill="#11151D"/>
<path d="M1.56838 45.7705C1.69218 46.0181 1.81599 46.2657 1.94354 46.5208C2.19115 46.5208 2.43876 46.5208 2.69388 46.5208C2.44627 47.8827 2.19866 49.2445 1.94354 50.6477C1.69593 50.4001 1.44832 50.1524 1.19321 49.8973C0.945596 50.2687 0.697985 50.6402 0.442871 51.0228C0.710938 49.2357 1.11643 47.518 1.56838 45.7705Z" fill="#1F1D22"/>
<path d="M99.112 91.1658C99.4834 91.2896 99.8548 91.4134 100.237 91.541C99.6357 91.9632 99.0339 92.3852 98.432 92.8072C98.0968 93.0422 97.7617 93.2773 97.4164 93.5194C96.7361 93.9929 96.0499 94.4578 95.3603 94.9175C95.2365 94.5461 95.1127 94.1747 94.9851 93.792C95.5319 93.4241 96.0791 93.0569 96.6265 92.69C96.9311 92.4854 97.2358 92.2808 97.5497 92.07C98.3616 91.541 98.3616 91.541 99.112 91.1658Z" fill="#0D83A0"/>
<path d="M33.8328 9.00406C34.6461 9.14035 34.6461 9.14035 35.3335 9.37923C34.8512 9.88169 34.3661 10.3814 33.8797 10.8799C33.6098 11.1585 33.34 11.437 33.0619 11.724C32.3321 12.3806 32.3321 12.3806 31.5818 12.3806C31.759 10.7853 32.622 9.98957 33.8328 9.00406Z" fill="#09090D"/>
<path d="M54.092 0.375177C54.092 0.498983 54.092 0.622788 54.092 0.750345C53.2254 0.874151 52.3588 0.997956 51.4659 1.12551C51.7135 1.37312 51.9611 1.62074 52.2162 1.87585C50.5448 2.06156 50.5448 2.06156 48.8397 2.25102C48.8397 2.00341 48.8397 1.7558 48.8397 1.50068C48.5921 1.37688 48.3445 1.25307 48.0894 1.12551C50.1793 0.528388 51.9202 0.297612 54.092 0.375177Z" fill="#2A262D"/>
<path d="M21.4523 28.5128C21.3285 29.1318 21.2047 29.7508 21.0771 30.3886C20.2105 30.6362 19.3438 30.8838 18.4509 31.1389C18.5213 30.4589 18.5213 30.4589 18.8261 29.6383C20.3938 28.5128 20.3938 28.5128 21.4523 28.5128Z" fill="#0D83A0"/>
<path d="M1.19316 53.2739C1.56458 53.4596 1.56458 53.4596 1.9435 53.649C2.18091 54.5064 2.18091 54.5064 2.36556 55.5483C2.42843 55.8931 2.4913 56.238 2.55608 56.5932C2.60154 56.8597 2.647 57.1262 2.69384 57.4007C2.44623 57.4007 2.19861 57.4007 1.9435 57.4007C1.81969 57.7721 1.69589 58.1435 1.56833 58.5262C1.17449 57.3447 1.15515 56.5048 1.16972 55.2669C1.1731 54.8941 1.17649 54.5212 1.17997 54.137C1.18433 53.8522 1.18868 53.5673 1.19316 53.2739Z" fill="#0D83A0"/>
<path d="M57.0933 97.1685C57.867 97.1583 58.6408 97.151 59.4146 97.145C59.8455 97.1407 60.2764 97.1363 60.7204 97.1318C61.8178 97.164 62.782 97.2891 63.8463 97.5436C63.8463 97.6674 63.8463 97.7913 63.8463 97.9188C63.4439 97.9111 63.0416 97.9033 62.627 97.8954C61.3129 97.851 61.3129 97.851 60.4698 98.1533C59.257 98.3807 58.2431 97.9196 57.0933 97.5436C57.0933 97.4198 57.0933 97.296 57.0933 97.1685Z" fill="#1F1D26"/>
<path d="M22.9529 51.0229C23.3243 51.1467 23.6958 51.2705 24.0784 51.398C23.7457 51.6611 23.413 51.9242 23.0702 52.1953C21.8635 53.1955 20.9224 54.2971 19.9516 55.5249C19.8278 55.1535 19.704 54.782 19.5764 54.3994C20.6907 53.2851 21.8049 52.1709 22.9529 51.0229Z" fill="#0D83A0"/>
<path d="M20.3269 46.5208C21.1179 47.7072 21.2041 48.2115 21.3117 49.5925C21.3398 49.9305 21.3678 50.2686 21.3967 50.6169C21.4151 50.8747 21.4335 51.1324 21.4524 51.398C21.081 51.398 20.7096 51.398 20.3269 51.398C20.3269 49.7885 20.3269 48.1791 20.3269 46.5208Z" fill="#06070C"/>
<path d="M65.7219 39.0175C65.9695 39.0175 66.2171 39.0175 66.4723 39.0175C66.5961 40.3793 66.7199 41.7412 66.8474 43.1443C66.476 43.1443 66.1046 43.1443 65.7219 43.1443C65.7219 41.7825 65.7219 40.4206 65.7219 39.0175Z" fill="#D02B38"/>
<path d="M18.0758 29.2631C18.0758 29.5107 18.0758 29.7583 18.0758 30.0134C16.0903 31.1678 16.0903 31.1678 14.7462 31.0217C14.4831 30.9366 14.22 30.8515 13.949 30.7638C16.4035 28.7614 16.4035 28.7614 18.0758 29.2631Z" fill="#17181B"/>
<path d="M90.4832 47.6463C92.6404 48.3028 92.6404 48.3028 93.4845 49.147C93.3607 49.3946 93.2369 49.6422 93.1093 49.8973C91.8713 49.5259 90.6332 49.1545 89.3577 48.7718C89.7291 48.4004 90.1005 48.029 90.4832 47.6463Z" fill="#1A1B24"/>
<path d="M16.9501 31.8893C15.8695 32.7297 14.7559 33.4506 13.5736 34.1403C13.326 33.8927 13.0784 33.6451 12.8232 33.3899C14.0804 32.0071 15.0872 31.224 16.9501 31.8893Z" fill="#0D83A0"/>
<path d="M78.853 20.2591C79.2244 20.5067 79.5958 20.7543 79.9785 21.0094C79.7309 21.0094 79.4833 21.0094 79.2282 21.0094C79.352 21.3808 79.4758 21.7523 79.6033 22.1349C77.941 22.9199 77.941 22.9199 76.8599 22.7446C76.651 22.6672 76.4421 22.5898 76.2268 22.5101C76.3506 22.2625 76.4744 22.0149 76.602 21.7598C77.5633 21.5253 77.5633 21.5253 78.4778 21.3846C78.6016 21.0132 78.7254 20.6418 78.853 20.2591Z" fill="#0A0B10"/>
<path d="M31.2067 11.6302C31.4543 12.0016 31.7019 12.3731 31.957 12.7557C31.338 13.4986 30.7189 14.2414 30.0811 15.0067C29.8335 14.5115 29.5859 14.0163 29.3308 13.5061C29.9498 12.887 30.5689 12.268 31.2067 11.6302Z" fill="#15171D"/>
<path d="M93.4846 24.7611C94.396 26.1283 94.2956 26.9042 94.2349 28.5128C93.8635 28.6366 93.4921 28.7604 93.1094 28.888C93.0993 28.2705 93.092 27.653 93.0859 27.0356C93.0816 26.6917 93.0772 26.3479 93.0728 25.9936C93.1094 25.1363 93.1094 25.1363 93.4846 24.7611Z" fill="#090B0E"/>
<path d="M94.9853 94.9175C95.2329 95.4127 95.4805 95.908 95.7356 96.4182C95.2518 96.9343 94.7501 97.434 94.235 97.9189C93.6097 97.9189 92.9844 97.9189 92.3591 97.9189C93.2258 96.9284 94.0924 95.938 94.9853 94.9175Z" fill="#1C2025"/>
<path d="M17.8413 53.6021C18.0424 53.7414 18.2436 53.8807 18.4509 54.0242C18.3271 54.2718 18.2033 54.5194 18.0757 54.7745C16.9971 55.0794 16.9971 55.0794 15.8247 55.1497C15.1213 54.6104 15.1213 54.6104 14.6992 54.0242C16.7309 53.1931 16.7309 53.1931 17.8413 53.6021Z" fill="#14151D"/>
<path d="M87.1067 46.896C89.5539 47.1269 89.5539 47.1269 90.4598 47.8574C90.5913 48.0353 90.7228 48.2133 90.8584 48.3967C88.3729 48.4905 88.3729 48.4905 87.1067 47.6463C87.1067 47.3987 87.1067 47.1511 87.1067 46.896Z" fill="#0B0D11"/>
<path d="M73.6005 107.673C74.7284 108.801 74.5744 109.858 74.726 111.425C74.3546 111.549 73.9832 111.673 73.6005 111.8C73.2254 111.425 73.2254 111.425 73.1785 110.51C73.2254 109.549 73.2254 109.549 73.6005 108.799C73.6005 108.427 73.6005 108.056 73.6005 107.673Z" fill="#2C86C3"/>
<path d="M72.8502 98.294C73.7168 98.294 74.5835 98.294 75.4764 98.294C75.3526 98.6654 75.2288 99.0368 75.1012 99.4195C74.1108 99.5433 73.1203 99.6671 72.0999 99.7947C72.3475 99.6709 72.5951 99.5471 72.8502 99.4195C72.8502 99.0481 72.8502 98.6767 72.8502 98.294Z" fill="#0D1622"/>
<path d="M12.4483 76.9095C12.5721 76.9095 12.6959 76.9095 12.8235 76.9095C12.9066 77.5184 12.9837 78.1283 13.058 78.7384C13.1015 79.0779 13.145 79.4174 13.1899 79.7672C13.1928 80.0622 13.1957 80.3572 13.1987 80.6611C12.9511 80.9087 12.7034 81.1564 12.4483 81.4115C11.698 80.286 11.698 80.286 11.698 78.7853C11.9456 78.7853 12.1932 78.7853 12.4483 78.7853C12.4483 78.1663 12.4483 77.5472 12.4483 76.9095Z" fill="#1B1A20"/>
<path d="M78.1728 60.7538C78.8809 60.7654 78.8809 60.7654 79.6032 60.7772C79.6032 61.0249 79.6032 61.2725 79.6032 61.5276C79.0568 61.6108 78.5095 61.6878 77.9618 61.7621C77.6571 61.8056 77.3525 61.8491 77.0385 61.894C76.7706 61.8969 76.5027 61.8998 76.2267 61.9027C75.979 61.6551 75.7314 61.4075 75.4763 61.1524C76.5083 60.8084 77.1119 60.7364 78.1728 60.7538Z" fill="#09090E"/>
<path d="M23.7032 75.0336C23.2182 76.1158 22.7055 76.8615 21.8274 77.6598C21.456 77.536 21.0846 77.4122 20.7019 77.2846C22.4371 75.0336 22.4371 75.0336 23.7032 75.0336Z" fill="#0F0C0E"/>
<path d="M9.82205 33.3899C10.1972 34.5154 10.1972 34.5154 9.8455 35.3361C9.64819 35.6727 9.64819 35.6727 9.44688 36.0161C8.32138 36.0161 8.32138 36.0161 7.57104 35.6409C8.31388 34.8981 9.05671 34.1553 9.82205 33.3899Z" fill="#262328"/>
<path d="M47.714 6.00273C49.5544 5.89655 50.4322 5.94085 51.8408 7.12823C51.583 7.12388 51.3253 7.11953 51.0597 7.11504C50.7216 7.11166 50.3836 7.10827 50.0353 7.10478C49.7002 7.10043 49.365 7.09608 49.0197 7.09159C48.0388 7.08693 48.0388 7.08693 46.9636 7.5034C47.2112 7.00818 47.4588 6.51296 47.714 6.00273Z" fill="#0A0B0F"/>
<path d="M45.0876 91.1658C46.8697 91.4941 46.8697 91.4941 47.7138 91.9162C47.9483 92.69 47.9483 92.69 48.089 93.4168C45.965 92.8627 45.965 92.8627 45.3221 91.8693C45.2447 91.6371 45.1674 91.405 45.0876 91.1658Z" fill="#0D0E12"/>
<path d="M87.4817 57.0255C88.2321 57.4007 88.2321 57.4007 88.6072 58.151C87.3073 58.7082 87.3073 58.7082 85.981 59.2766C85.981 59.0289 85.981 58.7813 85.981 58.5262C85.7334 58.4024 85.4858 58.2786 85.2307 58.151C85.9678 57.7505 86.7196 57.3761 87.4817 57.0255Z" fill="#13161F"/>
<path d="M22.9529 25.5114C23.3403 26.5575 23.345 26.9625 22.9764 28.0438C22.8448 28.3224 22.7133 28.601 22.5777 28.888C22.3301 28.888 22.0825 28.888 21.8274 28.888C21.8274 28.6403 21.8274 28.3927 21.8274 28.1376C21.456 28.2614 21.0846 28.3852 20.7019 28.5128C20.8257 28.1414 20.9495 27.77 21.0771 27.3873C21.5723 27.3873 22.0675 27.3873 22.5777 27.3873C22.7015 26.7683 22.8254 26.1492 22.9529 25.5114Z" fill="#050609"/>
<path d="M87.1067 21.3846C89.0933 21.1954 90.0582 21.6519 91.6087 22.8853C91.9801 23.4424 91.9801 23.4424 92.359 24.0108C91.9876 24.0108 91.6162 24.0108 91.2335 24.0108C91.0169 23.7786 90.8002 23.5465 90.577 23.3073C89.5052 22.295 88.5249 22.087 87.1067 21.7598C87.1067 21.636 87.1067 21.5121 87.1067 21.3846Z" fill="#0D83A0"/>
<path d="M22.2026 73.9081C22.574 74.0319 22.9454 74.1557 23.3281 74.2832C22.7091 75.0261 22.09 75.7689 21.4522 76.5343C21.2046 76.4105 20.957 76.2866 20.7019 76.1591C21.134 75.2332 21.4702 74.6405 22.2026 73.9081Z" fill="#2977AC"/>
<path d="M67.9731 49.8974C68.8875 50.0381 68.8875 50.0381 69.8489 50.2725C69.9727 50.5201 70.0965 50.7678 70.2241 51.0229C69.7289 51.0229 69.2336 51.0229 68.7234 51.0229C68.7234 51.2705 68.7234 51.5181 68.7234 51.7732C68.4758 51.7732 68.2282 51.7732 67.9731 51.7732C67.8493 52.0208 67.7255 52.2684 67.5979 52.5235C67.7217 51.6569 67.8455 50.7903 67.9731 49.8974Z" fill="#2978AE"/>
<path d="M93.8597 97.1685C93.9835 97.5399 94.1073 97.9114 94.2348 98.294C93.1206 99.2226 93.1206 99.2226 91.9838 100.17C91.86 99.7984 91.7362 99.427 91.6086 99.0444C92.3515 98.4253 93.0943 97.8063 93.8597 97.1685Z" fill="#110D11"/>
<path d="M97.6114 93.4168C97.4621 94.4995 97.315 94.8507 96.4625 95.5741C96.2226 95.7288 95.9827 95.8836 95.7356 96.043C95.7356 94.5423 95.7356 94.5423 96.2515 93.8858C96.8611 93.4168 96.8611 93.4168 97.6114 93.4168Z" fill="#0D0B0E"/>
<path d="M47.7139 92.2914C49.8711 92.9479 49.8711 92.9479 50.7152 93.792C49.6366 94.0265 49.6366 94.0265 48.4642 94.1672C48.2166 93.9196 47.969 93.672 47.7139 93.4169C47.7139 93.0454 47.7139 92.674 47.7139 92.2914Z" fill="#1A1923"/>
<path d="M1.19304 57.4007C1.27816 57.6174 1.36327 57.834 1.45097 58.0572C2.06732 59.1139 2.84203 59.682 3.81922 60.402C1.662 60.4489 1.662 60.4489 0.817871 60.0269C0.941677 59.1602 1.06548 58.2936 1.19304 57.4007Z" fill="#1C1F27"/>
<path d="M31.2066 55.5249C31.578 55.5249 31.9494 55.5249 32.3321 55.5249C32.3321 56.3915 32.3321 57.2581 32.3321 58.151C31.9607 58.151 31.5892 58.151 31.2066 58.151C30.8561 57.0217 30.8147 56.7005 31.2066 55.5249Z" fill="#142637"/>
<path d="M93.1094 49.147C93.8128 49.2408 93.8128 49.2408 94.61 49.5222C95.079 50.296 95.079 50.296 95.3604 51.0229C94.989 51.3943 94.6176 51.7657 94.2349 52.1484C94.1885 51.9085 94.142 51.6686 94.0942 51.4215C93.9781 51.0385 93.9781 51.0385 93.8597 50.6477C93.6121 50.5239 93.3645 50.4001 93.1094 50.2725C93.1094 49.9011 93.1094 49.5297 93.1094 49.147Z" fill="#0D121A"/>
<path d="M30.0812 45.0201C30.0812 45.3916 30.0812 45.763 30.0812 46.1456C29.2136 46.5677 29.2136 46.5677 28.2053 46.896C27.8339 46.6484 27.4625 46.4008 27.0798 46.1456C28.815 45.0201 28.815 45.0201 30.0812 45.0201Z" fill="#141D27"/>
<path d="M76.6017 92.2914C76.8494 92.2914 77.097 92.2914 77.3521 92.2914C77.3521 93.158 77.3521 94.0246 77.3521 94.9175C76.9807 94.9175 76.6092 94.9175 76.2266 94.9175C76.2106 94.1674 76.2113 93.4167 76.2266 92.6665C76.3504 92.5427 76.4742 92.4189 76.6017 92.2914Z" fill="#0D121A"/>
<path d="M3.44408 44.2698C3.56788 44.2698 3.69169 44.2698 3.81924 44.2698C3.95777 46.7171 3.95777 46.7171 3.25649 47.6229C3.07078 47.7544 2.88508 47.886 2.69374 48.0215C2.31857 47.2712 2.31857 47.2712 2.52814 46.5413C2.63695 46.2715 2.74577 46.0016 2.85788 45.7236C2.96572 45.4518 3.07357 45.18 3.18468 44.9C3.27028 44.692 3.35588 44.4841 3.44408 44.2698Z" fill="#0D83A0"/>
<path d="M61.6655 32.5927C62.3735 32.616 62.3735 32.616 63.0958 32.6396C62.7244 32.7634 62.353 32.8872 61.9703 33.0148C61.9703 33.2624 61.9703 33.51 61.9703 33.7651C60.9799 33.6413 59.9895 33.5175 58.969 33.39C60.1278 32.6174 60.3606 32.55 61.6655 32.5927Z" fill="#230D15"/>
<path d="M50.3403 15.0067C50.7117 15.1305 51.0831 15.2543 51.4658 15.3819C51.342 16.0009 51.2181 16.6199 51.0906 17.2577C50.7192 17.1339 50.3478 17.0101 49.9651 16.8826C50.0889 16.2635 50.2127 15.6445 50.3403 15.0067Z" fill="#E3E3E3"/>
<path d="M101.363 88.1645C101.982 88.7835 102.601 89.4025 103.239 90.0403C103.115 90.2879 102.991 90.5356 102.864 90.7907C102.368 90.5431 101.873 90.2954 101.363 90.0403C101.363 89.4213 101.363 88.8023 101.363 88.1645Z" fill="#171318"/>
<path d="M56.7182 33.3899C57.3848 34.39 57.7969 35.2763 58.2188 36.3913C57.8474 36.5151 57.476 36.6389 57.0933 36.7664C56.2961 34.2341 56.2961 34.2341 56.7182 33.3899Z" fill="#271415"/>
<path d="M27.0799 70.1564C27.8303 70.9067 27.8303 70.9067 27.8303 72.4074C27.335 72.2836 26.8398 72.1598 26.3296 72.0322C26.3296 71.537 26.3296 71.0418 26.3296 70.5316C26.5772 70.4078 26.8248 70.284 27.0799 70.1564Z" fill="#09070B"/>
<path d="M92.7343 22.8853C93.5081 23.5418 93.5081 23.5418 94.235 24.3859C94.1412 25.2301 94.1412 25.2301 93.8598 25.8866C93.086 25.019 93.086 25.019 92.3591 24.0108C92.4829 23.6393 92.6067 23.2679 92.7343 22.8853Z" fill="#191317"/>
<path d="M78.4778 89.6652C77.071 90.7907 77.071 90.7907 76.2268 90.7907C76.2268 90.5431 76.2268 90.2954 76.2268 90.0403C75.8554 89.9165 75.484 89.7927 75.1013 89.6652C76.3489 89.2493 77.2104 89.3483 78.4778 89.6652Z" fill="#1F1F25"/>
<path d="M19.2014 54.7745C19.4358 55.4545 19.4358 55.4545 19.5765 56.2752C19.2051 56.8323 19.2051 56.8323 18.8262 57.4007C18.4548 57.4007 18.0834 57.4007 17.7007 57.4007C18.1523 56.4652 18.6215 55.6444 19.2014 54.7745Z" fill="#0D83A0"/>
<path d="M15.1449 54.7511C15.3693 54.8826 15.5937 55.0142 15.8249 55.1497C14.8317 55.6977 14.3638 55.9001 13.1987 55.9001C13.1987 55.5286 13.1987 55.1572 13.1987 54.7746C14.3242 54.3994 14.3242 54.3994 15.1449 54.7511Z" fill="#0A0A0F"/>
<path d="M66.0974 19.8839C66.4688 20.0077 66.8402 20.1315 67.2229 20.259C66.6038 20.8781 65.9848 21.4971 65.347 22.1349C65.0994 22.0111 64.8518 21.8873 64.5967 21.7597C65.0919 21.1407 65.5871 20.5217 66.0974 19.8839Z" fill="#172736"/>
<path d="M35.3335 7.50339C35.7049 7.62719 36.0763 7.751 36.459 7.87856C36.2114 8.37378 35.9638 8.869 35.7087 9.37923C35.2135 9.13162 34.7182 8.88401 34.208 8.62889C34.5794 8.25748 34.9508 7.88606 35.3335 7.50339Z" fill="#161A21"/>
<path d="M50.855 12.2618C49.3463 13.165 48.5528 14.2568 48.1251 15.9608C48.0137 16.842 47.9949 17.709 48.001 18.5964C48.0024 18.8351 48.0039 19.0739 48.0053 19.3198C48.0588 21.4598 48.3448 23.4335 49.8177 25.1044C50.9233 26.0881 51.7585 26.4289 53.2427 26.3981C54.2765 26.2581 54.8813 25.8513 55.5702 25.0851C57.4259 22.6436 57.0813 19.1966 56.6928 16.3173C56.2708 14.4934 55.4002 13.3363 53.8796 12.2618C52.787 11.9212 51.9469 11.9044 50.855 12.2618Z" fill="#F9FBF6"/>
<path d="M53.952 14.7C53.0102 14.8227 52.4849 14.953 51.8959 15.6912C51.5006 16.8349 51.6032 17.9645 51.6389 19.1604C51.6432 19.3476 51.6475 19.5348 51.652 19.7277C51.7145 20.6201 51.9101 21.2887 52.4421 22.0101C53.181 22.6296 53.181 22.6296 54.0966 22.8C54.98 22.6296 54.98 22.6296 55.5452 22.136C56.1709 21.1284 56.1242 20.3555 56.0723 19.2069C56.0677 19.0116 56.063 18.8162 56.0583 18.615C56.0462 18.1359 56.0278 17.6569 56.0081 17.178C55.7165 17.1422 55.425 17.1065 55.1246 17.0696C54.2584 17.0264 54.2584 17.0264 53.952 16.6824C53.9336 16.3473 53.9304 16.0113 53.9359 15.6757C53.9412 15.3537 53.9465 15.0318 53.952 14.7Z" fill="#545454"/>
</svg>
