<svg width="105" height="122" viewBox="0 0 105 122" fill="none" xmlns="http://www.w3.org/2000/svg">
<path d="M35.002 3.82752C29.9931 7.56719 25.69 12.8431 24.3859 19.1024C24.3859 19.5976 24.3859 20.0929 24.3859 20.6031C23.8382 20.4225 23.8382 20.4225 23.2795 20.2382C20.0706 19.3277 15.8829 19.227 12.826 20.6265C11.2661 21.5965 10.017 22.5946 9.3792 24.3548C9.03606 26.4822 9.04993 28.21 10.0357 30.1464C15.1343 34.9752 25.0124 34.5633 31.5141 34.4843C32.3928 37.6704 31.8193 40.18 30.3886 43.1132C30.0212 43.743 29.6496 44.3707 29.2631 44.989C29.2631 45.2366 29.2631 45.4842 29.2631 45.7394C29.0104 45.7315 28.7577 45.7236 28.4974 45.7155C23.3872 45.5779 18.7513 45.5709 13.8812 47.24C13.5079 47.3658 13.1345 47.4915 12.7498 47.6211C11.0682 48.2406 9.44067 48.8566 8.25369 50.2414C7.90197 51.4372 7.90197 51.4372 8.25369 52.8675C12.1614 57.7065 19.8066 61.2506 25.8304 62.1649C29.4843 62.5358 33.5453 62.6742 37.1416 61.8716C37.0607 63.3786 36.9741 64.8853 36.8829 66.3917C36.8381 67.149 36.7975 67.9066 36.7569 68.6642C36.2925 76.2058 34.4993 82.7551 29.735 88.6756C28.8878 89.3811 28.8878 89.3811 27.6393 89.2281C26.2374 88.8776 25.0046 88.41 23.6825 87.8285C18.0913 85.5013 11.5377 83.8048 5.58062 85.7416C3.1521 86.7861 1.12491 88.3112 0 90.7595C0 91.1309 0 91.5023 0 91.885C0.263084 91.9672 0.526169 92.0494 0.797226 92.1342C4.96613 93.5276 7.3552 95.7379 10.1931 99.0035C11.5443 100.525 12.7806 101.522 14.6315 102.39C15.1268 102.39 15.622 102.39 16.1322 102.39C16.0084 102.761 15.8846 103.133 15.7571 103.515C15.3277 108.14 16.9427 111.261 19.0324 115.271C19.7267 116.728 19.9362 117.9 19.9308 119.507C19.9318 119.798 19.9327 120.089 19.9337 120.389C19.9314 121.174 19.9314 121.174 19.5087 121.898C22.2482 122.272 24.3657 121.106 26.6369 119.647C30.7562 116.212 32.1234 110.919 32.6396 105.766C32.7453 103.764 32.7115 101.766 32.6396 99.7635C32.9815 99.7582 33.3234 99.7529 33.6757 99.7474C46.0594 99.2915 58.2353 94.0689 67.1551 85.5072C67.4443 85.2373 67.7335 84.9674 68.0314 84.6894C71.6144 81.2532 74.2824 77.1533 76.5343 72.7514C76.5343 72.5038 76.5343 72.2562 76.5343 72.0011C76.7819 72.0011 77.0295 72.0011 77.2846 72.0011C77.377 72.212 77.4694 72.4228 77.5645 72.6401C79.5703 76.3141 83.9285 80.413 87.7893 82.1307C89.1962 82.3651 89.1962 82.3651 90.4155 82.1307C91.4346 81.1319 91.8748 80.4976 92.1163 79.0814C92.1204 78.647 92.1245 78.2125 92.1287 77.7649C92.1337 77.2805 92.1388 76.7961 92.144 76.297C92.1394 75.7795 92.1338 75.262 92.1272 74.7445C92.1256 74.4831 92.124 74.2217 92.1224 73.9524C92.0585 66.4764 90.0937 60.9268 85.9135 54.7434C88.9393 55.7157 91.767 57.0267 94.6117 58.4298C96.9907 59.5887 99.3329 60.6792 102.046 60.3709C102.81 59.7912 103.119 59.3499 103.546 58.4951C104.033 50.2965 101.915 42.4657 96.51 36.1149C92.6008 31.7381 87.2241 28.0988 81.4115 26.981C81.3776 26.7304 81.3438 26.4799 81.3089 26.2218C80.96 24.7927 80.3413 23.547 79.6763 22.2445C79.4731 21.8453 79.4731 21.8453 79.2657 21.4381C77.096 17.2349 74.5518 13.8572 71.2819 10.4736C70.8858 10.0485 70.8858 10.0485 70.4818 9.61478C66.4687 5.40675 61.1177 2.6179 55.5249 1.09436C55.0833 0.96475 54.6418 0.835141 54.1869 0.701605C47.8005 -0.867488 40.497 0.204149 35.002 3.82752Z" fill="#07B0CE"/>
<path d="M35.4449 3.85864C30.4359 7.59831 26.1328 12.8742 24.8288 19.1336C24.8288 19.6288 24.8288 20.124 24.8288 20.6342C24.2811 20.4536 24.2811 20.4536 23.7223 20.2693C20.5135 19.3588 16.3258 19.2581 13.2689 20.6577C11.7089 21.6276 10.4598 22.6257 9.82207 24.3859C9.47894 26.5134 9.49281 28.2411 10.4786 30.1776C15.5772 35.0063 25.4553 34.5944 31.957 34.5154C32.8357 37.7016 32.2622 40.2111 30.8315 43.1443C30.4641 43.7742 30.0924 44.4018 29.706 45.0201C29.706 45.2678 29.706 45.5154 29.706 45.7705C29.4533 45.7626 29.2006 45.7548 28.9402 45.7467C23.83 45.6091 19.1942 45.6021 14.3241 47.2712C13.9507 47.3969 13.5774 47.5226 13.1927 47.6522C11.511 48.2718 9.88354 48.8877 8.69656 50.2725C8.34484 51.4683 8.34484 51.4683 8.69656 52.8987C12.6043 57.7376 20.2494 61.2817 26.2732 62.196C29.9271 62.5669 33.9881 62.7053 37.5845 61.9027C37.5036 63.4098 37.417 64.9164 37.3258 66.4229C37.281 67.1802 37.2403 67.9377 37.1998 68.6953C36.7354 76.2369 34.9421 82.7862 30.1779 88.7067C29.3307 89.4123 29.3307 89.4123 28.0822 89.2592C26.6802 88.9087 25.4474 88.4412 24.1254 87.8596C18.5341 85.5324 11.9806 83.8359 6.02349 85.7728C3.59497 86.8173 1.56778 88.3423 0.442871 90.7906C0.442871 91.1621 0.442871 91.5335 0.442871 91.9161C0.705956 91.9984 0.96904 92.0806 1.2401 92.1653C5.409 93.5587 7.79807 95.769 10.636 99.0346C11.9872 100.556 13.2235 101.553 15.0744 102.421C15.5696 102.421 16.0649 102.421 16.5751 102.421C16.4513 102.792 16.3275 103.164 16.1999 103.546C15.7706 108.171 17.3856 111.292 19.4753 115.303C20.1696 116.759 20.379 117.931 20.3737 119.538C20.3746 119.829 20.3756 120.12 20.3766 120.42C20.3743 121.205 20.3743 121.205 19.9516 121.93C22.6911 122.303 24.8085 121.137 27.0798 119.679C31.1991 116.244 32.5663 110.95 33.0825 105.797C33.1882 103.795 33.1544 101.798 33.0825 99.7947C33.4244 99.7894 33.7663 99.784 34.1186 99.7786C46.5023 99.3226 58.6782 94.1 67.5979 85.5383C67.8871 85.2684 68.1763 84.9986 68.4743 84.7205C72.0573 81.2843 74.7253 77.1844 76.9771 72.7826C76.9771 72.535 76.9771 72.2874 76.9771 72.0322C77.2248 72.0322 77.4724 72.0322 77.7275 72.0322C77.8199 72.2431 77.9122 72.454 78.0074 72.6712C80.0131 76.3453 84.3713 80.4441 88.2322 82.1618C89.6391 82.3963 89.6391 82.3963 90.8584 82.1618C91.8775 81.1631 92.3176 80.5287 92.5592 79.1125C92.5632 78.6781 92.5673 78.2437 92.5715 77.7961C92.5766 77.3117 92.5816 76.8272 92.5868 76.3282C92.5823 75.8107 92.5767 75.2932 92.5701 74.7757C92.5685 74.5142 92.5669 74.2528 92.5652 73.9835C92.5014 66.5075 90.5365 60.9579 86.3563 54.7745C89.3822 55.7469 92.2099 57.0578 95.0545 58.4609C97.4336 59.6198 99.7758 60.7103 102.489 60.402C103.253 59.8224 103.562 59.381 103.989 58.5262C104.476 50.3276 102.357 42.4968 96.9529 36.146C93.0437 31.7693 87.667 28.1299 81.8543 27.0121C81.8205 26.7616 81.7866 26.5111 81.7517 26.253C81.4029 24.8238 80.7842 23.5781 80.1192 22.2756C79.9159 21.8764 79.9159 21.8764 79.7086 21.4692C77.5389 17.266 74.9947 13.8883 71.7248 10.5047C71.3287 10.0796 71.3287 10.0796 70.9246 9.6459C66.9116 5.43788 61.5606 2.64903 55.9677 1.12549C55.5262 0.995878 55.0847 0.866269 54.6297 0.732733C48.2433 -0.83636 40.9398 0.235277 35.4449 3.85864ZM67.9731 8.62885C68.271 8.87839 68.5689 9.12794 68.8759 9.38505C77.4917 16.7776 82.3933 27.0207 83.3039 38.2371C83.9116 44.6927 83.9116 44.6927 82.2295 50.6477C81.8852 50.3672 81.5408 50.0867 81.1861 49.7977C76.6502 46.1434 76.6502 46.1434 73.9758 45.0201C73.9758 45.3916 73.9758 45.763 73.9758 46.1456C74.2471 46.2443 74.5184 46.343 74.7979 46.4446C81.3752 49.2621 86.4665 55.9558 89.2873 62.2779C90.8608 66.39 91.4117 70.2932 91.3508 74.6819C91.352 75.1304 91.3532 75.579 91.3544 76.0411C91.402 78.6522 91.402 78.6522 90.4832 81.0363C87.6649 81.0363 86.1506 79.4465 84.1053 77.6598C83.8495 77.4581 83.5937 77.2564 83.3301 77.0486C77.5554 72.3939 74.1074 65.3382 73.0525 58.088C72.9633 57.2328 72.8907 56.3836 72.8503 55.5248C72.4789 55.5248 72.1075 55.5248 71.7248 55.5248C73.1514 64.0411 73.1514 64.0411 75.0529 67.1932C75.7953 68.4619 76.3089 69.4629 76.602 70.9067C75.97 73.0392 74.8678 74.7251 73.6006 76.5343C73.3593 76.9023 73.118 77.2703 72.8693 77.6495C68.55 83.9428 62.9674 88.6086 56.3429 92.2913C55.986 92.4954 55.6291 92.6995 55.2614 92.9098C47.5207 97.0778 37.3637 99.8555 28.5805 98.294C28.9556 99.0443 28.9556 99.0443 29.6488 99.2818C29.923 99.3427 30.1972 99.4036 30.4798 99.4664C30.7549 99.5293 31.0301 99.5921 31.3136 99.6569C31.5259 99.7024 31.7382 99.7478 31.957 99.7947C32.1158 106.175 31.7491 112.73 27.4418 117.848C25.7863 119.431 24.1308 120.429 21.8274 120.429C21.7723 120.066 21.7172 119.703 21.6604 119.33C21.1874 116.495 20.5966 114.325 18.9873 111.895C17.3613 109.332 16.9764 106.538 17.3254 103.546C17.6811 102.516 17.6811 102.516 18.0758 101.671C17.7121 101.655 17.3484 101.64 16.9737 101.624C14.1913 101.203 12.2581 99.3904 10.6193 97.2154C8.37344 94.2493 5.49967 92.2394 1.94354 91.1658C2.37022 89.3524 3.40761 88.543 4.87454 87.524C8.64178 85.2973 13.7484 86.0566 17.8017 87.0184C21.2449 87.9919 24.6566 89.1245 27.8301 90.7906C27.7141 90.9841 27.598 91.1775 27.4784 91.3768C26.9708 92.5414 26.8496 93.6611 26.7046 94.9175C27.076 94.9175 27.4475 94.9175 27.8301 94.9175C27.7489 94.4532 27.7489 94.4532 27.666 93.9796C27.9534 91.6805 29.7705 90.3166 31.3942 88.7741C37.3953 82.473 38.4106 73.6667 38.4052 65.3261C38.4052 64.8844 38.4051 64.4427 38.4051 63.9877C38.3802 60.131 38.076 56.3459 37.5845 52.5235C37.5136 51.9544 37.4427 51.3853 37.372 50.8162C37.3183 50.3892 37.2646 49.9621 37.2093 49.5222C37.5537 49.3858 37.898 49.2494 38.2528 49.1089C44.7342 46.4778 44.7342 46.4778 45.8382 44.2698C45.5751 44.4149 45.312 44.56 45.041 44.7095C39.5147 47.877 39.5147 47.877 33.3404 48.8422C33.0674 48.8419 32.7944 48.8417 32.5131 48.8414C31.1869 48.948 31.1869 48.948 30.0811 48.3967C29.9214 46.8568 30.2105 46.1427 31.1363 44.9264C33.2004 41.9693 33.7639 39.2338 33.4577 35.6409C33.3338 35.2695 33.21 34.8981 33.0825 34.5154C33.8253 34.5154 34.5682 34.5154 35.3335 34.5154C36.3733 36.5951 35.9255 39.8219 35.2163 41.9719C35.0146 42.4915 34.8038 43.0076 34.5832 43.5195C34.4758 43.7801 34.3684 44.0408 34.2578 44.3094C33.9997 44.9252 33.73 45.5361 33.4577 46.1456C37.3649 45.9566 40.3035 44.4779 43.1505 41.8019C45.3168 39.3775 46.7902 36.5817 47.9251 33.5541C48.4833 32.1166 48.8761 31.2722 50.223 30.4824C51.3613 29.9693 51.3613 29.9693 52.2161 30.0134C52.3399 30.7563 52.4637 31.4991 52.5912 32.2644C52.8388 32.2644 53.0864 32.2644 53.3416 32.2644C52.671 28.9119 52.671 28.9119 51.0905 27.7624C50.7191 27.7624 50.3477 27.7624 49.965 27.7624C50.3365 28.01 50.7079 28.2576 51.0905 28.5128C50.6416 29.8596 50.4154 29.9294 49.1913 30.5527C39.4402 35.1901 25.63 34.5379 15.4979 31.5683C13.8011 30.9476 11.7955 30.2086 10.9476 28.5128C10.7192 26.9313 10.6075 25.4169 11.3579 23.9697C12.5566 22.4777 13.9169 21.3803 15.8248 21.0094C21.5308 20.5049 25.9278 22.1134 30.8315 24.7611C30.4563 23.6356 30.4563 23.6356 29.8159 23.2238C29.5552 23.1043 29.2945 22.9849 29.026 22.8618C28.7682 22.7414 28.5104 22.6209 28.2449 22.4969C27.9842 22.3774 27.7235 22.258 27.455 22.1349C26.9539 21.8865 26.4534 21.6369 25.9543 21.3846C26.1801 16.8688 28.0886 13.2741 30.8315 9.75435C31.0186 9.49658 31.2058 9.23882 31.3986 8.97324C34.5681 4.92556 39.6955 2.34061 44.7127 1.50065C52.9542 0.557565 61.7666 3.04299 67.9731 8.62885Z" fill="#101116"/>
<path d="M52.2159 30.0134C48.7454 31.3025 48.7454 31.3025 47.9762 32.9078C47.851 33.3068 47.7257 33.7058 47.5967 34.1168C45.9089 38.8478 43.1619 42.557 38.7333 44.9733C36.9592 45.8122 35.4094 46.0512 33.4575 46.1457C33.5886 45.8695 33.7196 45.5934 33.8547 45.3089C34.0254 44.9428 34.1961 44.5767 34.372 44.1995C34.5417 43.8382 34.7115 43.4769 34.8864 43.1047C35.6472 41.2564 35.76 39.6248 35.7554 37.634C35.7569 36.9935 35.7569 36.9935 35.7584 36.34C35.7085 35.2658 35.7085 35.2658 35.3334 34.5154C34.5905 34.5154 33.8477 34.5154 33.0824 34.5154C33.2062 34.8869 33.33 35.2583 33.4575 35.6409C33.8694 39.6991 32.6401 42.5387 30.4474 45.8613C29.958 46.7422 29.9018 47.4112 30.081 48.3967C30.9098 49.2254 32.8524 48.9107 33.9947 48.9171C37.8083 48.8422 40.9895 47.338 44.0355 45.1081C44.7461 44.5766 44.7461 44.5766 45.8381 44.2698C43.8691 46.4234 41.7005 47.7679 38.9839 48.829C38.6503 48.96 38.3167 49.091 37.973 49.226C37.721 49.3238 37.4689 49.4215 37.2092 49.5222C37.2433 49.7873 37.2774 50.0525 37.3125 50.3257C38.7405 61.7007 40.4024 75.5665 33.7389 85.7024C32.9028 87.4046 32.7881 88.919 33.0824 90.7906C33.8327 91.541 33.8327 91.541 35.2103 91.6685C36.8648 91.6233 38.1357 91.0689 39.554 90.2513C39.916 90.0501 39.916 90.0501 40.2854 89.8448C42.6695 88.4849 44.8329 86.8935 46.9636 85.1631C47.2363 84.9479 47.5091 84.7327 47.7901 84.511C55.1913 78.4065 59.449 69.1618 60.751 59.8158C60.7936 59.2617 60.8232 58.7064 60.8448 58.151C60.8641 57.7138 60.8835 57.2767 60.9034 56.8262C61.1505 48.535 58.7415 40.0676 53.7635 33.3665C52.964 32.2614 52.5675 31.3237 52.2159 30.0134Z" fill="#FCFDFD"/>
<path d="M82.6048 28.5128C82.6817 28.8755 82.7586 29.2382 82.8378 29.6119C82.94 30.1052 83.0421 30.5986 83.1441 31.092C83.2442 31.5708 83.3443 32.0496 83.4474 32.5429C84.0329 35.6422 84.1681 38.7302 84.1523 41.8781C84.1516 42.2334 84.1509 42.5887 84.1501 42.9547C84.1315 46.0299 83.9762 49.0831 83.7303 52.1483C85.5382 52.9656 87.3536 53.7506 89.1937 54.4931C90.5209 55.0359 91.8059 55.6159 93.0728 56.2854C96.0734 57.8707 98.6631 59.0151 102.114 59.2765C103.92 55.2243 102.671 50.0989 101.325 46.0182C98.4639 38.8468 93.1625 32.7483 86.0619 29.5415C83.5619 28.5128 83.5619 28.5128 82.6048 28.5128Z" fill="#07B0CE"/>
<path d="M28.5805 46.896C21.8374 46.7095 16.3718 47.5154 10.1972 50.2725C9.82206 50.6477 9.82206 50.6477 9.72534 51.5314C9.84343 52.7428 10.0774 52.9931 10.9945 53.7663C16.6534 58.3332 23.9821 61.3277 31.277 61.2227C31.6008 61.2225 31.9245 61.2223 32.2581 61.222C33.9485 61.2104 35.5463 61.1175 37.2093 60.7772C37.3289 57.1507 37.2409 53.3685 36.0838 49.8974C35.7849 49.9017 35.4861 49.9061 35.1781 49.9106C32.2366 49.9418 32.2366 49.9418 29.3308 49.5222C29.0832 48.6556 28.8356 47.7889 28.5805 46.896Z" fill="#0D83A0"/>
<path d="M49.2148 27.3873C49.5862 27.6426 49.5862 27.6426 49.9651 27.9031C50.2127 28.1043 50.4603 28.3055 50.7154 28.5128C50.7154 28.7604 50.7154 29.008 50.7154 29.2631C48.542 30.5379 46.3726 31.3775 43.939 31.9831C43.696 32.0441 43.4529 32.1052 43.2026 32.1681C39.1244 33.1314 34.9745 33.1233 30.8081 33.2258C30.1909 33.242 29.5737 33.2584 28.9564 33.2749C27.4556 33.3147 25.9546 33.3528 24.4537 33.39C24.4537 33.6376 24.4537 33.8852 24.4537 34.1403C26.0605 34.5365 27.6163 34.5594 29.2605 34.5389C29.5205 34.5372 29.7804 34.5355 30.0482 34.5338C30.6845 34.5294 31.3208 34.5227 31.957 34.5155C32.2047 35.1345 32.4523 35.7535 32.7074 36.3913C32.955 36.2675 33.2026 36.1437 33.4577 36.0161C33.3339 35.5209 33.2101 35.0257 33.0825 34.5155C33.8254 34.5155 34.5682 34.5155 35.3336 34.5155C35.4591 38.0445 35.5019 41.1107 33.7948 44.2889C33.4577 45.0202 33.4577 45.0202 33.4577 46.1457C35.3661 46.7329 36.4833 46.3499 38.1986 45.5052C43.0016 42.8775 46.4305 39.1588 48.0189 33.8355C48.5629 32.1871 49.0984 31.5347 50.6217 30.6934C51.1473 30.4535 51.6772 30.2219 52.2161 30.0134C52.3399 30.7563 52.4637 31.4991 52.5913 32.2644C52.8389 32.2644 53.0865 32.2644 53.3416 32.2644C53.5305 30.2814 53.0674 29.3135 51.8409 27.7624C50.917 27.3005 50.2354 27.3604 49.2148 27.3873Z" fill="#0C090A"/>
<path d="M28.5805 46.896C22.633 46.7315 17.585 47.071 12.0731 49.5222C12.4055 51.4406 13.6168 52.4483 15.0744 53.649C18.407 55.718 22.1176 56.1403 25.9587 55.2684C29.1005 54.1883 31.8601 52.6204 34.208 50.2725C32.5985 50.0249 30.9891 49.7773 29.3308 49.5222C29.0832 48.6555 28.8356 47.7889 28.5805 46.896Z" fill="#07B0CE"/>
<path d="M50.7153 12.3805C49.0708 13.6887 48.2325 14.8776 47.9939 16.9661C47.8814 19.3141 48.3055 21.2673 49.5898 23.2604C50.9902 24.1939 51.6849 24.2142 53.3415 24.0107C54.8456 22.588 55.5617 21.0753 55.6394 19.0163C55.6162 18.5172 55.6162 18.5172 55.5925 18.008C55.3449 17.8842 55.0973 17.7604 54.8422 17.6329C54.5954 16.4964 54.5954 16.4964 54.467 15.3819C54.2194 15.8771 53.9718 16.3723 53.7167 16.8825C53.4691 16.8825 53.2214 16.8825 52.9663 16.8825C52.9663 16.3873 52.9663 15.8921 52.9663 15.3819C53.4616 15.1343 53.9568 14.8866 54.467 14.6315C54.3498 13.9281 54.3498 13.9281 54.0918 13.1309C52.7719 12.2509 52.2694 12.163 50.7153 12.3805Z" fill="#08090B"/>
<path d="M47.3389 32.6396C47.1203 32.685 46.9017 32.7305 46.6765 32.7773C44.1553 33.2927 41.6254 33.73 39.0852 34.1403C36.9252 40.2315 36.9252 40.2315 37.2093 43.1443C37.4569 43.3919 37.7046 43.6395 37.9597 43.8946C40.2844 43.7862 41.2168 42.7655 42.7445 41.1424C44.9353 38.5439 46.4274 35.9102 47.3389 32.6396Z" fill="#E82E3E"/>
<path d="M33.8328 35.641C32.7073 36.3913 32.7073 36.3913 32.486 37.2486C32.4429 37.5925 32.3999 37.9363 32.3555 38.2906C32.0326 40.3609 31.3705 42.0249 30.4562 43.8947C30.2018 44.5182 29.949 45.1425 29.7059 45.7705C29.0869 45.7705 28.4679 45.7705 27.8301 45.7705C28.3253 45.8943 28.8205 46.0181 29.3307 46.1457C29.3307 46.3933 29.3307 46.6409 29.3307 46.896C29.0831 46.896 28.8355 46.896 28.5804 46.896C28.7166 47.904 28.8314 48.6063 29.448 49.4284C30.6173 50.2945 31.8742 50.3242 33.2935 50.3194C33.5802 50.3204 33.867 50.3214 34.1625 50.3224C34.9583 50.2725 34.9583 50.2725 36.0838 49.8974C36.4552 53.4877 36.8266 57.0781 37.2093 60.7772C37.3331 60.7772 37.4569 60.7772 37.5844 60.7772C37.7082 60.1582 37.832 59.5392 37.9596 58.9014C38.0834 58.9014 38.2072 58.9014 38.3348 58.9014C38.5078 55.6721 37.8577 52.6681 37.2093 49.5222C37.4322 49.4714 37.6552 49.4206 37.8849 49.3683C40.5915 48.6654 44.0887 47.4624 45.5802 44.9367C45.6653 44.7166 45.7504 44.4966 45.8381 44.2699C44.5707 44.5095 43.702 44.9998 42.6258 45.7002C38.5198 48.1805 35.1469 48.6086 30.4562 48.3967C30.3346 46.8507 30.5789 46.1516 31.5114 44.9264C33.6184 41.9078 34.0167 39.2859 33.8328 35.641Z" fill="#121519"/>
<path d="M43.8573 1.64577C40.4176 2.42842 37.3995 3.87196 34.5831 6.0027C34.3103 6.20727 34.0376 6.41184 33.7565 6.62261C29.9503 9.70976 26.9355 14.7004 25.9542 19.5088C25.9073 20.6108 25.9073 20.6108 25.9542 21.3846C26.2018 21.3846 26.4494 21.3846 26.7045 21.3846C26.8095 21.0847 26.9144 20.7849 27.0226 20.476C29.4206 13.9065 33.0476 8.10937 39.4603 4.8772C42.9334 3.35171 45.9478 2.59615 49.707 2.41516C50.0207 2.39896 50.3343 2.38276 50.6574 2.36606C51.427 2.32649 52.1966 2.28859 52.9663 2.25102C50.627 0.691464 46.5798 1.18396 43.8573 1.64577Z" fill="#0D83A0"/>
<path d="M84.8556 42.0188C84.7317 42.0188 84.6079 42.0188 84.4804 42.0188C84.3535 43.2848 84.2292 44.5511 84.1052 45.8174C84.0694 46.1743 84.0336 46.5312 83.9968 46.8989C83.826 48.6559 83.6824 50.3804 83.73 52.1483C85.5852 52.9869 87.4495 53.7931 89.3341 54.5635C91.1548 55.3118 92.8933 56.1573 94.6246 57.0929C94.8674 57.1945 95.1101 57.2961 95.3603 57.4007C95.6079 57.2769 95.8555 57.1531 96.1106 57.0255C95.8475 56.848 95.5844 56.6705 95.3134 56.4877C89.7627 52.6188 87.1903 48.1805 84.8556 42.0188Z" fill="#0D83A0"/>
<path d="M42.0864 47.6463C40.477 48.2653 38.8675 48.8844 37.2092 49.5221C37.3311 50.4833 37.3311 50.4833 37.4554 51.4639C38.7114 61.8732 38.8343 71.6256 36.0837 81.7866C37.0495 80.9406 37.4314 80.2527 37.7984 79.0285C37.8946 78.7089 37.9909 78.3892 38.09 78.0598C38.1862 77.7266 38.2825 77.3934 38.3816 77.0501C38.5304 76.5633 38.5304 76.5633 38.6821 76.0667C39.6272 72.8667 39.8936 69.7619 39.8984 66.4355C39.8997 66.128 39.9009 65.8204 39.9022 65.5036C39.9041 64.857 39.905 64.2104 39.9049 63.5637C39.9058 62.5916 39.9126 61.6196 39.9197 60.6475C39.9316 56.9888 39.7425 53.5069 39.0851 49.8973C39.3714 49.789 39.6577 49.6806 39.9527 49.569C40.9609 49.147 40.9609 49.147 42.0864 48.3966C42.0864 48.149 42.0864 47.9014 42.0864 47.6463Z" fill="#BDBDBD"/>
<path d="M82.6046 28.5128C82.6896 29.4067 82.6896 29.4067 82.9798 30.3886C83.692 30.8077 83.692 30.8077 84.6212 31.092C91.8299 33.6827 96.7406 39.5024 100.021 46.2101C101.061 48.5827 101.585 51.1228 102.113 53.649C102.237 53.649 102.361 53.649 102.489 53.649C102.821 47.8867 100.135 41.9079 96.4448 37.5446C96.2108 37.2878 95.9767 37.031 95.7355 36.7665C95.4628 36.4594 95.19 36.1523 94.909 35.8359C92.0616 32.8002 87.066 28.5128 82.6046 28.5128Z" fill="#0D83A0"/>
<path d="M73.6006 64.1537C73.4768 64.1537 73.353 64.1537 73.2254 64.1537C73.2109 64.6652 73.2109 64.6652 73.1961 65.1869C72.935 70.974 71.5812 76.7301 68.3951 81.646C68.132 82.0638 67.869 82.4816 67.5979 82.9121C67.7217 83.1598 67.8455 83.4074 67.9731 83.6625C70.2102 81.464 71.928 79.1335 73.5537 76.4639C73.7277 76.1789 73.9017 75.8939 74.081 75.6002C74.5619 74.794 75.0208 73.9785 75.4764 73.1578C75.615 72.9357 75.7536 72.7136 75.8964 72.4848C76.4225 71.5333 76.6669 70.7974 76.4059 69.7299C76.0415 68.8465 75.626 68.019 75.1716 67.1785C75.0234 66.8862 74.8751 66.5938 74.7224 66.2926C74.3571 65.5752 73.98 64.8638 73.6006 64.1537Z" fill="#0D83A0"/>
<path d="M49.2148 27.3873C49.5862 27.6426 49.5862 27.6426 49.9651 27.9031C50.2127 28.1043 50.4603 28.3055 50.7154 28.5128C50.7154 28.7604 50.7154 29.008 50.7154 29.2631C47.114 31.3755 43.0718 32.4895 38.9211 32.8741C38.48 32.9205 38.039 32.9669 37.5846 33.0148C37.3989 33.3862 37.3989 33.3862 37.2094 33.7651C40.7278 34.438 43.9709 33.7623 47.3389 32.6396C45.5038 36.783 43.4677 39.9832 40.2107 43.1443C40.3345 43.5157 40.4584 43.8872 40.5859 44.2698C44.1684 41.4288 46.7371 38.1863 48.0658 33.7651C48.5862 32.1376 49.1246 31.5246 50.6217 30.6934C51.1473 30.4535 51.6772 30.2219 52.2161 30.0134C52.3399 30.7563 52.4637 31.4991 52.5913 32.2644C52.8389 32.2644 53.0865 32.2644 53.3416 32.2644C53.5305 30.2814 53.0674 29.3135 51.8409 27.7624C50.917 27.3005 50.2354 27.3604 49.2148 27.3873Z" fill="#0F0C10"/>
<path d="M3.81927 91.541C4.06834 91.7088 4.3174 91.8766 4.57401 92.0495C6.67156 93.4857 8.47586 94.888 10.1195 96.8432C12.0362 99.0899 13.9084 101.141 16.9502 101.6C17.3216 101.623 17.693 101.647 18.0757 101.671C17.9548 101.94 17.8339 102.209 17.7093 102.487C16.7238 105.206 17.201 107.869 18.3453 110.452C18.6875 111.144 19.0404 111.832 19.4005 112.515C20.72 115.025 21.5049 117.229 21.8273 120.054C21.9511 120.054 22.0749 120.054 22.2025 120.054C22.4225 117.181 21.9184 115.14 20.7018 112.55C18.8795 108.563 18.1397 105.405 19.7053 101.165C19.7865 100.96 19.8678 100.756 19.9515 100.545C19.6613 100.517 19.3712 100.489 19.0722 100.46C15.0059 99.9467 13.2681 98.5034 10.6192 95.4803C6.38224 90.6867 6.38224 90.6867 3.81927 91.541Z" fill="#0D83A0"/>
<path d="M75.1013 46.5208C74.8537 46.6446 74.6061 46.7684 74.351 46.896C74.574 47.0735 74.7969 47.251 75.0266 47.4338C75.688 47.9615 76.3479 48.4912 77.0065 49.0224C77.7145 49.5875 78.4293 50.1441 79.152 50.6902C85.0412 55.2402 88.9606 62.1281 90.0091 69.5035C90.3531 73.0782 90.2164 76.7013 90.1081 80.2859C90.3557 80.2859 90.6033 80.2859 90.8584 80.2859C92.7948 76.4131 91.4854 68.8525 90.2561 64.7692C88.7603 60.8642 86.9594 57.1226 84.1054 54.0242C83.9327 53.8361 83.76 53.648 83.582 53.4543C81.085 50.7665 78.4929 48.0652 75.1013 46.5208Z" fill="#0D83A0"/>
<path d="M73.2253 55.9C72.3469 57.6568 73.5008 60.7851 73.9756 62.653C74.4971 64.2122 75.127 65.6803 75.8514 67.1551C75.9985 67.4549 76.1455 67.7547 76.2969 68.0637C77.4174 70.2014 78.8284 72.0449 80.3535 73.9081C80.513 74.1228 80.6726 74.3375 80.8371 74.5588C82.0938 76.1779 83.6244 77.4512 85.2072 78.7384C85.4268 78.9218 85.6464 79.1053 85.8726 79.2943C87.4136 80.5116 88.5191 80.9209 90.483 81.0363C90.6068 80.7887 90.7306 80.5411 90.8582 80.2859C90.5767 80.1626 90.2952 80.0393 90.0052 79.9122C83.0842 76.6958 78.7103 70.6915 75.8514 63.7786C75.2745 62.1695 74.7875 60.5534 74.3508 58.9014C73.631 56.3057 73.631 56.3057 73.2253 55.9Z" fill="#0D83A0"/>
<path d="M31.9571 99.7947C31.3381 99.7947 30.719 99.7947 30.0812 99.7947C30.0777 100.027 30.0742 100.259 30.0706 100.497C29.9587 106.411 29.6487 111.774 26.7047 117.052C26.5809 117.424 26.4571 117.795 26.3296 118.178C26.082 118.178 25.8343 118.178 25.5792 118.178C25.703 118.426 25.8268 118.673 25.9544 118.928C29.5972 115.607 31.5293 111.297 31.9263 106.376C31.9971 104.182 31.9831 101.989 31.9571 99.7947Z" fill="#0D83A0"/>
<path d="M33.8328 35.641C32.7073 36.3913 32.7073 36.3913 32.486 37.2486C32.443 37.5925 32.3999 37.9363 32.3556 38.2906C32.0327 40.3609 31.3706 42.0249 30.4563 43.8947C30.2018 44.5182 29.9491 45.1425 29.706 45.7705C29.0869 45.7705 28.4679 45.7705 27.8301 45.7705C28.3254 45.8943 28.8206 46.0181 29.3308 46.1457C29.3308 46.3933 29.3308 46.6409 29.3308 46.896C29.0832 46.896 28.8356 46.896 28.5805 46.896C28.7674 48.2795 28.9934 48.9988 30.0811 49.8974C30.4526 49.7736 30.824 49.6498 31.2066 49.5222C31.9165 49.439 32.6281 49.3698 33.3404 49.3112C33.7133 49.2797 34.0862 49.2483 34.4703 49.2159C34.8976 49.1818 34.8976 49.1818 35.3335 49.147C35.3335 49.0232 35.3335 48.8994 35.3335 48.7719C32.9193 48.5862 32.9193 48.5862 30.4563 48.3967C30.4563 46.4963 30.4624 46.3048 31.5115 44.9264C33.6185 41.9078 34.0168 39.2859 33.8328 35.641Z" fill="#212021"/>
<path d="M37.9597 57.0255C37.8359 57.0255 37.7121 57.0255 37.5845 57.0255C37.5845 58.2636 37.5845 59.5017 37.5845 60.7772C37.2131 60.901 36.8417 61.0248 36.459 61.1524C36.8304 61.2762 37.2018 61.4 37.5845 61.5276C37.5845 64.8703 37.5845 68.2131 37.5845 71.6571C37.8321 71.5333 38.0797 71.4095 38.3349 71.2819C38.9863 69.3276 38.7793 67.2543 38.7804 65.2089C38.785 64.756 38.7896 64.3031 38.7943 63.8365C38.7982 61.4306 38.6841 59.3247 37.9597 57.0255Z" fill="#0B0A0B"/>
<path d="M89.3577 61.5275C89.5322 63.3078 89.838 64.9562 90.2956 66.6861C91.1088 70.0459 91.134 73.4671 91.2335 76.9094C91.3573 76.9094 91.4811 76.9094 91.6087 76.9094C91.6314 76.4393 91.6542 75.9693 91.6776 75.4849C91.7093 74.8655 91.741 74.2461 91.7728 73.6267C91.7876 73.3172 91.8023 73.0077 91.8175 72.6888C91.8333 72.3889 91.849 72.0891 91.8652 71.7802C91.8789 71.5051 91.8927 71.2301 91.9068 70.9467C91.9598 70.1539 91.9598 70.1539 92.2006 69.4052C92.3933 68.4938 92.2602 67.9393 92.0117 67.0451C91.9293 66.747 91.8468 66.4488 91.7618 66.1417C91.6726 65.8338 91.5834 65.526 91.4915 65.2089C91.4066 64.8967 91.3217 64.5845 91.2343 64.2629C90.7494 62.5482 90.7494 62.5482 90.4832 61.9027C89.7329 61.5275 89.7329 61.5275 89.3577 61.5275Z" fill="#151519"/>
<path d="M18.451 103.171C17.7006 103.922 17.7006 103.922 17.601 104.602C17.6226 107.626 17.8575 110.261 19.553 112.832C21.0124 115.065 21.4003 117.453 21.8275 120.054C21.9513 120.054 22.0751 120.054 22.2027 120.054C22.4458 116.88 21.7655 114.574 20.2946 111.775C18.9156 109.043 18.7314 106.178 18.451 103.171Z" fill="#0D83A0"/>
<path d="M82.9797 45.0201C82.6625 45.26 82.3452 45.4999 82.0184 45.747C80.7635 46.5946 79.613 46.7751 78.1026 46.896C79.491 48.3686 80.9349 49.5018 82.6046 50.6477C83.0154 49.4152 83.0171 48.4955 83.0032 47.2008C82.9998 46.7931 82.9964 46.3854 82.9929 45.9654C82.9886 45.6535 82.9842 45.3415 82.9797 45.0201Z" fill="#0D83A0"/>
<path d="M47.3389 33.3899C46.5886 34.5154 46.5886 34.5154 46.168 35.3698C44.6454 38.4467 42.5898 40.7187 40.2107 43.1443C40.3345 43.5157 40.4583 43.8871 40.5859 44.2698C43.6584 41.8332 46.5391 38.8617 47.6306 34.9785C47.7141 34.1403 47.7141 34.1403 47.3389 33.3899Z" fill="#1A0C0E"/>
<path d="M45.8381 44.2698C44.5707 44.5094 43.702 44.9998 42.6258 45.7001C40.6625 46.9144 38.649 47.6888 36.4589 48.3967C36.8304 48.5824 36.8304 48.5824 37.2093 48.7718C37.2093 49.0194 37.2093 49.267 37.2093 49.5222C40.1639 48.8492 42.7175 47.684 45.0878 45.7705C45.5802 44.9366 45.5802 44.9366 45.8381 44.2698Z" fill="#181818"/>
<path d="M9.07185 94.9175C8.82424 95.4127 8.57663 95.908 8.32152 96.4182C12.5056 101.31 12.5056 101.31 15.4497 102.421C15.4497 101.926 15.4497 101.43 15.4497 100.92C14.8166 100.413 14.8166 100.413 13.949 99.9354C11.8372 98.6368 10.5132 96.9047 9.07185 94.9175Z" fill="#161519"/>
<path d="M37.5844 69.0309C37.4606 69.0309 37.3368 69.0309 37.2093 69.0309C37.1638 69.4749 37.1183 69.9188 37.0715 70.3762C36.7468 73.4657 36.3938 76.5009 35.7086 79.5356C35.9562 79.5356 36.2038 79.5356 36.4589 79.5356C36.5827 79.7832 36.7065 80.0308 36.8341 80.286C37.0879 79.2785 37.3374 78.2703 37.5844 77.2612C37.6918 76.8379 37.6918 76.8379 37.8013 76.406C38.2275 74.648 38.4116 73.0905 38.3348 71.2819C38.211 71.2819 38.0872 71.2819 37.9596 71.2819C37.8358 70.5391 37.712 69.7963 37.5844 69.0309Z" fill="#1D1B1C"/>
<path d="M15.0744 87.039C16.3295 87.8757 17.5613 88.2391 18.9902 88.6569C21.3477 89.3623 23.582 90.2018 25.8209 91.2332C26.7046 91.541 26.7046 91.541 27.8301 91.1658C26.5041 90.0151 25.0037 89.4756 23.375 88.8914C23.1143 88.7954 22.8536 88.6994 22.5851 88.6005C21.8339 88.3253 21.0807 88.0567 20.3267 87.7893C19.9263 87.6437 19.5259 87.4982 19.1133 87.3482C17.7003 86.9271 16.5411 86.9884 15.0744 87.039Z" fill="#0D83A0"/>
<path d="M20.3267 86.6638C20.3267 86.9114 20.3267 87.159 20.3267 87.4141C19.9553 87.5379 19.5839 87.6617 19.2012 87.7893C20.2172 88.1491 21.2333 88.5086 22.2494 88.8679C22.5348 88.969 22.8201 89.0701 23.1141 89.1742C24.6813 89.7281 26.251 90.271 27.8301 90.7906C27.8301 90.543 27.8301 90.2954 27.8301 90.0403C28.2015 89.9165 28.5729 89.7927 28.9556 89.6651C28.544 89.5113 28.1325 89.3576 27.7084 89.1991C27.1628 88.9949 26.6171 88.7907 26.0715 88.5865C25.8009 88.4854 25.5303 88.3844 25.2515 88.2802C24.1167 87.8553 22.9871 87.4282 21.8669 86.9657C21.077 86.6638 21.077 86.6638 20.3267 86.6638Z" fill="#19171B"/>
<path d="M49.965 0.375203C49.965 0.499008 49.965 0.622814 49.965 0.750371C50.8317 0.874176 51.6983 0.997982 52.5912 1.12554C52.3436 1.37315 52.096 1.62076 51.8409 1.87587C52.2839 1.97985 52.7268 2.08383 53.1833 2.19096C53.7675 2.32822 54.3518 2.46549 54.936 2.60276C55.2276 2.67119 55.5192 2.73963 55.8197 2.81013C56.2441 2.90988 56.2441 2.90988 56.677 3.01164C56.9364 3.07254 57.1957 3.13345 57.4629 3.1962C58.2165 3.37601 58.9681 3.56243 59.7194 3.75171C59.967 3.3803 60.2146 3.00888 60.4697 2.62621C53.5414 0.247476 53.5414 0.247476 49.965 0.375203Z" fill="#151317"/>
<path d="M49.59 95.2927C49.353 95.3609 49.1161 95.429 48.8719 95.4993C46.0087 96.3038 43.1233 96.9442 40.2108 97.5437C40.2108 97.6675 40.2108 97.7913 40.2108 97.9188C40.6132 97.9111 41.0155 97.9034 41.4301 97.8954C42.7408 97.8569 42.7408 97.8569 43.584 98.1312C44.475 98.3237 44.9378 98.2045 45.7973 97.9203C46.0633 97.8345 46.3293 97.7486 46.6033 97.6602C46.877 97.5676 47.1508 97.475 47.4328 97.3795C47.7123 97.2884 47.9918 97.1972 48.2798 97.1033C48.9678 96.8784 49.6542 96.6487 50.3403 96.4182C50.0927 96.2944 49.8451 96.1706 49.59 96.043C49.59 95.7954 49.59 95.5478 49.59 95.2927Z" fill="#131319"/>
<path d="M32.7075 100.92C32.4599 100.92 32.2123 100.92 31.9571 100.92C31.83 102.178 31.7057 103.437 31.582 104.695C31.5462 105.049 31.5104 105.403 31.4735 105.767C31.2885 107.664 31.1645 109.519 31.2068 111.425C32.3911 109.932 32.7556 108.863 32.7441 106.965C32.7429 106.614 32.7417 106.262 32.7405 105.899C32.7357 105.35 32.7357 105.35 32.7309 104.789C32.7292 104.418 32.7275 104.048 32.7258 103.666C32.7214 102.751 32.7152 101.835 32.7075 100.92Z" fill="#08080C"/>
<path d="M31.2065 18.008C31.0827 18.2556 30.9589 18.5033 30.8313 18.7584C31.0586 18.7864 31.2859 18.8145 31.5201 18.8434C33.8823 19.2141 35.5529 19.9631 37.536 21.2937C38.3347 21.7597 38.3347 21.7597 39.4602 21.7597C37.3074 18.6202 34.9203 17.6656 31.2065 18.008Z" fill="#0A0E14"/>
<path d="M84.8557 54.7745C84.6378 55.4667 84.6378 55.4667 84.4806 56.2752C84.9656 57.2058 84.9656 57.2058 85.6764 58.2214C86.8786 60.0103 87.8124 61.7786 88.6074 63.7786C88.9788 63.6548 89.3502 63.531 89.7329 63.4034C89.2746 62.4562 88.8131 61.5108 88.3495 60.5662C88.222 60.3019 88.0946 60.0376 87.9633 59.7653C87.0751 57.964 86.0614 56.3814 84.8557 54.7745Z" fill="#0D83A0"/>
<path d="M94.2349 33.3899C93.8597 34.5154 93.8597 34.5154 94.1294 35.2394C94.6597 36.0963 95.2502 36.8138 95.9231 37.5637C96.1514 37.82 96.3797 38.0763 96.6148 38.3404C97.061 38.8266 97.5199 39.3012 97.9866 39.7678C98.358 39.5202 98.7294 39.2726 99.1121 39.0174C98.4403 38.2199 97.7681 37.4227 97.0955 36.6257C96.905 36.3994 96.7144 36.1731 96.5181 35.9399C96.3344 35.7223 96.1506 35.5046 95.9612 35.2804C95.7923 35.08 95.6233 34.8796 95.4492 34.6732C95.0625 34.229 94.6513 33.8063 94.2349 33.3899Z" fill="#15161A"/>
<path d="M31.2068 88.9149C29.9585 89.1229 28.8754 89.3088 27.8303 90.0404C26.7497 91.6998 26.5872 92.9585 26.7048 94.9175C27.0762 94.9175 27.4476 94.9175 27.8303 94.9175C27.8999 94.4765 27.9696 94.0354 28.0413 93.581C28.4572 91.8499 29.3575 90.9614 30.6587 89.7956C30.8396 89.6288 31.0204 89.4619 31.2068 89.29C31.2068 89.1662 31.2068 89.0424 31.2068 88.9149Z" fill="#080A0E"/>
<path d="M38.7099 70.1564C38.5861 70.1564 38.4623 70.1564 38.3347 70.1564C38.2979 70.493 38.2612 70.8296 38.2233 71.1764C37.7886 74.8037 37.0378 78.2621 36.0837 81.7866C37.4179 80.7654 37.7492 79.3177 38.2175 77.777C38.3019 77.5209 38.3862 77.2649 38.4732 77.001C39.1733 74.7475 39.4747 72.451 38.7099 70.1564Z" fill="#B3B3B3"/>
<path d="M54.536 5.82685C53.5389 6.04089 52.9849 6.47279 52.2161 7.12822C52.4608 7.11081 52.7055 7.0934 52.9577 7.07546C55.1931 6.98314 56.4537 7.11597 58.2188 8.62889C58.7324 9.11542 59.2381 9.61117 59.7195 10.1296C58.9446 7.10053 57.6376 5.78385 54.536 5.82685Z" fill="#121F2B"/>
<path d="M15.0746 101.671C15.1984 101.918 15.3222 102.166 15.4498 102.421C15.8212 102.421 16.1926 102.421 16.5753 102.421C16.5753 104.154 16.5753 105.887 16.5753 107.673C16.8229 107.797 17.0705 107.921 17.3256 108.048C17.3483 107.745 17.3711 107.442 17.3945 107.13C17.4259 106.729 17.4573 106.328 17.4897 105.915C17.5202 105.519 17.5507 105.122 17.5821 104.714C17.6874 103.677 17.8514 102.687 18.0759 101.671C16.9307 101.302 16.2198 101.302 15.0746 101.671Z" fill="#08090C"/>
<path d="M70.5991 81.7866C68.9954 81.9702 68.226 82.8962 67.1288 84.0142C66.7942 84.3503 66.4595 84.6864 66.1147 85.0327C65.3468 85.9135 65.3468 85.9135 65.3468 86.6638C66.9505 86.4802 67.7199 85.5543 68.8171 84.4362C69.1517 84.1001 69.4864 83.764 69.8312 83.4177C70.5991 82.537 70.5991 82.537 70.5991 81.7866Z" fill="#09080C"/>
<path d="M16.9502 21.3846C14.9547 21.1945 13.9996 21.6374 12.4482 22.8853C11.4397 23.7876 10.9862 24.3551 10.8566 25.7151C10.854 26.6528 10.8821 27.5776 10.9475 28.5128C11.1951 28.6366 11.4427 28.7604 11.6978 28.8879C11.7124 28.5209 11.7124 28.5209 11.7272 28.1464C11.8652 26.0196 12.0244 24.4732 13.5737 22.8853C14.6733 22.3867 15.7785 22.0452 16.9502 21.7597C16.9502 21.6359 16.9502 21.5121 16.9502 21.3846Z" fill="#0D83A0"/>
<path d="M50.198 1.41421C49.8834 1.41493 49.5688 1.41566 49.2447 1.41641C48.9175 1.421 48.5903 1.4256 48.2533 1.43033C47.7603 1.43069 47.7603 1.43069 47.2575 1.43106C44.818 1.44796 44.818 1.44796 43.9623 1.87584C43.9623 2.12345 43.9623 2.37106 43.9623 2.62618C46.9336 2.50237 49.9049 2.37857 52.9663 2.25101C51.794 1.46945 51.5299 1.40708 50.198 1.41421Z" fill="#0D83A0"/>
<path d="M12.073 21.3846C11.2015 22.3308 10.5354 23.3159 9.82203 24.3859C9.96272 25.2066 9.96272 25.2066 10.1972 25.8866C10.365 25.6873 10.5328 25.4881 10.7057 25.2828C11.9482 23.8311 13.1444 22.5154 14.6992 21.3846C13.6518 20.8609 13.1756 21.0171 12.073 21.3846Z" fill="#1C1D23"/>
<path d="M87.8569 57.0255C87.3617 57.1493 86.8665 57.2732 86.3562 57.4007C87.2229 59.0102 88.0895 60.6197 88.9824 62.2779C89.3538 62.1541 89.7252 62.0303 90.1079 61.9027C89.5778 60.0916 88.8212 58.6327 87.8569 57.0255Z" fill="#17161A"/>
<path d="M19.9515 32.6396C19.8277 33.011 19.7039 33.3824 19.5764 33.7651C21.9906 33.9508 21.9906 33.9508 24.4536 34.1403C24.4536 33.8927 24.4536 33.645 24.4536 33.3899C25.5678 33.3899 26.6821 33.3899 27.8301 33.3899C27.8301 33.2661 27.8301 33.1423 27.8301 33.0148C25.1981 32.7901 22.5939 32.5878 19.9515 32.6396Z" fill="#141D26"/>
<path d="M49.2148 27.3873C49.4546 27.542 49.6945 27.6968 49.9417 27.8562C50.7942 28.5796 50.9413 28.9308 51.0906 30.0134C51.462 30.0134 51.8334 30.0134 52.2161 30.0134C52.3399 30.7563 52.4637 31.4991 52.5913 32.2644C52.8389 32.2644 53.0865 32.2644 53.3416 32.2644C53.5305 30.2814 53.0674 29.3135 51.8409 27.7624C50.917 27.3005 50.2354 27.3604 49.2148 27.3873Z" fill="#111925"/>
<path d="M21.8274 20.2591C20.5925 20.2373 19.3576 20.224 18.1226 20.2122C17.771 20.2059 17.4194 20.1996 17.0572 20.1931C16.7211 20.1907 16.385 20.1883 16.0387 20.1858C15.7282 20.1819 15.4178 20.1779 15.098 20.1739C14.324 20.2591 14.324 20.2591 13.5737 21.0094C13.9489 21.3846 13.9489 21.3846 14.7147 21.3927C15.0428 21.375 15.3709 21.3574 15.7089 21.3391C16.2403 21.3119 16.2403 21.3119 16.7824 21.2842C17.155 21.2632 17.5277 21.2421 17.9116 21.2204C18.2857 21.2009 18.6597 21.1813 19.0451 21.1611C19.9727 21.1123 20.9001 21.0616 21.8274 21.0094C21.8274 20.7618 21.8274 20.5142 21.8274 20.2591Z" fill="#070709"/>
<path d="M100.613 44.2698C100.489 44.2698 100.365 44.2698 100.238 44.2698C100.035 46.494 100.609 48.2012 101.373 50.2857C101.741 51.4059 101.949 52.4832 102.113 53.649C102.237 53.649 102.361 53.649 102.489 53.649C102.678 50.3595 101.885 47.2956 100.613 44.2698Z" fill="#0D83A0"/>
<path d="M54.8422 14.2564C54.0993 14.6278 53.3565 14.9992 52.5912 15.3819C52.715 16.0009 52.8388 16.6199 52.9663 17.2577C53.3377 17.1339 53.7092 17.0101 54.0918 16.8826C54.2156 16.8826 54.3394 16.8826 54.467 16.8826C54.5908 17.3778 54.7146 17.873 54.8422 18.3832C55.0898 18.2594 55.3374 18.1356 55.5925 18.0081C55.6598 16.5272 55.6276 15.5327 54.8422 14.2564Z" fill="#090B11"/>
<path d="M45.4629 0.75033C45.4629 0.997941 45.4629 1.24555 45.4629 1.50067C47.9391 1.50067 50.4152 1.50067 52.9663 1.50067C52.8425 1.25306 52.7187 1.00544 52.5911 0.75033C50.2085 0.167899 47.8789 0.492474 45.4629 0.75033Z" fill="#030405"/>
<path d="M91.9838 66.7799C91.6124 66.9037 91.241 67.0275 90.8583 67.1551C90.9821 70.374 91.1059 73.593 91.2335 76.9094C91.3573 76.9094 91.4811 76.9094 91.6086 76.9094C91.6314 76.4394 91.6541 75.9693 91.6775 75.485C91.7092 74.8656 91.741 74.2461 91.7728 73.6267C91.7875 73.3172 91.8023 73.0077 91.8175 72.6888C91.8332 72.389 91.8489 72.0891 91.8651 71.7802C91.8789 71.5051 91.8926 71.2301 91.9068 70.9467C91.9636 70.1495 91.9636 70.1495 92.1891 69.3691C92.4138 68.4258 92.2162 67.7095 91.9838 66.7799Z" fill="#2B323A"/>
<path d="M37.2095 48.7719C36.2165 48.8144 35.2242 48.8619 34.2316 48.9125C33.8068 48.9299 33.8068 48.9299 33.3735 48.9477C32.6493 48.9867 31.9273 49.0641 31.2068 49.147C31.083 49.3946 30.9592 49.6422 30.8316 49.8974C31.7341 50.3486 32.3135 50.3103 33.3171 50.296C33.777 50.2909 33.777 50.2909 34.2462 50.2857C34.5988 50.2792 34.5988 50.2792 34.9585 50.2725C34.9585 50.0249 34.9585 49.7773 34.9585 49.5222C35.7013 49.7698 36.4441 50.0174 37.2095 50.2725C37.2095 49.7773 37.2095 49.2821 37.2095 48.7719Z" fill="#070A0E"/>
<path d="M83.7302 32.6396C83.4826 32.6396 83.235 32.6396 82.9799 32.6396C82.5491 34.8413 82.6898 36.7996 82.9799 39.0174C84.1103 37.3217 84.2086 36.1499 84.1054 34.1403C83.9178 33.2023 83.9178 33.2023 83.7302 32.6396Z" fill="#0E1720"/>
<path d="M51.0904 17.2577C50.8428 17.2577 50.5952 17.2577 50.3401 17.2577C49.7693 18.3994 49.8753 19.379 49.9649 20.6342C50.5221 21.0056 50.5221 21.0056 51.0904 21.3846C51.8408 20.6342 51.8408 20.6342 51.9346 19.3211C51.8408 18.0081 51.8408 18.0081 51.0904 17.2577Z" fill="#EEEEEE"/>
<path d="M18.6618 19.8136C18.1964 19.8212 18.1964 19.8212 17.7217 19.8289C16.9641 19.8421 16.2067 19.8623 15.4494 19.8839C15.4494 20.0077 15.4494 20.1315 15.4494 20.2591C17.5541 20.2591 19.6588 20.2591 21.8273 20.2591C21.8273 20.5067 21.8273 20.7543 21.8273 21.0094C21.5797 21.1332 21.332 21.257 21.0769 21.3846C22.315 21.5084 23.553 21.6322 24.8286 21.7597C24.8286 21.5121 24.8286 21.2645 24.8286 21.0094C22.6955 19.9185 21.0373 19.7389 18.6618 19.8136Z" fill="#1F1D23"/>
<path d="M81.479 49.5222C81.1075 49.646 80.7361 49.7698 80.3535 49.8974C80.9474 51.5009 82.0438 52.2479 83.3548 53.2739C83.85 53.0263 84.3452 52.7786 84.8555 52.5235C84.6465 52.3765 84.4376 52.2295 84.2224 52.078C83.2259 51.297 82.3611 50.4288 81.479 49.5222Z" fill="#131B23"/>
<path d="M12.0732 85.5383C11.237 85.518 10.4007 85.5035 9.56431 85.4914C8.86572 85.4784 8.86572 85.4784 8.15303 85.4651C6.89128 85.5345 6.07109 85.7418 4.94505 86.2887C5.06886 86.5363 5.19266 86.7839 5.32022 87.039C7.62433 86.8196 9.82478 86.461 12.0732 85.9135C12.0732 85.7897 12.0732 85.6659 12.0732 85.5383Z" fill="#0A0A0D"/>
<path d="M12.7794 86.189C12.0816 86.1919 12.0816 86.1919 11.3696 86.1949C10.9063 86.1929 10.443 86.191 9.96565 86.189C8.80087 86.2805 8.16739 86.4238 7.19586 87.039C9.77918 87.4201 12.1099 87.3536 14.6992 87.039C13.9489 86.2886 13.9489 86.2886 12.7794 86.189Z" fill="#0D83A0"/>
<path d="M29.3308 46.896C29.0832 46.896 28.8356 46.896 28.5805 46.896C28.7674 48.2794 28.9934 48.9988 30.0811 49.8973C30.4526 49.7735 30.824 49.6497 31.2066 49.5222C31.9165 49.439 32.6281 49.3698 33.3404 49.3111C33.7133 49.2797 34.0862 49.2483 34.4703 49.2159C34.8976 49.1818 34.8976 49.1818 35.3335 49.147C35.3335 49.0232 35.3335 48.8994 35.3335 48.7718C34.9945 48.7622 34.6555 48.7525 34.3062 48.7425C33.8637 48.7212 33.4212 48.7 32.9652 48.678C32.3058 48.6519 32.3058 48.6519 31.6331 48.6253C30.4209 48.5145 30.4209 48.5145 29.7836 47.6287C29.6342 47.3869 29.4848 47.1451 29.3308 46.896Z" fill="#32363C"/>
<path d="M43.9625 39.7678C43.5477 40.1189 43.1336 40.4708 42.7197 40.823C42.4891 41.0188 42.2584 41.2147 42.0207 41.4165C41.391 41.9707 40.7965 42.5442 40.2108 43.1443C40.3346 43.5158 40.4584 43.8872 40.586 44.2698C41.824 43.1556 43.0621 42.0413 44.3376 40.8933C44.2138 40.5219 44.09 40.1505 43.9625 39.7678Z" fill="#2A1C1D"/>
<path d="M97.6116 39.3926C97.6116 41.8421 98.6187 43.7387 99.8626 45.7705C99.9864 45.7705 100.11 45.7705 100.238 45.7705C100.529 43.5026 99.572 41.9765 98.3619 40.143C98.1143 39.8954 97.8667 39.6478 97.6116 39.3926Z" fill="#0D83A0"/>
<path d="M47.7141 0.375185C45.4372 0.280315 43.5265 0.488363 41.3363 1.12552C41.7077 1.31123 41.7077 1.31123 42.0866 1.50069C42.0866 1.7483 42.0866 1.99591 42.0866 2.25102C44.619 1.92275 44.619 1.92275 45.4631 1.50069C45.4631 1.25308 45.4631 1.00547 45.4631 0.750353C46.2059 0.750353 46.9488 0.750353 47.7141 0.750353C47.7141 0.626547 47.7141 0.502742 47.7141 0.375185Z" fill="#1D1A20"/>
<path d="M31.5819 99.4195C31.7057 99.9147 31.8295 100.41 31.9571 100.92C32.2047 100.92 32.4523 100.92 32.7074 100.92C32.7074 102.53 32.7074 104.139 32.7074 105.797C32.8312 105.797 32.955 105.797 33.0826 105.797C33.0826 103.816 33.0826 101.836 33.0826 99.7947C33.9492 99.7947 34.8158 99.7947 35.7087 99.7947C35.7087 99.6709 35.7087 99.5471 35.7087 99.4195C32.9218 98.9371 32.9218 98.9371 31.5819 99.4195Z" fill="#1C1419"/>
<path d="M31.2066 43.1443C29.7059 44.9264 29.7059 44.9264 29.7059 45.7705C29.0869 45.7705 28.4679 45.7705 27.8301 45.7705C28.3253 45.8943 28.8205 46.0181 29.3308 46.1457C29.4546 46.7647 29.5784 47.3837 29.7059 48.0215C29.8065 47.8048 29.9071 47.5882 30.0107 47.365C30.4268 46.4987 30.4268 46.4987 31.0894 45.7939C31.5818 45.0202 31.5818 45.0202 31.4645 43.9884C31.3794 43.7099 31.2943 43.4313 31.2066 43.1443Z" fill="#1C191B"/>
<path d="M20.3268 60.0269C21.7102 60.9492 22.8393 61.1571 24.4537 61.5276C24.4537 61.28 24.4537 61.0324 24.4537 60.7772C24.9489 60.6534 25.4441 60.5296 25.9543 60.4021C25.2999 60.1922 24.6428 59.9905 23.9847 59.7924C23.6191 59.6793 23.2535 59.5661 22.8768 59.4495C21.7087 59.257 21.2964 59.3852 20.3268 60.0269Z" fill="#141823"/>
<path d="M15.4495 85.9135C15.4495 86.1611 15.4495 86.4087 15.4495 86.6638C17.1516 87.2085 18.5186 87.5023 20.3267 87.4141C20.3267 87.1665 20.3267 86.9189 20.3267 86.6638C18.6371 86.0045 17.2591 85.8411 15.4495 85.9135Z" fill="#0D0B0F"/>
<path d="M74.7262 74.6584C73.4984 75.7021 72.8638 77.0143 72.1001 78.4101C72.5953 78.5339 73.0905 78.6577 73.6007 78.7853C74.2197 77.671 74.8388 76.5568 75.4766 75.4088C75.229 75.4088 74.9813 75.4088 74.7262 75.4088C74.7262 75.1611 74.7262 74.9135 74.7262 74.6584Z" fill="#11151D"/>
<path d="M102.489 45.7705C102.365 46.0181 102.241 46.2657 102.113 46.5208C101.866 46.5208 101.618 46.5208 101.363 46.5208C101.611 47.8827 101.858 49.2445 102.113 50.6477C102.361 50.4001 102.609 50.1524 102.864 49.8973C103.111 50.2687 103.359 50.6402 103.614 51.0228C103.346 49.2357 102.94 47.518 102.489 45.7705Z" fill="#1F1D22"/>
<path d="M4.94493 91.1658C4.57351 91.2896 4.2021 91.4134 3.81943 91.541C4.42115 91.9632 5.02301 92.3852 5.62492 92.8072C5.96007 93.0422 6.29521 93.2773 6.64051 93.5194C7.32075 93.9929 8.00701 94.4578 8.69661 94.9175C8.82041 94.5461 8.94422 94.1747 9.07178 93.792C8.52501 93.4241 7.97781 93.0569 7.43042 92.69C7.12574 92.4854 6.82106 92.2808 6.50715 92.07C5.69527 91.541 5.69527 91.541 4.94493 91.1658Z" fill="#0D83A0"/>
<path d="M70.2241 9.00406C69.4107 9.14035 69.4107 9.14035 68.7234 9.37923C69.2057 9.88169 69.6908 10.3814 70.1772 10.8799C70.4471 11.1585 70.7169 11.437 70.9949 11.724C71.7248 12.3806 71.7248 12.3806 72.4751 12.3806C72.2978 10.7853 71.4349 9.98957 70.2241 9.00406Z" fill="#09090D"/>
<path d="M49.9648 0.375177C49.9648 0.498983 49.9648 0.622788 49.9648 0.750345C50.8315 0.874151 51.6981 0.997956 52.591 1.12551C52.3434 1.37312 52.0958 1.62074 51.8407 1.87585C53.5121 2.06156 53.5121 2.06156 55.2172 2.25102C55.2172 2.00341 55.2172 1.7558 55.2172 1.50068C55.4648 1.37688 55.7124 1.25307 55.9675 1.12551C53.8776 0.528388 52.1367 0.297612 49.9648 0.375177Z" fill="#2A262D"/>
<path d="M82.6046 28.5128C82.7284 29.1318 82.8522 29.7508 82.9798 30.3886C83.8464 30.6362 84.7131 30.8838 85.606 31.1389C85.5356 30.4589 85.5356 30.4589 85.2308 29.6383C83.6631 28.5128 83.6631 28.5128 82.6046 28.5128Z" fill="#0D83A0"/>
<path d="M102.864 53.2739C102.492 53.4596 102.492 53.4596 102.113 53.649C101.876 54.5064 101.876 54.5064 101.691 55.5483C101.628 55.8931 101.566 56.238 101.501 56.5932C101.455 56.8597 101.41 57.1262 101.363 57.4007C101.611 57.4007 101.858 57.4007 102.113 57.4007C102.237 57.7721 102.361 58.1435 102.489 58.5262C102.882 57.3447 102.902 56.5048 102.887 55.2669C102.884 54.8941 102.88 54.5212 102.877 54.137C102.873 53.8522 102.868 53.5673 102.864 53.2739Z" fill="#0D83A0"/>
<path d="M46.9636 97.1685C46.1899 97.1583 45.4161 97.151 44.6423 97.145C44.2114 97.1407 43.7805 97.1363 43.3365 97.1318C42.2391 97.164 41.2749 97.2891 40.2106 97.5436C40.2106 97.6674 40.2106 97.7913 40.2106 97.9188C40.613 97.9111 41.0153 97.9033 41.4299 97.8954C42.7439 97.851 42.7439 97.851 43.5871 98.1533C44.7999 98.3807 45.8138 97.9196 46.9636 97.5436C46.9636 97.4198 46.9636 97.296 46.9636 97.1685Z" fill="#1F1D26"/>
<path d="M81.104 51.0229C80.7325 51.1467 80.3611 51.2705 79.9785 51.398C80.3112 51.6611 80.6439 51.9242 80.9867 52.1953C82.1934 53.1955 83.1345 54.2971 84.1053 55.5249C84.2291 55.1535 84.3529 54.782 84.4805 54.3994C83.3662 53.2851 82.252 52.1709 81.104 51.0229Z" fill="#0D83A0"/>
<path d="M83.73 46.5208C82.939 47.7072 82.8528 48.2115 82.7452 49.5925C82.7171 49.9305 82.6891 50.2686 82.6602 50.6169C82.6418 50.8747 82.6234 51.1324 82.6045 51.398C82.9759 51.398 83.3473 51.398 83.73 51.398C83.73 49.7885 83.73 48.1791 83.73 46.5208Z" fill="#06070C"/>
<path d="M38.335 39.0175C38.0874 39.0175 37.8397 39.0175 37.5846 39.0175C37.4608 40.3793 37.337 41.7412 37.2095 43.1443C37.5809 43.1443 37.9523 43.1443 38.335 43.1443C38.335 41.7825 38.335 40.4206 38.335 39.0175Z" fill="#D02B38"/>
<path d="M85.9811 29.2631C85.9811 29.5107 85.9811 29.7583 85.9811 30.0134C87.9666 31.1678 87.9666 31.1678 89.3107 31.0217C89.5738 30.9366 89.8369 30.8515 90.1079 30.7638C87.6534 28.7614 87.6534 28.7614 85.9811 29.2631Z" fill="#17181B"/>
<path d="M13.5737 47.6463C11.4165 48.3028 11.4165 48.3028 10.5724 49.147C10.6962 49.3946 10.82 49.6422 10.9475 49.8973C12.1856 49.5259 13.4236 49.1545 14.6992 48.7718C14.3278 48.4004 13.9564 48.029 13.5737 47.6463Z" fill="#1A1B24"/>
<path d="M87.1068 31.8893C88.1874 32.7297 89.301 33.4506 90.4833 34.1403C90.7309 33.8927 90.9785 33.6451 91.2336 33.3899C89.9765 32.0071 88.9696 31.224 87.1068 31.8893Z" fill="#0D83A0"/>
<path d="M25.2039 20.2591C24.8325 20.5067 24.4611 20.7543 24.0784 21.0094C24.326 21.0094 24.5736 21.0094 24.8287 21.0094C24.7049 21.3808 24.5811 21.7523 24.4536 22.1349C26.1158 22.9199 26.1158 22.9199 27.197 22.7446C27.4059 22.6672 27.6148 22.5898 27.8301 22.5101C27.7063 22.2625 27.5825 22.0149 27.4549 21.7598C26.4935 21.5253 26.4935 21.5253 25.5791 21.3846C25.4553 21.0132 25.3315 20.6418 25.2039 20.2591Z" fill="#0A0B10"/>
<path d="M72.8502 11.6302C72.6026 12.0016 72.355 12.3731 72.0999 12.7557C72.7189 13.4986 73.338 14.2414 73.9757 15.0067C74.2233 14.5115 74.471 14.0163 74.7261 13.5061C74.107 12.887 73.488 12.268 72.8502 11.6302Z" fill="#15171D"/>
<path d="M10.5723 24.7611C9.66087 26.1283 9.76129 26.9042 9.82199 28.5128C10.1934 28.6366 10.5648 28.7604 10.9475 28.888C10.9576 28.2705 10.9649 27.653 10.9709 27.0356C10.9753 26.6917 10.9796 26.3479 10.9841 25.9936C10.9475 25.1363 10.9475 25.1363 10.5723 24.7611Z" fill="#090B0E"/>
<path d="M9.07158 94.9175C8.82397 95.4127 8.57636 95.908 8.32124 96.4182C8.80508 96.9343 9.30677 97.434 9.82191 97.9189C10.4472 97.9189 11.0725 97.9189 11.6978 97.9189C10.8311 96.9284 9.96448 95.938 9.07158 94.9175Z" fill="#1C2025"/>
<path d="M86.2156 53.6021C86.0144 53.7414 85.8133 53.8807 85.606 54.0242C85.7298 54.2718 85.8536 54.5194 85.9812 54.7745C87.0598 55.0794 87.0598 55.0794 88.2322 55.1497C88.9356 54.6104 88.9356 54.6104 89.3577 54.0242C87.326 53.1931 87.326 53.1931 86.2156 53.6021Z" fill="#14151D"/>
<path d="M16.9502 46.896C14.5029 47.1269 14.5029 47.1269 13.5971 47.8574C13.4656 48.0353 13.334 48.2133 13.1985 48.3967C15.684 48.4905 15.684 48.4905 16.9502 47.6463C16.9502 47.3987 16.9502 47.1511 16.9502 46.896Z" fill="#0B0D11"/>
<path d="M30.4564 107.673C29.3285 108.801 29.4825 109.858 29.3308 111.425C29.7023 111.549 30.0737 111.673 30.4564 111.8C30.8315 111.425 30.8315 111.425 30.8784 110.51C30.8315 109.549 30.8315 109.549 30.4564 108.799C30.4564 108.427 30.4564 108.056 30.4564 107.673Z" fill="#2C86C3"/>
<path d="M31.2067 98.294C30.3401 98.294 29.4734 98.294 28.5805 98.294C28.7043 98.6654 28.8281 99.0368 28.9557 99.4195C29.9461 99.5433 30.9366 99.6671 31.957 99.7947C31.7094 99.6709 31.4618 99.5471 31.2067 99.4195C31.2067 99.0481 31.2067 98.6767 31.2067 98.294Z" fill="#0D1622"/>
<path d="M91.6086 76.9095C91.4847 76.9095 91.3609 76.9095 91.2334 76.9095C91.1502 77.5184 91.0732 78.1283 90.9989 78.7384C90.9554 79.0779 90.9119 79.4174 90.867 79.7672C90.8641 80.0622 90.8612 80.3572 90.8582 80.6611C91.1058 80.9087 91.3534 81.1564 91.6086 81.4115C92.3589 80.286 92.3589 80.286 92.3589 78.7853C92.1113 78.7853 91.8637 78.7853 91.6086 78.7853C91.6086 78.1663 91.6086 77.5472 91.6086 76.9095Z" fill="#1B1A20"/>
<path d="M25.884 60.7538C25.176 60.7654 25.176 60.7654 24.4537 60.7772C24.4537 61.0249 24.4537 61.2725 24.4537 61.5276C25.0001 61.6108 25.5474 61.6878 26.0951 61.7621C26.3998 61.8056 26.7044 61.8491 27.0183 61.894C27.2863 61.8969 27.5542 61.8998 27.8302 61.9027C28.0778 61.6551 28.3255 61.4075 28.5806 61.1524C27.5486 60.8084 26.945 60.7364 25.884 60.7538Z" fill="#09090E"/>
<path d="M80.3536 75.0336C80.8387 76.1158 81.3514 76.8615 82.2295 77.6598C82.6009 77.536 82.9723 77.4122 83.355 77.2846C81.6198 75.0336 81.6198 75.0336 80.3536 75.0336Z" fill="#0F0C0E"/>
<path d="M94.2348 33.3899C93.8597 34.5154 93.8597 34.5154 94.2114 35.3361C94.4087 35.6727 94.4087 35.6727 94.61 36.0161C95.7355 36.0161 95.7355 36.0161 96.4858 35.6409C95.743 34.8981 95.0002 34.1553 94.2348 33.3899Z" fill="#262328"/>
<path d="M56.3429 6.00273C54.5025 5.89655 53.6247 5.94085 52.2161 7.12823C52.4738 7.12388 52.7316 7.11953 52.9972 7.11504C53.3352 7.11166 53.6733 7.10827 54.0216 7.10478C54.3567 7.10043 54.6919 7.09608 55.0372 7.09159C56.0181 7.08693 56.0181 7.08693 57.0933 7.5034C56.8457 7.00818 56.598 6.51296 56.3429 6.00273Z" fill="#0A0B0F"/>
<path d="M58.9692 91.1658C57.1872 91.4941 57.1872 91.4941 56.3431 91.9162C56.1086 92.69 56.1086 92.69 55.9679 93.4168C58.0919 92.8627 58.0919 92.8627 58.7348 91.8693C58.8121 91.6371 58.8895 91.405 58.9692 91.1658Z" fill="#0D0E12"/>
<path d="M16.5752 57.0255C15.8248 57.4007 15.8248 57.4007 15.4497 58.151C16.7496 58.7082 16.7496 58.7082 18.0758 59.2766C18.0758 59.0289 18.0758 58.7813 18.0758 58.5262C18.3234 58.4024 18.5711 58.2786 18.8262 58.151C18.0891 57.7505 17.3373 57.3761 16.5752 57.0255Z" fill="#13161F"/>
<path d="M81.104 25.5114C80.7165 26.5575 80.7119 26.9625 81.0805 28.0438C81.2121 28.3224 81.3436 28.601 81.4791 28.888C81.7268 28.888 81.9744 28.888 82.2295 28.888C82.2295 28.6403 82.2295 28.3927 82.2295 28.1376C82.6009 28.2614 82.9723 28.3852 83.355 28.5128C83.2312 28.1414 83.1074 27.77 82.9798 27.3873C82.4846 27.3873 81.9894 27.3873 81.4791 27.3873C81.3553 26.7683 81.2315 26.1492 81.104 25.5114Z" fill="#050609"/>
<path d="M16.9502 21.3846C14.9635 21.1954 13.9987 21.6519 12.4482 22.8853C12.0768 23.4424 12.0768 23.4424 11.6978 24.0108C12.0693 24.0108 12.4407 24.0108 12.8233 24.0108C13.04 23.7786 13.2567 23.5465 13.4799 23.3073C14.5517 22.295 15.532 22.087 16.9502 21.7598C16.9502 21.636 16.9502 21.5121 16.9502 21.3846Z" fill="#0D83A0"/>
<path d="M81.8543 73.9081C81.4829 74.0319 81.1115 74.1557 80.7288 74.2832C81.3478 75.0261 81.9669 75.7689 82.6046 76.5343C82.8523 76.4105 83.0999 76.2866 83.355 76.1591C82.9229 75.2332 82.5867 74.6405 81.8543 73.9081Z" fill="#2977AC"/>
<path d="M36.0838 49.8974C35.1693 50.0381 35.1693 50.0381 34.208 50.2725C34.0842 50.5201 33.9604 50.7678 33.8328 51.0229C34.328 51.0229 34.8233 51.0229 35.3335 51.0229C35.3335 51.2705 35.3335 51.5181 35.3335 51.7732C35.5811 51.7732 35.8287 51.7732 36.0838 51.7732C36.2076 52.0208 36.3314 52.2684 36.459 52.5235C36.3352 51.6569 36.2114 50.7903 36.0838 49.8974Z" fill="#2978AE"/>
<path d="M10.1972 97.1685C10.0734 97.5399 9.94962 97.9114 9.82207 98.294C10.9363 99.2226 10.9363 99.2226 12.0731 100.17C12.1969 99.7984 12.3207 99.427 12.4482 99.0444C11.7054 98.4253 10.9626 97.8063 10.1972 97.1685Z" fill="#110D11"/>
<path d="M6.44545 93.4168C6.59478 94.4995 6.74187 94.8507 7.5944 95.5741C7.83427 95.7288 8.07415 95.8836 8.32129 96.043C8.32129 94.5423 8.32129 94.5423 7.80543 93.8858C7.19579 93.4168 7.19579 93.4168 6.44545 93.4168Z" fill="#0D0B0E"/>
<path d="M56.343 92.2914C54.1858 92.9479 54.1858 92.9479 53.3417 93.792C54.4203 94.0265 54.4203 94.0265 55.5927 94.1672C55.8403 93.9196 56.0879 93.672 56.343 93.4169C56.343 93.0454 56.343 92.674 56.343 92.2914Z" fill="#1A1923"/>
<path d="M102.864 57.4007C102.779 57.6174 102.694 57.834 102.606 58.0572C101.99 59.1139 101.215 59.682 100.238 60.402C102.395 60.4489 102.395 60.4489 103.239 60.0269C103.115 59.1602 102.991 58.2936 102.864 57.4007Z" fill="#1C1F27"/>
<path d="M72.8503 55.5249C72.4789 55.5249 72.1075 55.5249 71.7248 55.5249C71.7248 56.3915 71.7248 57.2581 71.7248 58.151C72.0962 58.151 72.4676 58.151 72.8503 58.151C73.2008 57.0217 73.2422 56.7005 72.8503 55.5249Z" fill="#142637"/>
<path d="M10.9475 49.147C10.2441 49.2408 10.2441 49.2408 9.44684 49.5222C8.97788 50.296 8.97788 50.296 8.6965 51.0229C9.06792 51.3943 9.43933 51.7657 9.82201 52.1484C9.86843 51.9085 9.91486 51.6686 9.96269 51.4215C10.0788 51.0385 10.0788 51.0385 10.1972 50.6477C10.4448 50.5239 10.6924 50.4001 10.9475 50.2725C10.9475 49.9011 10.9475 49.5297 10.9475 49.147Z" fill="#0D121A"/>
<path d="M73.9757 45.0201C73.9757 45.3916 73.9757 45.763 73.9757 46.1456C74.8433 46.5677 74.8433 46.5677 75.8515 46.896C76.223 46.6484 76.5944 46.4008 76.9771 46.1456C75.2419 45.0201 75.2419 45.0201 73.9757 45.0201Z" fill="#141D27"/>
<path d="M27.4551 92.2914C27.2075 92.2914 26.9599 92.2914 26.7048 92.2914C26.7048 93.158 26.7048 94.0246 26.7048 94.9175C27.0762 94.9175 27.4476 94.9175 27.8303 94.9175C27.8463 94.1674 27.8456 93.4167 27.8303 92.6665C27.7065 92.5427 27.5827 92.4189 27.4551 92.2914Z" fill="#0D121A"/>
<path d="M100.613 44.2698C100.489 44.2698 100.365 44.2698 100.238 44.2698C100.099 46.7171 100.099 46.7171 100.8 47.6229C100.986 47.7544 101.172 47.886 101.363 48.0215C101.738 47.2712 101.738 47.2712 101.529 46.5413C101.42 46.2715 101.311 46.0016 101.199 45.7236C101.091 45.4518 100.983 45.18 100.872 44.9C100.787 44.692 100.701 44.4841 100.613 44.2698Z" fill="#0D83A0"/>
<path d="M42.3914 32.5927C41.6834 32.616 41.6834 32.616 40.961 32.6396C41.3325 32.7634 41.7039 32.8872 42.0865 33.0148C42.0865 33.2624 42.0865 33.51 42.0865 33.7651C43.077 33.6413 44.0674 33.5175 45.0879 33.39C43.929 32.6174 43.6963 32.55 42.3914 32.5927Z" fill="#230D15"/>
<path d="M53.7166 15.0067C53.3452 15.1305 52.9738 15.2543 52.5911 15.3819C52.7149 16.0009 52.8387 16.6199 52.9663 17.2577C53.3377 17.1339 53.7091 17.0101 54.0918 16.8826C53.968 16.2635 53.8442 15.6445 53.7166 15.0067Z" fill="#E3E3E3"/>
<path d="M2.69385 88.1645C2.07482 88.7835 1.45579 89.4025 0.818007 90.0403C0.941813 90.2879 1.06562 90.5356 1.19318 90.7907C1.6884 90.5431 2.18362 90.2954 2.69385 90.0403C2.69385 89.4213 2.69385 88.8023 2.69385 88.1645Z" fill="#171318"/>
<path d="M47.3387 33.3899C46.672 34.39 46.2599 35.2763 45.8381 36.3913C46.2095 36.5151 46.5809 36.6389 46.9636 36.7664C47.7608 34.2341 47.7608 34.2341 47.3387 33.3899Z" fill="#271415"/>
<path d="M76.977 70.1564C76.2266 70.9067 76.2266 70.9067 76.2266 72.4074C76.7218 72.2836 77.2171 72.1598 77.7273 72.0322C77.7273 71.537 77.7273 71.0418 77.7273 70.5316C77.4797 70.4078 77.2321 70.284 76.977 70.1564Z" fill="#09070B"/>
<path d="M11.3226 22.8853C10.5488 23.5418 10.5488 23.5418 9.82191 24.3859C9.91571 25.2301 9.91571 25.2301 10.1971 25.8866C10.9709 25.019 10.9709 25.019 11.6978 24.0108C11.5739 23.6393 11.4501 23.2679 11.3226 22.8853Z" fill="#191317"/>
<path d="M25.5791 89.6652C26.9859 90.7907 26.9859 90.7907 27.8301 90.7907C27.8301 90.5431 27.8301 90.2954 27.8301 90.0403C28.2015 89.9165 28.5729 89.7927 28.9556 89.6652C27.708 89.2493 26.8464 89.3483 25.5791 89.6652Z" fill="#1F1F25"/>
<path d="M84.8555 54.7745C84.621 55.4545 84.621 55.4545 84.4804 56.2752C84.8518 56.8323 84.8518 56.8323 85.2307 57.4007C85.6021 57.4007 85.9735 57.4007 86.3562 57.4007C85.9046 56.4652 85.4354 55.6444 84.8555 54.7745Z" fill="#0D83A0"/>
<path d="M88.912 54.7511C88.6876 54.8826 88.4632 55.0142 88.232 55.1497C89.2252 55.6977 89.6931 55.9001 90.8582 55.9001C90.8582 55.5286 90.8582 55.1572 90.8582 54.7746C89.7327 54.3994 89.7327 54.3994 88.912 54.7511Z" fill="#0A0A0F"/>
<path d="M37.9595 19.8839C37.5881 20.0077 37.2167 20.1315 36.834 20.259C37.4531 20.8781 38.0721 21.4971 38.7099 22.1349C38.9575 22.0111 39.2051 21.8873 39.4602 21.7597C38.965 21.1407 38.4698 20.5217 37.9595 19.8839Z" fill="#172736"/>
<path d="M68.7234 7.50339C68.352 7.62719 67.9805 7.751 67.5979 7.87856C67.8455 8.37378 68.0931 8.869 68.3482 9.37923C68.8434 9.13162 69.3386 8.88401 69.8489 8.62889C69.4775 8.25748 69.106 7.88606 68.7234 7.50339Z" fill="#161A21"/>
</svg>
