<svg width="78" height="77" viewBox="0 0 78 77" fill="none" xmlns="http://www.w3.org/2000/svg">
<path d="M37.5208 48C38.4522 48 39.3837 48 40.3434 48C41.0545 49.5308 40.983 51.149 41.0657 52.8325C41.0859 53.2177 41.1061 53.6029 41.1269 53.9998C41.1694 54.82 41.2109 55.6403 41.2514 56.4607C41.3124 57.6889 41.3776 58.9167 41.4433 60.1446C41.547 62.1283 41.6339 64.1122 41.7092 66.0974C41.7393 66.8547 41.7733 67.6119 41.8114 68.3688C41.8626 69.4157 41.8981 70.462 41.9294 71.5098C41.9527 72.1053 41.976 72.7008 42 73.3144C41.7548 74.8389 41.7548 74.8389 40.6468 76.0459C39.2766 76.9473 38.6229 77.1847 37.0503 76.8645C36.008 75.1816 35.993 74.6667 36.001 72.7085C36.0015 72.176 36.0021 71.6435 36.0026 71.0949C36.0087 70.5235 36.0149 69.9522 36.0212 69.3635C36.0249 68.7785 36.0286 68.1934 36.0325 67.5906C36.0675 63.7175 36.1464 59.8462 36.2858 55.9757C36.3003 55.5215 36.3147 55.0673 36.3296 54.5993C36.4316 52.227 36.6874 50.2316 37.5208 48Z" fill="#FFC802"/>
<path d="M68.7309 34.1638C69.8912 34.1182 71.051 34.0857 72.212 34.0583C72.8466 34.0391 73.4813 34.0198 74.1352 34C75.7109 34.2191 75.7109 34.2191 76.9638 35.1738C77.8038 36.2773 77.8038 36.2773 78 37.6281C77.8038 38.8501 77.8038 38.8501 76.7574 39.8793C75.7498 40.0043 75.7498 40.0043 74.501 39.9979C74.0307 39.9973 73.5604 39.9967 73.0759 39.9961C72.5642 39.9894 72.0525 39.9827 71.5253 39.9757C70.9991 39.9717 70.4729 39.9676 69.9307 39.9634C65.6979 39.9181 61.4659 39.8179 57.235 39.6863C56.6425 39.6705 56.05 39.6547 55.4396 39.6384C54.8902 39.6184 54.3409 39.5984 53.7749 39.5778C53.2871 39.5616 52.7992 39.5454 52.2966 39.5288C51.12 39.3647 51.12 39.3647 50.0736 38.3356C49.9755 37.017 49.9755 37.017 50.0736 35.7628C52.7417 33.1388 62.2094 34.3793 65.7275 34.2703C66.7288 34.2385 67.7299 34.2036 68.7309 34.1638Z" fill="#FFC802"/>
<path d="M39.9429 0.112216C40.8855 1.18213 40.8855 1.18213 41 2.32754C40.9971 3.03701 40.9971 3.03701 40.9941 3.7608C40.9936 4.2955 40.9931 4.83019 40.9926 5.38109C40.9864 5.9594 40.9803 6.53772 40.9739 7.13355C40.9698 7.72497 40.9658 8.31638 40.9616 8.92572C40.9441 10.8028 40.9165 12.6793 40.8855 14.5561C40.8764 15.1709 40.8673 15.7857 40.8579 16.4191C40.8276 18.1836 40.7855 19.9471 40.7382 21.7112C40.7277 22.2574 40.7172 22.8037 40.7063 23.3665C40.6895 23.8726 40.6727 24.3786 40.6554 24.9C40.643 25.3444 40.6307 25.7888 40.618 26.2466C40.37 27.6439 39.999 28.1552 39.0002 29C37.9928 28.8655 37.3698 28.7543 36.6436 27.9301C35.915 23.0417 36.069 17.9478 36.0591 13.0045C36.0544 11.6018 36.0397 10.1995 36.025 8.79694C36.0219 7.90256 36.0194 7.00817 36.0176 6.11379C36.0118 5.69587 36.006 5.27795 36 4.84737C36.0104 1.98639 36.0104 1.98639 36.8135 0.65031C37.9104 -0.113451 38.6825 -0.0711835 39.9429 0.112216Z" fill="#FFC802"/>
<path d="M3.10475 34C3.76379 34.0212 4.42284 34.0424 5.10185 34.0642C5.4583 34.0751 5.81475 34.0859 6.18201 34.097C7.34368 34.1333 8.50516 34.1736 9.66667 34.2145C10.4566 34.241 11.2465 34.2674 12.0364 34.2938C14.2899 34.3706 16.5431 34.4544 18.7963 34.5394C19.3541 34.5596 19.9119 34.5798 20.4866 34.6006C21.7809 34.6495 23.0744 34.7056 24.3681 34.7669C25.0479 34.7984 25.7277 34.8299 26.4281 34.8623C27.9259 35.0593 27.9259 35.0593 29 36.099C28.8657 37.4312 28.8657 37.4312 28.463 38.6984C26.9169 39.4467 25.5342 39.3332 23.8079 39.3828C23.2667 39.399 23.2667 39.399 22.7146 39.4155C21.9458 39.438 21.1769 39.4594 20.4081 39.4796C19.2613 39.51 18.1147 39.544 16.9681 39.5787C15.089 39.6344 13.21 39.6732 11.3305 39.7091C10.1918 39.7385 9.05563 39.7895 7.91789 39.8435C7.1939 39.8676 6.46989 39.8914 5.74588 39.9148C4.78398 39.957 4.78398 39.957 3.80266 40C2.14815 39.7382 2.14815 39.7382 0.849216 38.4274C0.428854 37.7896 0.428854 37.7896 0 37.1388C1.23737 34.0244 1.23737 34.0244 3.10475 34Z" fill="#FFC802"/>
<path d="M16.186 10.0759C17.4432 10.571 18.0329 11.1563 18.9531 12.2048C19.2619 12.5557 19.5707 12.9067 19.8889 13.2682C21.145 14.7574 22.3835 16.2589 23.5897 17.7962C24.1279 18.4758 24.6798 19.1429 25.2488 19.7922C25.9741 20.642 25.9741 20.642 27 22.2109C26.9038 23.8146 26.9038 23.8146 26.4871 25C24.2757 24.5676 23.1998 23.3988 21.582 21.7794C20.6356 20.8393 19.6814 19.9414 18.6967 19.0513C18.1301 18.5242 17.5637 17.9969 16.9975 17.4693C16.7202 17.2249 16.4428 16.9805 16.157 16.7287C14.5816 15.2288 14.1898 14.5649 14 12.2571C14.0582 11.6761 14.1164 11.0951 14.1763 10.4965C15.2022 9.93867 15.2022 9.93867 16.186 10.0759Z" fill="#06B6D4"/>
<path d="M62.1044 10C63.4072 10.3096 63.4072 10.3096 63.9035 10.86C64.0865 12.5347 64.0904 13.3308 63.1746 14.7084C62.8419 15.0504 62.5092 15.3924 62.1665 15.7447C61.805 16.1207 61.4436 16.4968 61.0712 16.8842C60.5079 17.444 60.5079 17.444 59.9332 18.0151C59.4083 18.5408 59.4083 18.5408 58.8728 19.0772C58.2085 19.731 57.5386 20.3778 56.8624 21.0164C56.1009 21.7372 55.3622 22.4875 54.6291 23.2438C53.4814 24.0694 53.4814 24.0694 52.0856 23.9318C51.7274 23.7956 51.3691 23.6593 51 23.519C51.2342 21.1472 52.6153 19.791 54.0398 18.1527C54.5399 17.5685 55.0394 16.9837 55.5383 16.3983C55.7818 16.1131 56.0253 15.8279 56.2762 15.534C57.1857 14.4344 58.0108 13.2662 58.8476 12.0984C60.0313 10.5704 60.2274 10.347 62.1044 10Z" fill="#06B6D4"/>
<path d="M25.09 48.0746C25.3903 48.1982 25.6906 48.3219 26 48.4492C25.6915 50.2841 25.1161 51.2407 23.92 52.6044C23.5969 52.9775 23.2738 53.3505 22.9409 53.7348C22.5776 54.1485 22.2143 54.5623 21.84 54.9886C20.9945 55.9758 20.1495 56.9635 19.305 57.9517C17.24 60.3542 17.24 60.3542 16.64 60.983C15.6002 61.0052 14.5598 61.0061 13.52 60.983C13.132 59.7696 13.132 59.7696 13 58.2582C13.8267 57.0534 13.8267 57.0534 15.0475 55.8741C15.693 55.2419 15.693 55.2419 16.3516 54.5969C16.7899 54.1867 17.2283 53.7764 17.68 53.3537C18.2571 52.8058 18.2571 52.8058 18.8459 52.2468C23.5557 47.8513 23.5557 47.8513 25.09 48.0746Z" fill="#06B6D4"/>
<path d="M52.5 49C54.5864 49.2715 55.4944 49.8318 56.9062 51.4888C58.5806 53.3899 60.3202 55.1287 62.168 56.8321C62.8008 57.4237 63.4073 58.0482 64 58.6861C63.8125 60.3677 63.8125 60.3677 63.5 61.9148C61.9901 62.0723 61.2471 62.1109 60.0039 61.1245C59.6932 60.7638 59.3826 60.403 59.0625 60.0314C58.7215 59.6402 58.3806 59.2489 58.0293 58.8459C57.5198 58.2341 57.5198 58.2341 57 57.6099C56.5137 57.0314 56.5137 57.0314 56.0176 56.4412C53.0889 52.8961 53.0889 52.8961 52 51.1525C52.1562 49.9417 52.1562 49.9417 52.5 49Z" fill="#06B6D4"/>
</svg>
