<svg width="44" height="43" viewBox="0 0 44 43" fill="none" xmlns="http://www.w3.org/2000/svg">
<path d="M22.9746 2.59251C25.9389 4.60423 28.1886 7.61025 29.2228 11.0559C29.2947 12.4164 29.2762 13.7652 29.2228 15.126C29.7684 15.105 30.3141 15.0841 30.8763 15.0624C31.6064 15.0455 32.3366 15.029 33.0668 15.013C33.4247 14.9978 33.7826 14.9827 34.1514 14.967C36.6936 14.9254 38.9943 15.2308 40.9808 16.935C42.7489 19.4116 43.0596 21.272 43.03 24.2714C43.0326 24.8573 43.0326 24.8573 43.0352 25.455C43.0365 26.2763 43.0332 27.0976 43.0256 27.9189C43.0159 29.1716 43.0255 30.4231 43.0371 31.6758C43.0359 32.4769 43.0335 33.278 43.03 34.0791C43.0336 34.4509 43.0373 34.8226 43.0411 35.2056C43.0021 37.6114 42.6187 39.0274 40.9808 40.9032C38.7148 42.9039 36.8258 42.9793 33.943 42.9524C33.5316 42.9541 33.1203 42.9559 32.6966 42.9577C31.83 42.9589 30.9633 42.9556 30.0968 42.948C28.7746 42.9383 27.4535 42.9479 26.1314 42.9595C25.287 42.9583 24.4426 42.956 23.5982 42.9524C23.0087 42.9579 23.0087 42.9579 22.4074 42.9635C19.9374 42.9256 18.5241 42.5392 16.5603 40.9032C14.7497 38.8573 15.0476 36.561 15.1188 33.9784C15.1249 33.5573 15.1311 33.1361 15.1374 32.7021C15.1533 31.667 15.1756 30.6323 15.2036 29.5974C15.8006 29.5974 16.3975 29.5974 17.0125 29.5974C17.0125 26.165 17.0125 22.7326 17.0125 19.1961C18.2064 19.1961 19.4003 19.1961 20.6304 19.1961C20.8542 16.9576 20.8542 16.9576 21.0826 14.6738C19.7395 14.6738 18.3964 14.6738 17.0125 14.6738C16.8489 11.3468 16.8489 11.3468 17.5213 10.1515C18.7262 9.50887 19.7417 9.60986 21.0826 9.69925C21.0826 8.50536 21.0826 7.31147 21.0826 6.0814C17.4855 6.12732 17.4855 6.12732 14.2144 7.40983C12.8255 8.99027 12.8304 10.1687 12.6881 12.2431C12.6502 12.7805 12.6123 13.318 12.5732 13.8718C12.5322 14.4926 12.5322 14.4926 12.4902 15.126C11.2963 15.126 10.1024 15.126 8.87237 15.126C8.87237 16.4692 8.87237 17.8123 8.87237 19.1961C10.0663 19.1961 11.2602 19.1961 12.4902 19.1961C12.4902 22.4793 12.4902 25.7625 12.4902 29.1452C8.12653 28.5998 5.51594 27.1814 2.79551 23.7184C-0.0193501 19.8196 -0.372623 15.7089 0.279971 11.0559C1.5619 6.71486 4.25726 3.65761 8.12336 1.3895C13.1791 -0.974201 18.3036 -0.156598 22.9746 2.59251Z" fill="#E95271"/>
<path d="M22.9746 2.59251C26.0195 4.6589 28.0238 7.59336 29.2228 11.0559C29.3941 12.1353 29.3941 12.1353 29.4772 13.1758C29.595 14.6587 29.595 14.6587 30.1273 16.0305C28.5375 21.2742 26.349 25.2438 21.6638 28.2814C20.6304 28.693 20.6304 28.693 17.0125 29.1452C17.0125 25.862 17.0125 22.5788 17.0125 19.1961C18.2064 19.1961 19.4003 19.1961 20.6304 19.1961C20.8542 16.9576 20.8542 16.9576 21.0826 14.6738C19.7395 14.6738 18.3964 14.6738 17.0125 14.6738C16.8489 11.3468 16.8489 11.3468 17.5213 10.1515C18.7262 9.50887 19.7417 9.60986 21.0826 9.69925C21.0826 8.50536 21.0826 7.31147 21.0826 6.0814C17.4855 6.12732 17.4855 6.12732 14.2144 7.40983C12.8255 8.99027 12.8304 10.1687 12.6881 12.2431C12.6502 12.7805 12.6123 13.318 12.5733 13.8718C12.5322 14.4926 12.5322 14.4926 12.4902 15.126C11.2963 15.126 10.1024 15.126 8.87237 15.126C8.87237 16.4692 8.87237 17.8123 8.87237 19.1961C10.0663 19.1961 11.2602 19.1961 12.4902 19.1961C12.4902 22.4793 12.4902 25.7625 12.4902 29.1452C8.12653 28.5998 5.51594 27.1814 2.79551 23.7184C-0.0193501 19.8196 -0.372623 15.7089 0.279971 11.0559C1.5619 6.71486 4.25726 3.65761 8.12336 1.3895C13.1791 -0.974201 18.3036 -0.156598 22.9746 2.59251Z" fill="#1D79F3"/>
<path d="M29.6751 15.126C38.4177 14.7683 38.4177 14.7683 40.9809 16.9349C42.7342 19.4248 43.0598 21.2661 43.0301 24.2713C43.0318 24.6619 43.0336 25.0525 43.0353 25.4549C43.0366 26.2763 43.0333 27.0976 43.0257 27.9189C43.016 29.1716 43.0256 30.4231 43.0372 31.6757C43.036 32.4769 43.0336 33.278 43.0301 34.0791C43.0338 34.4508 43.0374 34.8226 43.0412 35.2056C43.0021 37.6185 42.5652 38.9812 40.9809 40.9032C38.8437 42.884 37.064 42.8794 34.2858 42.7757C33.9582 42.7547 33.6305 42.7337 33.293 42.7121C33.293 40.3248 33.293 40.3248 33.7452 39.0943C34.6261 38.4998 35.4423 38.1788 36.4551 37.863C37.8941 36.9475 38.327 35.7119 38.7198 34.1197C38.9178 32.2974 38.9299 30.4963 38.9176 28.6647C38.9267 28.184 38.9357 27.7034 38.945 27.2082C38.9433 24.4826 38.8605 22.6357 36.9108 20.5528C35.2392 19.2526 33.8877 19.0002 31.795 18.8852C31.0701 18.8406 31.0701 18.8406 30.3305 18.7951C29.965 18.7782 29.5995 18.7613 29.2229 18.7438C29.3721 17.55 29.5214 16.3561 29.6751 15.126Z" fill="#C9459B"/>
<path d="M18.8216 29.1452C18.8385 29.5055 18.8554 29.8657 18.8729 30.2369C19.0518 33.9696 19.0518 33.9696 20.6306 37.2854C22.2798 38.4727 23.4674 38.8195 25.4867 38.8735C25.9691 38.8895 26.4515 38.9055 26.9485 38.9221C27.4473 38.9323 27.946 38.9425 28.4598 38.953C29.221 38.9761 29.221 38.9761 29.9976 38.9998C31.2468 39.037 32.4958 39.0683 33.7453 39.0943C33.7644 40.1493 33.7638 41.2049 33.7453 42.2599C32.5435 43.4617 29.1437 42.8361 27.4183 42.8456C26.4365 42.8534 25.4553 42.8732 24.4736 42.8932C23.8456 42.8978 23.2176 42.9017 22.5896 42.9047C22.0194 42.9113 21.4492 42.9179 20.8616 42.9247C18.6079 42.623 17.2088 41.6358 15.7178 39.9511C14.9399 37.9703 15.0609 36.0841 15.119 33.9784C15.1251 33.5572 15.1312 33.1361 15.1375 32.7021C15.1535 31.6669 15.1757 30.6323 15.2038 29.5974C16.5118 29.2237 17.414 29.1452 18.8216 29.1452Z" fill="#FFBA53"/>
<path d="M28.7706 18.7439C34.0333 18.4628 34.0333 18.4628 36.2606 19.4788C38.3803 21.5441 39.2686 22.8179 39.3962 25.7941C39.3968 26.751 39.3877 27.708 39.3697 28.6647C39.3729 29.1436 39.3762 29.6225 39.3795 30.1159C39.3573 32.8465 39.1507 34.886 37.8152 37.2854C35.299 39.7204 31.8423 39.1925 28.5727 39.2074C28.0606 39.2167 27.5485 39.226 27.0208 39.2356C26.2789 39.2391 26.2789 39.2391 25.5219 39.2427C24.8465 39.249 24.8465 39.249 24.1574 39.2555C22.2761 39.0159 21.077 38.248 19.839 36.8331C18.7354 35.0674 18.7731 33.5818 18.7932 31.5477C18.7973 31.0143 18.8014 30.4809 18.8056 29.9313C18.8108 29.5227 18.8161 29.114 18.8215 28.693C19.4184 28.693 20.0154 28.693 20.6304 28.693C20.6421 29.129 20.6537 29.5651 20.6657 30.0143C20.6914 30.5856 20.717 31.1569 20.7435 31.7455C20.7644 32.3122 20.7854 32.8788 20.807 33.4626C21.1279 35.2805 21.4585 35.7168 22.8916 36.8331C24.1688 37.1099 24.1688 37.1099 25.5767 37.0734C26.0932 37.0757 26.6097 37.0781 27.1418 37.0805C27.6793 37.0735 28.2168 37.0665 28.7706 37.0593C29.308 37.0663 29.8455 37.0733 30.3993 37.0805C31.1741 37.077 31.1741 37.077 31.9644 37.0734C32.4361 37.0714 32.9077 37.0693 33.3936 37.0672C34.9607 36.7752 35.4853 36.2638 36.4585 35.0242C37.1463 32.9608 36.9941 30.9107 36.9955 28.7495C37.0038 28.0753 37.0038 28.0753 37.0123 27.3875C37.0132 26.952 37.0141 26.5166 37.015 26.0679C37.0168 25.6716 37.0187 25.2752 37.0206 24.8669C36.9435 23.4929 36.9435 23.4929 36.0063 21.4573C33.6185 21.1588 31.2307 20.8603 28.7706 20.5528C28.7706 19.9559 28.7706 19.3589 28.7706 18.7439Z" fill="#FBF2F7"/>
<path d="M30.1271 23.7184C32.0809 24.7528 33.3194 25.7403 34.1972 27.7885C34.4655 29.5895 34.276 30.3556 33.4058 31.9716C31.8903 33.8239 31.2065 34.0489 28.827 34.3176C26.6598 34.273 25.7307 33.3773 24.2481 31.8586C23.5255 30.4133 23.6296 28.9086 23.7959 27.3363C24.9902 24.5077 27.0805 23.2832 30.1271 23.7184Z" fill="#FDF2F4"/>
<path d="M24.2482 26.4318C24.2272 26.732 24.2062 27.0323 24.1846 27.3416C24.1082 29.2114 24.0818 30.591 24.87 32.3108C26.6121 33.6381 28.4402 33.8462 30.5795 34.1198C30.4302 35.1644 30.281 36.2091 30.1272 37.2854C28.9676 37.3467 27.8112 37.3914 26.6507 37.4267C26.3245 37.4457 25.9984 37.4646 25.6623 37.4841C23.8553 37.5254 23.0785 37.4139 21.5454 36.3597C20.392 34.6763 20.3134 33.6337 20.3195 31.6042C20.3084 31.016 20.2973 30.4278 20.2859 29.8218C20.6304 28.2408 20.6304 28.2408 21.95 27.1261C23.3438 26.4318 23.3438 26.4318 24.2482 26.4318Z" fill="#FF7346"/>
<path d="M28.9967 25.2447C30.6971 25.6698 31.3697 26.3803 32.3884 27.7885C32.4185 29.5305 32.3307 30.5012 31.1731 31.8303C29.7944 32.4637 28.9156 32.5298 27.4139 32.3108C26.0318 31.3651 25.6662 30.8216 25.3506 29.1735C25.7439 27.0322 26.8612 25.7786 28.9967 25.2447Z" fill="#F05262"/>
<path d="M18.8215 29.1452C18.9711 30.4549 19.0998 31.7613 19.2172 33.074C19.2837 33.6279 19.2837 33.6279 19.3515 34.1931C19.5711 36.906 19.5711 36.906 18.6718 38.0531C17.9206 38.6792 17.9206 38.6792 16.5603 39.5465C16.1126 39.2481 15.6649 38.9496 15.2036 38.6421C15.0496 37.7091 15.0496 37.7091 15.0712 36.5752C15.0755 36.1701 15.0799 35.7649 15.0844 35.3475C15.0958 34.9237 15.1071 34.4999 15.1189 34.0632C15.125 33.6359 15.1311 33.2086 15.1374 32.7684C15.1534 31.7111 15.1758 30.6544 15.2036 29.5974C16.5117 29.2237 17.4139 29.1452 18.8215 29.1452Z" fill="#F8584B"/>
<path d="M28.3184 19.6483C28.4677 19.9468 28.6169 20.2453 28.7707 20.5528C29.1035 20.5423 29.4364 20.5318 29.7794 20.521C30.2207 20.5128 30.662 20.5047 31.1166 20.4962C31.5521 20.4858 31.9876 20.4753 32.4362 20.4645C33.8032 20.5567 34.7708 20.8835 36.0064 21.4572C35.7079 22.5019 35.4094 23.5466 35.1019 24.6229C34.505 24.6229 33.908 24.6229 33.293 24.6229C33.1438 25.0706 32.9945 25.5183 32.8408 25.9796C32.4677 25.6811 32.0946 25.3826 31.7102 25.0751C29.9714 23.8937 28.5642 24.0289 26.5095 24.1706C27.1125 22.6632 27.7155 21.1558 28.3184 19.6483Z" fill="#B550BD"/>
<path d="M24.2483 26.4318C24.2326 26.8822 24.2326 26.8822 24.2165 27.3416C24.1415 30.3792 24.1415 30.3792 25.1528 33.2153C23.6604 32.9168 22.168 32.6184 20.6305 32.3108C20.393 29.6201 20.393 29.6201 20.6305 28.2407C22.66 26.4318 22.66 26.4318 24.2483 26.4318Z" fill="#F55851"/>
<path d="M31.7665 39.066C32.3209 39.0722 32.3209 39.0722 32.8865 39.0784C33.3115 39.0863 33.3115 39.0863 33.7451 39.0943C33.7642 40.1493 33.7636 41.2049 33.7451 42.2599C33.2928 42.7122 33.2928 42.7122 32.2594 42.7563C31.6377 42.7485 31.6377 42.7485 31.0034 42.7404C30.5878 42.7363 30.1721 42.7323 29.7439 42.7281C29.4227 42.7228 29.1014 42.7176 28.7705 42.7122C28.7705 41.6675 28.7705 40.6228 28.7705 39.5465C29.8583 39.0026 30.5568 39.0488 31.7665 39.066Z" fill="#FF804A"/>
<path d="M18.8215 33.6675C19.3792 36.0177 19.3792 36.0177 19.2737 37.2854C18.4734 38.3221 17.677 38.8173 16.5603 39.5465C16.1126 39.248 15.6649 38.9496 15.2036 38.6421C15.0189 37.4156 15.1433 36.2707 15.2036 35.0242C17.804 33.6675 17.804 33.6675 18.8215 33.6675Z" fill="#FF8B4B"/>
<path d="M33.7451 22.3617C34.6778 22.5596 34.6778 22.5596 35.554 22.814C35.4047 23.4109 35.2555 24.0078 35.1018 24.6229C34.5048 24.6229 33.9079 24.6229 33.2928 24.6229C33.1436 25.0706 32.9944 25.5183 32.8406 25.9796C32.4489 25.6904 32.0571 25.4013 31.6535 25.1034C30.1454 24.1817 29.1502 23.8838 27.4138 23.7184C27.4138 23.5692 27.4138 23.4199 27.4138 23.2662C27.833 23.2388 28.2521 23.2114 28.684 23.1832C29.4963 23.1263 29.4963 23.1263 30.3251 23.0683C31.1357 23.0132 31.1357 23.0132 31.9626 22.957C33.2411 22.9602 33.2411 22.9602 33.7451 22.3617Z" fill="#D2499A"/>
<path d="M21.9871 39.5465C23.1177 40.1118 23.1177 40.1118 24.2482 40.9032C24.2482 41.5002 24.2482 42.0971 24.2482 42.7122C22.6066 42.7122 20.965 42.7122 19.2737 42.7122C20.1254 41.0087 20.4908 40.5441 21.9871 39.5465Z" fill="#FFCC52"/>
<path d="M33.7452 21.005C34.5029 21.1344 35.2574 21.2844 36.0064 21.4573C35.1019 22.814 35.1019 22.814 34.0932 23.1231C32.7121 23.2809 31.376 23.3097 29.9861 23.2945C29.5028 23.2904 29.0195 23.2863 28.5216 23.2821C28.1561 23.2768 27.7906 23.2716 27.414 23.2662C27.414 23.5647 27.414 23.8631 27.414 24.1707C27.1155 24.1707 26.817 24.1707 26.5095 24.1707C26.877 23.2945 26.877 23.2945 27.414 22.3617C29.051 21.8161 30.5946 21.7235 32.3073 21.5845C33.2816 21.5608 33.2816 21.5608 33.7452 21.005Z" fill="#C13EB0"/>
<path d="M18.8214 34.572C20.1781 36.607 20.1781 36.607 20.1781 38.1898C19.3817 39.2225 18.4595 40.0641 17.4647 40.9032C17.017 40.754 16.5693 40.6047 16.108 40.451C15.9588 40.0033 15.8095 39.5556 15.6558 39.0943C15.9356 39.0476 16.2154 39.001 16.5037 38.953C17.6299 38.6985 17.6299 38.6985 18.3692 37.2853C18.6676 37.2853 18.9661 37.2853 19.2736 37.2853C19.1244 36.3899 18.9751 35.4945 18.8214 34.572Z" fill="#FFA155"/>
<path d="M21.5348 34.572C22.9581 34.6957 23.9479 34.794 25.0961 35.6743C25.6048 36.3809 25.6048 36.3809 25.6048 37.2853C24.3612 37.4267 24.3612 37.4267 22.8914 37.2853C21.8174 36.1548 21.8174 36.1548 21.0825 35.0242C21.2318 34.875 21.381 34.7257 21.5348 34.572Z" fill="#FF914E"/>
<path d="M18.8215 33.6675C18.6676 35.1035 18.3581 35.4867 17.2669 36.494C16.1081 37.2854 16.1081 37.2854 15.2036 37.2854C15.2036 36.5392 15.2036 35.793 15.2036 35.0242C17.8039 33.6675 17.8039 33.6675 18.8215 33.6675Z" fill="#FF7143"/>
<path d="M28.5727 39.066C29.1184 39.08 29.1184 39.08 29.675 39.0943C29.2273 39.3182 29.2273 39.3182 28.7706 39.5465C28.7706 40.5912 28.7706 41.6358 28.7706 42.7122C28.1736 42.7122 27.5767 42.7122 26.9616 42.7122C26.9425 41.6571 26.9431 40.6016 26.9616 39.5465C27.4139 39.0943 27.4139 39.0943 28.5727 39.066Z" fill="#FFA64F"/>
<path d="M23.3157 33.4414C25.0166 34.2744 25.5902 35.2064 26.5096 36.8331C26.0619 37.057 26.0619 37.057 25.6052 37.2854C25.288 36.9123 24.9709 36.5392 24.6442 36.1548C23.4407 34.8866 23.4407 34.8866 21.846 34.8829C21.4449 34.9295 21.0438 34.9761 20.6306 35.0242C20.6306 34.7257 20.6306 34.4273 20.6306 34.1197C21.9873 33.2153 21.9873 33.2153 23.3157 33.4414Z" fill="#FF814A"/>
<path d="M33.7452 39.0943C33.7452 40.139 33.7452 41.1836 33.7452 42.2599C33.1483 42.4092 32.5513 42.5584 31.9363 42.7122C31.9363 41.6675 31.9363 40.6228 31.9363 39.5465C32.8407 39.0943 32.8407 39.0943 33.7452 39.0943Z" fill="#FF6A42"/>
<path d="M28.7705 39.5465C29.3675 39.5465 29.9644 39.5465 30.5794 39.5465C30.5794 40.5912 30.5794 41.6358 30.5794 42.7122C29.9825 42.7122 29.3855 42.7122 28.7705 42.7122C28.7705 41.6675 28.7705 40.6229 28.7705 39.5465Z" fill="#FF9248"/>
<path d="M21.9871 40.9032C22.584 41.2017 23.181 41.5002 23.796 41.8077C23.796 42.1062 23.796 42.4046 23.796 42.7122C22.3036 42.7122 20.8113 42.7122 19.2737 42.7122C20.1781 42.1092 21.0826 41.5062 21.9871 40.9032Z" fill="#FFDA5D"/>
<path d="M33.745 22.3617C34.6404 22.5856 34.6404 22.5856 35.5539 22.814C35.4046 23.4109 35.2554 24.0078 35.1017 24.6229C34.5047 24.6229 33.9078 24.6229 33.2927 24.6229C33.442 23.8767 33.5912 23.1305 33.745 22.3617Z" fill="#FAEEF7"/>
<path d="M31.4841 22.3617C29.9306 23.3974 29.2295 23.3469 27.414 23.2662C27.414 23.5647 27.414 23.8631 27.414 24.1707C27.1155 24.1707 26.817 24.1707 26.5095 24.1707C27.7023 21.5296 28.7484 21.9058 31.4841 22.3617Z" fill="#BB3AA2"/>
</svg>
