<svg width="45" height="41" viewBox="0 0 45 41" fill="none" xmlns="http://www.w3.org/2000/svg">
<path d="M3.60276 0.00154879C3.94564 0.00355772 4.28851 0.00556665 4.64178 0.00763646C5.00332 0.00589739 5.36487 0.00415831 5.73737 0.00236654C6.93551 -0.00201057 8.1335 0.000894243 9.33164 0.00424433C10.1623 0.00357614 10.9929 0.00261325 11.8235 0.00136707C13.5655 -9.76481e-05 15.3075 0.00203596 17.0495 0.00666728C19.2856 0.0123215 21.5216 0.0090667 23.7577 0.00312182C25.4732 -0.000459537 27.1887 0.000674809 28.9042 0.00324865C29.7288 0.00391203 30.5535 0.00309357 31.3781 0.000787833C32.5294 -0.00172458 33.6805 0.00209868 34.8318 0.00763646C35.1746 0.00562753 35.5175 0.0036186 35.8708 0.00154879C38.2316 0.022652 38.2316 0.022652 39.3375 1.12849C39.3375 1.78351 39.3375 2.43852 39.3375 3.11338C39.9618 3.08267 40.5861 3.05197 41.2293 3.02034C42.4617 2.95973 43.0795 2.95574 44.1029 3.66411C45.1244 5.04665 44.9851 6.1391 44.9885 7.84492C44.9912 8.17186 44.9938 8.4988 44.9964 8.83565C45.003 9.91601 44.9987 10.996 44.9936 12.0764C44.9946 12.8272 44.9961 13.578 44.9979 14.3289C45.0001 15.9023 44.997 17.4757 44.99 19.0491C44.9815 21.0666 44.9864 23.0838 44.9953 25.1013C45.0007 26.6517 44.999 28.202 44.9951 29.7524C44.9941 30.4963 44.9953 31.2402 44.9988 31.9841C45.0026 33.0236 44.9968 34.0627 44.9885 35.1022C44.9874 35.6938 44.9862 36.2855 44.985 36.895C44.7959 38.3451 44.7959 38.3451 44.2911 39.2805C42.7045 40.1726 41.0541 40.0358 39.2821 40.0185C38.6671 40.0212 38.6671 40.0212 38.0396 40.024C36.6831 40.028 35.3267 40.0212 33.9702 40.014C33.029 40.0137 32.0879 40.014 31.1467 40.0147C29.174 40.0147 27.2014 40.0095 25.2288 40.0005C22.6962 39.9893 20.1638 39.989 17.6312 39.9924C15.6879 39.994 13.7447 39.9907 11.8014 39.9858C10.8674 39.9839 9.93331 39.9834 8.99926 39.9841C7.6959 39.9843 6.39274 39.9781 5.08942 39.97C4.50667 39.9718 4.50667 39.9718 3.91216 39.9737C1.242 39.9472 1.242 39.9472 0.136053 38.8413C0.0377259 37.6363 0.000667698 36.4879 0.00763643 35.2824C0.00589736 34.9161 0.00415828 34.5497 0.00236651 34.1722C-0.00201082 32.9579 0.000894288 31.7438 0.00424429 30.5296C0.00357611 29.6878 0.00261323 28.8461 0.00136704 28.0044C-9.77067e-05 26.239 0.00203602 24.4737 0.00666725 22.7083C0.0123215 20.4421 0.00906668 18.1761 0.00312179 15.91C-0.000459494 14.1715 0.000674735 12.433 0.00324861 10.6945C0.00391201 9.85878 0.00309346 9.02306 0.0007878 8.18734C-0.00172448 7.0206 0.00209848 5.85405 0.00763643 4.68733C0.0056275 4.33981 0.00361857 3.9923 0.00154876 3.63425C0.027641 0.67632 0.637252 0.0280568 3.60276 0.00154879Z" fill="#D1D1D1"/>
<path d="M15.0229 13.0378C22.228 13.0378 29.4331 13.0378 36.8566 13.0378C36.8566 17.2954 36.8566 21.5529 36.8566 25.9395C33.8269 25.9509 30.7972 25.9608 27.7675 25.9668C26.736 25.9693 25.7044 25.9727 24.6729 25.977C23.1937 25.9829 21.7144 25.9858 20.2352 25.988C19.5389 25.9918 19.5389 25.9918 18.8286 25.9957C18.1878 25.9958 18.1878 25.9958 17.5342 25.9959C17.1562 25.997 16.7783 25.9981 16.3888 25.9992C15.5191 25.9395 15.5191 25.9395 15.0229 25.4433C14.9795 24.5235 14.9698 23.602 14.9744 22.6811C14.9757 22.1786 14.9769 21.6761 14.9782 21.1584C14.9827 20.5153 14.9872 19.8722 14.9919 19.2095C15.0021 17.1729 15.0124 15.1362 15.0229 13.0378Z" fill="#FEFEFE"/>
<path d="M6.72071 3.04918C7.37472 3.04762 8.02874 3.04606 8.70257 3.04444C9.41944 3.04533 10.1363 3.04635 10.8532 3.04749C11.5848 3.04715 12.3165 3.04667 13.0482 3.04605C14.582 3.04532 16.1158 3.04638 17.6497 3.0487C19.6199 3.05153 21.5901 3.0499 23.5603 3.04693C25.0711 3.04514 26.5818 3.0457 28.0925 3.04699C28.8193 3.04732 29.546 3.04691 30.2727 3.04576C31.2862 3.04451 32.2996 3.04675 33.3131 3.04918C33.8908 3.04958 34.4685 3.04997 35.0638 3.05038C36.3601 3.11339 36.3601 3.11339 36.8563 3.60961C36.9054 4.68384 36.9207 5.75971 36.9183 6.83505C36.9203 7.71778 36.9203 7.71778 36.9222 8.61834C36.8563 10.0605 36.8563 10.0605 36.3601 10.5567C35.3276 10.606 34.2934 10.6202 33.2597 10.6209C32.9361 10.6218 32.6126 10.6227 32.2792 10.6235C31.2049 10.6257 30.1306 10.6243 29.0563 10.6226C28.3128 10.6229 27.5693 10.6234 26.8258 10.624C25.2657 10.6248 23.7055 10.6237 22.1453 10.6214C20.1412 10.6186 18.137 10.6202 16.1329 10.6232C14.597 10.625 13.0612 10.6244 11.5253 10.6231C10.7861 10.6228 10.0469 10.6232 9.30776 10.6243C8.27639 10.6256 7.24507 10.6237 6.21371 10.6209C5.33167 10.6203 5.33167 10.6203 4.43181 10.6197C3.1133 10.5567 3.1133 10.5567 2.61707 10.0605C2.58105 8.97555 2.57552 7.88952 2.58606 6.80403C2.59054 6.20979 2.59502 5.61555 2.59963 5.0033C2.60539 4.54338 2.61114 4.08347 2.61707 3.60961C4.00968 2.91331 5.16302 3.05025 6.72071 3.04918Z" fill="#B4B4B4"/>
<path d="M5.09839 12.9719C5.49754 12.9712 5.89669 12.9706 6.30793 12.9699C6.72755 12.9719 7.14716 12.9738 7.5795 12.9758C8.20892 12.9729 8.20892 12.9729 8.85106 12.9699C9.25021 12.9706 9.64936 12.9712 10.0606 12.9719C10.429 12.9724 10.7975 12.973 11.1771 12.9736C12.0455 13.0378 12.0455 13.0378 12.5417 13.534C12.5878 14.25 12.6 14.9682 12.598 15.6857C12.598 16.1427 12.598 16.5996 12.5979 17.0704C12.5954 17.5672 12.5928 18.0639 12.5902 18.5757C12.5895 19.0816 12.5888 19.5876 12.588 20.1089C12.5852 21.732 12.579 23.355 12.5727 24.9781C12.5702 26.0755 12.568 27.173 12.5659 28.2704C12.5604 30.967 12.5519 33.6636 12.5417 36.3602C9.26665 36.3602 5.99159 36.3602 2.61729 36.3602C2.60506 33.1185 2.59604 29.8768 2.59003 26.635C2.58753 25.5313 2.58414 24.4276 2.57986 23.3238C2.57386 21.7411 2.57103 20.1584 2.56883 18.5757C2.56627 18.079 2.56371 17.5822 2.56107 17.0704C2.56103 16.6135 2.56099 16.1565 2.56096 15.6857C2.55985 15.2813 2.55875 14.8769 2.55762 14.4603C2.66992 12.7171 3.58165 12.9742 5.09839 12.9719Z" fill="#B4B4B4"/>
<path d="M39.8339 3.60958C42.8384 3.51267 42.8384 3.51267 43.8037 3.60958C45.1891 4.99502 44.9249 5.84774 44.9324 7.78857C44.9349 8.11544 44.9375 8.44231 44.9401 8.77908C44.947 9.86207 44.9465 10.9449 44.9454 12.0279C44.9473 12.7794 44.9494 13.531 44.9518 14.2825C44.9555 15.8589 44.9554 17.4353 44.9527 19.0117C44.9499 21.0331 44.9583 23.0542 44.9698 25.0756C44.9771 26.6281 44.9775 28.1805 44.976 29.7331C44.9762 30.4783 44.9788 31.2236 44.9838 31.9689C44.9899 33.0109 44.9866 34.0523 44.9809 35.0943C44.9812 35.6874 44.9815 36.2806 44.9818 36.8917C44.7961 38.345 44.7961 38.345 44.1371 39.3003C43.3074 39.8337 43.3074 39.8337 41.7568 39.7096C40.3301 39.3375 40.3301 39.3375 39.8339 38.8413C39.7871 37.7453 39.7756 36.6478 39.7776 35.5508C39.7775 35.2071 39.7774 34.8634 39.7773 34.5092C39.7777 33.3681 39.7816 32.227 39.7854 31.0859C39.7864 30.2967 39.7871 29.5075 39.7876 28.7183C39.7895 26.6372 39.7943 24.5562 39.7998 22.4751C39.8049 20.3531 39.8072 18.2311 39.8097 16.1091C39.815 11.9426 39.8235 7.77609 39.8339 3.60958Z" fill="#A0A0A0"/>
<path d="M15.0227 28.4206C18.2978 28.4206 21.5728 28.4206 24.9471 28.4206C24.9471 31.0407 24.9471 33.6607 24.9471 36.3602C21.6721 36.3602 18.397 36.3602 15.0227 36.3602C15.0227 33.7401 15.0227 31.1201 15.0227 28.4206Z" fill="#B4B4B4"/>
<path d="M27.4282 28.4206C30.5395 28.4206 33.6508 28.4206 36.8564 28.4206C36.8564 31.0407 36.8564 33.6607 36.8564 36.3602C33.7451 36.3602 30.6338 36.3602 27.4282 36.3602C27.4282 33.7401 27.4282 31.1201 27.4282 28.4206Z" fill="#B4B4B4"/>
</svg>
