<svg data-v-423bf9ae="" xmlns="http://www.w3.org/2000/svg" viewBox="0 0 608.5714285714286 60" class="font"><!----><!----><defs data-v-423bf9ae=""><linearGradient data-v-423bf9ae="" gradientTransform="rotate(25)" id="6b95d3c3-b3c0-43bb-af02-cea33bd0f9b9" x1="0%" y1="0%" x2="100%" y2="0%"><stop data-v-423bf9ae="" offset="0%" style="stop-color: rgb(81, 6, 255); stop-opacity: 1;"></stop><stop data-v-423bf9ae="" offset="100%" style="stop-color: rgb(97, 203, 242); stop-opacity: 1;"></stop></linearGradient></defs><g data-v-423bf9ae="" id="3ac128ce-c260-4628-9da2-5b8e0bcc3d1f" fill="url(#6b95d3c3-b3c0-43bb-af02-cea33bd0f9b9)" transform="matrix(4.8979591836734695,0,0,4.8979591836734695,0.000006539481034906203,0)"><path d="M8.75 12.25L0 12.25L0 0L8.75 0L8.75 1.75L10.50 1.75L10.50 3.50L12.25 3.50L12.25 8.75L10.50 8.75L10.50 10.50L8.75 10.50L8.75 12.25ZM3.50 1.75L3.50 10.50L7 10.50L7 8.75L8.75 8.75L8.75 3.50L7 3.50L7 1.75L3.50 1.75ZM26.25 12.25L15.75 12.25L15.75 10.50L14 10.50L14 3.50L17.50 3.50L17.50 10.50L22.75 10.50L22.75 3.50L26.25 3.50L26.25 12.25ZM38.50 12.25L29.75 12.25L29.75 10.50L28 10.50L28 5.25L29.75 5.25L29.75 3.50L38.50 3.50L38.50 5.25L40.25 5.25L40.25 10.50L38.50 10.50L38.50 12.25ZM31.50 5.25L31.50 10.50L36.75 10.50L36.75 5.25L31.50 5.25ZM54.25 12.25L43.75 12.25L43.75 0L47.25 0L47.25 10.50L54.25 10.50L54.25 12.25ZM64.75 1.75L61.25 1.75L61.25 0L64.75 0L64.75 1.75ZM68.25 12.25L57.75 12.25L57.75 10.50L61.25 10.50L61.25 5.25L59.50 5.25L59.50 3.50L64.75 3.50L64.75 10.50L68.25 10.50L68.25 12.25ZM80.50 12.25L71.75 12.25L71.75 10.50L70 10.50L70 0L73.50 0L73.50 3.50L80.50 3.50L80.50 5.25L82.25 5.25L82.25 10.50L80.50 10.50L80.50 12.25ZM73.50 5.25L73.50 10.50L78.75 10.50L78.75 5.25L73.50 5.25ZM89.25 3.50L89.25 5.25L91 5.25L91 7L89.25 7L89.25 12.25L85.75 12.25L85.75 3.50L89.25 3.50ZM91 3.50L96.25 3.50L96.25 5.25L91 5.25L91 3.50ZM110.25 12.25L99.75 12.25L99.75 10.50L98 10.50L98 8.75L99.75 8.75L99.75 7L106.75 7L106.75 5.25L99.75 5.25L99.75 3.50L108.50 3.50L108.50 5.25L110.25 5.25L110.25 12.25ZM101.50 8.75L101.50 10.50L106.75 10.50L106.75 8.75L101.50 8.75ZM122.50 12.25L112 12.25L112 10.50L120.75 10.50L120.75 8.75L113.75 8.75L113.75 7L112 7L112 5.25L113.75 5.25L113.75 3.50L122.50 3.50L122.50 5.25L115.50 5.25L115.50 7L122.50 7L122.50 8.75L124.25 8.75L124.25 10.50L122.50 10.50L122.50 12.25Z"></path></g><!----><!----></svg>